<?xml version="1.0" encoding="UTF-8"?>
<svg  viewBox="0 0 20 20" version="1.1" xmlns="http://www.w3.org/2000/svg" xmlns:xlink="http://www.w3.org/1999/xlink">
    <!-- Generator: Sketch 61.2 (89653) - https://sketch.com -->
    <title>Dark / 20 / switch@svg</title>
    <desc>Created with Sketch.</desc>
    <g id="Dark-/-20-/-switch" stroke="none" stroke-width="1" fill="none" fill-rule="evenodd">
        <path d="M6,14.184 L6,13.5 C6,12.652 6.512,11.905 7.287,11.453 C6.62,11.171 6.008,10.786 5.465,10.322 C4.561,11.136 4,12.26 4,13.5 L4,14.184 C2.839,14.599 2,15.698 2,17 C2,18.654 3.346,20 5,20 C6.654,20 8,18.654 8,17 C8,15.698 7.161,14.599 6,14.184 Z M5,0 C6.654,0 8,1.346 8,3 C8,4.272 7.2,5.355 6.08,5.791 C6.448,7.619 8.064,9 10,9 C13.024,9 15.525,11.251 15.935,14.164 C17.13,14.56 18,15.674 18,17 C18,18.654 16.654,20 15,20 C13.346,20 12,18.654 12,17 C12,15.728 12.8,14.645 13.92,14.209 C13.552,12.381 11.936,11 10,11 C6.976,11 4.475,8.749 4.065,5.836 C2.87,5.44 2,4.326 2,3 C2,1.346 3.346,0 5,0 Z M5,16 C5.552,16 6,16.449 6,17 C6,17.551 5.552,18 5,18 C4.448,18 4,17.551 4,17 C4,16.449 4.448,16 5,16 Z M15,16 C14.448,16 14,16.449 14,17 C14,17.551 14.448,18 15,18 C15.552,18 16,17.551 16,17 C16,16.449 15.552,16 15,16 Z M15,0 C16.654,0 18,1.346 18,3 C18,4.302 17.161,5.401 16,5.816 L16,5.816 L16,6.167 C16,7.524 15.414,8.748 14.478,9.626 C13.934,9.172 13.32,8.8 12.655,8.526 C13.465,8.018 14,7.151 14,6.166 L14,6.166 L14,5.815 C12.839,5.401 12,4.302 12,3 C12,1.346 13.346,0 15,0 Z M15,2 C14.448,2 14,2.449 14,3 C14,3.551 14.448,4 15,4 C15.552,4 16,3.551 16,3 C16,2.449 15.552,2 15,2 Z" id="Shape" fill="#3F3F3F"></path>
    </g>
</svg>