<?xml version="1.0" encoding="UTF-8"?>
<svg width="115px" height="4px" viewBox="0 0 115 4" version="1.1" xmlns="http://www.w3.org/2000/svg" xmlns:xlink="http://www.w3.org/1999/xlink">
    <!-- Generator: sketchtool 61.2 (101010) - https://sketch.com -->
    <title>678B7C23-14BC-4AAB-804B-2042119A8C12</title>
    <desc>Created with sketchtool.</desc>
    <g id="Login---v2" stroke="none" stroke-width="1" fill="none" fill-rule="evenodd">
        <g id="Mockup---login-v4j" transform="translate(-1093.000000, -456.000000)">
            <g id="Group-2" transform="translate(773.000000, 230.000000)">
                <g id="Img" transform="translate(123.000000, 173.000000)">
                    <g id="Group-4" transform="translate(197.000000, 25.000000)">
                        <g id="Line-3" transform="translate(0.000000, 28.000000)">
                            <rect id="Rectangle" fill="#F5A623" x="105" y="0" width="10" height="4" rx="2"></rect>
                            <path d="M28,0 C29.1045695,-2.02906125e-16 30,0.8954305 30,2 C30,3.1045695 29.1045695,4 28,4 L2,4 C0.8954305,4 1.3527075e-16,3.1045695 0,2 C-1.3527075e-16,0.8954305 0.8954305,2.02906125e-16 2,0 L28,0 Z M83,0 C84.1045695,-2.02906125e-16 85,0.8954305 85,2 C85,3.1045695 84.1045695,4 83,4 L37,4 C35.8954305,4 35,3.1045695 35,2 C35,0.8954305 35.8954305,2.02906125e-16 37,0 L83,0 Z M98,0 C99.1045695,-2.02906125e-16 100,0.8954305 100,2 C100,3.1045695 99.1045695,4 98,4 L92,4 C90.8954305,4 90,3.1045695 90,2 C90,0.8954305 90.8954305,2.02906125e-16 92,0 L98,0 Z" id="Rectangle-Copy-2" fill="#444444"></path>
                        </g>
                    </g>
                </g>
            </g>
        </g>
    </g>
</svg>