<?xml version="1.0" encoding="UTF-8"?>
<svg width="115px" height="4px" viewBox="0 0 115 4" version="1.1" xmlns="http://www.w3.org/2000/svg" xmlns:xlink="http://www.w3.org/1999/xlink">
    <!-- Generator: sketchtool 61.2 (101010) - https://sketch.com -->
    <title>C3D4F6E9-4DEB-4120-925D-CC7B405F7455</title>
    <desc>Created with sketchtool.</desc>
    <g id="Login---v2" stroke="none" stroke-width="1" fill="none" fill-rule="evenodd">
        <g id="Mockup---login-v4j" transform="translate(-1208.000000, -428.000000)">
            <g id="Group-2" transform="translate(773.000000, 230.000000)">
                <g id="Img" transform="translate(123.000000, 173.000000)">
                    <g id="Group-4" transform="translate(197.000000, 25.000000)">
                        <g id="Line-2" transform="translate(115.000000, 0.000000)">
                            <rect id="Rectangle" fill="#ED474A" x="105" y="0" width="10" height="4" rx="2"></rect>
                            <path d="M43,0 C44.1045695,-2.02906125e-16 45,0.8954305 45,2 C45,3.1045695 44.1045695,4 43,4 L17,4 C15.8954305,4 15,3.1045695 15,2 C15,0.8954305 15.8954305,2.02906125e-16 17,0 L43,0 Z M98,0 C99.1045695,-2.02906125e-16 100,0.8954305 100,2 C100,3.1045695 99.1045695,4 98,4 L52,4 C50.8954305,4 50,3.1045695 50,2 C50,0.8954305 50.8954305,2.02906125e-16 52,0 L98,0 Z M8,0 C9.1045695,-2.02906125e-16 10,0.8954305 10,2 C10,3.1045695 9.1045695,4 8,4 L2,4 C0.8954305,4 1.3527075e-16,3.1045695 0,2 C-1.3527075e-16,0.8954305 0.8954305,2.02906125e-16 2,0 L8,0 Z" id="Rectangle-Copy-2" fill="#444444"></path>
                        </g>
                    </g>
                </g>
            </g>
        </g>
    </g>
</svg>