<?xml version="1.0" encoding="UTF-8"?>
<svg width="115px" height="4px" viewBox="0 0 115 4" version="1.1" xmlns="http://www.w3.org/2000/svg" xmlns:xlink="http://www.w3.org/1999/xlink">
    <!-- Generator: sketchtool 61.2 (101010) - https://sketch.com -->
    <title>C62A1795-794F-402A-9E97-F2BD4D8F847C</title>
    <desc>Created with sketchtool.</desc>
    <g id="Login---v2" stroke="none" stroke-width="1" fill="none" fill-rule="evenodd">
        <g id="Mockup---login-v4j" transform="translate(-1151.000000, -442.000000)">
            <g id="Group-2" transform="translate(773.000000, 230.000000)">
                <g id="Img" transform="translate(123.000000, 173.000000)">
                    <g id="Group-4" transform="translate(197.000000, 25.000000)">
                        <g id="Line-1" transform="translate(58.000000, 14.000000)">
                            <rect id="Rectangle" fill="#82B92E" x="105" y="0" width="10" height="4" rx="2"></rect>
                            <path d="M98,0 C99.1045695,-2.02906125e-16 100,0.8954305 100,2 C100,3.1045695 99.1045695,4 98,4 L72,4 C70.8954305,4 70,3.1045695 70,2 C70,0.8954305 70.8954305,2.02906125e-16 72,0 L98,0 Z M48,0 C49.1045695,-2.02906125e-16 50,0.8954305 50,2 C50,3.1045695 49.1045695,4 48,4 L2,4 C0.8954305,4 1.3527075e-16,3.1045695 0,2 C-1.3527075e-16,0.8954305 0.8954305,2.02906125e-16 2,0 L48,0 Z M63,0 C64.1045695,-2.02906125e-16 65,0.8954305 65,2 C65,3.1045695 64.1045695,4 63,4 L57,4 C55.8954305,4 55,3.1045695 55,2 C55,0.8954305 55.8954305,2.02906125e-16 57,0 L63,0 Z" id="Rectangle-Copy-2" fill="#444444"></path>
                        </g>
                    </g>
                </g>
            </g>
        </g>
    </g>
</svg>