<?xml version="1.0" encoding="UTF-8"?>
<svg width="512px" height="249px" viewBox="0 0 512 249" version="1.1" xmlns="http://www.w3.org/2000/svg" xmlns:xlink="http://www.w3.org/1999/xlink">
    <!-- Generator: Sketch 61.2 (89653) - https://sketch.com -->
    <title>Img</title>
    <desc>Created with Sketch.</desc>
    <defs>
        <linearGradient x1="50%" y1="50%" x2="50%" y2="100%" id="linearGradient-1">
            <stop stop-color="#A9B8CF" offset="0%"></stop>
            <stop stop-color="#D4DDE9" offset="100%"></stop>
        </linearGradient>
        <linearGradient x1="100%" y1="0%" x2="100%" y2="97.3014987%" id="linearGradient-2">
            <stop stop-color="#2347BF" offset="0%"></stop>
            <stop stop-color="#167CB6" offset="100%"></stop>
        </linearGradient>
    </defs>
    <g id="Login---v2" stroke="none" stroke-width="1" fill="none" fill-rule="evenodd">
        <g id="Artboard" transform="translate(-31.000000, -14.000000)">
            <g id="Img" transform="translate(33.000000, 16.000000)">
                <g id="PC" transform="translate(108.000000, 0.000000)">
                    <g id="Pantalla" transform="translate(0.196591, 0.029545)">
                        <path d="M253.618182,0 L274.920455,0 C283.31581,0 290.121591,6.80578057 290.121591,15.2011364 L290.121591,200.214773 C290.121591,208.610129 283.31581,215.415909 274.920455,215.415909 L15.2011364,215.415909 C6.80578057,215.415909 0,208.610129 0,200.214773 L0,15.2011364 C0,6.80578057 6.80578057,0 15.2011364,0 L36.5034091,0 L253.618182,0 Z" id="Path" stroke="#25293B" stroke-width="4" fill="#C1CCDC" fill-rule="nonzero"></path>
                        <path d="M1.21590909,162.11938 L63.0767284,102.385444 C70.8267849,94.9018477 83.1119567,94.9018477 90.8620132,102.385444 L103.883839,114.959556 C111.633895,122.443152 123.919067,122.443152 131.669124,114.959556 L178.865945,69.3854437 C186.616002,61.9018477 198.901173,61.9018477 206.65123,69.3854437 L288.215909,148.145787 L288.215909,148.145787 L288.215909,175.970455 L1.21590909,175.970455 L1.21590909,162.11938 Z" id="Path-3" fill="url(#linearGradient-1)"></path>
                        <path d="M1.21590909,166.505554 L41.3299964,127.747602 C46.6724731,122.585738 55.1879236,122.732154 60.3497874,128.074631 C60.9182133,128.662946 61.4317842,129.30189 61.8841158,129.983519 C65.9917298,136.173382 74.3394842,137.861378 80.5293471,133.753764 C81.2109765,133.301432 81.8499202,132.787861 82.4382352,132.219436 L108.128623,107.397562 C115.879771,99.9084568 128.171315,99.9084568 135.922463,107.397562 L156.586233,127.362752 C161.924206,132.520264 169.679443,134.297365 176.73055,131.978792 L208.711525,121.462679 C213.019144,120.04623 217.680243,120.135643 221.93037,121.716253 L275.005444,141.454719 C282.838144,144.367678 288.033996,151.843532 288.033996,160.200356 L288.033996,175.970455 L288.033996,175.970455 L1.21590909,175.970455 L1.21590909,166.505554 Z" id="Path-3" fill-opacity="0.5" fill="url(#linearGradient-2)"></path>
                        <path d="M288.033996,15.2011364 C288.155271,20.7687802 288.215909,82.4399923 288.215909,200.214773 C288.215909,208.610129 283.31581,213.540237 274.920455,213.540237 L261.226136,213.540237 C269.623885,213.540237 276.433892,208.612518 276.442045,200.214773 L276.442045,15.2011364 C276.433892,6.80339151 269.623885,1.97986826 261.226136,1.97986826 L274.920455,1.97986826 C281.022056,1.97986826 287.852083,6.84967058 288.033996,15.2011364 Z" id="Path" fill-opacity="0.2" fill="#000000" fill-rule="nonzero"></path>
                        <polygon id="Path" fill="#FFFFFF" fill-rule="nonzero" opacity="0.09" points="34.8636364 215.415909 61.0409091 215.415909 239.923864 0 173.579545 0 34.8636364 176.696591"></polygon>
                        <path d="M92.7727273,215.415909 L116.985227,215.415909 L288.215909,7.84431818 C285.542647,3.00407402 280.449857,-1.12820089e-07 274.920455,-1.12820089e-07 L269.011364,-1.12820089e-07 L90.1136364,215.415909 L92.7727273,215.415909 Z" id="Path" fill="#FFFFFF" fill-rule="nonzero" opacity="0.09"></path>
                    </g>
                    <g id="Data-2" transform="translate(13.401136, 61.329545)" fill="#8A95A5" fill-rule="nonzero">
                        <polygon id="Path" points="13.3840909 88.9883382 13.3840909 80.9961127 7.3773569 77 1.38409091 80.9961127 1.38409091 88.9883382 7.3773569 93"></polygon>
                        <polygon id="Path" points="29.3840909 88.9883382 29.3840909 80.9961127 23.3908249 77 17.3840909 80.9961127 17.3840909 88.9883382 23.3908249 93"></polygon>
                        <path d="M37.5628382,16.6704545 C38.1350193,16.6704545 38.5988636,17.1181698 38.5988636,17.6704545 C38.5988636,18.1832904 38.1989162,18.6059617 37.6836607,18.6637268 L37.5628382,18.6704545 L29.6348891,18.6704545 C29.062708,18.6704545 28.5988636,18.2227393 28.5988636,17.6704545 C28.5988636,17.1576187 28.9988111,16.7349474 29.5140666,16.6771823 L29.6348891,16.6704545 L37.5628382,16.6704545 Z M47.3434246,8.67045455 C48.0367844,8.67045455 48.5988636,9.1181698 48.5988636,9.67045455 C48.5988636,10.1832904 48.1142137,10.6059617 47.4898353,10.6637268 L47.3434246,10.6704545 L29.8543027,10.6704545 C29.1609428,10.6704545 28.5988636,10.2227393 28.5988636,9.67045455 C28.5988636,9.15761871 29.0835136,8.73494738 29.707892,8.67718228 L29.8543027,8.67045455 L47.3434246,8.67045455 Z M47.3434246,0.670454545 C48.0367844,0.670454545 48.5988636,1.1181698 48.5988636,1.67045455 C48.5988636,2.18329038 48.1142137,2.60596171 47.4898353,2.66372681 L47.3434246,2.67045455 L29.8543027,2.67045455 C29.1609428,2.67045455 28.5988636,2.2227393 28.5988636,1.67045455 C28.5988636,1.15761871 29.0835136,0.734947385 29.707892,0.677182277 L29.8543027,0.670454545 L47.3434246,0.670454545 Z" id="Path"></path>
                        <path d="M14.9306818,48.1988636 C15.4829666,48.1988636 15.9306818,48.6465789 15.9306818,49.1988636 C15.9306818,49.7116995 15.5446416,50.1343708 15.0473029,50.1921359 L14.9306818,50.1988636 L1,50.1988636 C0.44771525,50.1988636 0,49.7511484 0,49.1988636 C0,48.6860278 0.38604019,48.2633565 0.883378875,48.2055914 L1,48.1988636 L14.9306818,48.1988636 Z" id="Path"></path>
                        <path d="M14.9306818,56.8556818 C15.4829666,56.8556818 15.9306818,57.3033971 15.9306818,57.8556818 C15.9306818,58.3685177 15.5446416,58.791189 15.0473029,58.8489541 L14.9306818,58.8556818 L1,58.8556818 C0.44771525,58.8556818 0,58.4079666 0,57.8556818 C0,57.342846 0.38604019,56.9201747 0.883378875,56.8624095 L1,56.8556818 L14.9306818,56.8556818 Z" id="Path"></path>
                        <path d="M8.65227273,65.5125 C9.20455748,65.5125 9.65227273,65.9602153 9.65227273,66.5125 C9.65227273,67.0253358 9.26623254,67.4480072 8.76889385,67.5057723 L8.65227273,67.5125 L1,67.5125 C0.44771525,67.5125 0,67.0647847 0,66.5125 C0,65.9996642 0.38604019,65.5769928 0.883378875,65.5192277 L1,65.5125 L8.65227273,65.5125 Z" id="Path"></path>
                    </g>
                    <g id="Rombo" transform="translate(167.000000, 150.000000)" fill-rule="nonzero" stroke="#FFFFFF">
                        <polygon id="Path" points="12 12.0038873 12 3.99611273 5.99326599 0 0 3.99611273 0 12.0038873 5.99326599 16"></polygon>
                        <polygon id="Path" points="28 12.0038873 28 3.99611273 22.006734 0 16 3.99611273 16 12.0038873 22.006734 16"></polygon>
                        <polygon id="Path" points="44 12.0038873 44 3.99611273 37.993266 0 32 3.99611273 32 12.0038873 37.993266 16"></polygon>
                    </g>
                    <g id="Marco-pc" transform="translate(0.196591, 176.000000)">
                        <polygon id="Path" stroke="#002F33" stroke-width="4" fill="#1D7874" fill-rule="nonzero" points="118.888073 39 170.703941 39 176.803409 69 112.803409 69"></polygon>
                        <polygon id="Path" fill-opacity="0.2" fill="#000000" fill-rule="nonzero" points="163.135784 67 157.910726 41.541487 169.170653 41.541487 174.355421 67"></polygon>
                        <path d="M290.121591,0 L290.121591,24.3454545 C290.121591,32.7408103 283.31581,39.5465909 274.920455,39.5465909 L15.2011364,39.5465909 C6.80578057,39.5465909 0,32.7408103 0,24.3454545 L0,0 L290.121591,0 Z" id="Path" stroke="#002F33" stroke-width="4" fill="#1D7874" fill-rule="nonzero"></path>
                        <path d="M288.215909,1.98617363 L288.032306,24.3454545 C288.032306,31.3041992 282.511034,37.5697823 274.920455,37.5697823 L261.226136,37.5697823 C269.623885,37.5697823 276.433892,32.7431994 276.442045,24.3454545 L276.442045,1.98617363 L288.215909,1.98617363 Z" id="Path" fill-opacity="0.2" fill="#000000" fill-rule="nonzero"></path>
                        <line x1="100.439773" y1="69" x2="189.681818" y2="69" id="Path" stroke="#002F33" stroke-width="4" stroke-linecap="round" stroke-linejoin="round"></line>
                    </g>
                    <path d="M22.9639746,78 C23.5361556,78 24,78.4477153 24,79 C24,79.5128358 23.6000525,79.9355072 23.084797,79.9932723 L22.9639746,80 L15.0360254,80 C14.4638444,80 14,79.5522847 14,79 C14,78.4871642 14.3999475,78.0644928 14.915203,78.0067277 L15.0360254,78 L22.9639746,78 Z M32.744561,70 C33.4379208,70 34,70.4477153 34,71 C34,71.5128358 33.5153501,71.9355072 32.8909717,71.9932723 L32.744561,72 L15.255439,72 C14.5620792,72 14,71.5522847 14,71 C14,70.4871642 14.4846499,70.0644928 15.1090283,70.0067277 L15.255439,70 L32.744561,70 Z M32.744561,62 C33.4379208,62 34,62.4477153 34,63 C34,63.5128358 33.5153501,63.9355072 32.8909717,63.9932723 L32.744561,64 L15.255439,64 C14.5620792,64 14,63.5522847 14,63 C14,62.4871642 14.4846499,62.0644928 15.1090283,62.0067277 L15.255439,62 L32.744561,62 Z" id="Path" fill="#8A95A5" fill-rule="nonzero"></path>
                    <path d="M31.0347571,16.0000369 C21.6447415,15.9806795 14.0194694,23.5744488 14.0000369,32.9637621 C13.9806786,42.3540331 21.5745828,49.9808448 30.9645984,50.0000369 C40.3550929,50.0193943 47.9808439,42.4241884 48.0000369,33.0339174 C48.0193953,23.6446041 40.4252516,16.0194685 31.0347571,16.0000369 M39.9601501,40.5299001 C38.9511132,41.4128582 37.6217774,42.1691896 36.1904417,42.5605813 C34.5884705,42.9989988 32.7891723,43.117298 31.0751919,42.8797198 C27.8471794,42.4361589 24.9492369,40.3364086 23.0000369,38.3681835 C23.2235789,37.827142 23.2903078,37.6294868 23.5195694,37.0972627 C23.9025458,37.5077586 24.5827044,38.0559029 24.8853678,38.2714377 C26.9792266,39.7747933 29.715828,41.0714314 33.3446908,40.8634893 C35.1823581,40.7640493 36.8882357,40.1125462 38.0991277,39.117657 C39.273557,38.1560776 40.2568556,36.7734705 40.2387435,34.8461481 C40.2199164,32.8068945 39.2497252,31.141153 38.1896884,30.0247805 C37.8264923,29.6407365 37.4337448,29.2299957 37.036946,28.9272672 C36.4092173,28.4484369 35.7109466,28.0768842 35.0088628,27.7256604 C34.2946249,27.3626801 33.5608449,26.9994549 32.7090976,26.8084127 C34.1166016,25.8933692 37.8917913,24.7762619 38.3383986,25.0390675 C38.6174685,25.2029229 38.9184637,25.4647488 39.1503468,25.6599548 C39.9203511,26.2955377 40.5769162,27.1902522 41.1395841,28.0195716 C41.9448594,29.2167697 42.6233498,30.6013362 42.8692936,32.1583305 C43.4674709,36.0029334 41.9293688,38.8134589 39.9601501,40.5299001 M17.0000369,33.4308615 C17.0000369,33.4291882 17.0000369,33.427754 17.0000369,33.4263197 C18.7381205,30.7081738 20.7436384,28.2493884 23.1225101,26.1625523 C24.7625823,24.7196952 26.6942922,23.4346057 28.8320895,22.5025812 C29.1908253,22.3438573 29.5387775,22.1437792 29.9262698,22.0201945 C30.3094485,21.8949366 30.7094019,21.7706348 31.1182218,21.6362932 C32.6811311,21.1259387 34.8304309,20.871598 36.5534174,21.0645049 C37.8417032,21.2155794 39.1239982,21.5877677 39.9783023,22.2532604 C40.2689814,22.4760475 40.616694,22.7198703 40.8021727,22.9864021 C40.9097694,23.1408232 41.0607404,23.4962785 40.9744713,23.7068745 C40.8673538,23.9626493 40.4755481,23.9867926 40.1508406,23.9800994 C39.0425218,23.955 38.029099,23.8369133 36.9572049,23.9636055 C35.4376698,24.1462335 34.1790989,24.5686207 33.0933058,25.0201709 C30.7999845,25.967016 28.8287346,27.5313064 27.2734936,29.1111346 C25.705552,30.6995683 24.2559907,32.7017836 23.1011824,34.7585004 C21.8155325,37.0482832 20.8442858,39.4635629 20.0415035,42.0000369 C18.2152337,39.6112908 17.0867853,36.6610352 17.0000369,33.4308615" id="Fill-3" fill="#8A95A5"></path>
                </g>
                <g id="Code-1" transform="translate(0.000000, 96.000000)">
                    <path d="M0,13 L176,13 L176,97 C176,100.313708 173.313708,103 170,103 L6,103 C2.6862915,103 4.05812251e-16,100.313708 0,97 L0,13 L0,13 Z" id="Pantalla" stroke="#131727" stroke-width="4" fill="#25293B"></path>
                    <g id="Data-2" transform="translate(84.000000, 23.000000)" stroke="#30354C">
                        <rect id="Rectangle" stroke-width="2" x="60" y="10" width="20" height="20"></rect>
                        <rect id="Rectangle-Copy-3" stroke-width="2" x="40" y="10" width="20" height="20"></rect>
                        <rect id="Rectangle-Copy-4" stroke-width="2" x="0" y="10" width="20" height="20"></rect>
                        <rect id="Rectangle-Copy-5" stroke-width="2" x="0" y="30" width="20" height="20"></rect>
                        <rect id="Rectangle-Copy-6" stroke-width="2" x="20" y="50" width="20" height="20"></rect>
                        <rect id="Rectangle-Copy-7" stroke-width="2" x="40" y="50" width="20" height="20"></rect>
                        <rect id="Rectangle-Copy-8" stroke-width="2" x="60" y="30" width="20" height="20"></rect>
                        <path d="M20,20 L25,20 C27.7614237,20 30,22.2385763 30,25 L30,35 C30,37.7614237 32.2385763,40 35,40 L45,40 C47.7614237,40 50,37.7614237 50,35 L50,30 L50,30" id="Path-4"></path>
                        <line x1="20" y1="40" x2="35" y2="40" id="Path-7"></line>
                        <path d="M10,50 L10,55.9090909 C10,58.6705147 12.2385763,60.9090909 15,60.9090909 L20,60.9090909 L20,60.9090909" id="Path-5"></path>
                        <path d="M50,10 L50,5 C50,2.23857625 52.2385763,5.07265313e-16 55,0 L65,0 C67.7614237,-5.07265313e-16 70,2.23857625 70,5 L70,10 L70,10" id="Path-6"></path>
                    </g>
                    <path d="M15.9639746,38 C16.5361556,38 17,38.4477153 17,39 C17,39.5128358 16.6000525,39.9355072 16.084797,39.9932723 L15.9639746,40 L8.03602543,40 C7.46384438,40 7,39.5522847 7,39 C7,38.4871642 7.39994745,38.0644928 7.91520298,38.0067277 L8.03602543,38 L15.9639746,38 Z M25.744561,30 C26.4379208,30 27,30.4477153 27,31 C27,31.5128358 26.5153501,31.9355072 25.8909717,31.9932723 L25.744561,32 L8.25543905,32 C7.56207921,32 7,31.5522847 7,31 C7,30.4871642 7.48464993,30.0644928 8.10902833,30.0067277 L8.25543905,30 L25.744561,30 Z M25.744561,22 C26.4379208,22 27,22.4477153 27,23 C27,23.5128358 26.5153501,23.9355072 25.8909717,23.9932723 L25.744561,24 L8.25543905,24 C7.56207921,24 7,23.5522847 7,23 C7,22.4871642 7.48464993,22.0644928 8.10902833,22.0067277 L8.25543905,22 L25.744561,22 Z" id="Path" fill="#8A95A5" fill-rule="nonzero"></path>
                    <path d="M6,0 L170,0 C173.313708,-6.08718376e-16 176,2.6862915 176,6 L176,13 L176,13 L0,13 L0,6 C-4.05812251e-16,2.6862915 2.6862915,6.08718376e-16 6,0 Z" id="Rectangle" stroke="#131727" stroke-width="4" fill="#131727"></path>
                    <path d="M9,5 C10.1045695,5 11,5.8954305 11,7 C11,8.1045695 10.1045695,9 9,9 C7.8954305,9 7,8.1045695 7,7 C7,5.8954305 7.8954305,5 9,5 Z M15,5 C16.1045695,5 17,5.8954305 17,7 C17,8.1045695 16.1045695,9 15,9 C13.8954305,9 13,8.1045695 13,7 C13,5.8954305 13.8954305,5 15,5 Z M21,5 C22.1045695,5 23,5.8954305 23,7 C23,8.1045695 22.1045695,9 21,9 C19.8954305,9 19,8.1045695 19,7 C19,5.8954305 19.8954305,5 21,5 Z" id="Oval-2" fill="#3B415D"></path>
                </g>
                <g id="Code-1" transform="translate(332.000000, 0.000000)">
                    <path d="M0,13 L176,13 L176,152 C176,155.313708 173.313708,158 170,158 L6,158 C2.6862915,158 4.05812251e-16,155.313708 0,152 L0,13 L0,13 Z" id="Pantalla" stroke="#131727" stroke-width="4" fill="#F0F0F0"></path>
                    <g id="Group-5" transform="translate(13.000000, 25.000000)">
                        <g id="Chart" transform="translate(0.000000, 72.000000)">
                            <path d="M68.9639746,48 C69.5361556,48 70,48.4477153 70,49 C70,49.5128358 69.6000525,49.9355072 69.084797,49.9932723 L68.9639746,50 L61.0360254,50 C60.4638444,50 60,49.5522847 60,49 C60,48.4871642 60.3999475,48.0644928 60.915203,48.0067277 L61.0360254,48 L68.9639746,48 Z M78.744561,40 C79.4379208,40 80,40.4477153 80,41 C80,41.5128358 79.5153501,41.9355072 78.8909717,41.9932723 L78.744561,42 L61.255439,42 C60.5620792,42 60,41.5522847 60,41 C60,40.4871642 60.4846499,40.0644928 61.1090283,40.0067277 L61.255439,40 L78.744561,40 Z M78.744561,32 C79.4379208,32 80,32.4477153 80,33 C80,33.5128358 79.5153501,33.9355072 78.8909717,33.9932723 L78.744561,34 L61.255439,34 C60.5620792,34 60,33.5522847 60,33 C60,32.4871642 60.4846499,32.0644928 61.1090283,32.0067277 L61.255439,32 L78.744561,32 Z" id="Path" fill="#8A95A5" fill-rule="nonzero" transform="translate(70.000000, 41.000000) scale(1, -1) translate(-70.000000, -41.000000) "></path>
                            <circle id="Oval" stroke="#8A95A5" stroke-width="2" cx="25" cy="25" r="25"></circle>
                            <polyline id="Path-8" stroke="#8A95A5" points="50 26 25 26 25 0"></polyline>
                            <polyline id="Path-9" stroke="#8A95A5" points="7.59090909 43.4090909 25 26 48.4733276 16.9472885"></polyline>
                        </g>
                        <g id="Data-1" transform="translate(100.000000, 0.000000)" fill-rule="nonzero">
                            <rect id="Rectangle" fill="#DDDDDD" x="0" y="0" width="50" height="122" rx="4"></rect>
                            <path d="M17.3327433,6.48079625 L9.33503791,11.2413632 C9.19023667,11.3275549 9.10227273,11.4786986 9.10227273,11.641311 L9.10227273,21.1624449 C9.10227273,21.324829 9.18999174,21.4757941 9.33446661,21.5620521 L17.332172,26.337045 C17.4929472,26.433035 17.6971821,26.4331116 17.8580365,26.3372421 L25.8697484,21.5622492 C26.0144121,21.4760294 26.1022727,21.3249611 26.1022727,21.1624449 L26.1022727,11.641311 C26.1022727,11.4785667 26.0141671,11.3273199 25.8691773,11.2411668 L17.8574654,6.48059983 C17.6968867,6.3851838 17.4932432,6.38526003 17.3327433,6.48079625 Z M17.5942781,7.40909091 L25.1022727,11.8899745 L25.1022727,20.9157816 L17.5952774,25.4090909 L10.1022727,20.9157816 L10.1022727,11.8890187 L17.5942781,7.40909091 Z M36.8398157,22.4140909 C36.9847667,22.4140909 37.1022727,22.63571 37.1022727,22.9090909 C37.1022727,23.1520962 37.0094285,23.3542032 36.8869926,23.3961158 L36.8398157,23.4040909 L31.3647298,23.4040909 C31.2197788,23.4040909 31.1022727,23.1824719 31.1022727,22.9090909 C31.1022727,22.6660856 31.195117,22.4639786 31.3175528,22.422066 L31.3647298,22.4140909 L36.8398157,22.4140909 Z M40.6648443,16.4090909 C40.9064293,16.4090909 41.1022727,16.63071 41.1022727,16.9040909 C41.1022727,17.1470962 40.9475323,17.3492032 40.7434726,17.3911158 L40.6648443,17.3990909 L31.5397012,17.3990909 C31.2981161,17.3990909 31.1022727,17.1774719 31.1022727,16.9040909 C31.1022727,16.6610856 31.2570132,16.4589786 31.4610729,16.417066 L31.5397012,16.4090909 L40.6648443,16.4090909 Z M40.6648443,10.4090909 C40.9064293,10.4090909 41.1022727,10.63071 41.1022727,10.9040909 C41.1022727,11.1470962 40.9475323,11.3492032 40.7434726,11.3911158 L40.6648443,11.3990909 L31.5397012,11.3990909 C31.2981161,11.3990909 31.1022727,11.1774719 31.1022727,10.9040909 C31.1022727,10.6610856 31.2570132,10.4589786 31.4610729,10.417066 L31.5397012,10.4090909 L40.6648443,10.4090909 Z" id="Path" fill="#FFFFFF"></path>
                            <path d="M17.3327433,36.4807962 L9.33503791,41.2413632 C9.19023667,41.3275549 9.10227273,41.4786986 9.10227273,41.641311 L9.10227273,51.1624449 C9.10227273,51.324829 9.18999174,51.4757941 9.33446661,51.5620521 L17.332172,56.337045 C17.4929472,56.433035 17.6971821,56.4331116 17.8580365,56.3372421 L25.8697484,51.5622492 C26.0144121,51.4760294 26.1022727,51.3249611 26.1022727,51.1624449 L26.1022727,41.641311 C26.1022727,41.4785667 26.0141671,41.3273199 25.8691773,41.2411668 L17.8574654,36.4805998 C17.6968867,36.3851838 17.4932432,36.38526 17.3327433,36.4807962 Z M17.5942781,37.4090909 L25.1022727,41.8899745 L25.1022727,50.9157816 L17.5952774,55.4090909 L10.1022727,50.9157816 L10.1022727,41.8890187 L17.5942781,37.4090909 Z M36.8398157,52.4140909 C36.9847667,52.4140909 37.1022727,52.63571 37.1022727,52.9090909 C37.1022727,53.1520962 37.0094285,53.3542032 36.8869926,53.3961158 L36.8398157,53.4040909 L31.3647298,53.4040909 C31.2197788,53.4040909 31.1022727,53.1824719 31.1022727,52.9090909 C31.1022727,52.6660856 31.195117,52.4639786 31.3175528,52.422066 L31.3647298,52.4140909 L36.8398157,52.4140909 Z M40.6648443,46.4090909 C40.9064293,46.4090909 41.1022727,46.63071 41.1022727,46.9040909 C41.1022727,47.1470962 40.9475323,47.3492032 40.7434726,47.3911158 L40.6648443,47.3990909 L31.5397012,47.3990909 C31.2981161,47.3990909 31.1022727,47.1774719 31.1022727,46.9040909 C31.1022727,46.6610856 31.2570132,46.4589786 31.4610729,46.417066 L31.5397012,46.4090909 L40.6648443,46.4090909 Z M40.6648443,40.4090909 C40.9064293,40.4090909 41.1022727,40.63071 41.1022727,40.9040909 C41.1022727,41.1470962 40.9475323,41.3492032 40.7434726,41.3911158 L40.6648443,41.3990909 L31.5397012,41.3990909 C31.2981161,41.3990909 31.1022727,41.1774719 31.1022727,40.9040909 C31.1022727,40.6610856 31.2570132,40.4589786 31.4610729,40.417066 L31.5397012,40.4090909 L40.6648443,40.4090909 Z" id="Path" fill="#FFFFFF"></path>
                            <path d="M17.3327433,66.4807962 L9.33503791,71.2413632 C9.19023667,71.3275549 9.10227273,71.4786986 9.10227273,71.641311 L9.10227273,81.1624449 C9.10227273,81.324829 9.18999174,81.4757941 9.33446661,81.5620521 L17.332172,86.337045 C17.4929472,86.433035 17.6971821,86.4331116 17.8580365,86.3372421 L25.8697484,81.5622492 C26.0144121,81.4760294 26.1022727,81.3249611 26.1022727,81.1624449 L26.1022727,71.641311 C26.1022727,71.4785667 26.0141671,71.3273199 25.8691773,71.2411668 L17.8574654,66.4805998 C17.6968867,66.3851838 17.4932432,66.38526 17.3327433,66.4807962 Z M17.5942781,67.4090909 L25.1022727,71.8899745 L25.1022727,80.9157816 L17.5952774,85.4090909 L10.1022727,80.9157816 L10.1022727,71.8890187 L17.5942781,67.4090909 Z M36.8398157,82.4140909 C36.9847667,82.4140909 37.1022727,82.63571 37.1022727,82.9090909 C37.1022727,83.1520962 37.0094285,83.3542032 36.8869926,83.3961158 L36.8398157,83.4040909 L31.3647298,83.4040909 C31.2197788,83.4040909 31.1022727,83.1824719 31.1022727,82.9090909 C31.1022727,82.6660856 31.195117,82.4639786 31.3175528,82.422066 L31.3647298,82.4140909 L36.8398157,82.4140909 Z M40.6648443,76.4090909 C40.9064293,76.4090909 41.1022727,76.63071 41.1022727,76.9040909 C41.1022727,77.1470962 40.9475323,77.3492032 40.7434726,77.3911158 L40.6648443,77.3990909 L31.5397012,77.3990909 C31.2981161,77.3990909 31.1022727,77.1774719 31.1022727,76.9040909 C31.1022727,76.6610856 31.2570132,76.4589786 31.4610729,76.417066 L31.5397012,76.4090909 L40.6648443,76.4090909 Z M40.6648443,70.4090909 C40.9064293,70.4090909 41.1022727,70.63071 41.1022727,70.9040909 C41.1022727,71.1470962 40.9475323,71.3492032 40.7434726,71.3911158 L40.6648443,71.3990909 L31.5397012,71.3990909 C31.2981161,71.3990909 31.1022727,71.1774719 31.1022727,70.9040909 C31.1022727,70.6610856 31.2570132,70.4589786 31.4610729,70.417066 L31.5397012,70.4090909 L40.6648443,70.4090909 Z" id="Path" fill="#FFFFFF"></path>
                            <path d="M17.3327433,96.4807962 L9.33503791,101.241363 C9.19023667,101.327555 9.10227273,101.478699 9.10227273,101.641311 L9.10227273,111.162445 C9.10227273,111.324829 9.18999174,111.475794 9.33446661,111.562052 L17.332172,116.337045 C17.4929472,116.433035 17.6971821,116.433112 17.8580365,116.337242 L25.8697484,111.562249 C26.0144121,111.476029 26.1022727,111.324961 26.1022727,111.162445 L26.1022727,101.641311 C26.1022727,101.478567 26.0141671,101.32732 25.8691773,101.241167 L17.8574654,96.4805998 C17.6968867,96.3851838 17.4932432,96.38526 17.3327433,96.4807962 Z M17.5942781,97.4090909 L25.1022727,101.889975 L25.1022727,110.915782 L17.5952774,115.409091 L10.1022727,110.915782 L10.1022727,101.889019 L17.5942781,97.4090909 Z M36.8398157,112.414091 C36.9847667,112.414091 37.1022727,112.63571 37.1022727,112.909091 C37.1022727,113.152096 37.0094285,113.354203 36.8869926,113.396116 L36.8398157,113.404091 L31.3647298,113.404091 C31.2197788,113.404091 31.1022727,113.182472 31.1022727,112.909091 C31.1022727,112.666086 31.195117,112.463979 31.3175528,112.422066 L31.3647298,112.414091 L36.8398157,112.414091 Z M40.6648443,106.409091 C40.9064293,106.409091 41.1022727,106.63071 41.1022727,106.904091 C41.1022727,107.147096 40.9475323,107.349203 40.7434726,107.391116 L40.6648443,107.399091 L31.5397012,107.399091 C31.2981161,107.399091 31.1022727,107.177472 31.1022727,106.904091 C31.1022727,106.661086 31.2570132,106.458979 31.4610729,106.417066 L31.5397012,106.409091 L40.6648443,106.409091 Z M40.6648443,100.409091 C40.9064293,100.409091 41.1022727,100.63071 41.1022727,100.904091 C41.1022727,101.147096 40.9475323,101.349203 40.7434726,101.391116 L40.6648443,101.399091 L31.5397012,101.399091 C31.2981161,101.399091 31.1022727,101.177472 31.1022727,100.904091 C31.1022727,100.661086 31.2570132,100.458979 31.4610729,100.417066 L31.5397012,100.409091 L40.6648443,100.409091 Z" id="Path" fill="#FFFFFF"></path>
                        </g>
                    </g>
                    <path d="M6,0 L170,0 C173.313708,-6.08718376e-16 176,2.6862915 176,6 L176,13 L176,13 L0,13 L0,6 C-4.05812251e-16,2.6862915 2.6862915,6.08718376e-16 6,0 Z" id="Rectangle" stroke="#002F33" stroke-width="4" fill="#1D4E4A"></path>
                    <path d="M9,5 C10.1045695,5 11,5.8954305 11,7 C11,8.1045695 10.1045695,9 9,9 C7.8954305,9 7,8.1045695 7,7 C7,5.8954305 7.8954305,5 9,5 Z M15,5 C16.1045695,5 17,5.8954305 17,7 C17,8.1045695 16.1045695,9 15,9 C13.8954305,9 13,8.1045695 13,7 C13,5.8954305 13.8954305,5 15,5 Z M21,5 C22.1045695,5 23,5.8954305 23,7 C23,8.1045695 22.1045695,9 21,9 C19.8954305,9 19,8.1045695 19,7 C19,5.8954305 19.8954305,5 21,5 Z" id="Oval-2" fill="#002F33"></path>
                </g>
            </g>
        </g>
    </g>
</svg>