<?xml version="1.0" encoding="UTF-8"?>
<svg width="33px" height="33px" viewBox="0 0 33 33" version="1.1" xmlns="http://www.w3.org/2000/svg" xmlns:xlink="http://www.w3.org/1999/xlink">
    <!-- Generator: Sketch 61.2 (89653) - https://sketch.com -->
    <title>Pandora FMS isotipo@svg</title>
    <desc>Created with Sketch.</desc>
    <g id="Menu-pestañas---v1" stroke="none" stroke-width="1" fill="none" fill-rule="evenodd">
        <g id="Menu-Pestañas---Contraido-ejemplo-1b" transform="translate(-10.000000, -19.000000)">
            <g id="Default">
                <g id="Logo" transform="translate(10.000000, 19.000000)">
                    <g id="Pandora-FMS-isotipo">
                        <g id="Group">
                            <path d="M1,15.8501466 C0.982965775,24.0709809 7.63272557,30.7487306 15.8512844,30.7658295 C24.0712085,30.7826371 30.7469101,24.1324222 30.7640091,15.9115878 C30.7808166,7.69393923 24.1326497,1.01687222 15.9127256,1 C7.69416679,0.982965777 1.01709978,7.63249801 1,15.8501466" id="Fill-1" fill="#FFFFFF"></path>
                            <path d="M24.7496939,22.9508317 C23.7862046,23.7711857 22.5168747,24.4738911 21.150149,24.8375321 C19.6204903,25.2448646 17.902412,25.3547761 16.2658001,25.1340428 C13.1834992,24.7219316 10.416369,22.7710592 8.55515533,20.9423867 C8.76860666,20.4397065 8.83232347,20.2560656 9.05123624,19.7615776 C9.41692524,20.1429682 10.0663816,20.6522476 10.3553829,20.8525005 C12.3547255,22.2492641 14.9677976,23.453967 18.4328544,23.2607685 C20.18757,23.1683791 21.8164448,22.5630694 22.9726775,21.6387204 C24.0940934,20.7453197 25.0330062,19.4607432 25.0157116,17.6700732 C24.9977343,15.7754082 24.0713374,14.2277723 23.0591503,13.1905536 C22.7123488,12.8337394 22.3373298,12.4521212 21.9584423,12.170857 C21.3590491,11.7259771 20.6922982,11.3807685 20.0219063,11.0544474 C19.3399088,10.7172034 18.6392514,10.3797318 17.8259518,10.202235 C19.1699214,9.35207063 22.7747002,8.31416924 23.2011477,8.55834117 C23.4676206,8.71057884 23.7550289,8.95384054 23.9764448,9.1352059 C24.7116914,9.72572423 25.3386193,10.5570011 25.8758886,11.3275194 C26.644814,12.439833 27.2926775,13.7262299 27.5275194,15.1728292 C28.0986952,18.7448393 26.6300226,21.3560909 24.7496939,22.9508317 M3.25073055,16.9694158 C3.25073055,16.9678228 3.25073055,16.9664575 3.25073055,16.9650921 C4.9012236,14.3775068 6.80567366,12.0368241 9.06466228,10.0502249 C10.6220833,8.6766724 12.4564448,7.45330956 14.486508,6.56605293 C14.8271654,6.41495305 15.1575826,6.22448529 15.5255472,6.10683675 C15.8894158,5.98759528 16.2692135,5.86926405 16.6574309,5.7413753 C18.1415776,5.2555346 20.1825637,5.0134107 21.8187204,5.19705166 C23.0420833,5.34086962 24.2597571,5.69518061 25.0710087,6.3287078 C25.347039,6.54079376 25.6772287,6.77290501 25.8533601,7.02663447 C25.9555346,7.17363826 26.0988974,7.51202006 26.0169758,7.71250046 C25.9152565,7.95598972 25.5431958,7.97897328 25.2348519,7.9726016 C24.1823867,7.9487078 23.2200352,7.83629313 22.2021591,7.95689996 C20.7592008,8.13075584 19.5640555,8.53285444 18.5329809,8.96271538 C16.3552312,9.86408074 14.4833222,11.3532337 13.0064575,12.8571781 C11.5175321,14.3693146 10.1410213,16.2753576 9.04440944,18.2332843 C7.82354977,20.413082 6.90124888,22.7123488 6.13892271,25.1269885 C4.40468757,22.8529809 3.33310729,20.0444347 3.25073055,16.9694158 M16.1888848,0 C7.2651174,-0.0183971355 0.0184675938,7.19866987 -3.90798505e-13,16.1222097 C-0.0183971344,25.0466598 7.19844231,32.29513 16.1222097,32.3133701 C25.0464322,32.3317672 32.2935371,25.1133348 32.3117772,16.1888848 C32.3301743,7.26534496 25.1131073,0.0184675927 16.1888848,0" id="Fill-3" fill="#82B92E"></path>
                        </g>
                    </g>
                </g>
            </g>
        </g>
    </g>
</svg>