<?xml version="1.0" encoding="UTF-8"?>
<svg width="462px" height="462px" viewBox="0 0 462 462" version="1.1" xmlns="http://www.w3.org/2000/svg" xmlns:xlink="http://www.w3.org/1999/xlink">
    <!-- Generator: Sketch 61.2 (89653) - https://sketch.com -->
    <title>App genérico@svg</title>
    <desc>Created with Sketch.</desc>
    <defs>
        <path d="M340,247.942458 C340,312.77894 261.586371,340 169.348659,340 L170.651,339.996 L170.651341,340 L170,339.998 L169.348659,340 L169.348659,340 L169.348,339.996 L167.888421,339.991823 C76.8531975,339.451817 0,312.130576 0,247.942458 L0,92.0575424 C0,27.2210597 78.4136287,0 170.651341,0 L169.348,0.004 L169.348659,0 L170,0.002 L170.651341,0 L170.651341,0 L170.651,0.004 L172.111579,0.00817671226 C263.146802,0.548182735 340,27.8694245 340,92.0575424 Z" id="path-1"></path>
    </defs>
    <g id="App-genérico" stroke="none" stroke-width="1" fill="none" fill-rule="evenodd">
        <g id="Rectangle" transform="translate(61.000000, 61.000000)">
            <mask id="mask-2" fill="white">
                <use xlink:href="#path-1"></use>
            </mask>
            <use id="Mask" stroke="#555555" stroke-width="14" stroke-linejoin="round" xlink:href="#path-1"></use>
            <path d="M243.089632,66.6385397 C255.811455,68.1348967 268.474117,71.8213332 276.910371,78.4128805 C279.780827,80.6195335 283.214489,83.0345401 285.04609,85.6744737 C286.108609,87.2039779 287.599447,90.7246786 286.747539,92.8105813 C285.689754,95.3439706 281.820673,95.5831036 278.614186,95.5168093 C267.669538,95.2682057 257.661988,94.0985848 247.077034,95.3534412 C232.071625,97.1623285 219.643237,101.345972 208.921031,105.81847 C186.274482,115.196745 166.808389,130.69067 151.450385,146.338491 C135.966961,162.071549 121.652544,181.903015 110.248812,202.274305 C97.5530192,224.954058 87.9619574,248.876829 80.0344822,274 C62.0000677,250.340039 50.8566406,221.118459 50,189.124358 L50,189.079372 L50,189.079372 C67.1635754,162.156784 86.968065,137.803101 110.459422,117.133486 C126.655136,102.842329 145.730771,90.113824 166.841519,80.8823431 C170.384035,79.3102211 173.820063,77.3284952 177.646549,76.1044183 C181.43044,74.8637679 185.379979,73.6325881 189.417075,72.3019668 C204.850804,67.2470266 226.07514,64.7278433 243.089632,66.6385397 Z M249.443746,111.548575 C251.871655,112.938928 254.490313,115.160583 256.507696,116.816952 C263.206733,122.210025 268.91885,129.801891 273.814061,136.838864 C280.819956,146.997376 286.722822,158.745753 288.862533,171.957223 C294.066675,204.579596 280.685187,228.427576 263.552985,242.99199 C254.774364,250.4841 243.209143,256.901753 230.756521,260.222805 C216.819372,263.942882 201.165478,264.946679 186.253848,262.930771 C158.17014,259.167051 132.95804,241.350168 116,224.649308 C117.944815,220.058442 118.525357,218.38129 120.519932,213.865241 C123.851827,217.348397 129.769207,221.999533 132.402378,223.828397 C150.61895,236.584729 174.427383,247.587012 205.998488,245.822573 C221.986194,244.978802 236.82733,239.450643 247.36209,231.008769 C257.579625,222.849539 266.134322,211.117788 265.976747,194.763997 C265.812951,177.460443 257.372288,163.326228 248.149968,153.85354 C244.990162,150.594836 241.573259,147.109602 238.121109,144.540878 C232.659869,140.477889 226.584914,137.325176 220.476785,134.344958 C214.262915,131.264983 207.879029,128.18293 200.468828,126.561891 C212.714113,118.797529 245.558263,109.318607 249.443746,111.548575 Z" id="Path-3" stroke="#555555" stroke-width="7" stroke-linecap="round" stroke-linejoin="round" mask="url(#mask-2)"></path>
        </g>
    </g>
</svg>