<?xml version="1.0" encoding="UTF-8"?>
<svg width="462px" height="462px" viewBox="0 0 462 462" version="1.1" xmlns="http://www.w3.org/2000/svg" xmlns:xlink="http://www.w3.org/1999/xlink">
    <!-- Generator: Sketch 61.2 (89653) - https://sketch.com -->
    <title>Configurar app@svg</title>
    <desc>Created with Sketch.</desc>
    <defs>
        <path d="M170.651341,0 L170.651,0.004 L172.111579,0.00817671226 C263.146802,0.548182735 340,27.8694245 340,92.0575424 L340,247.942458 C340,312.77894 261.586371,340 169.348659,340 L170.651,339.996 L170.651341,340 L170,339.998 L169.348659,340 L169.348659,340 L169.348,339.996 L167.888421,339.991823 C128.247423,339.756679 91.2955334,334.44344 62.2073113,323.219366 L161.855602,223.57095 C187.013424,231.95857 215.800358,226.422038 235.828233,206.394148 C254.435585,187.786783 260.775236,161.559784 254.857225,137.762234 C253.732853,133.229606 248.060798,131.693633 244.757955,134.996478 L207.432822,172.321638 L173.360336,166.644559 L167.683262,132.572049 L205.008395,95.2468889 C208.331316,91.9239659 206.73009,86.2619459 202.167348,85.1275341 C178.384873,79.2346161 152.19805,85.5843105 133.610776,104.166578 C113.713408,124.06396 108.237114,152.90613 116.519318,178.053931 L10.1129522,284.45776 C3.58111026,273.936239 0,261.798287 0,247.942458 L0,92.0575424 C0,27.2210597 78.4136287,0 170.651341,0 L169.348,0.004 L169.348659,0 L170,0.002 L170.651341,0 L170.651341,0 Z" id="path-1"></path>
    </defs>
    <g id="Configurar-app" stroke="none" stroke-width="1" fill="none" fill-rule="evenodd">
        <g id="Rectangle" transform="translate(61.000000, 61.000000)">
            <mask id="mask-2" fill="white">
                <use xlink:href="#path-1"></use>
            </mask>
            <use id="Mask" stroke="#555555" stroke-width="14" stroke-linejoin="round" xlink:href="#path-1"></use>
        </g>
        <g id="Group" transform="translate(107.000000, 136.000000)" stroke="#555555" stroke-width="7">
            <circle id="Oval" cx="14.5" cy="14.5" r="14.5"></circle>
            <circle id="Oval-Copy" cx="14.5" cy="61.5" r="14.5"></circle>
            <circle id="Oval-Copy-2" cx="142.5" cy="208.5" r="14.5"></circle>
        </g>
    </g>
</svg>