<?xml version="1.0"?>
<svg xmlns="http://www.w3.org/2000/svg" viewBox="0 0 64 64">
    <path d="M 17.660156 4 C 16.320156 4 15.059141 4.5209375 14.119141 5.4609375 L 5.4609375 14.119141 C 4.5209375 15.069141 4 16.320156 4 17.660156 L 4 57 C 4 58.65 5.35 60 7 60 L 47 60 C 48.65 60 50 58.65 50 57 L 50 46 L 58 46 C 59.1 46 60 45.1 60 44 L 60 24 C 60 22.9 59.1 22 58 22 L 50 22 L 50 7 C 50 5.35 48.65 4 47 4 L 17.660156 4 z M 18 6 L 47 6 C 47.55 6 48 6.45 48 7 L 48 22 L 16 22 C 14.9 22 14 22.9 14 24 L 14 44 C 14 45.1 14.9 46 16 46 L 48 46 L 48 57 C 48 57.55 47.55 58 47 58 L 7 58 C 6.45 58 6 57.55 6 57 L 6 18 L 15 18 C 16.654 18 18 16.654 18 15 L 18 6 z M 16 6.4980469 L 16 15 C 16 15.552 15.552 16 15 16 L 6.5019531 16 C 6.6119531 15.834 6.7388594 15.679063 6.8808594 15.539062 L 15.539062 6.8808594 C 15.681062 6.7368594 15.836 6.6080469 16 6.4980469 z M 16 24 L 48 24 L 50 24 L 58 24 L 58 44 L 50 44 L 48 44 L 16 44 L 16 24 z M 27 28 C 25.346 28 24 29.346 24 31 L 24 37 C 24 38.654 25.346 40 27 40 L 29 40 C 30.654 40 32 38.654 32 37 C 32 36.447 31.553 36 31 36 C 30.447 36 30 36.447 30 37 C 30 37.552 29.552 38 29 38 L 27 38 C 26.448 38 26 37.552 26 37 L 26 31 C 26 30.448 26.448 30 27 30 L 29 30 C 29.552 30 30 30.448 30 31 C 30 31.553 30.447 32 31 32 C 31.553 32 32 31.553 32 31 C 32 29.346 30.654 28 29 28 L 27 28 z M 37 28 C 35.346 28 34 29.346 34 31 L 34 32 C 34 33.654 35.346 35 37 35 L 39 35 C 39.552 35 40 35.448 40 36 L 40 37 C 40 37.552 39.552 38 39 38 L 37 38 C 36.448 38 36 37.552 36 37 C 36 36.447 35.553 36 35 36 C 34.447 36 34 36.447 34 37 C 34 38.654 35.346 40 37 40 L 39 40 C 40.654 40 42 38.654 42 37 L 42 36 C 42 34.346 40.654 33 39 33 L 37 33 C 36.448 33 36 32.552 36 32 L 36 31 C 36 30.448 36.448 30 37 30 L 39 30 C 39.552 30 40 30.448 40 31 C 40 31.553 40.447 32 41 32 C 41.553 32 42 31.553 42 31 C 42 29.346 40.654 28 39 28 L 37 28 z M 45.109375 28.005859 C 44.980234 27.991641 44.845391 28.003719 44.712891 28.042969 C 44.183891 28.201969 43.884969 28.759109 44.042969 29.287109 L 47.042969 39.287109 C 47.169969 39.710109 47.559 40 48 40 C 48.441 40 48.830031 39.710109 48.957031 39.287109 L 51.957031 29.287109 C 52.115031 28.759109 51.816109 28.201969 51.287109 28.042969 C 50.755109 27.885969 50.200969 28.183891 50.042969 28.712891 L 48 35.519531 L 45.957031 28.712891 C 45.837781 28.316141 45.496797 28.048516 45.109375 28.005859 z M 9 52 C 8.447 52 8 52.447 8 53 L 8 55 C 8 55.553 8.447 56 9 56 C 9.553 56 10 55.553 10 55 L 10 53 C 10 52.447 9.553 52 9 52 z M 14 52 C 13.447 52 13 52.447 13 53 L 13 55 C 13 55.553 13.447 56 14 56 C 14.553 56 15 55.553 15 55 L 15 53 C 15 52.447 14.553 52 14 52 z M 19 52 C 18.447 52 18 52.447 18 53 L 18 55 C 18 55.553 18.447 56 19 56 C 19.553 56 20 55.553 20 55 L 20 53 C 20 52.447 19.553 52 19 52 z M 24 52 C 23.447 52 23 52.447 23 53 L 23 55 C 23 55.553 23.447 56 24 56 C 24.553 56 25 55.553 25 55 L 25 53 C 25 52.447 24.553 52 24 52 z M 29 52 C 28.447 52 28 52.447 28 53 L 28 55 C 28 55.553 28.447 56 29 56 C 29.553 56 30 55.553 30 55 L 30 53 C 30 52.447 29.553 52 29 52 z M 34 52 C 33.447 52 33 52.447 33 53 L 33 55 C 33 55.553 33.447 56 34 56 C 34.553 56 35 55.553 35 55 L 35 53 C 35 52.447 34.553 52 34 52 z M 39 52 C 38.447 52 38 52.447 38 53 L 38 55 C 38 55.553 38.447 56 39 56 C 39.553 56 40 55.553 40 55 L 40 53 C 40 52.447 39.553 52 39 52 z M 44 52 C 43.447 52 43 52.447 43 53 L 43 55 C 43 55.553 43.447 56 44 56 C 44.553 56 45 55.553 45 55 L 45 53 C 45 52.447 44.553 52 44 52 z"/>
</svg>
