<?xml version="1.0" encoding="UTF-8"?>
<svg width="462px" height="462px" viewBox="0 0 462 462" version="1.1" xmlns="http://www.w3.org/2000/svg" xmlns:xlink="http://www.w3.org/1999/xlink">
    <!-- Generator: Sketch 61.2 (89653) - https://sketch.com -->
    <title>Custom apps@svg</title>
    <desc>Created with Sketch.</desc>
    <g id="Custom-apps" stroke="none" stroke-width="1" fill="none" fill-rule="evenodd">
        <g id="Group" transform="translate(61.000000, 61.000000)" stroke="#555555">
            <path d="M0,315.724835 L0,274.275165 C0,257.178072 20.6773253,250 45,250 L45,250 C69.3226747,250 90,257.178072 90,274.275165 L90,315.724835 C90,332.821928 69.3226747,340 45,340 L45,340 C20.6773253,340 0,332.821928 0,315.724835 Z" id="Mask" stroke-width="14" stroke-linejoin="round"></path>
            <path d="M0,190.724835 L0,149.275165 C0,132.178072 20.6773253,125 45,125 L45,125 C69.3226747,125 90,132.178072 90,149.275165 L90,190.724835 C90,207.821928 69.3226747,215 45,215 L45,215 C20.6773253,215 0,207.821928 0,190.724835 Z" id="Mask-Copy" stroke-width="14" stroke-linejoin="round"></path>
            <path d="M0,65.7248353 L0,24.2751647 C0,7.17807242 20.6773253,0 45,0 L45,0 C69.3226747,0 90,7.17807242 90,24.2751647 L90,65.7248353 C90,82.8219276 69.3226747,90 45,90 L45,90 C20.6773253,90 0,82.8219276 0,65.7248353 Z" id="Mask-Copy-2" stroke-width="14" stroke-linejoin="round"></path>
            <path d="M125,315.724835 L125,274.275165 C125,257.178072 145.677325,250 170,250 L170,250 C194.322675,250 215,257.178072 215,274.275165 L215,315.724835 C215,332.821928 194.322675,340 170,340 L170,340 C145.677325,340 125,332.821928 125,315.724835 Z" id="Mask" stroke-width="14" stroke-linejoin="round"></path>
            <path d="M125,190.724835 L125,149.275165 C125,132.178072 145.677325,125 170,125 L170,125 C194.322675,125 215,132.178072 215,149.275165 L215,190.724835 C215,207.821928 194.322675,215 170,215 L170,215 C145.677325,215 125,207.821928 125,190.724835 Z" id="Mask-Copy" stroke-width="14" stroke-linejoin="round"></path>
            <path d="M125,65.7248353 L125,24.2751647 C125,7.17807242 145.677325,0 170,0 L170,0 C194.322675,0 215,7.17807242 215,24.2751647 L215,65.7248353 C215,82.8219276 194.322675,90 170,90 L170,90 C145.677325,90 125,82.8219276 125,65.7248353 Z" id="Mask-Copy-2" stroke-width="14" stroke-linejoin="round"></path>
            <path d="M250,190.724835 L250,149.275165 C250,132.178072 270.677325,125 295,125 L295,125 C319.322675,125 340,132.178072 340,149.275165 L340,190.724835 C340,207.821928 319.322675,215 295,215 L295,215 C270.677325,215 250,207.821928 250,190.724835 Z" id="Mask-Copy" stroke-width="14" stroke-linejoin="round"></path>
            <path d="M250,65.7248353 L250,24.2751647 C250,7.17807242 270.677325,0 295,0 L295,0 C319.322675,0 340,7.17807242 340,24.2751647 L340,65.7248353 C340,82.8219276 319.322675,90 295,90 L295,90 C270.677325,90 250,82.8219276 250,65.7248353 Z" id="Mask-Copy-2" stroke-width="14" stroke-linejoin="round"></path>
            <circle id="Oval" stroke-width="7" cx="45" cy="45" r="15"></circle>
            <polygon id="Polygon" stroke-width="7" points="295 155 309.265848 165.364745 303.816779 182.135255 286.183221 182.135255 280.734152 165.364745"></polygon>
            <rect id="Rectangle" stroke-width="7" x="155" y="280" width="30" height="30"></rect>
        </g>
    </g>
</svg>