<?xml version="1.0"?>
<svg xmlns="http://www.w3.org/2000/svg" viewBox="0 0 32 32">
    <path style="line-height:normal;text-indent:0;text-align:start;text-decoration-line:none;text-decoration-style:solid;text-decoration-color:#000;text-transform:none;block-progression:tb;isolation:auto;mix-blend-mode:normal" d="M 4 5 L 4 6 L 4 13 L 28 13 L 28 5 L 4 5 z M 6 7 L 26 7 L 26 11 L 6 11 L 6 7 z M 8 8 A 1 1 0 0 0 7 9 A 1 1 0 0 0 8 10 A 1 1 0 0 0 9 9 A 1 1 0 0 0 8 8 z M 11 8 A 1 1 0 0 0 10 9 A 1 1 0 0 0 11 10 A 1 1 0 0 0 12 9 A 1 1 0 0 0 11 8 z M 14 8 A 1 1 0 0 0 13 9 A 1 1 0 0 0 14 10 A 1 1 0 0 0 15 9 A 1 1 0 0 0 14 8 z M 4 14 L 4 27 L 28 27 L 28 14 L 26 14 L 26 25 L 6 25 L 6 14 L 4 14 z M 8 15 L 8 16 L 8 23 L 16 23 L 16 15 L 8 15 z M 18 15 L 18 17 L 24 17 L 24 15 L 18 15 z M 10 17 L 14 17 L 14 21 L 10 21 L 10 17 z M 18 18 L 18 20 L 24 20 L 24 18 L 18 18 z M 18 21 L 18 23 L 24 23 L 24 21 L 18 21 z"/>
</svg>
