<svg xmlns="http://www.w3.org/2000/svg" viewBox="0 0 16 16">
    <path style="line-height:normal;text-indent:0;text-align:start;text-decoration-line:none;text-decoration-style:solid;text-decoration-color:#000;text-transform:none;block-progression:tb;isolation:auto;mix-blend-mode:normal" d="M 1.5 3 A 0.50005 0.50005 0 0 0 1 3.5 L 1 5.5 A 0.50005 0.50005 0 0 0 1.5 6 L 3.5 6 A 0.50005 0.50005 0 0 0 4 5.5 L 4 3.5 A 0.50005 0.50005 0 0 0 3.5 3 L 1.5 3 z M 8.5 3 A 0.50005 0.50005 0 0 0 8 3.5 L 8 5.5 A 0.50005 0.50005 0 0 0 8.5 6 L 10.5 6 A 0.50005 0.50005 0 0 0 11 5.5 L 11 3.5 A 0.50005 0.50005 0 0 0 10.5 3 L 8.5 3 z M 2 4 L 3 4 L 3 5 L 2 5 L 2 4 z M 5 4 L 5 5 L 7 5 L 7 4 L 5 4 z M 9 4 L 10 4 L 10 5 L 9 5 L 9 4 z M 12 4 L 12 5 L 14 5 L 14 4 L 12 4 z M 1.5 7 A 0.50005 0.50005 0 0 0 1 7.5 L 1 9.5 A 0.50005 0.50005 0 0 0 1.5 10 L 3.5 10 A 0.50005 0.50005 0 0 0 4 9.5 L 4 7.5 A 0.50005 0.50005 0 0 0 3.5 7 L 1.5 7 z M 8.5 7 A 0.50005 0.50005 0 0 0 8 7.5 L 8 9.5 A 0.50005 0.50005 0 0 0 8.5 10 L 10.5 10 A 0.50005 0.50005 0 0 0 11 9.5 L 11 7.5 A 0.50005 0.50005 0 0 0 10.5 7 L 8.5 7 z M 2 8 L 3 8 L 3 9 L 2 9 L 2 8 z M 5 8 L 5 9 L 7 9 L 7 8 L 5 8 z M 9 8 L 10 8 L 10 9 L 9 9 L 9 8 z M 12 8 L 12 9 L 14 9 L 14 8 L 12 8 z M 1.5 11 A 0.50005 0.50005 0 0 0 1 11.5 L 1 13.5 A 0.50005 0.50005 0 0 0 1.5 14 L 3.5 14 A 0.50005 0.50005 0 0 0 4 13.5 L 4 11.5 A 0.50005 0.50005 0 0 0 3.5 11 L 1.5 11 z M 8.5 11 A 0.50005 0.50005 0 0 0 8 11.5 L 8 13.5 A 0.50005 0.50005 0 0 0 8.5 14 L 10.5 14 A 0.50005 0.50005 0 0 0 11 13.5 L 11 11.5 A 0.50005 0.50005 0 0 0 10.5 11 L 8.5 11 z M 2 12 L 3 12 L 3 13 L 2 13 L 2 12 z M 5 12 L 5 13 L 7 13 L 7 12 L 5 12 z M 9 12 L 10 12 L 10 13 L 9 13 L 9 12 z M 12 12 L 12 13 L 14 13 L 14 12 L 12 12 z"/>
</svg>
