<?xml version="1.0" encoding="UTF-8"?>
<svg width="2586px" height="500.001408px" viewBox="0 0 2586 500.001408" version="1.1" xmlns="http://www.w3.org/2000/svg" xmlns:xlink="http://www.w3.org/1999/xlink">
    <title>Pandora RC negro</title>
    <g id="Page-1" stroke="none" stroke-width="1" fill="none" fill-rule="evenodd">
        <g id="Pandora-RC-negro" fill="#181818">
            <g id="Group-3">
                <path d="M383.135312,354.853112 C368.253912,367.5785 348.637362,378.490503 327.50345,384.159533 C303.84882,390.511663 277.275646,392.268711 251.94523,388.906025 C204.245186,382.627838 161.368307,352.529162 132.513812,324.293167 C135.802013,316.507934 136.780729,313.662855 140.153423,306.004383 C145.821522,311.895245 155.890319,319.754422 160.364948,322.842459 C191.34234,344.395336 231.811157,362.951727 285.415177,359.849605 C312.558681,358.367207 337.737713,348.948166 355.601026,334.610097 C372.922172,320.747382 387.409269,300.838876 387.081857,273.134572 C386.743884,243.817588 372.358883,219.902028 356.667755,203.880856 C351.291862,198.373798 345.4759,192.479415 339.603609,188.137854 C330.316376,181.275159 319.990579,175.954721 309.611973,170.926538 C299.046778,165.72934 288.196418,160.528621 275.606901,157.810304 C296.371154,144.613083 352.112153,128.436982 358.71672,132.204598 C362.846335,134.549675 367.299841,138.306728 370.728864,141.10251 C382.124911,150.218733 391.852214,163.060318 400.188896,174.965282 C412.123588,192.15195 422.185344,212.035809 425.864327,234.409111 C434.817107,289.666309 412.176397,330.117127 383.135312,354.853112 M50.3193389,262.986656 L50.3193389,262.919755 C75.7729749,222.828092 105.162595,186.549821 140.051327,155.736354 C164.10026,134.436998 192.444275,115.447508 223.82301,101.655216 C229.089766,99.3030966 234.194575,96.3453418 239.883797,94.5108296 C245.509649,92.6551906 251.38194,90.8136361 257.384492,88.8206727 C280.331491,81.2572711 311.903857,77.4474013 337.220191,80.2361415 C356.153753,82.4227674 375.002822,87.8664447 387.578256,97.6411201 C391.852214,100.912256 396.967585,104.493252 399.699538,108.415798 C401.290831,110.690453 403.515823,115.919341 402.255463,119.024983 C400.692336,122.792599 394.932702,123.162319 390.165866,123.070769 C373.879764,122.736261 358.987803,121.02851 343.240346,122.926403 C320.923527,125.662326 302.444117,131.926428 286.50655,138.606024 C252.842972,152.62719 223.925107,175.729368 201.125971,199.046335 C178.136726,222.490063 156.900719,252.028879 139.998519,282.356429 C121.181135,316.127651 106.986244,351.733385 95.2663059,389.120814 C68.3621998,353.990434 51.6923566,310.567776 50.3193389,262.986656 M249.952594,0 C111.890382,0 0,111.901724 0,249.979577 C0,388.075037 111.890382,500.001408 249.952594,500.001408 C388.025367,500.001408 499.919269,388.075037 499.919269,249.979577 C499.919269,111.901724 388.025367,0 249.952594,0" id="Fill-1"></path>
            </g>
            <path d="M659.867032,265.066592 L707.890966,265.066592 C722.624503,265.066592 733.809316,262.587712 741.438366,257.629951 C749.070936,252.675712 752.887221,243.112305 752.887221,228.946772 C752.887221,214.777718 749.070936,205.21431 741.438366,200.260071 C733.809316,195.305832 722.624503,192.82343 707.890966,192.82343 L659.867032,192.82343 L659.867032,265.066592 Z M610.265887,331.91185 L610.265887,168.087445 C610.265887,164.6649 611.452315,161.724751 613.82165,159.270519 C616.187466,156.812766 619.081364,155.583889 622.503347,155.583889 L722.888545,155.583889 C775.953919,155.583889 802.488366,180.041704 802.488366,228.946772 C802.488366,277.851839 775.953919,302.306133 722.888545,302.306133 L659.867032,302.306133 L659.867032,331.91185 C659.867032,335.334395 658.65948,338.253418 656.251418,340.661875 C653.836315,343.077375 650.921293,344.281604 647.49931,344.281604 L622.767389,344.281604 C619.345406,344.281604 616.40574,343.077375 613.951911,340.661875 C611.494561,338.253418 610.265887,335.334395 610.265887,331.91185 L610.265887,331.91185 Z" id="Fill-4"></path>
            <path d="M876.429595,261.512708 L960.236483,261.512708 L960.236483,192.825895 L922.739018,192.825895 C914.321363,192.825895 906.973958,195.213226 900.703844,199.99493 C894.430209,204.776633 890.198498,211.202708 888.00519,219.273153 L876.429595,261.512708 Z M807.225981,332.174879 L840.248818,206.9034 C849.194556,172.780064 878.313093,155.670861 927.60795,155.586354 L998.522554,155.586354 C1001.76851,155.586354 1004.46174,156.81523 1006.61632,159.269463 C1008.76034,161.727216 1009.83763,164.579337 1009.83763,167.822304 L1009.83763,332.174879 C1009.83763,335.597424 1008.60895,338.470672 1006.15512,340.794622 C1003.69425,343.118572 1000.75811,344.280547 997.339647,344.280547 L972.600684,344.280547 C969.006194,344.280547 966.045405,343.118572 963.721836,340.794622 C961.398268,338.470672 960.236483,335.509396 960.236483,331.914315 L960.236483,298.75225 L866.691731,298.75225 L857.876253,331.914315 C856.996113,335.509396 855.024601,338.470672 851.958194,340.794622 C848.884747,343.118572 845.642313,344.280547 842.22033,344.280547 L816.301981,344.280547 C812.879998,344.280547 810.426169,343.294629 808.933452,341.322792 C807.440735,339.347435 806.719021,337.615036 806.764788,336.122074 C806.807035,334.632633 806.96194,333.315728 807.225981,332.174879 L807.225981,332.174879 Z" id="Fill-6"></path>
            <path d="M1047.46219,331.912907 L1047.46219,168.084981 C1047.46219,164.662436 1048.64861,161.725808 1051.01795,159.268054 C1053.38377,156.813822 1056.27766,155.584945 1059.69965,155.584945 L1098.38002,155.584945 C1101.44995,155.584945 1104.6959,156.813822 1108.11788,159.268054 C1111.53635,161.725808 1114.34223,164.662436 1116.53554,168.084981 L1196.00158,290.328283 L1196.00158,167.820895 C1196.00158,164.401872 1197.20561,161.503976 1199.62071,159.137772 C1202.02878,156.768047 1204.94732,155.584945 1208.3693,155.584945 L1230.99945,155.584945 C1234.41791,155.584945 1237.33645,156.768047 1239.74804,159.137772 C1242.15962,161.503976 1243.36717,164.4899 1243.36717,168.084981 L1243.36717,331.912907 C1243.36717,335.335452 1242.15962,338.250953 1239.74804,340.662931 C1237.33645,343.07491 1234.41791,344.28266 1230.99945,344.28266 L1187.31988,344.28266 C1183.8979,344.28266 1180.3879,343.07491 1176.79341,340.662931 C1173.1954,338.250953 1170.34375,335.335452 1168.24198,331.912907 L1095.48612,219.01118 L1095.48612,331.912907 C1095.48612,335.335452 1094.27857,338.250953 1091.86699,340.662931 C1089.45541,343.07491 1086.54038,344.28266 1083.1184,344.28266 L1059.96369,344.28266 C1056.54171,344.28266 1053.60204,343.07491 1051.14821,340.662931 C1048.69086,338.250953 1047.46219,335.335452 1047.46219,331.912907" id="Fill-8"></path>
            <path d="M1330.72595,307.04171 L1365.7203,307.04171 C1389.3186,307.04171 1405.36883,302.745923 1413.87801,294.147307 C1422.38368,285.548692 1426.63652,270.833862 1426.63652,249.999296 C1426.63652,229.16473 1422.38368,214.425252 1413.87801,205.784382 C1405.36883,197.147034 1389.3186,192.823078 1365.7203,192.823078 L1330.72595,192.823078 L1330.72595,307.04171 Z M1281.12481,332.175584 L1281.12481,168.347657 C1281.12481,164.752577 1282.35348,161.724399 1284.81083,159.270167 C1287.26466,156.812414 1290.20432,155.583537 1293.62631,155.583537 L1367.17077,155.583537 C1405.23504,155.583537 1432.93128,163.196234 1450.25594,178.414587 C1467.57709,193.636461 1476.23766,217.495683 1476.23766,249.999296 C1476.23766,282.502908 1467.57709,306.341004 1450.25594,321.517103 C1432.93128,336.693202 1405.23504,344.281251 1367.17077,344.281251 L1293.62631,344.281251 C1290.20432,344.281251 1287.26466,343.119276 1284.81083,340.795326 C1282.35348,338.471376 1281.12481,335.598128 1281.12481,332.175584 L1281.12481,332.175584 Z" id="Fill-10"></path>
            <path d="M1641.35677,202.956558 C1632.49201,192.428359 1618.17742,187.16426 1598.39892,187.16426 C1578.62043,187.16426 1564.27767,192.428359 1555.37418,202.956558 C1546.47421,213.484756 1542.0207,229.164378 1542.0207,249.998944 C1542.0207,270.833509 1546.47421,286.495525 1555.37418,296.974428 C1564.27767,307.460373 1578.62043,312.699825 1598.39892,312.699825 C1618.17742,312.699825 1632.49201,307.460373 1641.35677,296.974428 C1650.2145,286.495525 1654.64336,270.833509 1654.64336,249.998944 C1654.64336,229.164378 1650.2145,213.484756 1641.35677,202.956558 M1677.3404,324.738591 C1659.39963,340.488635 1633.08698,348.361897 1598.39892,348.361897 C1563.70734,348.361897 1537.37356,340.488635 1519.39055,324.738591 C1501.41106,308.995589 1492.41956,284.058899 1492.41956,249.932042 C1492.41956,215.808707 1501.41106,190.896664 1519.39055,175.192395 C1537.37356,159.488125 1563.70734,151.635991 1598.39892,151.635991 C1633.08698,151.635991 1659.39963,159.488125 1677.3404,175.192395 C1695.27412,190.896664 1704.2445,215.808707 1704.2445,249.932042 C1704.2445,284.058899 1695.27412,308.995589 1677.3404,324.738591" id="Fill-12"></path>
            <path d="M1780.81453,238.090459 L1836.86182,238.090459 C1845.89557,238.090459 1853.85556,236.29468 1860.74177,232.696078 C1867.62446,229.097476 1871.07109,223.350981 1871.07109,215.456593 C1871.07109,207.562204 1867.62446,201.815709 1860.74177,198.217108 C1853.85556,194.622027 1845.89557,192.826247 1836.86182,192.826247 L1780.81453,192.826247 L1780.81453,238.090459 Z M1927.11837,338.622433 C1927.11837,342.397091 1924.88282,344.280899 1920.40467,344.280899 L1888.8323,344.280899 C1885.49481,344.280899 1881.83343,343.076671 1877.84816,340.661171 C1873.85585,338.252713 1870.80704,335.333691 1868.70175,331.914667 L1846.33564,296.911048 C1837.12586,282.523683 1825.98682,275.330001 1812.9185,275.330001 L1780.81453,275.330001 L1780.81453,331.914667 C1780.81453,335.333691 1779.60698,338.252713 1777.19892,340.661171 C1774.78382,343.076671 1771.8688,344.280899 1768.44681,344.280899 L1743.71489,344.280899 C1740.29291,344.280899 1737.35324,343.076671 1734.89941,340.661171 C1732.44206,338.252713 1731.21339,335.333691 1731.21339,331.914667 L1731.21339,168.086741 C1731.21339,164.664196 1732.39982,161.727568 1734.76915,159.269815 C1737.13497,156.812061 1740.02887,155.583185 1743.45085,155.583185 L1851.99318,155.583185 C1872.07797,155.583185 1888.54714,160.981087 1901.39717,171.76985 C1914.24369,182.558613 1920.67223,197.122034 1920.67223,215.456593 C1920.67223,240.984834 1904.13617,256.995442 1871.07109,263.484897 C1876.33432,265.418001 1881.20325,268.731391 1885.67436,273.421545 C1890.14899,278.11522 1895.27844,284.935662 1901.06624,293.88287 L1925.01308,331.914667 C1926.41426,334.3689 1927.11837,336.608343 1927.11837,338.622433 L1927.11837,338.622433 Z" id="Fill-14"></path>
            <path d="M2002.63716,261.512708 L2086.44405,261.512708 L2086.44405,192.825895 L2048.94659,192.825895 C2040.52893,192.825895 2033.18153,195.213226 2026.91141,199.99493 C2020.63778,204.776633 2016.40607,211.202708 2014.21276,219.273153 L2002.63716,261.512708 Z M1933.43355,332.174879 L1966.45639,206.9034 C1975.40212,172.780064 2004.52066,155.670861 2053.81552,155.586354 L2124.73012,155.586354 C2127.97608,155.586354 2130.6693,156.81523 2132.82389,159.269463 C2134.96791,161.727216 2136.0452,164.579337 2136.0452,167.822304 L2136.0452,332.174879 C2136.0452,335.597424 2134.81652,338.470672 2132.36269,340.794622 C2129.90182,343.118572 2126.96568,344.280547 2123.54722,344.280547 L2098.80825,344.280547 C2095.21376,344.280547 2092.25297,343.118572 2089.9294,340.794622 C2087.60584,338.470672 2086.44405,335.509396 2086.44405,331.914315 L2086.44405,298.75225 L1992.8993,298.75225 L1984.08382,331.914315 C1983.20368,335.509396 1981.23217,338.470672 1978.16576,340.794622 C1975.09232,343.118572 1971.84988,344.280547 1968.4279,344.280547 L1942.50955,344.280547 C1939.08757,344.280547 1936.63374,343.294629 1935.14102,341.322792 C1933.6483,339.347435 1932.92659,337.615036 1932.97236,336.122074 C1933.0146,334.632633 1933.16951,333.315728 1933.43355,332.174879 L1933.43355,332.174879 Z" id="Fill-16"></path>
            <path d="M2223.2702,238.090459 L2279.31748,238.090459 C2288.35124,238.090459 2296.31122,236.29468 2303.19743,232.696078 C2310.08012,229.097476 2313.52675,223.350981 2313.52675,215.456593 C2313.52675,207.562204 2310.08012,201.815709 2303.19743,198.217108 C2296.31122,194.622027 2288.35124,192.826247 2279.31748,192.826247 L2223.2702,192.826247 L2223.2702,238.090459 Z M2369.57403,338.622433 C2369.57403,342.397091 2367.33848,344.280899 2362.86033,344.280899 L2331.28796,344.280899 C2327.95047,344.280899 2324.28909,343.076671 2320.30382,340.661171 C2316.31151,338.252713 2313.26271,335.333691 2311.15741,331.914667 L2288.79131,296.911048 C2279.58152,282.523683 2268.44248,275.330001 2255.37417,275.330001 L2223.2702,275.330001 L2223.2702,331.914667 C2223.2702,335.333691 2222.06264,338.252713 2219.65458,340.661171 C2217.23948,343.076671 2214.32446,344.280899 2210.90247,344.280899 L2186.17055,344.280899 C2182.74857,344.280899 2179.8089,343.076671 2177.35508,340.661171 C2174.89773,338.252713 2173.66905,335.333691 2173.66905,331.914667 L2173.66905,168.086741 C2173.66905,164.664196 2174.85548,161.727568 2177.22481,159.269815 C2179.59063,156.812061 2182.48453,155.583185 2185.90651,155.583185 L2294.44884,155.583185 C2314.53363,155.583185 2331.0028,160.981087 2343.85284,171.76985 C2356.69935,182.558613 2363.12789,197.122034 2363.12789,215.456593 C2363.12789,240.984834 2346.59183,256.995442 2313.52675,263.484897 C2318.78998,265.418001 2323.65891,268.731391 2328.13002,273.421545 C2332.60465,278.11522 2337.73411,284.935662 2343.5219,293.88287 L2367.46874,331.914667 C2368.86992,334.3689 2369.57403,336.608343 2369.57403,338.622433 L2369.57403,338.622433 Z" id="Fill-18"></path>
            <path d="M2405.03275,322.042456 C2388.76072,306.514244 2380.62471,282.503613 2380.62471,250 C2380.62471,217.496387 2388.76072,193.461108 2405.03275,177.890642 C2421.30124,162.316654 2445.70927,154.531421 2478.24979,154.531421 L2507.59013,154.531421 C2527.49888,154.531421 2545.1052,159.707492 2560.41258,170.059634 C2575.71645,180.411776 2583.37014,194.58083 2583.37014,212.563275 C2583.37014,217.739346 2581.83518,221.443582 2578.76877,223.679503 C2575.69533,225.918946 2572.71341,227.038668 2569.81951,227.038668 L2554.16359,227.038668 C2546.09095,227.038668 2539.82084,222.211189 2535.34973,212.563275 C2528.85782,198.70056 2518.06731,191.770963 2502.98172,191.770963 L2479.56648,191.770963 C2460.35832,191.770963 2447.33225,195.894214 2440.48829,204.140716 C2433.64784,212.387218 2430.22586,227.651345 2430.22586,249.933098 C2430.22586,272.218372 2433.64784,287.500106 2440.48829,295.792383 C2447.33225,304.081138 2460.35832,308.225516 2479.56648,308.225516 L2505.74535,308.225516 C2520.83447,308.225516 2531.57569,301.295919 2537.98311,287.436725 C2542.45422,277.697261 2548.7701,272.827529 2556.92723,272.827529 L2572.58315,272.827529 C2576.70573,272.827529 2579.96928,274.362745 2582.38439,277.436697 C2584.79597,280.507128 2586,283.838123 2586,287.436725 C2586,305.41917 2578.37095,319.563576 2563.10933,329.873464 C2547.84771,340.179831 2530.259,345.334776 2510.35024,345.334776 L2478.24979,345.334776 C2445.70927,345.334776 2421.30124,337.570669 2405.03275,322.042456" id="Fill-20"></path>
        </g>
    </g>
</svg>