<?xml version="1.0" encoding="UTF-8"?>
<svg width="40px" height="40px" viewBox="0 0 40 40" version="1.1" xmlns="http://www.w3.org/2000/svg" xmlns:xlink="http://www.w3.org/1999/xlink">
    <title>Icons/Dark/40/Alert icon error</title>
    <defs>
        <linearGradient x1="100%" y1="0%" x2="0%" y2="50%" id="linearGradient-1">
            <stop stop-color="#F72222" offset="0%"></stop>
            <stop stop-color="#E12D81" offset="100%"></stop>
        </linearGradient>
        <path d="M0,14.605519 L0,5.39448104 C0,1.5951272 4.59496118,0 10,0 C15.4050388,0 20,1.5951272 20,5.39448104 L20,14.605519 C20,18.4048728 15.4050388,20 10,20 C4.59496118,20 0,18.4048728 0,14.605519 Z" id="path-2"></path>
    </defs>
    <g id="Icons/Dark/40/Alert-icon-error" stroke="none" stroke-width="1" fill="none" fill-rule="evenodd">
        <path d="M0,29.2110379 L0,10.7889621 C0,3.19025441 9.18992236,0 20,0 C30.8100776,0 40,3.19025441 40,10.7889621 L40,29.2110379 C40,36.8097456 30.8100776,40 20,40 C9.18992236,40 0,36.8097456 0,29.2110379 Z" id="Path-3" fill="#FBDADA"></path>
        <g id="Path" transform="translate(10, 10)">
            <mask id="mask-3" fill="white">
                <use xlink:href="#path-2"></use>
            </mask>
            <use id="Mask" fill="url(#linearGradient-1)" xlink:href="#path-2"></use>
            <path d="M8.29983345,6.3436419 L8.36636552,6.40600414 L10.0000673,8.03953994 L11.6336345,6.40600414 C12.1749733,5.86466529 13.052657,5.86466529 13.5939959,6.40600414 C14.1136812,6.92568943 14.1344686,7.75535013 13.6563581,8.29983345 L13.5939959,8.36636552 L11.9605948,10.0000673 L13.5939959,11.6336345 C14.1353347,12.1749733 14.1353347,13.052657 13.5939959,13.5939959 C13.0743106,14.1136812 12.2446499,14.1344686 11.7001665,13.6563581 L11.6336345,13.5939959 L10.0000673,11.9605948 L8.36636552,13.5939959 C7.82502667,14.1353347 6.94734298,14.1353347 6.40600414,13.5939959 C5.88631884,13.0743106 5.86553143,12.2446499 6.3436419,11.7001665 L6.40600414,11.6336345 L8.03953994,10.0000673 L6.40600414,8.36636552 C5.86466529,7.82502667 5.86466529,6.94734298 6.40600414,6.40600414 C6.90403588,5.9079724 7.68674989,5.86812986 8.23033079,6.28647652 L8.29983345,6.3436419 Z" id="Path-3" fill="#FFFFFF" fill-rule="nonzero" mask="url(#mask-3)"></path>
        </g>
    </g>
</svg>