<?xml version="1.0" encoding="UTF-8"?>
<svg width="40px" height="40px" viewBox="0 0 40 40" version="1.1" xmlns="http://www.w3.org/2000/svg" xmlns:xlink="http://www.w3.org/1999/xlink">
    <title>Icons/Dark/40/Alert icon favorite</title>
    <defs>
        <linearGradient x1="100%" y1="0%" x2="0%" y2="50%" id="linearGradient-1">
            <stop stop-color="#814CCB" offset="0%"></stop>
            <stop stop-color="#B66BD9" offset="100%"></stop>
        </linearGradient>
        <path d="M0,14.605519 L0,5.39448104 C0,1.5951272 4.59496118,0 10,0 C15.4050388,0 20,1.5951272 20,5.39448104 L20,14.605519 C20,18.4048728 15.4050388,20 10,20 C4.59496118,20 0,18.4048728 0,14.605519 Z" id="path-2"></path>
    </defs>
    <g id="Icons/Dark/40/Alert-icon-favorite" stroke="none" stroke-width="1" fill="none" fill-rule="evenodd">
        <path d="M0,29.2110379 L0,10.7889621 C0,3.19025441 9.18992236,0 20,0 C30.8100776,0 40,3.19025441 40,10.7889621 L40,29.2110379 C40,36.8097456 30.8100776,40 20,40 C9.18992236,40 0,36.8097456 0,29.2110379 Z" id="Path-3" fill="#E9DFF7"></path>
        <g id="Status-check" transform="translate(10, 10)">
            <mask id="mask-3" fill="white">
                <use xlink:href="#path-2"></use>
            </mask>
            <use id="Mask" fill="url(#linearGradient-1)" xlink:href="#path-2"></use>
            <path d="M14.2568899,6.39303483 C13.7790757,5.7960199 13.0840733,5.44776119 12.3890709,5.39800995 L12.3021956,5.39800995 C11.4334425,5.39800995 10.6515648,5.89552239 10.130313,6.69154229 C9.65249878,5.64676617 8.74030808,5 7.74124208,5 C7.74124208,5 7.69780443,5 7.69780443,5 C6.95936434,5 6.22092425,5.34825871 5.74311008,5.99502488 C5.22185825,6.5920398 4.96123233,7.43781095 5.00466999,8.28358209 C5.09154529,9.7761194 5.74311008,10.5223881 6.35123721,11.1691542 C7.04623964,11.9651741 7.69780443,12.6119403 7.48061617,14.5024876 C7.48061617,14.800995 7.61092912,15 7.82811739,15 C7.91499269,15 7.95843034,15 8.0887433,14.9502488 C12.6062591,13.358209 14.99533,11.2189055 14.99533,8.83084577 L14.99533,8.78109453 C15.0387677,7.8358209 14.7781418,7.039801 14.2568899,6.39303483 Z M7.82811739,14.7014925 L7.82811739,14.4527363 C7.82811739,14.4527363 7.82811739,14.4527363 7.82811739,14.4527363 L7.82811739,14.7014925 Z" id="Shape" fill="#FFFFFF" fill-rule="nonzero" mask="url(#mask-3)"></path>
        </g>
    </g>
</svg>