<?xml version="1.0" encoding="UTF-8"?>
<svg width="40px" height="40px" viewBox="0 0 40 40" version="1.1" xmlns="http://www.w3.org/2000/svg" xmlns:xlink="http://www.w3.org/1999/xlink">
    <title>Icons/Dark/40/Alert icon information</title>
    <defs>
        <linearGradient x1="0%" y1="50%" x2="100%" y2="0%" id="linearGradient-1">
            <stop stop-color="#0086FF" offset="0%"></stop>
            <stop stop-color="#004EFF" offset="100%"></stop>
        </linearGradient>
    </defs>
    <g id="Icons/Dark/40/Alert-icon-information" stroke="none" stroke-width="1" fill="none" fill-rule="evenodd">
        <g id="Group">
            <path d="M0,29.2110379 L0,10.7889621 C0,3.19025441 9.18992236,0 20,0 C30.8100776,0 40,3.19025441 40,10.7889621 L40,29.2110379 C40,36.8097456 30.8100776,40 20,40 C9.18992236,40 0,36.8097456 0,29.2110379 Z" id="Path-3" fill="#D6E2FF"></path>
            <path d="M10,24.605519 L10,15.394481 C10,11.5951272 14.5949612,10 20,10 C25.4050388,10 30,11.5951272 30,15.394481 L30,24.605519 C30,28.4048728 25.4050388,30 20,30 C14.5949612,30 10,28.4048728 10,24.605519 Z" id="Path-3" fill="url(#linearGradient-1)"></path>
            <path d="M22.5713807,24.7563706 C22.5312282,24.8064951 21.5738418,26 19.9765248,26 C19.9125317,26 19.8472839,25.9986453 19.7832908,25.9945811 C19.1458697,25.9539397 18.618868,25.6491285 18.2963932,25.1356911 C17.9011419,24.5057481 17.847187,23.6278921 18.1445665,22.6633342 L18.6540015,21.0092259 C18.9363238,20.0839548 18.6665491,19.9362907 18.5209963,19.8577172 C18.4820985,19.8360417 18.420615,19.8238493 18.345329,19.8238493 C18.0303828,19.8238493 17.5962338,20.0243473 17.4569548,20.1029208 C17.3264591,20.1760755 17.1620848,20.1381434 17.0667225,20.0121548 C16.9751246,19.8834568 16.9776342,19.7046343 17.0755059,19.5813551 C17.1169132,19.5285212 18.163388,18.2334126 19.8648506,18.3431446 C20.4985074,18.3824313 21.0255091,18.6858877 21.3479839,19.1979704 C21.74449,19.8279134 21.7996997,20.7071242 21.5035749,21.6743915 L20.9941399,23.3284998 C20.7093081,24.2524162 20.9815923,24.401435 21.1271451,24.4800085 C21.1522405,24.4935557 21.2049406,24.511167 21.2990481,24.511167 C21.6177586,24.511167 22.0519076,24.310669 22.1924414,24.2334502 C22.3254466,24.1575861 22.4873114,24.1982276 22.5814189,24.3255709 C22.671762,24.4542689 22.6692525,24.6330914 22.5713807,24.7563706 Z M20.2693902,14 C21.2410593,14.0022763 22.0318205,14.7944306 22.0340961,15.7641368 C22.0340961,16.7349811 21.2433349,17.5271355 20.270528,17.5294118 C19.2988589,17.5271355 18.5069599,16.7349811 18.5046843,15.765275 C18.5046843,14.7921543 19.2965833,14 20.2693902,14 Z" id="Path-3" fill="#FFFFFF" fill-rule="nonzero"></path>
        </g>
    </g>
</svg>