<?xml version="1.0" encoding="UTF-8"?>
<svg width="40px" height="40px" viewBox="0 0 40 40" version="1.1" xmlns="http://www.w3.org/2000/svg" xmlns:xlink="http://www.w3.org/1999/xlink">
    <title>Icons/Dark/40/Alert icon popular</title>
    <defs>
        <linearGradient x1="100%" y1="0%" x2="0%" y2="50%" id="linearGradient-1">
            <stop stop-color="#E4EE3B" offset="0%"></stop>
            <stop stop-color="#DFAA1E" offset="100%"></stop>
        </linearGradient>
    </defs>
    <g id="Icons/Dark/40/Alert-icon-popular" stroke="none" stroke-width="1" fill="none" fill-rule="evenodd">
        <path d="M0,29.2110379 L0,10.7889621 C0,3.19025441 9.18992236,0 20,0 C30.8100776,0 40,3.19025441 40,10.7889621 L40,29.2110379 C40,36.8097456 30.8100776,40 20,40 C9.18992236,40 0,36.8097456 0,29.2110379 Z" id="Path-3" fill="#E9DFF7"></path>
        <g id="Group">
            <path d="M0,29.2110379 L0,10.7889621 C0,3.19025441 9.18992236,0 20,0 C30.8100776,0 40,3.19025441 40,10.7889621 L40,29.2110379 C40,36.8097456 30.8100776,40 20,40 C9.18992236,40 0,36.8097456 0,29.2110379 Z" id="Path-3" fill="#FFFAB8"></path>
            <path d="M10,24.605519 L10,15.394481 C10,11.5951272 14.5949612,10 20,10 C25.4050388,10 30,11.5951272 30,15.394481 L30,24.605519 C30,28.4048728 25.4050388,30 20,30 C14.5949612,30 10,28.4048728 10,24.605519 Z" id="Path-3" fill="url(#linearGradient-1)"></path>
            <path d="M24.9626788,18.7571206 C24.8787507,18.5056935 24.6666091,18.3253374 24.4094678,18.2860519 L21.7991261,17.8949828 L20.6241331,15.4007119 C20.5073481,15.1535705 20.2684209,15 20.0002082,15 C19.7319955,15 19.4930684,15.1535705 19.3762834,15.4007119 L18.2184331,17.8860543 L15.5909487,18.2860519 C15.3338073,18.3253374 15.1220229,18.5056935 15.0377377,18.7571206 C14.9516667,19.0153333 15.0152378,19.2953317 15.2038081,19.4878305 L17.104154,21.432819 L16.6552281,24.1742313 C16.6105855,24.4481583 16.7212991,24.716371 16.9448692,24.87387 C17.1598679,25.0263691 17.4362949,25.041369 17.6662935,24.9145841 L19.9837798,23.620306 L22.334123,24.9145841 C22.5648359,25.041369 22.8405485,25.0256548 23.0555472,24.87387 C23.2791174,24.716371 23.3901881,24.4481583 23.3451884,24.1742313 L22.8955482,21.4292476 L24.7966084,19.4878305 C24.9851787,19.2953317 25.0487497,19.0153333 24.9626788,18.7571206 Z" id="XMLID_328_" fill="#FFFFFF" fill-rule="nonzero"></path>
        </g>
    </g>
</svg>