<?xml version="1.0" encoding="UTF-8"?>
<svg width="40px" height="40px" viewBox="0 0 40 40" version="1.1" xmlns="http://www.w3.org/2000/svg" xmlns:xlink="http://www.w3.org/1999/xlink">
    <title>Icons/Dark/40/Alert icon question</title>
    <defs>
        <linearGradient x1="0%" y1="50%" x2="100%" y2="0%" id="linearGradient-1">
            <stop stop-color="#3F5393" offset="0%"></stop>
            <stop stop-color="#1F76B7" offset="100%"></stop>
        </linearGradient>
    </defs>
    <g id="Icons/Dark/40/Alert-icon-question" stroke="none" stroke-width="1" fill="none" fill-rule="evenodd">
        <path d="M0,29.2110379 L0,10.7889621 C0,3.19025441 9.18992236,0 20,0 C30.8100776,0 40,3.19025441 40,10.7889621 L40,29.2110379 C40,36.8097456 30.8100776,40 20,40 C9.18992236,40 0,36.8097456 0,29.2110379 Z" id="Path-3" fill="#E9DFF7"></path>
        <g id="Group">
            <path d="M0,29.2110379 L0,10.7889621 C0,3.19025441 9.18992236,0 20,0 C30.8100776,0 40,3.19025441 40,10.7889621 L40,29.2110379 C40,36.8097456 30.8100776,40 20,40 C9.18992236,40 0,36.8097456 0,29.2110379 Z" id="Path-3" fill="#E2E7F3"></path>
            <path d="M10,24.605519 L10,15.394481 C10,11.5951272 14.5949612,10 20,10 C25.4050388,10 30,11.5951272 30,15.394481 L30,24.605519 C30,28.4048728 25.4050388,30 20,30 C14.5949612,30 10,28.4048728 10,24.605519 Z" id="Path-3" fill="url(#linearGradient-1)"></path>
            <path d="M22.5458333,19.7352941 L20.6666667,20.9705882 L20.6666667,21.0588235 C20.6666667,21.6323529 20.2083333,22.1176471 19.6666667,22.1176471 C19.125,22.1176471 18.6666667,21.6323529 18.6666667,21.0588235 L18.6666667,20.3529412 C18.6666667,20 18.8333333,19.6470588 19.1666667,19.4264706 L21.5416667,17.9264706 C21.8333333,17.75 22,17.4411765 22,17.0882353 C22,16.5588235 21.5458333,16.1176471 21.0458333,16.1176471 L18.9166667,16.1176471 C18.3791667,16.1176471 18,16.5588235 18,17.0882353 C18,17.6617647 17.5416667,18.1470588 17,18.1470588 C16.4583333,18.1470588 16,17.6617647 16,17.0882353 C16,15.3676471 17.2916667,14 18.8791667,14 L21.0083333,14 C22.7083333,14 24,15.3676471 24,17.0882353 C24,18.1470588 23.4583333,19.1617647 22.5458333,19.7352941 Z M19.6666667,26 C18.9166667,26 18.3333333,25.3823529 18.3333333,24.5882353 C18.3333333,23.7941176 18.8791667,23.1764706 19.6666667,23.1764706 C20.3791667,23.1764706 21,23.7941176 21,24.5882353 C21,25.3823529 20.3791667,26 19.6666667,26 Z" id="Path-3" fill="#FFFFFF" fill-rule="nonzero"></path>
        </g>
    </g>
</svg>