<?xml version="1.0" encoding="UTF-8"?>
<svg width="20px" height="20px" viewBox="0 0 20 20" version="1.1" xmlns="http://www.w3.org/2000/svg" xmlns:xlink="http://www.w3.org/1999/xlink">
    <title>Add alert@svg</title>
    <g id="Add-alert" stroke="none" stroke-width="1" fill="none" fill-rule="evenodd">
        <path d="M10,18 C10,19.1046875 9.10426763,20 8,20 C6.89573237,20 6,19.1046875 6,18 Z M8,2 C8.47753934,2 8.88669653,2.29621004 9.05726495,2.71662986 C8.40926188,3.26642114 8,4.08541645 8,5 L8.00509269,5.17627279 C8.09633912,6.75108004 9.40231912,8 11,8 L12,8 L12,9 C12,10.2760205 12.7966542,11.3659725 13.9197222,11.7996155 C14.313005,13.7223855 15.173052,14.4998338 15.6924763,15.0633413 C15.9067613,15.2955529 16.001761,15.5739183 16,15.8461538 C15.9964039,16.4375 15.5364053,17 14.8535503,17 L1.14644973,17 C0.46359469,17 0.00395325166,16.4375 -1.59872116e-13,15.8461538 C-0.00176101642,15.5739183 0.0932386904,15.2959135 0.307523743,15.0633413 C0.997521614,14.3147837 2.28858906,13.1887019 2.28858906,9.5 C2.28858906,6.69831731 4.23429734,4.45552885 6.85786067,3.90528846 L6.85786067,3.15384615 C6.85786067,2.51670673 7.36928766,2 8,2 Z M15,0 C15.5522847,-1.01453063e-16 16,0.44771525 16,1 L16,3.999 L19,4 C19.5522847,4 20,4.44771525 20,5 C20,5.55228475 19.5522847,6 19,6 L16,6 L16,9 C16,9.55228475 15.5522847,10 15,10 C14.4477153,10 14,9.55228475 14,9 L14,6 L11,6 C10.4477153,6 10,5.55228475 10,5 C10,4.44771525 10.4477153,4 11,4 L14,4 L14,1 C14,0.44771525 14.4477153,1.01453063e-16 15,0 Z" id="Shape" fill="#3F3F3F"></path>
    </g>
</svg>