<?xml version="1.0" encoding="UTF-8"?>
<svg  viewBox="0 0 20 20" version="1.1" xmlns="http://www.w3.org/2000/svg" xmlns:xlink="http://www.w3.org/1999/xlink">
    <!-- Generator: Sketch 61.2 (89653) - https://sketch.com -->
    <title>Dark / 20 / aix@svg</title>
    <desc>Created with Sketch.</desc>
    <g id="Dark-/-20-/-aix" stroke="none" stroke-width="1" fill="none" fill-rule="evenodd">
        <path d="M1.87794769,15 L2.63684436,12.7150917 L6.34128912,12.7150917 L7.10018579,15 L9.02958411,15 L5.55666714,5 L3.49864228,5 L0,15 L1.87794769,15 Z M5.74960697,10.9379408 L3.22852651,10.9379408 L4.48906674,7.15796897 L5.74960697,10.9379408 Z M11.2862655,15 L11.2862655,5 L9.48549378,5 L9.48549378,15 L11.2862655,15 Z M13.9031013,15 L15.8839503,11.5444288 L17.8519365,15 L20,15 L17.0030013,10.0070522 L19.9871373,5 L17.9162498,5 L15.9225382,8.45557123 L13.9674146,5 L11.8322138,5 L14.8163499,9.99294781 L11.8193512,15 L13.9031013,15 Z" id="AIX" fill="#3F3F3F"></path>
    </g>
</svg>