<?xml version="1.0" encoding="UTF-8"?>
<svg width="20px" height="20px" viewBox="0 0 20 20" version="1.1" xmlns="http://www.w3.org/2000/svg" xmlns:xlink="http://www.w3.org/1999/xlink">
    <!-- Generator: Sketch 61.2 (89653) - https://sketch.com -->
    <title>Dark / 20 / Menu Alerts@svg</title>
    <desc>Created with Sketch.</desc>
    <g id="Dark-/-20-/-Menu-Alerts" stroke="none" stroke-width="1" fill="none" fill-rule="evenodd">
        <path d="M10,20 C11.4190985,20 12.5702076,18.6570313 12.5702076,17 L7.42979244,17 C7.42979244,18.6570313 8.5809015,20 10,20 Z M18.6540098,13.9342308 C17.8777645,13.1357692 16.425318,11.9346154 16.425318,8 C16.425318,5.01153846 14.2364028,2.61923077 11.2849029,2.03230769 L11.2849029,1.23076923 C11.2849029,0.551153846 10.7095493,0 10,0 C9.29045075,0 8.71509711,0.551153846 8.71509711,1.23076923 L8.71509711,2.03230769 C5.76359722,2.61923077 3.57468198,5.01153846 3.57468198,8 C3.57468198,11.9346154 2.12223547,13.1357692 1.3459902,13.9342308 C1.10492023,14.1823077 0.998045886,14.4788462 1.00002702,14.7692308 C1.00447442,15.4 1.52156948,16 2.28977909,16 L17.7102209,16 C18.4784305,16 18.9959274,15.4 18.999973,14.7692308 C19.0019541,14.4788462 18.8950798,14.1819231 18.6540098,13.9342308 L18.6540098,13.9342308 Z" id="Shape" fill="#a6adb2"></path>
    </g>
</svg>