<?xml version="1.0" encoding="UTF-8"?>
<svg viewBox="0 0 20 20" version="1.1" xmlns="http://www.w3.org/2000/svg" xmlns:xlink="http://www.w3.org/1999/xlink">
    <!-- Generator: Sketch 61.2 (89653) - https://sketch.com -->
    <title>Dark / 20 / alert-yellow@svg</title>
    <desc>Created with Sketch.</desc>
    <g id="Dark-/-20-/-alert-yellow" stroke="none" stroke-width="1" fill="none" fill-rule="evenodd">
        <path d="M10.4657464,1.26217283 C10.6446248,1.35631936 10.7907717,1.50246622 10.8849182,1.68134462 L19.2285545,17.5342536 C19.4857792,18.0229804 19.2981096,18.6276936 18.8093827,18.8849182 C18.665772,18.9605028 18.5059233,19 18.3436363,19 L1.65636371,19 C1.10407896,19 0.656363713,18.5522847 0.656363713,18 C0.656363713,17.837713 0.6958609,17.6778643 0.771445491,17.5342536 L9.11508178,1.68134462 C9.37230643,1.19261778 9.97701959,1.00494818 10.4657464,1.26217283 Z M10,11 C9.44771525,11 9,11.4477153 9,12 L9,12 L9,15 C9,15.5522847 9.44771525,16 10,16 C10.5522847,16 11,15.5522847 11,15 L11,15 L11,12 C11,11.4477153 10.5522847,11 10,11 Z M10,8 C9.44771525,8 9,8.44771525 9,9 C9,9.55228475 9.44771525,10 10,10 C10.5522847,10 11,9.55228475 11,9 C11,8.44771525 10.5522847,8 10,8 Z" id="Triangle-2" fill="#FCAB10"></path>
    </g>
</svg>