<?xml version="1.0" encoding="UTF-8"?>
<svg  viewBox="0 0 20 20" version="1.1" xmlns="http://www.w3.org/2000/svg" xmlns:xlink="http://www.w3.org/1999/xlink">
    <!-- Generator: Sketch 61.2 (89653) - https://sketch.com -->
    <title>Dark / 20 / alert@svg</title>
    <desc>Created with Sketch.</desc>
    <g id="Dark-/-20-/-alert" stroke="none" stroke-width="1" fill="none" fill-rule="evenodd">
        <path d="M10,20 C11.4190985,20 12.5702076,18.8808594 12.5702076,17.5 L7.42979244,17.5 C7.42979244,18.8808594 8.5809015,20 10,20 Z M18.6540098,14.1519531 C17.8777645,13.3410156 16.425318,12.1210937 16.425318,8.125 C16.425318,5.08984375 14.2364028,2.66015625 11.2849029,2.0640625 L11.2849029,1.25 C11.2849029,0.559765625 10.7095493,0 10,0 C9.29045075,0 8.71509711,0.559765625 8.71509711,1.25 L8.71509711,2.0640625 C5.76359722,2.66015625 3.57468198,5.08984375 3.57468198,8.125 C3.57468198,12.1210938 2.12223547,13.3410156 1.3459902,14.1519531 C1.10492023,14.4039062 0.998045886,14.7050781 1.00002702,15 C1.00447442,15.640625 1.52156948,16.25 2.28977909,16.25 L17.7102209,16.25 C18.4784305,16.25 18.9959274,15.640625 18.999973,15 C19.0019541,14.7050781 18.8950798,14.4035156 18.6540098,14.1519531 L18.6540098,14.1519531 Z" id="Shape" fill="#3F3F3F"></path>
    </g>
</svg>