<?xml version="1.0" encoding="UTF-8"?>
<svg  viewBox="0 0 20 20" version="1.1" xmlns="http://www.w3.org/2000/svg" xmlns:xlink="http://www.w3.org/1999/xlink">
    <!-- Generator: Sketch 61.2 (89653) - https://sketch.com -->
    <title>Dark / 20 / android@svg</title>
    <desc>Created with Sketch.</desc>
    <g id="Dark-/-20-/-android" stroke="none" stroke-width="1" fill="none" fill-rule="evenodd">
        <path d="M5.2,15.0010417 C5.2,15.459375 5.56,15.834375 6,15.834375 L6.8,15.834375 L6.8,18.7510417 C6.8,19.4427083 7.336,20.0010417 8,20.0010417 C8.664,20.0010417 9.2,19.4427083 9.2,18.7510417 L9.2,15.834375 L10.8,15.834375 L10.8,18.7510417 C10.8,19.4427083 11.336,20.0010417 12,20.0010417 C12.664,20.0010417 13.2,19.4427083 13.2,18.7510417 L13.2,15.834375 L14,15.834375 C14.44,15.834375 14.8,15.459375 14.8,15.0010417 L14.8,6.66770833 L5.2,6.66770833 L5.2,15.0010417 Z M3.2,6.66770833 C2.536,6.66770833 2,7.22604167 2,7.91770833 L2,13.7510417 C2,14.4427083 2.536,15.0010417 3.2,15.0010417 C3.864,15.0010417 4.4,14.4427083 4.4,13.7510417 L4.4,7.91770833 C4.4,7.22604167 3.864,6.66770833 3.2,6.66770833 Z M16.8,6.66770833 C16.136,6.66770833 15.6,7.22604167 15.6,7.91770833 L15.6,13.7510417 C15.6,14.4427083 16.136,15.0010417 16.8,15.0010417 C17.464,15.0010417 18,14.4427083 18,13.7510417 L18,7.91770833 C18,7.22604167 17.464,6.66770833 16.8,6.66770833 Z M12.824,1.80104167 L13.868,0.713541667 C14.024,0.551041667 14.024,0.288541667 13.868,0.126041667 C13.712,-0.0364583333 13.46,-0.0364583333 13.304,0.126041667 L12.12,1.35520833 C11.48,1.02604167 10.764,0.834375 10,0.834375 C9.232,0.834375 8.512,1.02604167 7.868,1.359375 L6.68,0.121875 C6.524,-0.040625 6.272,-0.040625 6.116,0.121875 C5.96,0.284375 5.96,0.546875 6.116,0.709375 L7.164,1.80104167 C5.976,2.71354167 5.2,4.18020833 5.2,5.834375 L14.8,5.834375 C14.8,4.17604167 14.02,2.709375 12.824,1.80104167 L12.824,1.80104167 Z M8.4,4.16770833 L7.6,4.16770833 L7.6,3.334375 L8.4,3.334375 L8.4,4.16770833 Z M12.4,4.16770833 L11.6,4.16770833 L11.6,3.334375 L12.4,3.334375 L12.4,4.16770833 Z" id="Shape" fill="#3F3F3F"></path>
    </g>
</svg>