<?xml version="1.0" encoding="UTF-8"?>
<svg width="18px" height="20px" viewBox="0 0 18 20" version="1.1" xmlns="http://www.w3.org/2000/svg" xmlns:xlink="http://www.w3.org/1999/xlink">
    <!-- Generator: Sketch 61.2 (89653) - https://sketch.com -->
    <title>apple-grey@svg</title>
    <desc>Created with Sketch.</desc>
    <g id="Mockups" stroke="none" stroke-width="1" fill="none" fill-rule="evenodd">
        <g id="Deploy-agents---1-Default" transform="translate(-1075.000000, -276.000000)" fill="#95A3BF">
            <g id="Popup" transform="translate(640.000000, 90.000000)">
                <g id="Content" transform="translate(0.000000, 13.000000)">
                    <g id="OS" transform="translate(20.000000, 133.000000)">
                        <g transform="translate(400.000000, 26.000000)" id="Icons/Dark/20/apple-grey">
                            <g transform="translate(14.000000, 14.000000)">
                                <path d="M11.0828122,4.66404762 C10.7880362,4.75190476 10.3713494,4.8197619 9.83853445,4.86785714 C9.86251847,3.67395238 10.1724148,2.64414286 10.7728685,1.77985714 C11.3622782,0.921142857 12.3579468,0.327809524 13.7615808,0 C13.7703023,0.022952381 13.7815833,0.0689047619 13.7923903,0.132714286 C13.8032922,0.19652381 13.8141466,0.240285714 13.8229629,0.264380952 C13.8229629,0.296095238 13.8250958,0.336619048 13.8294565,0.384714286 C13.8316843,0.433238095 13.8338173,0.472619048 13.8338173,0.505761905 C13.8338173,0.994428571 13.7180209,1.53852381 13.4868548,2.13947619 C13.2487683,2.74042857 12.8774426,3.2932381 12.3753897,3.79795238 C11.9452415,4.22971429 11.512913,4.5192381 11.0828122,4.66404762 Z M16.4425298,13.0888571 C15.8926037,12.2968095 15.6174985,11.4019048 15.6174985,10.4085714 C15.6174985,9.5027619 15.8752556,8.67347619 16.3946566,7.9212381 C16.6741226,7.511 17.1282548,7.03942857 17.759044,6.50233333 C17.3442058,5.98890476 16.9296519,5.58995238 16.5148137,5.30038095 C15.7637252,4.78038095 14.9144254,4.51928571 13.9648762,4.51928571 C13.3993084,4.51928571 12.7092701,4.65528571 11.8972735,4.92733333 C11.1158495,5.20157143 10.5436931,5.33614286 10.1855444,5.33614286 C9.91475245,5.33614286 9.36477894,5.21690476 8.53500766,4.97585714 C7.69689412,4.73519048 6.99164067,4.61590476 6.41739875,4.61590476 C5.04419506,4.61590476 3.91320154,5.19242857 3.0180667,6.3462381 C2.11643815,7.51538095 1.66666667,9.01561905 1.66666667,10.840381 C1.66666667,12.7818571 2.25399078,14.7951429 3.42641124,16.8875714 C4.61414166,18.9625238 5.81485948,20 7.02647912,20 C7.4326433,20 7.96081314,19.8639524 8.60511116,19.5919524 C9.25121034,19.3268571 9.81886376,19.1948095 10.3056067,19.1948095 C10.8233013,19.1948095 11.4257932,19.3231429 12.1111389,19.5787619 C12.8360157,19.8355238 13.394995,19.9635238 13.785944,19.9635238 C14.8077297,19.9635238 15.8313165,19.1787619 16.8618236,17.6081429 C17.5300582,16.6067619 18.0211619,15.6057619 18.3333333,14.604381 C17.6214914,14.3870952 16.9928825,13.8827143 16.4425298,13.0888571 Z" id="Shape"></path>
                            </g>
                        </g>
                    </g>
                </g>
            </g>
        </g>
    </g>
</svg>