<?xml version="1.0" encoding="UTF-8"?>
<svg width="20px" height="20px" viewBox="0 0 20 20" version="1.1" xmlns="http://www.w3.org/2000/svg" xmlns:xlink="http://www.w3.org/1999/xlink">
    <!-- Generator: Sketch 61.2 (89653) - https://sketch.com -->
    <title>Dark / 20 / applications@svg</title>
    <desc>Created with Sketch.</desc>
    <g id="Dark-/-20-/-applications" stroke="none" stroke-width="1" fill="none" fill-rule="evenodd">
        <path d="M8,0 L1,0 C0.44771525,0 0,0.44771525 0,1 L0,8 C0,8.55228475 0.44771525,9 1,9 L8,9 C8.55228475,9 9,8.55228475 9,8 L9,1 C9,0.44771525 8.55228475,0 8,0 Z M7,2 L7,7 L2,7 L2,2 L7,2 Z" id="Rectangle" fill="#3F3F3F"></path>
        <path d="M8,11 L1,11 C0.44771525,11 0,11.4477153 0,12 L0,19 C0,19.5522847 0.44771525,20 1,20 L8,20 C8.55228475,20 9,19.5522847 9,19 L9,12 C9,11.4477153 8.55228475,11 8,11 Z M7,13 L7,18 L2,18 L2,13 L7,13 Z" id="Rectangle-Copy" fill="#3F3F3F"></path>
        <path d="M19,0 L12,0 C11.4477153,0 11,0.44771525 11,1 L11,8 C11,8.55228475 11.4477153,9 12,9 L19,9 C19.5522847,9 20,8.55228475 20,8 L20,1 C20,0.44771525 19.5522847,0 19,0 Z M18,2 L18,7 L13,7 L13,2 L18,2 Z" id="Rectangle" fill="#3F3F3F"></path>
        <path d="M13.6128994,12.2097046 L13.7071068,12.2928932 L15.5,14.085 L17.2928932,12.2928932 C17.6834175,11.9023689 18.3165825,11.9023689 18.7071068,12.2928932 C19.0675907,12.6533772 19.0953203,13.2206082 18.7902954,13.6128994 L18.7071068,13.7071068 L16.915,15.5 L18.7071068,17.2928932 C19.0976311,17.6834175 19.0976311,18.3165825 18.7071068,18.7071068 C18.3466228,19.0675907 17.7793918,19.0953203 17.3871006,18.7902954 L17.2928932,18.7071068 L15.5,16.915 L13.7071068,18.7071068 C13.3165825,19.0976311 12.6834175,19.0976311 12.2928932,18.7071068 C11.9324093,18.3466228 11.9046797,17.7793918 12.2097046,17.3871006 L12.2928932,17.2928932 L14.085,15.5 L12.2928932,13.7071068 C11.9023689,13.3165825 11.9023689,12.6834175 12.2928932,12.2928932 C12.6233369,11.9624496 13.1275055,11.9116121 13.5114029,12.1403808 L13.6128994,12.2097046 Z" id="Path-51" fill="#3F3F3F"></path>
    </g>
</svg>