<?xml version="1.0" encoding="UTF-8"?>
<svg  viewBox="0 0 20 20" version="1.1" xmlns="http://www.w3.org/2000/svg" xmlns:xlink="http://www.w3.org/1999/xlink">
    <!-- Generator: Sketch 61.2 (89653) - https://sketch.com -->
    <title>Dark / 20 / asynchronus-data@svg</title>
    <desc>Created with Sketch.</desc>
    <g id="Dark-/-20-/-asynchronus-data" stroke="none" stroke-width="1" fill="none" fill-rule="evenodd">
        <g id="Group" transform="translate(0.000000, 11.000000)" fill="#3F3F3F">
            <path d="M15.5,0 C13.0147186,0 11,2.01471863 11,4.5 C11,6.98528137 13.0147186,9 15.5,9 C17.9852814,9 20,6.98528137 20,4.5 C20,2.01471863 17.9852814,0 15.5,0 Z M15.5,2 C16.8807119,2 18,3.11928813 18,4.5 C18,5.88071187 16.8807119,7 15.5,7 C14.1192881,7 13,5.88071187 13,4.5 C13,3.11928813 14.1192881,2 15.5,2 Z" id="Rectangle-Copy"></path>
            <path d="M2.16201974,2.44631045 L0.167276827,5.44631045 C-0.274648019,6.11094474 0.201854457,6.99999999 1,6.99999999 L5,6.99999999 C5.79924454,6.99999999 6.27552418,6.10876536 5.83137728,5.44429161 L3.8261202,2.44429161 C3.42957825,1.85103808 2.55712108,1.85209653 2.16201974,2.44631045 Z" id="Path-9" transform="translate(3.000003, 4.500000) scale(-1, 1) rotate(90.000000) translate(-3.000003, -4.500000) "></path>
            <path d="M12,3.5 C12.5522847,3.5 13,3.94771525 13,4.5 C13,5.01283584 12.6139598,5.43550716 12.1166211,5.49327227 L12,5.5 L2.5,5.5 C1.94771525,5.5 1.5,5.05228475 1.5,4.5 C1.5,3.98716416 1.88604019,3.56449284 2.38337887,3.50672773 L2.5,3.5 L12,3.5 Z" id="Path-15"></path>
        </g>
        <g id="Group" transform="translate(10.500000, 4.500000) scale(-1, 1) translate(-10.500000, -4.500000) translate(1.000000, 1.000000)">
            <rect id="Rectangle-Copy" stroke="#3F3F3F" stroke-width="2" stroke-linecap="round" stroke-linejoin="round" x="12" y="0" width="7" height="7"></rect>
            <path d="M12,2.5 C12.5522847,2.5 13,2.94771525 13,3.5 C13,4.01283584 12.6139598,4.43550716 12.1166211,4.49327227 L12,4.5 L2.5,4.5 C1.94771525,4.5 1.5,4.05228475 1.5,3.5 C1.5,2.98716416 1.88604019,2.56449284 2.38337887,2.50672773 L2.5,2.5 L12,2.5 Z" id="Path-15" fill="#3F3F3F"></path>
            <path d="M2.16201974,1.44631045 L0.167276827,4.44631045 C-0.274648019,5.11094474 0.201854457,5.99999999 1,5.99999999 L5,5.99999999 C5.79924454,5.99999999 6.27552418,5.10876536 5.83137728,4.44429161 L3.8261202,1.44429161 C3.42957825,0.851038084 2.55712108,0.852096526 2.16201974,1.44631045 Z" id="Path-9" fill="#3F3F3F" transform="translate(3.000003, 3.500000) scale(-1, 1) rotate(90.000000) translate(-3.000003, -3.500000) "></path>
        </g>
    </g>
</svg>