<?xml version="1.0" encoding="UTF-8"?>
<svg width="20px" height="20px" viewBox="0 0 20 20" version="1.1" xmlns="http://www.w3.org/2000/svg" xmlns:xlink="http://www.w3.org/1999/xlink">
    <!-- Generator: Sketch 61.2 (89653) - https://sketch.com -->
    <title>Dark / 20 / Auto refresh@svg</title>
    <desc>Created with Sketch.</desc>
    <g id="Dark-/-20-/-Auto-refresh" stroke="none" stroke-width="1" fill="none" fill-rule="evenodd">
        <path d="M10,-2.30926389e-14 C15.5228475,-2.30926389e-14 20,4.4771525 20,10 C20,15.5228475 15.5228475,20 10,20 C9.44771525,20 9,19.5522847 9,19 C9,18.4477153 9.44771525,18 10,18 C14.418278,18 18,14.418278 18,10 C18,5.581722 14.418278,2 10,2 C5.581722,2 2,5.581722 2,10 C2,10.5522847 1.55228475,11 1,11 C0.44771525,11 -1.0658141e-14,10.5522847 -1.0658141e-14,10 C-1.0658141e-14,4.4771525 4.4771525,-2.30926389e-14 10,-2.30926389e-14 Z" id="Oval" fill="#3F3F3F" transform="translate(10.000000, 10.000000) scale(-1, 1) rotate(35.000000) translate(-10.000000, -10.000000) "></path>
        <path d="M19,0 C19.5128358,0 19.9355072,0.38604019 19.9932723,0.883378875 L20,1 L20,6 C20,6.51283584 19.6139598,6.93550716 19.1166211,6.99327227 L19,7 L14,7 C13.4477153,7 13,6.55228475 13,6 C13,5.48716416 13.3860402,5.06449284 13.8833789,5.00672773 L14,5 L18,5 L18,1 C18,0.487164161 18.3860402,0.0644928393 18.8833789,0.00672773133 L19,0 Z" id="Path-68" fill="#3F3F3F"></path>
        <path d="M6,4 C6.51283584,4 6.93550716,4.38604019 6.99327227,4.88337887 L7,5 L7,10.382 L10.4472136,12.1055728 C10.9059079,12.33492 11.1113142,12.8692292 10.9405643,13.3398958 L10.8944272,13.4472136 C10.66508,13.9059079 10.1307708,14.1113142 9.66010424,13.9405643 L9.5527864,13.8944272 L5.5527864,11.8944272 C5.25164505,11.7438565 5.0490966,11.4535358 5.00780363,11.1248553 L5,11 L5,5 C5,4.44771525 5.44771525,4 6,4 Z" id="Path-69" fill="#3F3F3F" transform="translate(8.000110, 9.000110) scale(-1, 1) translate(-8.000110, -9.000110) "></path>
    </g>
</svg>