<?xml version="1.0" encoding="UTF-8"?>
<svg width="30px" height="30px" viewBox="0 0 30 30" version="1.1" xmlns="http://www.w3.org/2000/svg" xmlns:xlink="http://www.w3.org/1999/xlink">
    <title>788260CF-3DE6-4D64-8B30-B9B35413937B</title>
    <g id="Consola-mobile" stroke="none" stroke-width="1" fill="none" fill-rule="evenodd">
        <g id="0a-Menu" transform="translate(-35.000000, -443.949166)" fill="#3F3F3F">
            <g id="Conmutador" transform="translate(20.000000, 122.000000)">
                <g id="Elemento" transform="translate(0.000000, 321.949166)">
                    <g id="Mobile-modules" transform="translate(15.000000, 0.000000)">
                        <path d="M15,0 C23.1075582,0 30,2.39269081 30,8.09172156 L30,21.9082784 C30,27.6073092 23.1075582,30 15,30 C6.89244177,30 0,27.6073092 0,21.9082784 L0,16.168 L8.72848758,16.1682636 L8.94543532,16.157208 L9.14227765,16.1277192 C9.65858418,16.028234 10.1028383,15.7637314 10.3982027,15.376652 L11.389,14.076 L14.4909605,20.4094649 L14.5913089,20.5871661 L14.683733,20.7158766 C15.5543921,21.8298347 17.4465108,21.7445543 18.1504724,20.5042927 L20.648,16.101 L22.4708713,16.1014498 L22.6743746,16.0918256 C23.7090033,15.9874588 24.5,15.2164353 24.5,14.2651742 C24.5,13.2349122 23.5776613,12.4288985 22.4708713,12.4288985 L19.409919,12.4288985 L19.1910819,12.4401369 L19.0210633,12.4648524 C18.4062088,12.5770255 17.8894481,12.923802 17.6052051,13.4245902 L16.48,15.405 L13.6321609,9.59066736 L13.5274502,9.40648929 C12.7565937,8.2511657 10.9446993,8.19475986 10.1076384,9.29174039 L7.662,12.495 L0,12.495 L0,8.09172156 C0,2.47775097 6.68823265,0.0721601488 14.6378059,0.00160207373 L15,0 Z" id="Mask"></path>
                    </g>
                </g>
            </g>
        </g>
    </g>
</svg>