<?xml version="1.0" encoding="UTF-8"?>
<svg width="20px" height="20px" viewBox="0 0 20 20" version="1.1" xmlns="http://www.w3.org/2000/svg" xmlns:xlink="http://www.w3.org/1999/xlink">
    <!-- Generator: Sketch 61.2 (89653) - https://sketch.com -->
    <title>Dark/20/builder@svg</title>
    <desc>Created with Sketch.</desc>
    <g id="Dark/20/builder" stroke="none" stroke-width="1" fill="none" fill-rule="evenodd">
        <path d="M11.2000009,9 C11.6418287,9 12.0000009,9.24624341 12.0000009,9.55 L12.0000009,18.625 C12.0000009,19.3444236 11.1963458,19.9348008 10.1725686,19.9949529 L10.0000009,20 C8.89543137,20 8.00000089,19.3843915 8.00000089,18.625 L8.00000089,9.55 C8.00000089,9.24624341 8.35817313,9 8.80000089,9 L11.2000009,9 Z M4.26666773,0 C4.58021643,0.000327502857 4.83365862,0.256429891 4.83333415,0.572021011 L4.83273845,1.1514049 C4.83209502,1.77722291 5.33889914,2.28507025 5.96471715,2.28571369 L5.9658822,2.28571429 C5.97463278,1.028388 6.98240281,0.00602907429 8.2306519,0 L17.2749359,0 C18.227663,0 19.0000009,0.778828069 19.0000009,1.73956118 L19.0000009,2.90444994 C19.0000009,3.21877749 18.7482417,3.47408731 18.4365385,3.47586469 C16.7044902,3.48574131 15.4517873,3.68716343 14.6784298,4.08013103 C13.8970625,4.47716869 13.4597945,5.60295629 13.3666256,7.45749383 C13.3513448,7.76145183 13.1024969,8 12.8006847,8 L8.89562156,8 C7.8879903,8 7.52254304,7.89465034 7.15382124,7.6965828 C6.78509944,7.49851526 6.49535873,7.20772989 6.29718553,6.8368584 C6.1461106,6.55412903 6.04847891,6.27306171 6.00847638,5.70526629 C5.95356666,5.71123749 5.88644204,5.71428571 5.80077411,5.71428571 C5.26339018,5.71428571 4.82759963,6.14962846 4.82704715,6.68701211 L4.82644971,7.2681156 C4.82618797,7.52268394 4.79983225,7.61497223 4.75041109,7.70800617 C4.70098993,7.80104006 4.62852471,7.87403851 4.53621487,7.92377851 C4.44390504,7.97351851 4.35235851,8 4.09991144,8 L2.72643507,8 C2.47383808,8 2.38224031,7.9734784 2.28989463,7.92367634 C2.19754894,7.87387434 2.12507551,7.80079189 2.0756885,7.70767023 C2.02630148,7.61454851 2.00000089,7.52218103 2.00000089,7.26746137 L2.00000089,0.732538629 C2.00000089,0.477818989 2.02630148,0.385451491 2.0756885,0.2923298 C2.12507551,0.199208109 2.19754894,0.126125657 2.28989463,0.0763236286 C2.38224031,0.0265216057 2.47383808,0 2.72643507,0 L4.26666773,0 Z" id="Shape" fill="#3F3F3F"></path>
    </g>
</svg>