<?xml version="1.0" encoding="UTF-8"?>
<svg viewBox="0 0 20 20" version="1.1" xmlns="http://www.w3.org/2000/svg" xmlns:xlink="http://www.w3.org/1999/xlink">
    <!-- Generator: Sketch 61.2 (89653) - https://sketch.com -->
    <title>Dark / 20 / change-pause@svg</title>
    <desc>Created with Sketch.</desc>
    <g id="Dark-/-20-/-change-pause" stroke="none" stroke-width="1" fill="none" fill-rule="evenodd">
        <path d="M5,1 C6.656,1 8,2.344 8,4 L8,4 L8,16 C8,17.656 6.656,19 5,19 C3.344,19 2,17.656 2,16 L2,16 L2,4 C2,2.344 3.344,1 5,1 Z M15,1 C16.656,1 18,2.344 18,4 L18,4 L18,16 C18,17.656 16.656,19 15,19 C13.344,19 12,17.656 12,16 L12,16 L12,4 C12,2.344 13.344,1 15,1 Z" id="Path-2" fill="#3F3F3F"></path>
    </g>
</svg>