<?xml version="1.0" encoding="UTF-8"?>
<svg width="16px" height="12px" viewBox="0 0 16 12" version="1.1" xmlns="http://www.w3.org/2000/svg" xmlns:xlink="http://www.w3.org/1999/xlink">
    <title>F1630B1D-C694-489C-8C8F-E98AF57D4F04</title>
    <g id="Welcome-wizard" stroke="none" stroke-width="1" fill="none" fill-rule="evenodd">
        <g id="Pandora-FMS---Welcome-Wizard-2023---1a-Welcome-wizard" transform="translate(-905, -629)" fill="#FFFFFF">
            <g id="Popup" transform="translate(460, 200)">
                <g id="Content" transform="translate(20, 96)">
                    <g id="Form" transform="translate(0, 292)">
                        <g id="Principal-por-defecto" transform="translate(305, 26)">
                            <g id="Group-2" transform="translate(38, 11)">
                                <g id="check" transform="translate(82, 4)">
                                    <path d="M6,12 C5.5,12 5,11.8 4.6,11.4 L0.6,7.4 C-0.2,6.6 -0.2,5.4 0.6,4.6 C1.4,3.8 2.7,3.8 3.4,4.6 L6,7.2 L12.6,0.6 C13.4,-0.2 14.6,-0.2 15.4,0.6 C16.2,1.4 16.2,2.6 15.4,3.4 L7.4,11.4 C7,11.8 6.5,12 6,12 Z"></path>
                                </g>
                            </g>
                        </g>
                    </g>
                </g>
            </g>
        </g>
    </g>
</svg>