<?xml version="1.0" encoding="UTF-8"?>
<svg  viewBox="0 0 20 20" version="1.1" xmlns="http://www.w3.org/2000/svg" xmlns:xlink="http://www.w3.org/1999/xlink">
    <!-- Generator: Sketch 61.2 (89653) - https://sketch.com -->
    <title>Dark / 20 / cisco@svg</title>
    <desc>Created with Sketch.</desc>
    <g id="Dark-/-20-/-cisco" stroke="none" stroke-width="1" fill="none" fill-rule="evenodd">
        <path d="M10,1 C10.5522847,1 11,1.44771525 11,2 L11,18 C11,18.5522847 10.5522847,19 10,19 C9.44771525,19 9,18.5522847 9,18 L9,2 C9,1.44771525 9.44771525,1 10,1 Z M2,10 C2.55228475,10 3,10.4477153 3,11 L3,15 C3,15.5522847 2.55228475,16 2,16 C1.44771525,16 1,15.5522847 1,15 L1,11 C1,10.4477153 1.44771525,10 2,10 Z M18,10 C18.5522847,10 19,10.4477153 19,11 L19,15 C19,15.5522847 18.5522847,16 18,16 C17.4477153,16 17,15.5522847 17,15 L17,11 C17,10.4477153 17.4477153,10 18,10 Z M6,7 C6.55228475,7 7,7.44771525 7,8 L7,15 C7,15.5522847 6.55228475,16 6,16 C5.44771525,16 5,15.5522847 5,15 L5,8 C5,7.44771525 5.44771525,7 6,7 Z M14,7 C14.5522847,7 15,7.44771525 15,8 L15,15 C15,15.5522847 14.5522847,16 14,16 C13.4477153,16 13,15.5522847 13,15 L13,8 C13,7.44771525 13.4477153,7 14,7 Z" id="Rectangle-2" fill="#3F3F3F"></path>
    </g>
</svg>