<?xml version="1.0" encoding="UTF-8"?>
<svg width="12px" height="12px" viewBox="0 0 12 12" version="1.1" xmlns="http://www.w3.org/2000/svg" xmlns:xlink="http://www.w3.org/1999/xlink">
    <!-- Generator: sketchtool 61.2 (101010) - https://sketch.com -->
    <title>43B3919E-8FE7-441D-8427-E2652997A80E@svg</title>
    <desc>Created with sketchtool.</desc>
    <g id="Consola-mobile" stroke="none" stroke-width="1" fill="none" fill-rule="evenodd">
        <g id="2e-Events---dropdown-selector" transform="translate(-285.000000, -35.000000)">
            <g id="Group" transform="translate(1.000000, 16.000000)">
                <g id="Title" transform="translate(15.000000, 15.000000)">
                    <g id="Icons/Dark/20/close-off" transform="translate(265.000000, 0.000000)">
                        <rect id="Rectangle" x="0" y="0" width="20" height="20"></rect>
                        <path d="M4.35059047,4.35059047 C4.81804444,3.88313651 5.57593706,3.88313651 6.04339103,4.35059047 L6.04339103,4.35059047 L10,8.307 L13.956609,4.35059047 C14.4240629,3.88313651 15.1819556,3.88313651 15.6494095,4.35059047 C16.0876476,4.78882857 16.1150375,5.48233501 15.7315792,5.95248165 L15.6494095,6.04339103 L11.693,10 L15.6494095,13.956609 L15.7315792,14.0475184 C16.1150375,14.517665 16.0876476,15.2111714 15.6494095,15.6494095 C15.1819556,16.1168635 14.4240629,16.1168635 13.956609,15.6494095 L13.956609,15.6494095 L10,11.693 L6.04339103,15.6494095 C5.57593706,16.1168635 4.81804444,16.1168635 4.35059047,15.6494095 C3.91235238,15.2111714 3.8849625,14.517665 4.26842083,14.0475184 L4.35059047,13.956609 L8.307,10 L4.35059047,6.04339103 L4.26842083,5.95248165 C3.8849625,5.48233501 3.91235238,4.78882857 4.35059047,4.35059047 Z" id="Path-6" fill="#95A3BF"></path>
                    </g>
                </g>
            </g>
        </g>
    </g>
</svg>