<?xml version="1.0" encoding="UTF-8"?>
<svg viewBox="0 0 20 20" version="1.1" xmlns="http://www.w3.org/2000/svg" xmlns:xlink="http://www.w3.org/1999/xlink">
    <!-- Generator: Sketch 61.2 (89653) - https://sketch.com -->
    <title>Dark / 20 / close@svg</title>
    <desc>Created with Sketch.</desc>
    <g id="Dark-/-20-/-close" stroke="none" stroke-width="1" fill="none" fill-rule="evenodd">
        <path d="M16.4580592,3.30111432 L16.5899495,3.42056462 C17.094627,3.93818262 17.1334484,4.75266824 16.7064135,5.31595817 L16.5899495,5.45123025 L12.154,10 L16.5899495,14.5487698 L16.7064135,14.6840418 C17.1334484,15.2473318 17.094627,16.0618174 16.5899495,16.5794354 L16.5899495,16.5794354 L16.4580592,16.6988857 C15.9088515,17.1368701 15.1147281,17.0970534 14.6100505,16.5794354 L14.6100505,16.5794354 L10,11.8523077 L5.38994949,16.5794354 L5.25805922,16.6988857 C4.70885153,17.1368701 3.91472805,17.0970534 3.41005051,16.5794354 C2.8633165,16.0186825 2.8633165,15.1095226 3.41005051,14.5487698 L3.41005051,14.5487698 L7.845,10 L3.41005051,5.45123025 C2.8633165,4.89047742 2.8633165,3.98131745 3.41005051,3.42056462 C3.91472805,2.90294663 4.70885153,2.86312986 5.25805922,3.30111432 L5.38994949,3.42056462 L10,8.14769231 L14.6100505,3.42056462 C15.1147281,2.90294663 15.9088515,2.86312986 16.4580592,3.30111432 Z" id="Path-8" fill="#3F3F3F" transform="translate(10.000000, 10.000000) rotate(90.000000) translate(-10.000000, -10.000000) "></path>
    </g>
</svg>