<?xml version="1.0" encoding="UTF-8"?>
<svg width="20px" height="20px" viewBox="0 0 20 20" version="1.1" xmlns="http://www.w3.org/2000/svg" xmlns:xlink="http://www.w3.org/1999/xlink">
    <title>F911E81E-C05E-4E17-B88A-07CFEEBD0229</title>
    <g id="Support" stroke="none" stroke-width="1" fill="none" fill-rule="evenodd">
        <g id="Pandora-ITSM---Soporte---4d2-Contact-info-popup" transform="translate(-410, -34)">
            <g id="Content" transform="translate(10, 10)">
                <g id="popup-close" transform="translate(400, 24)">
                    <rect id="Rectangle" x="0" y="0" width="20" height="20"></rect>
                    <path d="M2.46745396,2.46745396 C3.09072592,1.84418201 4.10124942,1.84418201 4.72452137,2.46745396 L10,7.743 L15.2754786,2.46745396 C15.8987506,1.84418201 16.9092741,1.84418201 17.532546,2.46745396 C18.1168635,3.05177142 18.1533833,3.97644668 17.6421056,4.60330886 L17.532546,4.72452137 L12.257,10 L17.532546,15.2754786 L17.6421056,15.3966911 C18.1533833,16.0235533 18.1168635,16.9482286 17.532546,17.532546 C16.9092741,18.155818 15.8987506,18.155818 15.2754786,17.532546 L10,12.257 L4.72452137,17.532546 C4.10124942,18.155818 3.09072592,18.155818 2.46745396,17.532546 C1.88313651,16.9482286 1.84661667,16.0235533 2.35789444,15.3966911 L2.46745396,15.2754786 L7.743,10 L2.46745396,4.72452137 L2.35789444,4.60330886 C1.84661667,3.97644668 1.88313651,3.05177142 2.46745396,2.46745396 Z" id="Path-6" fill="#FFFFFF"></path>
                </g>
            </g>
        </g>
    </g>
</svg>