<?xml version="1.0" encoding="UTF-8"?>
<svg  viewBox="0 0 20 20" version="1.1" xmlns="http://www.w3.org/2000/svg" xmlns:xlink="http://www.w3.org/1999/xlink">
    <!-- Generator: Sketch 61.2 (89653) - https://sketch.com -->
    <title>Dark / 20 / cluster@svg</title>
    <desc>Created with Sketch.</desc>
    <g id="Dark-/-20-/-cluster" stroke="none" stroke-width="1" fill="none" fill-rule="evenodd">
        <path d="M17.5,0 C18.8807119,0 20,1.11928813 20,2.5 C20,3.88071187 18.8807119,5 17.5,5 C17.3026027,5 17.1105489,4.977122 16.9263454,4.93387288 L14.9331138,7.59060703 C15.5985973,8.37510409 16,9.39067573 16,10.5 C16,11.504515 15.6708634,12.432156 15.1145512,13.1809622 L15.9720349,14.1807472 C16.2926832,14.0638016 16.6388907,14 17,14 C18.6568542,14 20,15.3431458 20,17 C20,18.6568542 18.6568542,20 17,20 C15.3431458,20 14,18.6568542 14,17 C14,16.4345193 14.1564552,15.9055807 14.4284396,15.4541103 L13.5964354,14.4828542 C12.9703763,14.8130715 12.2570179,15 11.5,15 C10.4184206,15 9.42596284,14.6184248 8.64990073,13.9825485 L4.9231838,16.8826056 C4.97334364,17.0800759 5,17.286925 5,17.5 C5,18.8807119 3.88071187,20 2.5,20 C1.11928813,20 0,18.8807119 0,17.5 C0,16.1192881 1.11928813,15 2.5,15 C2.93302326,15 3.34033301,15.1100926 3.695466,15.3038146 L7.42210476,12.4053628 C7.15129362,11.8267624 7,11.1810495 7,10.5 C7,9.93569273 7.10387106,9.39564584 7.29353681,8.89793571 L4.9131003,7.31095819 C4.39382577,7.74131605 3.72712232,8 3,8 C1.34314575,8 0,6.65685425 0,5 C0,3.34314575 1.34314575,2 3,2 C4.65685425,2 6,3.34314575 6,5 C6,5.20267764 5.97990138,5.40066099 5.94158851,5.5920657 L8.40424149,7.23405918 C9.21087779,6.4692008 10.300645,6 11.5,6 C12.1531955,6 12.7738858,6.13917129 13.3340363,6.38947928 L15.3255151,3.73441568 C15.1183351,3.37024248 15,2.94894056 15,2.5 C15,1.11928813 16.1192881,0 17.5,0 Z" id="Oval-Copy-5" fill="#3F3F3F"></path>
    </g>
</svg>