<?xml version="1.0" encoding="UTF-8"?>
<svg viewBox="0 0 20 20" version="1.1" xmlns="http://www.w3.org/2000/svg" xmlns:xlink="http://www.w3.org/1999/xlink">
    <!-- Generator: Sketch 61.2 (89653) - https://sketch.com -->
    <title>Dark / 20 / color-cloud@svg</title>
    <desc>Created with Sketch.</desc>
    <g id="Dark-/-20-/-color-cloud" stroke="none" stroke-width="1" fill="none" fill-rule="evenodd">
        <g id="Group" fill="#3F3F3F" fill-rule="nonzero">
            <path d="M3.68421053,11.0526316 C3.10526316,11.0526316 2.63157895,11.5263158 2.63157895,12.1052632 C2.63157895,12.6842105 3.10526316,13.1578947 3.68421053,13.1578947 C4.26315789,13.1578947 4.73684211,12.6842105 4.73684211,12.1052632 C4.73684211,11.5263158 4.26315789,11.0526316 3.68421053,11.0526316 Z M3.68421053,15.2631579 C3.10526316,15.2631579 2.63157895,15.7368421 2.63157895,16.3157895 C2.63157895,16.8947368 3.10526316,17.3684211 3.68421053,17.3684211 C4.26315789,17.3684211 4.73684211,16.8947368 4.73684211,16.3157895 C4.73684211,15.7368421 4.26315789,15.2631579 3.68421053,15.2631579 Z M3.68421053,6.84210526 C3.10526316,6.84210526 2.63157895,7.31578947 2.63157895,7.89473684 C2.63157895,8.47368421 3.10526316,8.94736842 3.68421053,8.94736842 C4.26315789,8.94736842 4.73684211,8.47368421 4.73684211,7.89473684 C4.73684211,7.31578947 4.26315789,6.84210526 3.68421053,6.84210526 Z M0.526315789,7.36842105 C0.236842105,7.36842105 0,7.60526316 0,7.89473684 C0,8.18421053 0.236842105,8.42105263 0.526315789,8.42105263 C0.815789474,8.42105263 1.05263158,8.18421053 1.05263158,7.89473684 C1.05263158,7.60526316 0.815789474,7.36842105 0.526315789,7.36842105 Z M3.68421053,2.63157895 C3.10526316,2.63157895 2.63157895,3.10526316 2.63157895,3.68421053 C2.63157895,4.26315789 3.10526316,4.73684211 3.68421053,4.73684211 C4.26315789,4.73684211 4.73684211,4.26315789 4.73684211,3.68421053 C4.73684211,3.10526316 4.26315789,2.63157895 3.68421053,2.63157895 Z M19.4736842,8.42105263 C19.7631579,8.42105263 20,8.18421053 20,7.89473684 C20,7.60526316 19.7631579,7.36842105 19.4736842,7.36842105 C19.1842105,7.36842105 18.9473684,7.60526316 18.9473684,7.89473684 C18.9473684,8.18421053 19.1842105,8.42105263 19.4736842,8.42105263 Z M12.1052632,4.73684211 C12.6842105,4.73684211 13.1578947,4.26315789 13.1578947,3.68421053 C13.1578947,3.10526316 12.6842105,2.63157895 12.1052632,2.63157895 C11.5263158,2.63157895 11.0526316,3.10526316 11.0526316,3.68421053 C11.0526316,4.26315789 11.5263158,4.73684211 12.1052632,4.73684211 Z M12.1052632,1.05263158 C12.3947368,1.05263158 12.6315789,0.815789474 12.6315789,0.526315789 C12.6315789,0.236842105 12.3947368,0 12.1052632,0 C11.8157895,0 11.5789474,0.236842105 11.5789474,0.526315789 C11.5789474,0.815789474 11.8157895,1.05263158 12.1052632,1.05263158 Z M0.526315789,11.5789474 C0.236842105,11.5789474 0,11.8157895 0,12.1052632 C0,12.3947368 0.236842105,12.6315789 0.526315789,12.6315789 C0.815789474,12.6315789 1.05263158,12.3947368 1.05263158,12.1052632 C1.05263158,11.8157895 0.815789474,11.5789474 0.526315789,11.5789474 Z M7.89473684,18.9473684 C7.60526316,18.9473684 7.36842105,19.1842105 7.36842105,19.4736842 C7.36842105,19.7631579 7.60526316,20 7.89473684,20 C8.18421053,20 8.42105263,19.7631579 8.42105263,19.4736842 C8.42105263,19.1842105 8.18421053,18.9473684 7.89473684,18.9473684 Z M7.89473684,1.05263158 C8.18421053,1.05263158 8.42105263,0.815789474 8.42105263,0.526315789 C8.42105263,0.236842105 8.18421053,0 7.89473684,0 C7.60526316,0 7.36842105,0.236842105 7.36842105,0.526315789 C7.36842105,0.815789474 7.60526316,1.05263158 7.89473684,1.05263158 Z M7.89473684,4.73684211 C8.47368421,4.73684211 8.94736842,4.26315789 8.94736842,3.68421053 C8.94736842,3.10526316 8.47368421,2.63157895 7.89473684,2.63157895 C7.31578947,2.63157895 6.84210526,3.10526316 6.84210526,3.68421053 C6.84210526,4.26315789 7.31578947,4.73684211 7.89473684,4.73684211 Z M7.89473684,10.5263158 C7.02105263,10.5263158 6.31578947,11.2315789 6.31578947,12.1052632 C6.31578947,12.9789474 7.02105263,13.6842105 7.89473684,13.6842105 C8.76842105,13.6842105 9.47368421,12.9789474 9.47368421,12.1052632 C9.47368421,11.2315789 8.76842105,10.5263158 7.89473684,10.5263158 Z M16.3157895,11.0526316 C15.7368421,11.0526316 15.2631579,11.5263158 15.2631579,12.1052632 C15.2631579,12.6842105 15.7368421,13.1578947 16.3157895,13.1578947 C16.8947368,13.1578947 17.3684211,12.6842105 17.3684211,12.1052632 C17.3684211,11.5263158 16.8947368,11.0526316 16.3157895,11.0526316 Z M16.3157895,15.2631579 C15.7368421,15.2631579 15.2631579,15.7368421 15.2631579,16.3157895 C15.2631579,16.8947368 15.7368421,17.3684211 16.3157895,17.3684211 C16.8947368,17.3684211 17.3684211,16.8947368 17.3684211,16.3157895 C17.3684211,15.7368421 16.8947368,15.2631579 16.3157895,15.2631579 Z M16.3157895,6.84210526 C15.7368421,6.84210526 15.2631579,7.31578947 15.2631579,7.89473684 C15.2631579,8.47368421 15.7368421,8.94736842 16.3157895,8.94736842 C16.8947368,8.94736842 17.3684211,8.47368421 17.3684211,7.89473684 C17.3684211,7.31578947 16.8947368,6.84210526 16.3157895,6.84210526 Z M16.3157895,2.63157895 C15.7368421,2.63157895 15.2631579,3.10526316 15.2631579,3.68421053 C15.2631579,4.26315789 15.7368421,4.73684211 16.3157895,4.73684211 C16.8947368,4.73684211 17.3684211,4.26315789 17.3684211,3.68421053 C17.3684211,3.10526316 16.8947368,2.63157895 16.3157895,2.63157895 Z M19.4736842,11.5789474 C19.1842105,11.5789474 18.9473684,11.8157895 18.9473684,12.1052632 C18.9473684,12.3947368 19.1842105,12.6315789 19.4736842,12.6315789 C19.7631579,12.6315789 20,12.3947368 20,12.1052632 C20,11.8157895 19.7631579,11.5789474 19.4736842,11.5789474 Z M12.1052632,15.2631579 C11.5263158,15.2631579 11.0526316,15.7368421 11.0526316,16.3157895 C11.0526316,16.8947368 11.5263158,17.3684211 12.1052632,17.3684211 C12.6842105,17.3684211 13.1578947,16.8947368 13.1578947,16.3157895 C13.1578947,15.7368421 12.6842105,15.2631579 12.1052632,15.2631579 Z M12.1052632,18.9473684 C11.8157895,18.9473684 11.5789474,19.1842105 11.5789474,19.4736842 C11.5789474,19.7631579 11.8157895,20 12.1052632,20 C12.3947368,20 12.6315789,19.7631579 12.6315789,19.4736842 C12.6315789,19.1842105 12.3947368,18.9473684 12.1052632,18.9473684 Z M7.89473684,6.31578947 C7.02105263,6.31578947 6.31578947,7.02105263 6.31578947,7.89473684 C6.31578947,8.76842105 7.02105263,9.47368421 7.89473684,9.47368421 C8.76842105,9.47368421 9.47368421,8.76842105 9.47368421,7.89473684 C9.47368421,7.02105263 8.76842105,6.31578947 7.89473684,6.31578947 Z M7.89473684,15.2631579 C7.31578947,15.2631579 6.84210526,15.7368421 6.84210526,16.3157895 C6.84210526,16.8947368 7.31578947,17.3684211 7.89473684,17.3684211 C8.47368421,17.3684211 8.94736842,16.8947368 8.94736842,16.3157895 C8.94736842,15.7368421 8.47368421,15.2631579 7.89473684,15.2631579 Z M12.1052632,10.5263158 C11.2315789,10.5263158 10.5263158,11.2315789 10.5263158,12.1052632 C10.5263158,12.9789474 11.2315789,13.6842105 12.1052632,13.6842105 C12.9789474,13.6842105 13.6842105,12.9789474 13.6842105,12.1052632 C13.6842105,11.2315789 12.9789474,10.5263158 12.1052632,10.5263158 Z M12.1052632,6.31578947 C11.2315789,6.31578947 10.5263158,7.02105263 10.5263158,7.89473684 C10.5263158,8.76842105 11.2315789,9.47368421 12.1052632,9.47368421 C12.9789474,9.47368421 13.6842105,8.76842105 13.6842105,7.89473684 C13.6842105,7.02105263 12.9789474,6.31578947 12.1052632,6.31578947 Z" id="Shape"></path>
        </g>
    </g>
</svg>