<?xml version="1.0" encoding="UTF-8"?>
<svg  viewBox="0 0 20 20" version="1.1" xmlns="http://www.w3.org/2000/svg" xmlns:xlink="http://www.w3.org/1999/xlink">
    <!-- Generator: Sketch 61.2 (89653) - https://sketch.com -->
    <title>Dark / 20 / configuration@svg</title>
    <desc>Created with Sketch.</desc>
    <g id="Dark-/-20-/-configuration" stroke="none" stroke-width="1" fill="none" fill-rule="evenodd">
        <path d="M18.7953273,7.94064046 L18.0028475,7.94064046 C17.3563508,7.94064046 16.8141278,7.38349388 16.8141278,6.72220776 C16.8141278,6.38896121 16.9548972,6.08695652 17.205154,5.8630565 L17.7160949,5.36318667 C18.2218222,4.86331684 18.2218222,4.0458214 17.7160949,3.54595158 L16.5534436,2.39520958 C16.3240416,2.16610258 15.9851522,2.03072117 15.6410491,2.03072117 C15.296946,2.03072117 14.9632703,2.16610258 14.7286546,2.39520958 L14.2385684,2.88466545 C14.0039526,3.14501432 13.6911316,3.28560271 13.3522422,3.28560271 C12.6848908,3.28560271 12.1270267,2.74407706 12.1270267,2.10361885 L12.1270267,1.30695131 C12.1270267,0.604009373 11.5587353,0 10.8496744,0 L9.26471474,0 C8.55565385,0 7.99257608,0.598802395 7.99257608,1.30695131 L7.99257608,2.09841187 C7.99257608,2.73887009 7.434712,3.28039573 6.76736057,3.28039573 C6.43368486,3.28039573 6.12607756,3.13980734 5.90188919,2.89507941 L5.39616194,2.39520958 C5.16675988,2.1608956 4.82787048,2.03072117 4.48376741,2.03072117 C4.13966433,2.03072117 3.80598861,2.16610258 3.57137287,2.39520958 L2.39829419,3.5407446 C1.89778062,4.04061442 1.89778062,4.85810987 2.39829419,5.35277272 L2.8883804,5.84222859 C3.14906455,6.07654257 3.29504767,6.38896121 3.29504767,6.72220776 C3.29504767,7.38870086 2.75282464,7.94064046 2.10632794,7.94064046 L1.31384812,7.94064046 C0.599573548,7.94064046 0,8.49778703 0,9.20593595 L0,9.99739651 L0,10.7888571 C0,11.491799 0.599573548,12.0541526 1.31384812,12.0541526 L2.10632794,12.0541526 C2.75282464,12.0541526 3.29504767,12.6112991 3.29504767,13.2725853 C3.29504767,13.6058318 3.14906455,13.9182505 2.8883804,14.1525644 L2.39829419,14.6368133 C1.89778062,15.1366832 1.89778062,15.9541786 2.39829419,16.4488414 L3.56094551,17.6047904 C3.79034756,17.8391044 4.12923696,17.9692788 4.47334004,17.9692788 C4.81744312,17.9692788 5.15111883,17.8338974 5.38573457,17.6047904 L5.89146182,17.1049206 C6.11043651,16.8601927 6.42325749,16.7196043 6.75693321,16.7196043 C7.42428463,16.7196043 7.98214872,17.2611299 7.98214872,17.9015881 L7.98214872,18.6930487 C7.98214872,19.3959906 8.54522648,20 9.25950106,20 L10.8444607,20 C11.5535216,20 12.1165994,19.4011976 12.1165994,18.6930487 L12.1165994,17.9015881 C12.1165994,17.2611299 12.6744634,16.7196043 13.3418149,16.7196043 C13.6754906,16.7196043 13.9883116,16.8653996 14.228141,17.1205415 L14.7182272,17.6099974 C14.9528429,17.8391044 15.2865186,17.9744858 15.6306217,17.9744858 C15.9747248,17.9744858 16.3084005,17.8391044 16.5430163,17.6099974 L17.7056676,16.4540484 C18.2061811,15.9541786 18.2061811,15.1366832 17.7056676,14.6368133 L17.1947266,14.1369435 C16.9444698,13.9130435 16.8037004,13.6058318 16.8037004,13.2777922 C16.8037004,12.6112991 17.3459234,12.0593595 17.9924201,12.0593595 L18.7849,12.0593595 C19.4939608,12.0593595 19.9998464,11.502213 19.9998464,10.794064 L19.9998464,9.99739651 L19.9998464,9.20593595 C20.0101155,8.49778703 19.5043882,7.94064046 18.7953273,7.94064046 Z M14.2229273,9.99739651 L14.2229273,9.99739651 C14.2229273,12.2936735 12.3616425,14.1629784 10.0519809,14.1629784 C7.7423193,14.1629784 5.88103446,12.2936735 5.88103446,9.99739651 L5.88103446,9.99739651 L5.88103446,9.99739651 C5.88103446,7.7011195 7.7423193,5.83181463 10.0519809,5.83181463 C12.3616425,5.83181463 14.2229273,7.7011195 14.2229273,9.99739651 L14.2229273,9.99739651 Z" id="Path-2" fill="#3F3F3F"></path>
    </g>
</svg>