<?xml version="1.0" encoding="UTF-8"?>
<svg  viewBox="0 0 20 20" version="1.1" xmlns="http://www.w3.org/2000/svg" xmlns:xlink="http://www.w3.org/1999/xlink">
    <!-- Generator: Sketch 61.2 (89653) - https://sketch.com -->
    <title>Dark / 20 / custom-input@svg</title>
    <desc>Created with Sketch.</desc>
    <g id="Dark-/-20-/-custom-input" stroke="none" stroke-width="1" fill="none" fill-rule="evenodd">
        <path d="M18.5542784,16 L19.8007663,17.2464879 C20.0664112,17.5121328 20.0664112,17.9446573 19.8007663,18.2103023 L18.2103023,19.8007663 C17.9446573,20.0664112 17.5121328,20.0664112 17.2464879,19.8007663 L16,18.5542784 L18.5542784,16 Z M9.7843402,7 L18,15.2156598 L15.2156598,18 L7,9.7843402 L7,7 L9.7843402,7 Z M16,-1.88293825e-13 C16.5128358,-1.88293825e-13 16.9355072,0.38604019 16.9932723,0.883378875 L16.9998359,1 L16.9998359,9 C16.9998359,9.55228475 16.5522847,10 16,10 C15.4871642,10 15.0644928,9.61395981 15.0067277,9.11662113 L15,9 L14.999,1.999 L2.003,1.999 L2.029,8.999 L4.00175762,9 C4.51459346,9 4.93726478,9.38604019 4.99502989,9.88337887 L5.00175762,10 C5.00175762,10.5128358 4.61571743,10.9355072 4.11837875,10.9932723 L4.00175762,11 L1.03315163,11 C0.521651024,11 0.0995905914,10.6158928 0.0402813792,10.1199845 L0.0331584107,10.0036835 L-0.00011678819,1.00368349 C-0.00188716318,0.489514882 0.384529752,0.0648098634 0.883084097,0.006761027 L1,-1.88293825e-13 L16,-1.88293825e-13 Z" id="Path-42" fill="#3F3F3F" transform="translate(9.999939, 10.000000) scale(1, -1) translate(-9.999939, -10.000000) "></path>
    </g>
</svg>