<?xml version="1.0" encoding="UTF-8"?>
<svg  viewBox="0 0 20 20" version="1.1" xmlns="http://www.w3.org/2000/svg" xmlns:xlink="http://www.w3.org/1999/xlink">
    <!-- Generator: Sketch 61.2 (89653) - https://sketch.com -->
    <title>Dark / 20 / data-server@svg</title>
    <desc>Created with Sketch.</desc>
    <g id="Dark-/-20-/-data-server" stroke="none" stroke-width="1" fill="none" fill-rule="evenodd">
        <path d="M2,14.58375 C2.54037713,14.9892604 3.12831666,15.3211188 3.74951252,15.57125 C5.42822859,16.27125 7.63971801,16.66625 9.99880006,16.66625 C12.360282,16.66625 14.5705715,16.27125 16.2504875,15.57125 C16.8716219,15.3215105 17.4595587,14.9900738 18,14.585 L18,14.585 L18,16.66625 C18,18.5075 14.4181791,20 10,20 C5.58182091,20 2,18.5075 2,16.66625 L2,16.66625 Z M2.00119994,7.9175 C2.54156307,8.32303369 3.12950556,8.65489367 3.75071246,8.905 C5.42942853,9.60375 7.64091795,10 10,10 C12.360282,10 14.5717714,9.605 16.2504875,8.905 C16.8716833,8.65486877 17.4596229,8.32301045 18,7.9175 L18,7.9175 L18,11.66625 C18,13.5075 14.4181791,15 10,15 C5.58182091,15 2,13.50625 2,11.6675 L2,11.6675 L2,7.9175 Z M10,-1.687539e-14 C14.4181791,-1.687539e-14 18,1.4925 18,3.33375 L18,5 C18,6.84125 14.4181791,8.33375 10,8.33375 C5.58182091,8.33375 2,6.84125 2,5 L2,3.33375 C2,1.4925 5.58182091,-1.687539e-14 10,-1.687539e-14 Z" id="Path-2" fill="#3F3F3F"></path>
    </g>
</svg>