<?xml version="1.0" encoding="UTF-8"?>
<svg width="20px" height="20px" viewBox="0 0 20 20" version="1.1" xmlns="http://www.w3.org/2000/svg" xmlns:xlink="http://www.w3.org/1999/xlink">
    <title>data-group@svg</title>
    <g id="data-group" stroke="none" stroke-width="1" fill="none" fill-rule="evenodd">
        <path d="M18,16 L18.14,16.005 L18.2250005,16.0125155 C18.2580582,16.0162132 18.2910656,16.0207482 18.3238062,16.0260782 L18.3936713,16.0387333 C18.4261974,16.0452294 18.4582389,16.052464 18.4899788,16.0604573 C18.505837,16.0644492 18.5218137,16.0686845 18.5377106,16.0731112 C18.5775564,16.084213 18.616632,16.0964242 18.6551725,16.1097808 L18.6934054,16.1234706 C18.7942934,16.1607946 18.8908798,16.2057561 18.9829309,16.2578023 L19.0890209,16.3222124 C19.6373876,16.6788769 20,17.2970921 20,18 C20,19.1045695 19.1045695,20 18,20 C17.2551832,20 16.6054593,19.5928591 16.2612438,18.988993 L16.2543813,18.9768557 C16.2039536,18.8869357 16.1602726,18.7927221 16.1240241,18.6949009 C16.1167231,18.6752295 16.1098423,18.6557124 16.1032582,18.6360614 C16.0919066,18.6021785 16.0813994,18.567783 16.0718079,18.5330077 C16.0678177,18.5185238 16.0640479,18.504227 16.0604333,18.4898692 C16.052464,18.4582389 16.0452294,18.4261974 16.0387739,18.3938748 L16.0260364,18.3235305 C16.0207482,18.2910656 16.0162132,18.2580582 16.0124935,18.2248042 L16.0065324,18.1628167 C16.0021942,18.108844 16,18.0546783 16,18 L16.0017606,17.9153132 L16.004,17.876 L16.005,17.859 L16.0163807,17.7428295 C16.019688,17.717025 16.0235516,17.6909918 16.0279117,17.6651272 C16.0324936,17.6379467 16.0376238,17.6109524 16.0432905,17.5841561 C16.0501145,17.5518774 16.0577494,17.5197631 16.0661481,17.4879591 L16.0807484,17.4355877 C16.11283,17.3263978 16.1538076,17.2214289 16.2029274,17.1211747 C16.208598,17.1095963 16.2145152,17.0978128 16.2205446,17.0860965 C16.2404147,17.0474965 16.261386,17.009823 16.2835136,16.9729221 C16.2875863,16.9661323 16.2915552,16.9596008 16.2955604,16.953094 C16.5534608,16.53465 16.9598804,16.2188991 17.4411604,16.0791211 L17.4697957,16.0712437 C17.5147552,16.0587118 17.5601559,16.047955 17.6061252,16.0387739 C17.6196724,16.0361365 17.6330199,16.0336064 17.6464145,16.0312104 C17.6876726,16.0237902 17.7297303,16.0176463 17.7721912,16.0128319 C17.7915895,16.0106394 17.8112869,16.0086949 17.831067,16.0070387 C17.8870687,16.0023629 17.9432584,16 18,16 Z M2,16 C3.1045695,16 4,16.8954305 4,18 C4,19.1045695 3.1045695,20 2,20 C0.8954305,20 0,19.1045695 0,18 C0,16.8954305 0.8954305,16 2,16 Z M11,1 C12.6568542,1 14,2.34314575 14,4 L14,5.999 L16,6 C17.6568542,6 19,7.34314575 19,9 L19.0007613,14.1262135 C18.6809122,14.0438225 18.3455738,14 18,14 C17.6547881,14 17.3197901,14.0437308 17.0002435,14.1259548 L17,9 C17,8.44771525 16.5522847,8 16,8 L14,7.999 L14,11 C14,12.6568542 12.6568542,14 11,14 L8,14 L8,16 C8,16.5522847 8.44771525,17 9,17 L14.1259548,17.0002435 C14.0437308,17.3197901 14,17.6547881 14,18 C14,18.3455738 14.0438225,18.6809122 14.1262135,19.0007613 L9,19 C7.34314575,19 6,17.6568542 6,16 L6,14 L4,14 C2.34314575,14 1,12.6568542 1,11 L1.0000851,5.87400442 C1.3196794,5.95625476 1.65473108,6 2,6 C2.34557375,6 2.6809122,5.95617749 3.00076134,5.87378648 L3,11 C3,11.5522847 3.44771525,12 4,12 L6,12 L6,9 C6,7.34314575 7.34314575,6 9,6 L12,5.999 L12,4 C12,3.44771525 11.5522847,3 11,3 L5.87378648,3.00076134 C5.95617749,2.6809122 6,2.34557375 6,2 C6,1.65473108 5.95625476,1.3196794 5.87400442,1.0000851 L11,1 Z M12,7.999 L9,8 C8.44771525,8 8,8.44771525 8,9 L8,12 L11,12 C11.5522847,12 12,11.5522847 12,11 L12,7.999 Z M18,0 C19.1045695,0 20,0.8954305 20,2 C20,3.1045695 19.1045695,4 18,4 C16.8954305,4 16,3.1045695 16,2 C16,0.8954305 16.8954305,0 18,0 Z M2,0 C2.74481677,0 3.39454071,0.407140857 3.73875625,1.01100702 L3.74561871,1.0231443 C3.79587652,1.11276148 3.83943306,1.20664331 3.87560945,1.30411091 C3.88075055,1.31796955 3.88562905,1.33157307 3.89036343,1.3452439 C3.90357582,1.383368 3.915787,1.4224436 3.92681197,1.46201361 L3.93238299,1.48242907 C3.94319168,1.52284646 3.9528627,1.56424989 3.96122609,1.6061252 C3.96479089,1.62398039 3.9680948,1.6417864 3.97116117,1.65967354 C3.97764624,1.69743639 3.98313855,1.73614617 3.98750649,1.77519577 C3.98986117,1.79622407 3.99190893,1.81758996 3.99361789,1.83905131 C3.99786066,1.89251872 4,1.94600952 4,2 L3.994,2.14 L3.98633004,2.23508154 C3.98243013,2.26842885 3.97766538,2.30178876 3.9720883,2.33487278 C3.96773634,2.36068919 3.96288974,2.38633759 3.95755859,2.41180792 C3.95057804,2.44516311 3.94275242,2.47826624 3.93411585,2.51104022 C3.9295367,2.5284261 3.92465913,2.54595904 3.9195505,2.56339324 C3.88774107,2.67186524 3.84716859,2.77614372 3.79856014,2.87578272 C3.79237851,2.88845698 3.78598275,2.90121966 3.77945536,2.91390351 C3.76011838,2.95146803 3.73974426,2.98814448 3.71827418,3.02409068 L3.70443958,3.04690603 C3.44653921,3.46535004 3.04011957,3.78110089 2.55883959,3.92087892 L2.53020432,3.92875629 C2.48524478,3.94128818 2.43984412,3.95204504 2.3938748,3.96122609 C2.38032765,3.9638635 2.36698012,3.9663936 2.35358548,3.96878964 C2.31232735,3.97620981 2.27026966,3.98235375 2.22780881,3.98716811 L2.16782928,3.99305337 L2.08422161,3.99825628 L2,4 L1.86,3.994 L1.77495898,3.98747998 C1.74194185,3.98378683 1.70893436,3.97925179 1.67619377,3.97392182 L1.60625889,3.96125279 C1.57380257,3.95477057 1.54176109,3.94753598 1.51002117,3.93954272 C1.4940744,3.93552772 1.47809507,3.93129094 1.46219553,3.92686265 C1.4224436,3.915787 1.383368,3.90357582 1.34482752,3.89021918 L1.30647615,3.87648563 C1.20791249,3.84002151 1.11336716,3.79621619 1.0231443,3.74561871 L1.0118566,3.73924025 C0.407140857,3.39454071 0,2.74481677 0,2 C0,0.8954305 0.8954305,0 2,0 Z" id="Oval-2" fill="#3F3F3F"></path>
    </g>
</svg>