<?xml version="1.0" encoding="UTF-8"?>
<svg viewBox="0 0 20 20" version="1.1" xmlns="http://www.w3.org/2000/svg" xmlns:xlink="http://www.w3.org/1999/xlink">
    <!-- Generator: Sketch 61.2 (89653) - https://sketch.com -->
    <title>Dark / 20 / delete-v2@svg</title>
    <desc>Created with Sketch.</desc>
    <g id="Dark-/-20-/-delete-v2" stroke="none" stroke-width="1" fill="none" fill-rule="evenodd">
        <g id="Group" transform="translate(10.000000, 10.000000) rotate(45.000000) translate(-10.000000, -10.000000) translate(4.000000, 4.000000)" fill="#3F3F3F">
            <path d="M6,0 C6.51283584,0 6.93550716,0.38604019 6.99327227,0.883378875 L7,1 L7,5 L11,5 C11.5522847,5 12,5.44771525 12,6 C12,6.51283584 11.6139598,6.93550716 11.1166211,6.99327227 L11,7 L7,7 L7,11 C7,11.5522847 6.55228475,12 6,12 C5.48716416,12 5.06449284,11.6139598 5.00672773,11.1166211 L5,11 L5,7 L1,7 C0.44771525,7 0,6.55228475 0,6 C0,5.48716416 0.38604019,5.06449284 0.883378875,5.00672773 L1,5 L5,5 L5,1 C5,0.44771525 5.44771525,0 6,0 Z" id="Path-7"></path>
        </g>
        <path d="M10,0 C4.4771525,0 0,4.4771525 0,10 C0,15.5228475 4.4771525,20 10,20 C15.5228475,20 20,15.5228475 20,10 C20,4.4771525 15.5228475,0 10,0 Z M10,2 C14.418278,2 18,5.581722 18,10 C18,14.418278 14.418278,18 10,18 C5.581722,18 2,14.418278 2,10 C2,5.581722 5.581722,2 10,2 Z" id="Oval" fill="#3F3F3F"></path>
    </g>
</svg>