<?xml version="1.0" encoding="UTF-8"?>
<svg  viewBox="0 0 20 20" version="1.1" xmlns="http://www.w3.org/2000/svg" xmlns:xlink="http://www.w3.org/1999/xlink">
    <!-- Generator: Sketch 61.2 (89653) - https://sketch.com -->
    <title>Dark / 20 / delete@svg</title>
    <desc>Created with Sketch.</desc>
    <g id="Dark-/-20-/-delete" stroke="none" stroke-width="1" fill="none" fill-rule="evenodd">
        <g id="Group" transform="translate(3.000000, 1.000000)" fill="#3F3F3F">
            <path d="M1,16 C1,17.105 1.895,18 3,18 L11,18 C12.105,18 13,17.105 13,16 L13,4 L1,4 L1,16 Z M13,1 L11.0069928,1 L11.0069928,1 L10.0069928,0 L3.99824905,0 L2.99824905,1 L1,1 C0.44771525,1 -6.76353751e-17,1.44771525 0,2 C6.76353751e-17,2.55228475 0.44771525,3 1,3 L13,3 C13.5522847,3 14,2.55228475 14,2 C14,1.44771525 13.5522847,1 13,1 Z" id="Shape"></path>
        </g>
    </g>
</svg>