<?xml version="1.0" encoding="UTF-8"?>
<svg  viewBox="0 0 20 20" version="1.1" xmlns="http://www.w3.org/2000/svg" xmlns:xlink="http://www.w3.org/1999/xlink">
    <!-- Generator: Sketch 61.2 (89653) - https://sketch.com -->
    <title>Dark / 20 / disable@svg</title>
    <desc>Created with Sketch.</desc>
    <g id="Dark-/-20-/-disable" stroke="none" stroke-width="1" fill="none" fill-rule="evenodd">
        <g id="Group" transform="translate(0.000000, 0.553598)" fill="#3F3F3F">
            <path d="M2.29195307,6.03247221 L5.12573423,8.86771329 C5.04346015,9.21454316 5,9.57559936 5,9.9464016 C5,12.608232 7.24305556,14.7678302 10.0034722,14.7678302 C10.323889,14.7678302 10.6372946,14.7386589 10.9409935,14.682923 L13.1715028,16.9137544 C12.1650895,17.260309 11.1004394,17.4464016 10,17.4464016 C5.73263889,17.4464016 2.00416667,14.6506427 0.120451389,10.5166025 C0.0542361111,10.3682766 0,10.1130422 0,9.9464016 C0,9.77899088 0.0542708333,9.5245266 0.120451389,9.34707124 C0.688263561,8.11004476 1.42406776,6.99149204 2.29195307,6.03247221 Z M10,2.4464016 C14.2673611,2.4464016 17.9965278,5.24216052 19.8784722,9.34707124 C19.9444444,9.5245266 20,9.77899088 20,9.9464016 C20,10.0836784 19.9444444,10.3682766 19.8784722,10.545732 C19.4035629,11.5809316 18.8110213,12.5331046 18.1218831,13.3782325 L14.9904016,10.2473349 C14.9967691,10.1478046 15,10.0474631 15,9.9464016 C15,7.28457124 12.7604167,5.12497302 10,5.12497302 C9.9565078,5.12497302 9.91314489,5.12550913 9.86991799,5.12657484 L7.51399682,2.77048026 C8.31415336,2.55842188 9.14631436,2.4464016 10,2.4464016 Z" id="Shape"></path>
            <path d="M0.94001503,0.439339828 C1.48918981,-0.109834957 2.35825222,-0.144158381 2.94741296,0.336369556 L3.06133537,0.439339828 L19.007737,16.3857414 C19.5935234,16.9715279 19.5935234,17.9212753 19.007737,18.5070618 C18.4585622,19.0562366 17.5894998,19.09056 17.000339,18.610032 L16.8864166,18.5070618 L0.94001503,2.56066017 C0.354228592,1.97487373 0.354228592,1.02512627 0.94001503,0.439339828 Z" id="Path-12" fill-rule="nonzero"></path>
        </g>
    </g>
</svg>