<?xml version="1.0" encoding="UTF-8"?>
<svg width="20px" height="20px" viewBox="0 0 20 20" version="1.1" xmlns="http://www.w3.org/2000/svg" xmlns:xlink="http://www.w3.org/1999/xlink">
    <!-- Generator: Sketch 61.2 (89653) - https://sketch.com -->
    <title>Dark / 20 / docker@svg</title>
    <desc>Created with Sketch.</desc>
    <g id="Dark-/-20-/-docker" stroke="none" stroke-width="1" fill="none" fill-rule="evenodd">
        <path d="M12,1 L8,1 L8,3.76923077 L2.66666667,3.76923077 L2.66666667,6.53846154 L0,6.53846154 L0,11.3846154 C0,15.5905231 3.28324,19 7.33333333,19 L8.03714667,19 C11.8049067,19 15.2608,16.8681077 17.0693333,13.4615385 L20,13.4615385 L20,11.3846154 C20,10.2375585 19.1045333,9.30769231 18,9.30769231 L17.3333333,9.30769231 L17.3333333,8.61538462 C17.3333333,7.46832769 16.4378667,6.53846154 15.3333333,6.53846154 L12,6.53846154 L12,1 Z M1.33333333,9.30769231 L2.66666667,9.30769231 L2.66666667,7.92307692 L1.33333333,7.92307692 L1.33333333,9.30769231 Z M4,9.30769231 L5.33333333,9.30769231 L5.33333333,7.92307692 L4,7.92307692 L4,9.30769231 Z M6.66666667,9.30769231 L8,9.30769231 L8,7.92307692 L6.66666667,7.92307692 L6.66666667,9.30769231 Z M9.33333333,9.30769231 L10.6666667,9.30769231 L10.6666667,7.92307692 L9.33333333,7.92307692 L9.33333333,9.30769231 Z M12,9.30769231 L13.3333333,9.30769231 L13.3333333,7.92307692 L12,7.92307692 L12,9.30769231 Z M10.6666667,3.76923077 L10.6666667,2.38461538 L9.33333333,2.38461538 L9.33333333,3.76923077 L10.6666667,3.76923077 Z M8,5.15384615 L6.66666667,5.15384615 L6.66666667,6.53846154 L8,6.53846154 L8,5.15384615 Z M9.33333333,6.53846154 L9.33333333,5.15384615 L10.6666667,5.15384615 L10.6666667,6.53846154 L9.33333333,6.53846154 Z M5.33333333,6.53846154 L5.33333333,5.15384615 L4,5.15384615 L4,6.53846154 L5.33333333,6.53846154 Z M4,13.4615385 L5.33333333,13.4615385 L5.33333333,12.0769231 L4,12.0769231 L4,13.4615385 Z" id="Shape" fill="#3F3F3F"></path>
    </g>
</svg>