<?xml version="1.0" encoding="UTF-8"?>
<svg width="20px" height="20px" viewBox="0 0 20 20" version="1.1" xmlns="http://www.w3.org/2000/svg" xmlns:xlink="http://www.w3.org/1999/xlink">
    <!-- Generator: Sketch 61.2 (89653) - https://sketch.com -->
    <title>Dark / 20 / Documentation@svg</title>
    <desc>Created with Sketch.</desc>
    <g id="Dark-/-20-/-Documentation" stroke="none" stroke-width="1" fill="none" fill-rule="evenodd">
        <path d="M14.988551,0 C16.0931205,7.78148667e-16 16.988551,0.8954305 16.988551,2 L16.988551,13.983638 C16.988551,15.0882075 16.0931205,15.983638 14.988551,15.983638 L5.008,15.983 L5.00981345,16.0060169 L5.00981345,17.0030679 C5.00981345,17.5153793 5.39553794,17.9376184 5.89246991,17.9953244 L6.00899566,18.0020453 L16.0008178,18.0020453 C16.5526509,18.0020453 17,18.4493027 17,19.0010226 C17,19.513334 16.6142755,19.9355731 16.1173435,19.9932791 L16.0008178,20 L6.00899566,20 C4.41262134,20 3.10770936,18.7523572 3.01653756,17.1791604 L3.01144903,17.0030679 L3.01144903,16.0060169 L3.012,15.983 L3,15.983638 L3,2 C3,0.8954305 3.8954305,2.02906125e-16 5,0 L14.988551,0 Z M14,2 L6,2 C5.44771525,2 5,2.44771525 5,3 C5,3.55228475 5.44771525,4 6,4 L6,4 L14,4 C14.5522847,4 15,3.55228475 15,3 C15,2.44771525 14.5522847,2 14,2 L14,2 Z" id="Rectangle-2" fill="#3F3F3F"></path>
    </g>
</svg>