<?xml version="1.0" encoding="UTF-8"?>
<svg width="20px" height="20px" viewBox="0 0 20 20" version="1.1" xmlns="http://www.w3.org/2000/svg" xmlns:xlink="http://www.w3.org/1999/xlink">
    <!-- Generator: Sketch 61.2 (89653) - https://sketch.com -->
    <title>Dark / 20 / Edit User@svg</title>
    <desc>Created with Sketch.</desc>
    <g id="Dark-/-20-/-Edit-User" stroke="none" stroke-width="1" fill="none" fill-rule="evenodd">
        <path d="M10,0 L9.7030944,0.00174473895 C3.93659319,0.0704902953 0,2.02597359 0,5.85503294 L0,14.1449671 C0,18.044902 4.08242891,20 10,20 L10.2969056,19.9982553 C16.0634068,19.9295097 20,17.9740264 20,14.1449671 L20,5.85503294 C20,1.95509795 15.9175711,0 10,0 Z M10,2 C14.9492654,2 18,3.46101379 18,5.85503294 L18,14.1449671 C18,15.2660895 17.3331736,16.1826537 16.1127838,16.8403651 C14.6459078,15.1029077 12.4517529,14 10,14 C7.54871925,14 5.35493721,15.102483 3.88745501,16.8386479 C2.66867892,16.1821005 2,15.2657828 2,14.1449671 L2,5.85503294 C2,3.50917011 4.91952307,2.0589114 9.72095384,2.00165603 L10,2 Z M10,5 C7.79086098,5 6,6.79086102 6,9 C6,11.209139 7.79086098,13 10,13 C12.209139,13 14,11.209139 14,9 C14,6.790861 12.209139,5 10,5 Z" id="Mask" fill="#3F3F3F"></path>
    </g>
</svg>