<?xml version="1.0" encoding="UTF-8"?>
<svg width="20px" height="20px" viewBox="0 0 20 20" version="1.1" xmlns="http://www.w3.org/2000/svg" xmlns:xlink="http://www.w3.org/1999/xlink">
    <!-- Generator: Sketch 61.2 (89653) - https://sketch.com -->
    <title>Dark / 20 / edit columns@svg</title>
    <desc>Created with Sketch.</desc>
    <g id="Dark-/-20-/-edit-columns" stroke="none" stroke-width="1" fill="none" fill-rule="evenodd">
        <path d="M16.0987826,9.66941612 L10.1972395,15.5708563 C9.85319528,15.9149003 9.60913485,16.3460302 9.491054,16.8181534 L9.0334282,18.6485557 C8.83446046,19.4445262 9.55554354,20.165609 10.3515145,19.9665413 L12.1819177,19.5089158 C12.6539411,19.390935 13.0850712,19.1468747 13.4292154,18.8027306 L19.3306585,12.9012905 C20.2231138,12.0088356 20.2231138,10.561871 19.3306585,9.66941612 C18.4382032,8.77686129 16.9912379,8.77686129 16.0987826,9.66941612 Z" id="Path" fill="#3F3F3F"></path>
        <path d="M3,0 C4.0543618,0 4.91816512,0.815877791 4.99451426,1.85073766 L5,2 L5,16 C5,17.0543618 4.18412221,17.9181651 3.14926234,17.9945143 L3,18 L1,18 C0.44771525,18 0,17.5522847 0,17 C0,16.4871642 0.38604019,16.0644928 0.883378875,16.0067277 L1,16 L3,16 L3,2 L1,2 C0.44771525,2 0,1.55228475 0,1 C0,0.487164161 0.38604019,0.0644928393 0.883378875,0.00672773133 L1,0 L3,0 Z M12,0 C13.1045695,0 14,0.8954305 14,2 L14,2 L14,8.939 L12,10.939 L12,2 L8,2 L7.99938689,15.1960881 C7.80177971,15.552193 7.65054019,15.9341665 7.5508174,16.3328886 L7.1784335,17.824007 C6.48361063,17.5105569 6,16.8117551 6,16 L6,16 L6,2 C6,0.8954305 6.8954305,0 8,0 L8,0 Z M19,0 L19.1166211,0.00672773133 C19.6139598,0.0644928393 20,0.487164161 20,1 C20,1.55228475 19.5522847,2 19,2 L19,2 L17,2 L17.0006112,7.0595728 C16.2842015,7.18002395 15.5925087,7.48310158 15.0005003,7.96880855 L15,2 L15.0054857,1.85073766 C15.0818349,0.815877791 15.9456382,0 17,0 L17,0 L19,0 Z" id="Rectangle" fill="#3F3F3F"></path>
    </g>
</svg>