<?xml version="1.0" encoding="UTF-8"?>
<svg  viewBox="0 0 20 20" version="1.1" xmlns="http://www.w3.org/2000/svg" xmlns:xlink="http://www.w3.org/1999/xlink">
    <!-- Generator: Sketch 61.2 (89653) - https://sketch.com -->
    <title>Dark / 20 / embedded@svg</title>
    <desc>Created with Sketch.</desc>
    <g id="Dark-/-20-/-embedded" stroke="none" stroke-width="1" fill="none" fill-rule="evenodd">
        <path d="M12,0 C12.5522847,-1.01453063e-16 13,0.44771525 13,1 L13,3 L15,3 C16.1045695,3 17,3.8954305 17,5 L17,6.999 L19,7 C19.5522847,7 20,7.44771525 20,8 C20,8.55228475 19.5522847,9 19,9 L17,9 L17,11 L19,11 C19.5522847,11 20,11.4477153 20,12 C20,12.5522847 19.5522847,13 19,13 L17,13 L17,15 C17,16.1045695 16.1045695,17 15,17 L13,17 L13,19 C13,19.5522847 12.5522847,20 12,20 C11.4477153,20 11,19.5522847 11,19 L11,17 L9,17 L9,19 C9,19.5522847 8.55228475,20 8,20 C7.44771525,20 7,19.5522847 7,19 L7,17 L5,17 C3.8954305,17 3,16.1045695 3,15 L3,13 L1,13 C0.44771525,13 0,12.5522847 0,12 C0,11.4477153 0.44771525,11 1,11 L3,11 L3,9 L1,9 C0.44771525,9 0,8.55228475 0,8 C0,7.44771525 0.44771525,7 1,7 L3,7 L3,5 C3,3.8954305 3.8954305,3 5,3 L7,3 L7,1 C7,0.44771525 7.44771525,1.01453063e-16 8,0 C8.55228475,-1.01453063e-16 9,0.44771525 9,1 L9,3 L11,3 L11,1 C11,0.44771525 11.4477153,1.01453063e-16 12,0 Z M9,10 L6,10 C5.44771525,10 5,10.4477153 5,11 L5,11 L5,14 C5,14.5522847 5.44771525,15 6,15 L6,15 L9,15 C9.55228475,15 10,14.5522847 10,14 L10,14 L10,11 C10,10.4477153 9.55228475,10 9,10 L9,10 Z" id="Rectangle-2" fill="#3F3F3F"></path>
    </g>
</svg>