<?xml version="1.0" encoding="UTF-8"?>
<svg  viewBox="0 0 20 20" version="1.1" xmlns="http://www.w3.org/2000/svg" xmlns:xlink="http://www.w3.org/1999/xlink">
    <!-- Generator: Sketch 61.2 (89653) - https://sketch.com -->
    <title>Dark / 20 / enable@svg</title>
    <desc>Created with Sketch.</desc>
    <g id="Dark-/-20-/-enable" stroke="none" stroke-width="1" fill="none" fill-rule="evenodd">
        <g id="Group" transform="translate(0.000000, 3.000000)" fill="#3F3F3F">
            <path d="M19.8784722,6.90066964 C17.9965278,2.79575893 14.2673611,0 10,0 C5.73263889,0 2.003125,2.79910714 0.120451389,6.90066964 C0.0542708333,7.078125 0,7.33258929 0,7.5 C0,7.66664062 0.0542361111,7.921875 0.120451389,8.07020089 C2.00416667,12.2042411 5.73263889,15 10,15 C14.2673611,15 17.9965278,12.2015625 19.8784722,8.09933036 C19.9444444,7.921875 20,7.63727679 20,7.5 C20,7.33258929 19.9444444,7.078125 19.8784722,6.90066964 Z M15,7.5 C15,10.1601562 12.7614583,12.3214286 10.0034722,12.3214286 C7.24305556,12.3214286 5,10.1618304 5,7.5 C5,4.83816964 7.23958333,2.67857143 10,2.67857143 C12.7604167,2.67857143 15,4.83816964 15,7.5 Z M10,4.28571429 C9.92013889,4.28571429 9.80555556,4.29910714 9.70486111,4.3125 C9.88888889,4.62053571 10,4.97544643 10,5.35714286 C10,6.54073661 9.00520833,7.5 7.77777778,7.5 C7.38194444,7.5 6.98263889,7.38950893 6.69097222,7.21540179 C6.68055556,7.31584821 6.66666667,7.41964286 6.66666667,7.5 C6.66666667,9.24441964 8.15972222,10.7142857 10,10.7142857 C11.8402778,10.7142857 13.3333333,9.27488839 13.3333333,7.50033482 C13.3333333,5.72578125 11.8090278,4.28571429 10,4.28571429 Z" id="Shape"></path>
        </g>
    </g>
</svg>