<?xml version="1.0" encoding="UTF-8"?>
<svg width="20px" height="20px" viewBox="0 0 20 20" version="1.1" xmlns="http://www.w3.org/2000/svg" xmlns:xlink="http://www.w3.org/1999/xlink">
    <!-- Generator: Sketch 61.2 (89653) - https://sketch.com -->
    <title>Dark / 20 / exit fullscreen@svg</title>
    <desc>Created with Sketch.</desc>
    <g id="Dark-/-20-/-exit-fullscreen" stroke="none" stroke-width="1" fill="none" fill-rule="evenodd">
        <path d="M5,14 L5.11662113,14.0067277 C5.61395981,14.0644928 6,14.4871642 6,15 L6,15 L6,19.0029869 L5.99327227,19.119608 C5.93550716,19.6169467 5.51283584,20.0029869 5,20.0029869 L5,20.0029869 L4.88337887,19.9962592 C4.38604019,19.9384941 4,19.5158227 4,19.0029869 L4,19.0029869 L4,16 L1,16 L0.883378875,15.9932723 C0.38604019,15.9355072 0,15.5128358 0,15 C0,14.4477153 0.44771525,14 1,14 L1,14 L5,14 Z M19,14 C19.5522847,14 20,14.4477153 20,15 C20,15.5128358 19.6139598,15.9355072 19.1166211,15.9932723 L19,16 L16,16 L16,19.0029869 C16,19.5158227 15.6139598,19.9384941 15.1166211,19.9962592 L15,20.0029869 C14.4871642,20.0029869 14.0644928,19.6169467 14.0067277,19.119608 L14,19.0029869 L14,15 C14,14.4871642 14.3860402,14.0644928 14.8833789,14.0067277 L15,14 L19,14 Z M13,6 C13.5522847,6 14,6.44771525 14,7 L14,7 L14,13 C14,13.5522847 13.5522847,14 13,14 L13,14 L7,14 C6.44771525,14 6,13.5522847 6,13 L6,13 L6,7 C6,6.44771525 6.44771525,6 7,6 L7,6 Z M12,8 L8,8 L8,12 L12,12 L12,8 Z M5,0 C5.51283584,0 5.93550716,0.38604019 5.99327227,0.883378875 L6,1 L6,5.00298691 C6,5.51582275 5.61395981,5.93849407 5.11662113,5.99625918 L5,6.00298691 L1,6.00298691 C0.44771525,6.00298691 0,5.55527166 0,5.00298691 C0,4.49015107 0.38604019,4.06747975 0.883378875,4.00971464 L1,4.00298691 L4,4.00298691 L4,1 C4,0.487164161 4.38604019,0.0644928393 4.88337887,0.00672773133 L5,0 Z M14.9985065,0.00149345398 C15.5113424,0.00149345398 15.9340137,0.387533644 15.9917788,0.884872329 L15.9985065,1.00149345 L15.9985065,4.00149345 L19.0014935,4.00149345 C19.5143293,4.00149345 19.9370006,4.38753364 19.9947657,4.88487233 L20.0014935,5.00149345 C20.0014935,5.51432929 19.6154533,5.93700061 19.1181146,5.99476572 L19.0014935,6.00149345 L14.9985065,6.00149345 C14.4856707,6.00149345 14.0629994,5.61545326 14.0052343,5.11811458 L13.9985065,5.00149345 L13.9985065,1.00149345 C13.9985065,0.449208704 14.4462218,0.00149345398 14.9985065,0.00149345398 Z" id="Path-54" fill="#3F3F3F"></path>
    </g>
</svg>