<?xml version="1.0" encoding="UTF-8"?>
<svg width="14px" height="14px" viewBox="0 0 14 14" version="1.1" xmlns="http://www.w3.org/2000/svg" xmlns:xlink="http://www.w3.org/1999/xlink">
    <title>E1DA0B54-BDFA-427E-9BFB-1315DFA5936F</title>
    <g id="Import-/-Export" stroke="none" stroke-width="1" fill="none" fill-rule="evenodd">
        <g id="Mockup---Import-&amp;-Export-expandido-1300" transform="translate(-406, -540)" fill="#FFFFFF" fill-rule="nonzero">
            <g id="Right" transform="translate(310, 380)">
                <g id="Group" transform="translate(20, 63)">
                    <g id="Acciones" transform="translate(0, 83)">
                        <g id="Export-Copy" transform="translate(76, 13.999)">
                            <path d="M13,7.00200086 C13.5522847,7.00200086 14,7.44971619 14,8.00200086 L14,13.0020009 C14,13.5542875 13.5522847,14.0020009 13,14.0020009 L1,14.0020009 C0.44771525,14.0020009 0,13.5542875 0,13.0020009 L0,8.00201259 C0,7.44972773 0.44771525,7.00200086 1,7.00200086 C1.55228475,7.00200086 2,7.44973046 2,8.00201532 L2,12.0020009 L12,12.0020009 L12,8.00200086 C12,7.48917088 12.3860402,7.06649675 12.8833789,7.00873163 L13,7.00200086 Z" id="Path-2"></path>
                            <path d="M7.42761656,0.098000218 L7.4722276,0.120228468 C7.48541492,0.127297151 7.4984771,0.134682814 7.51140295,0.142385459 C7.6034078,0.196864662 7.68458638,0.263207322 7.75402558,0.34146022 L8.64094412,1.22873471 C8.69800231,1.28579287 8.75962403,1.34741457 8.82669975,1.41449025 L10.1954614,2.78325124 C10.4003199,2.98810964 10.6267161,3.21450572 10.8776552,3.46544474 L11.4849524,4.07274159 L11.7071068,4.29489588 C12.0976311,4.68541998 12.0976311,5.31858465 11.7071068,5.70910875 C11.3165825,6.09963285 10.6834175,6.09963285 10.2928932,5.70910875 L10.1805423,5.59675789 L9.46344168,4.87965762 C9.21250254,4.62871859 8.98610634,4.40232251 8.78124784,4.19746411 L8,3.416 L8,10.0020035 C8,10.5542882 7.55228475,11.0020034 7,11.0020034 C6.44771525,11.0020034 6,10.5542882 6,10.0020035 L6,3.41600434 L3.70710678,5.70911084 C3.34662282,6.06959476 2.77939176,6.09732429 2.38710056,5.79229943 L2.29289322,5.70911084 C1.90236893,5.31858659 1.90236893,4.68542169 2.29289322,4.29489745 L6.29289322,0.294897937 C6.54710458,0.0406866046 6.87413362,-0.0382890141 7.1738163,0.0164817894 C7.17680504,0.0176633808 7.18016721,0.0182701476 7.18352681,0.0188942086 C7.21466801,0.0243205099 7.24513844,0.0316757505 7.2751983,0.0403969286 C7.28707112,0.0438108231 7.29913038,0.0474948538 7.31113021,0.0514117815 C7.32967787,0.0576595805 7.3480221,0.0642976796 7.3661634,0.0714484962 C7.37897252,0.0762161528 7.39150205,0.0814382808 7.40394259,0.0869264154 L7.42761656,0.098000218 Z" id="Path-4-Copy" transform="translate(7, 5.501) scale(1, -1) translate(-7, -5.501)"></path>
                        </g>
                    </g>
                </g>
            </g>
        </g>
    </g>
</svg>