<?xml version="1.0" encoding="UTF-8"?>
<svg width="111px" height="111px" viewBox="0 0 111 111" version="1.1" xmlns="http://www.w3.org/2000/svg" xmlns:xlink="http://www.w3.org/1999/xlink">
    <title>868E520D-AB8E-4FB9-B511-A43C58B7C144</title>
    <g id="Import-/-Export" stroke="none" stroke-width="1" fill="none" fill-rule="evenodd">
        <g id="Mockup---Import-&amp;-Export-expandido-1300" transform="translate(-1140, -400)">
            <g id="Right" transform="translate(310, 380)">
                <g id="Export-to-PFMS" transform="translate(830, 21)">
                    <g id="Carpeta" transform="translate(50, 0)" fill="#FFFFFF" stroke="#C1CCDC" stroke-linejoin="round">
                        <path d="M30.24,10.8 C30.24,13.5952941 27.9846,15.8823529 25.2,15.8823529 L12.6,15.8823529 L5.04,15.8823529 C2.256408,15.8823529 0,18.1694118 0,20.9647059 L0,41.2941176 L0,48.9176471 C0,51.7129412 2.2564836,54 5.04,54 L55.44,54 C58.2246,54 60.48,51.7129412 60.48,48.9176471 L60.48,41.2941176 L60.48,15.8823529 C60.48,13.0870588 58.2246,10.8 55.44,10.8 L30.24,10.8 Z" id="Path"></path>
                        <path d="M5.04,0 C2.256408,0 0,2.28327 0,5.1 L0,17.85 L25.2,17.85 L25.2,20.4 L60.48,20.4 L60.48,7.65 C60.48,4.83327 58.2246,2.55 55.44,2.55 L29.53188,2.55 C28.65996,1.027905 27.0648,0 25.2,0 L5.04,0 Z" id="Path"></path>
                        <path d="M30.2012804,7.8 C30.2012804,10.4702795 27.9487682,12.6550537 25.1677337,12.6550537 L12.5838668,12.6550537 L5.03354673,12.6550537 C2.25351887,12.6550537 0,14.8398278 0,17.5101073 L0,36.9303219 L0,45.5682628 C0,48.2385423 2.33103356,50.4 5.11098592,50.4 L55.4464533,50.4 C58.2274878,50.4 60.48,48.2152259 60.48,45.5449463 L60.4025608,36.9303219 L60.4025608,12.6550537 C60.4025608,9.98477414 58.1500487,7.8 55.3690141,7.8 L30.2012804,7.8 Z" id="Path"></path>
                    </g>
                    <circle id="Oval" fill="#FFFFFF" cx="35" cy="74" r="32"></circle>
                    <path d="M54.3088808,87.6772425 C52.1910624,89.4538282 49.4009606,90.9797575 46.396587,91.7689771 C43.0303728,92.6582798 39.2495496,92.9008577 35.650332,92.4338784 C28.8630793,91.5566934 22.7682123,87.3527581 18.6666667,83.4113724 C19.1347294,82.3207818 19.2699628,81.9265086 19.7510463,80.8496064 C20.5585631,81.6760766 21.9897067,82.7738481 22.625669,83.2060452 C27.0292053,86.2139212 32.7855321,88.809123 40.4090843,88.3753552 C44.2696313,88.1675595 47.8530869,86.8543627 50.393738,84.850234 C52.8530663,82.9143234 54.9142328,80.131522 54.8683175,76.2630667 C54.8198893,72.1672929 52.7706013,68.8241613 50.5442764,66.5873284 C49.7769642,65.8178561 48.9509442,64.9958739 48.116929,64.389317 C46.7936066,63.4302255 45.3272841,62.687457 43.8481692,61.9841831 C42.3478099,61.2611618 40.8054186,60.5323062 39.0151756,60.1555363 C41.9656386,58.3102838 49.8973493,56.0487668 50.8341601,56.578354 C51.4180393,56.9050824 52.052631,57.4290596 52.5433088,57.8181716 C54.161312,59.093669 55.5481392,60.8882068 56.7296036,62.5510209 C58.4280159,64.9498716 59.8616722,67.7277362 60.3861584,70.8529741 C61.6553417,78.5710349 58.4405798,84.2228078 54.3088808,87.6772425 M7,75.782883 L7,75.7734567 C10.537516,70.0360569 14.6286486,64.8419341 19.4789374,60.4347927 C22.8258824,57.3887174 26.7653177,54.6679645 31.1310245,52.6946485 C31.8627009,52.3539221 32.5749405,51.9357161 33.365151,51.6710899 C34.1446378,51.4069235 34.9625515,51.1418375 35.8012426,50.8588185 C38.9895647,49.7768629 43.3820809,49.228298 46.9044049,49.6333991 C49.5377698,49.9403288 52.1590705,50.7197231 53.9097321,52.1203337 C54.5006586,52.5884301 55.2108874,53.1004393 55.5942636,53.6611894 C55.8138782,53.9853622 56.1228579,54.7344085 55.9490429,55.1808933 C55.7312155,55.7193421 54.9289407,55.7726812 54.2656285,55.7563576 C52.0051392,55.7126748 49.9296356,55.4641422 47.7422023,55.7393443 C44.6354259,56.1313406 42.0677443,57.0238505 39.8503736,57.9830343 C35.16474,59.9869283 31.143759,63.2941812 27.9737568,66.629713 C24.7778387,69.9861665 21.8236532,74.214668 19.4755862,78.5558254 C16.8565196,83.3878402 14.8822219,88.484941 13.2481818,93.8333333 C9.50624318,88.8098036 7.19012417,82.5918924 7,75.782883 M34.9998875,39 C15.6689898,39 0,54.666808 0,73.9997751 C0,93.3298184 15.6689898,109 34.9998875,109 C54.3319099,109 70,93.3298184 70,73.9997751 C70,54.666808 54.3319099,39 34.9998875,39" id="Fill-694" fill="#82B92E"></path>
                    <g id="Group-2" transform="translate(11, 8.5)" stroke="#C1CCDC" stroke-linecap="round" stroke-linejoin="round" stroke-width="2">
                        <g id="Group-4">
                            <polygon id="Triangle" fill="#C1CCDC" transform="translate(31, 5) rotate(90) translate(-31, -5)" points="31 2.5 36 7.5 26 7.5"></polygon>
                            <path d="M0,39.5 C0,36.5833333 0,33.6666667 0,30.75 C-1.75851975e-15,16.3905965 11.6405965,4.75 26,4.75 L26,4.75 L26,4.75" id="Path-3" stroke-dasharray="2,4"></path>
                        </g>
                    </g>
                </g>
            </g>
        </g>
    </g>
</svg>