<?xml version="1.0" encoding="UTF-8"?>
<svg  viewBox="0 0 20 20" version="1.1" xmlns="http://www.w3.org/2000/svg" xmlns:xlink="http://www.w3.org/1999/xlink">
    <!-- Generator: Sketch 61.2 (89653) - https://sketch.com -->
    <title>Dark / 20 / external-tools@svg</title>
    <desc>Created with Sketch.</desc>
    <g id="Dark-/-20-/-external-tools" stroke="none" stroke-width="1" fill="none" fill-rule="evenodd">
        <path d="M8.17054666,8 C8.41245064,8 8.64983751,8.04382464 8.87209193,8.12707823 L6.70710678,10.2928932 C6.31658249,10.6834175 6.31658249,11.3165825 6.70710678,11.7071068 L8,13 L8.29161808,13.2916181 C8.68214237,13.6821424 9.31530735,13.6821424 9.70583164,13.2916181 L11.8723644,11.1256445 C11.955979,11.3483247 12,11.5862304 12,11.8286761 L12,11.8286761 L12,15 L8.99872486,18 L5,18 L2.98434067,20 L0,20 L0,17 L2,15 L2,11 L5,8 Z M9.00024705,0.00313545971 C15.0683108,0.145623569 19.9610136,5.12638246 19.9610136,11.2280702 L19.9577249,10.9991138 L17.4629489,10.9999265 C17.3438002,6.37858166 13.6155749,2.63804566 8.9990807,2.49912614 L9.00024705,0.00313545971 Z M8.99973012,4.07670475 C12.6806558,4.35921582 15.623279,7.31371153 15.8871622,10.9997543 L14.0093091,10.9996646 C13.7549277,8.34703775 11.6473449,6.22787389 8.99992613,5.95553838 L8.99973012,4.07670475 Z" id="Path-39" fill="#3F3F3F"></path>
    </g>
</svg>