<?xml version="1.0" encoding="UTF-8"?>
<svg  viewBox="0 0 20 20" version="1.1" xmlns="http://www.w3.org/2000/svg" xmlns:xlink="http://www.w3.org/1999/xlink">
    <!-- Generator: Sketch 61.2 (89653) - https://sketch.com -->
    <title>Dark / 20 / file-pdf@svg</title>
    <desc>Created with Sketch.</desc>
    <g id="Dark-/-20-/-file-pdf" stroke="none" stroke-width="1" fill="none" fill-rule="evenodd">
        <g id="Group" fill="#3F3F3F">
            <path d="M14,0 L20,6 L20,18 C20,19.1045695 19.1045695,20 18,20 L18,20 L2,20 C0.8954305,20 0,19.1045695 0,18 L0,18 L0,2 C0,0.8954305 0.8954305,0 2,0 L2,0 L14,0 Z M2.78852643,13 L1,13 L1,18 L1.93138358,18 L1.93138358,16.1170663 L2.78852643,16.1170663 C3.73340832,16.1170663 4.36107987,15.4682652 4.36107987,14.5585331 C4.36107987,13.6558533 3.73340832,13 2.78852643,13 Z M6.80427447,13 L5.08998875,13 L5.08998875,18 L6.79752531,18 C8.16085489,18 9.16647919,17.0832158 9.16647919,15.5035261 C9.16647919,13.9238364 8.16760405,13 6.80427447,13 Z M13,13 L9.97637795,13 L9.97637795,18 L10.9145107,18 L10.9145107,16.0535966 L12.7705287,16.0535966 L12.7705287,15.157969 L10.9077615,15.157969 L10.9077615,13.9238364 L13,13.9238364 L13,13 Z M6.77052868,13.9026798 C7.55343082,13.9026798 8.20134983,14.4174894 8.20134983,15.5035261 C8.20134983,16.5895628 7.54668166,17.0973202 6.76377953,17.0973202 L6.02137233,17.0973202 L6.02137233,13.9026798 L6.77052868,13.9026798 Z M2.67379078,13.8462623 C3.13948256,13.8462623 3.42294713,14.1212976 3.42294713,14.5655853 C3.42294713,14.9957687 3.13948256,15.2778561 2.67379078,15.2778561 L1.93813273,15.2778561 L1.93813273,13.8462623 L2.67379078,13.8462623 Z M14,2 L14,7 L19,7 L14,2 Z" id="Shape"></path>
        </g>
    </g>
</svg>