<?xml version="1.0" encoding="UTF-8"?>
<svg  viewBox="0 0 20 20" version="1.1" xmlns="http://www.w3.org/2000/svg" xmlns:xlink="http://www.w3.org/1999/xlink">
    <!-- Generator: Sketch 61.2 (89653) - https://sketch.com -->
    <title>Dark / 20 / file-xml@svg</title>
    <desc>Created with Sketch.</desc>
    <g id="Dark-/-20-/-file-xml" stroke="none" stroke-width="1" fill="none" fill-rule="evenodd">
        <g id="Group" fill="#3F3F3F">
            <path d="M14,0 L20,6 L20,18 C20,19.1045695 19.1045695,20 18,20 L18,20 L2,20 C0.8954305,20 0,19.1045695 0,18 L0,18 L0,2 C0,0.8954305 0.8954305,0 2,0 L2,0 L14,0 Z M2.17001401,13 L1.00700607,13 L2.63241476,15.4964739 L1,18 L2.13498365,18 L3.21391873,16.2722144 L4.28584773,18 L5.45586175,18 L3.82344699,15.5035261 L5.44885567,13 L4.32087809,13 L3.23493695,14.7277856 L2.17001401,13 Z M7.41756189,13 L6.1424568,13 L6.1424568,18 L7.06725829,18 L7.06725829,14.5232722 L8.49649696,18 L9.30219524,18 L10.7314339,14.4950635 L10.7314339,18 L11.6842597,18 L11.6842597,13 L10.3671182,13 L8.90985521,16.6107193 L7.41756189,13 Z M13.7860813,13 L12.8192433,13 L12.8192433,18 L16,18 L16,17.0691114 L13.7860813,17.0691114 L13.7860813,13 Z M14,2 L14,7 L19,7 L14,2 Z" id="Shape"></path>
        </g>
    </g>
</svg>