<?xml version="1.0" encoding="UTF-8"?>
<svg  viewBox="0 0 20 20" version="1.1" xmlns="http://www.w3.org/2000/svg" xmlns:xlink="http://www.w3.org/1999/xlink">
    <!-- Generator: Sketch 61.2 (89653) - https://sketch.com -->
    <title>Dark / 20 / file-html@svg</title>
    <desc>Created with Sketch.</desc>
    <g id="Dark-/-20-/-file-html" stroke="none" stroke-width="1" fill="none" fill-rule="evenodd">
        <g id="Group" fill="#3F3F3F">
            <path d="M14,0 L20,6 L20,18 C20,19.1045695 19.1045695,20 18,20 L18,20 L2,20 C0.8954305,20 0,19.1045695 0,18 L0,18 L0,2 C0,0.8954305 0.8954305,0 2,0 L2,0 L14,0 Z M14,2 L14,7 L19,7 L14,2 Z M1.89545782,18 L1.89545782,15.9266573 L3.90050469,15.9266573 L3.90050469,18 L4.80245133,18 L4.80245133,13 L3.90050469,13 L3.90050469,15.0098731 L1.89545782,15.0098731 L1.89545782,13 L1,13 L1,18 L1.89545782,18 Z M7.78731074,18 L7.78731074,13.9238364 L9.2408075,13.9238364 L9.2408075,13 L5.43186734,13 L5.43186734,13.9238364 L6.8853641,13.9238364 L6.8853641,18 L7.78731074,18 Z M10.7267484,18 L10.7267484,14.5232722 L12.0504686,18 L12.7966835,18 L14.1204037,14.4950635 L14.1204037,18 L15.0028839,18 L15.0028839,13 L13.7829849,13 L12.4333093,16.6107193 L11.0511896,13 L9.8702235,13 L9.8702235,18 L10.7267484,18 Z M19,18 L19,17.0691114 L16.9495314,17.0691114 L16.9495314,13 L16.0540735,13 L16.0540735,18 L19,18 Z" id="Shape"></path>
        </g>
    </g>
</svg>