<?xml version="1.0" encoding="UTF-8"?>
<svg  viewBox="0 0 20 20" version="1.1" xmlns="http://www.w3.org/2000/svg" xmlns:xlink="http://www.w3.org/1999/xlink">
    <!-- Generator: Sketch 61.2 (89653) - https://sketch.com -->
    <title>Dark / 20 / file-json@svg</title>
    <desc>Created with Sketch.</desc>
    <g id="Dark-/-20-/-file-json" stroke="none" stroke-width="1" fill="none" fill-rule="evenodd">
        <g id="Group" fill="#3F3F3F">
            <path d="M14,0 L20,6 L20,18 C20,19.1045695 19.1045695,20 18,20 L18,20 L2,20 C0.8954305,20 0,19.1045695 0,18 L0,18 L0,2 C0,0.8954305 0.8954305,0 2,0 L2,0 L14,0 Z M3.98823083,13.1014885 L3.09757024,13.1014885 L3.09757024,16.4167794 C3.09757024,16.8362652 2.86522399,17.1136671 2.49088838,17.1136671 C2.1294609,17.1136671 1.86484434,16.8903924 1.85839028,16.3964817 L1.85839028,15.9566982 L1,16.1190798 L1,16.4370771 C1,17.3775372 1.59377373,18 2.49734244,18 C3.38800304,18 3.98823083,17.2828146 3.98823083,16.4167794 L3.98823083,13.1014885 Z M6.42786636,13 C5.56302202,13 4.83371298,13.6495264 4.83371298,14.5020298 C4.83371298,15.2259811 5.30485953,15.7198917 6.03416856,15.8755074 L6.67312073,16.0108254 C7.02809415,16.0852503 7.22817008,16.3017591 7.22817008,16.579161 C7.22817008,16.917456 6.96355353,17.1677943 6.48595292,17.1677943 C5.8405467,17.1677943 5.52429765,16.7415426 5.48557327,16.2679296 L4.6594533,16.4979702 C4.73044799,17.1813261 5.26613516,18 6.47949886,18 C7.54441913,18 8.1317388,17.255751 8.1317388,16.5182679 C8.1317388,15.8416779 7.6864085,15.2733424 6.85383447,15.1041949 L6.21488231,14.9756428 C5.87927107,14.9079838 5.71791951,14.6982409 5.71791951,14.4343708 C5.71791951,14.1163735 6.00189825,13.8254398 6.43432043,13.8254398 C7.01518603,13.8254398 7.22171602,14.2381597 7.26689446,14.5020298 L8.06719818,14.2449256 C7.96393318,13.7036536 7.53796507,13 6.42786636,13 Z M10.9650721,13 C9.72589218,13 8.61579347,13.9539919 8.61579347,15.5033829 C8.61579347,17.0460081 9.72589218,18 10.9650721,18 C12.2107062,18 13.3208049,17.0460081 13.3208049,15.5033829 C13.3208049,13.9539919 12.2107062,13 10.9650721,13 Z M15.205391,13.1014885 L14.0952923,13.1014885 L14.0952923,17.8985115 L14.9859529,17.8985115 L14.9859529,14.4952639 L17.064161,17.8985115 L18,17.8985115 L18,13.1014885 L17.1093394,13.1014885 L17.1093394,16.2746955 L15.205391,13.1014885 Z M10.9650721,13.8998647 C11.675019,13.8998647 12.397874,14.4140731 12.397874,15.4966171 C12.397874,16.579161 11.675019,17.0933694 10.9650721,17.0933694 C10.2615793,17.0933694 9.53872437,16.579161 9.53872437,15.4966171 C9.53872437,14.4140731 10.2615793,13.8998647 10.9650721,13.8998647 Z M14,2 L14,7 L19,7 L14,2 Z" id="Shape"></path>
        </g>
    </g>
</svg>