<?xml version="1.0" encoding="UTF-8"?>
<svg  viewBox="0 0 20 20" version="1.1" xmlns="http://www.w3.org/2000/svg" xmlns:xlink="http://www.w3.org/1999/xlink">
    <!-- Generator: Sketch 61.2 (89653) - https://sketch.com -->
    <title>Dark / 20 / file-collection@svg</title>
    <desc>Created with Sketch.</desc>
    <g id="Dark-/-20-/-file-collection" stroke="none" stroke-width="1" fill="none" fill-rule="evenodd">
        <path d="M15.4,6 L19,9.5 L19,20 L7,20 L7,6 L15.4,6 Z M13,3 C13.5522847,3 14,3.44771525 14,4 C14,4.51283584 13.6139598,4.93550716 13.1166211,4.99327227 L13,5 L6,5 L6,18 C6,18.5128358 5.61395981,18.9355072 5.11662113,18.9932723 L5,19 C4.48716416,19 4.06449284,18.6139598 4.00672773,18.1166211 L4,18 L4,4 C4,3.48716416 4.38604019,3.06449284 4.88337887,3.00672773 L5,3 L13,3 Z M13,16 L10,16 C9.44771525,16 9,16.4477153 9,17 C9,17.5522847 9.44771525,18 10,18 L10,18 L13,18 C13.5522847,18 14,17.5522847 14,17 C14,16.4477153 13.5522847,16 13,16 L13,16 Z M10,0 C10.5522847,0 11,0.44771525 11,1 C11,1.51283584 10.6139598,1.93550716 10.1166211,1.99327227 L10,2 L3,2 L3,15 C3,15.5128358 2.61395981,15.9355072 2.11662113,15.9932723 L2,16 C1.48716416,16 1.06449284,15.6139598 1.00672773,15.1166211 L1,15 L1,1 C1,0.487164161 1.38604019,0.0644928393 1.88337887,0.00672773133 L2,0 L10,0 Z M16,12 L10,12 C9.44771525,12 9,12.4477153 9,13 C9,13.5522847 9.44771525,14 10,14 L10,14 L16,14 C16.5522847,14 17,13.5522847 17,13 C17,12.4477153 16.5522847,12 16,12 L16,12 Z" id="Rectangle-2" fill="#3F3F3F"></path>
    </g>
</svg>