<?xml version="1.0" encoding="UTF-8"?>
<svg width="20px" height="20px" viewBox="0 0 20 20" version="1.1" xmlns="http://www.w3.org/2000/svg" xmlns:xlink="http://www.w3.org/1999/xlink">
    <!-- Generator: Sketch 61.2 (89653) - https://sketch.com -->
    <title>Dark / 20 / firewall@svg</title>
    <desc>Created with Sketch.</desc>
    <g id="Dark-/-20-/-firewall" stroke="none" stroke-width="1" fill="none" fill-rule="evenodd">
        <path d="M11,14 C11.5522847,14 12,14.4477153 12,15 L12,19 C12,19.5522847 11.5522847,20 11,20 L1,20 C0.44771525,20 6.76353751e-17,19.5522847 0,19 L0,15 C-6.76353751e-17,14.4477153 0.44771525,14 1,14 L11,14 Z M19,14 C19.5522847,14 20,14.4477153 20,15 L20,19 C20,19.5522847 19.5522847,20 19,20 L15,20 C14.4477153,20 14,19.5522847 14,19 L14,15 C14,14.4477153 14.4477153,14 15,14 L19,14 Z M19,7 C19.5522847,7 20,7.44771525 20,8 L20,8 L20,12 C20,12.5522847 19.5522847,13 19,13 L19,13 L9,13 C8.44771525,13 8,12.5522847 8,12 L8,12 L8,8 C8,7.44771525 8.44771525,7 9,7 L9,7 Z M5,7 C5.55228475,7 6,7.44771525 6,8 L6,8 L6,12 C6,12.5522847 5.55228475,13 5,13 L5,13 L1,13 C0.44771525,13 0,12.5522847 0,12 L0,12 L0,8 C0,7.44771525 0.44771525,7 1,7 L1,7 Z M11,0 C11.5522847,-1.01453063e-16 12,0.44771525 12,1 L12,5 C12,5.55228475 11.5522847,6 11,6 L1,6 C0.44771525,6 6.76353751e-17,5.55228475 0,5 L0,1 C-6.76353751e-17,0.44771525 0.44771525,1.01453063e-16 1,0 L11,0 Z M19,0 C19.5522847,-1.01453063e-16 20,0.44771525 20,1 L20,5 C20,5.55228475 19.5522847,6 19,6 L15,6 C14.4477153,6 14,5.55228475 14,5 L14,1 C14,0.44771525 14.4477153,1.01453063e-16 15,0 L19,0 Z" id="Rectangle-2" fill="#3F3F3F"></path>
    </g>
</svg>