<?xml version="1.0" encoding="utf-8"?>
<!-- Generator: Adobe Illustrator 23.1.0, SVG Export Plug-In . SVG Version: 6.00 Build 0)  -->
<svg version="1.1" id="Capa_1" xmlns="http://www.w3.org/2000/svg" xmlns:xlink="http://www.w3.org/1999/xlink" x="0px" y="0px"
	 viewBox="0 0 20 20" style="enable-background:new 0 0 20 20;" xml:space="preserve">
<style type="text/css">
	.st0{fill:#3F3F3F;}
</style>
<g>
	<path class="st0" d="M10.6,0.1c0.4,0.1,0.8,0.1,1.3,0.2c1.5,0.3,2.8,0.9,4,1.8c0.1,0,0.1,0.1,0.2,0.1C16,2.1,16,2,16,2
		c-0.1-0.3,0.1-0.6,0.4-0.7c0.3-0.1,0.6,0.1,0.7,0.4c0.2,0.5,0.4,1.1,0.5,1.6c0.1,0.3,0.2,0.5,0.3,0.8c0.1,0.2,0,0.4-0.1,0.6
		c-0.2,0.2-0.4,0.2-0.6,0.1c-0.8-0.3-1.6-0.5-2.3-0.8c-0.3-0.1-0.5-0.3-0.5-0.6c0-0.3,0.2-0.5,0.6-0.5c0,0,0,0,0.1,0
		c0,0-0.1,0-0.1-0.1c-1.6-1-3.4-1.6-5.3-1.5c-3.8,0.2-7,2.8-8,6.4C1.1,9.5,1.2,11.2,1.8,13c0,0.1,0.1,0.2,0.1,0.3
		c0.1,0.3,0,0.7-0.3,0.8c-0.3,0.1-0.6,0-0.8-0.4c-0.3-0.7-0.5-1.5-0.6-2.3c0-0.3-0.1-0.5-0.1-0.8c0-0.4,0-0.8,0-1.2
		c0-0.1,0-0.1,0-0.2c0.1-0.5,0.1-1,0.2-1.5c0.9-3.8,4.1-6.8,7.9-7.4C8.7,0.2,9,0.2,9.4,0.1C9.8,0.1,10.2,0.1,10.6,0.1z"/>
	<path class="st0" d="M10,16.4c-0.4,0-0.7,0-1.1,0c-0.4,0-0.6-0.2-0.6-0.6c0-0.2,0-0.5,0-0.7c0-0.1-0.1-0.2-0.1-0.2
		c-0.5-0.2-1-0.5-1.4-0.8c0,0-0.1,0-0.2,0c-0.2,0.1-0.4,0.2-0.6,0.4c-0.3,0.2-0.6,0.1-0.8-0.2c-0.4-0.6-0.7-1.3-1.1-1.9
		c-0.2-0.3-0.1-0.7,0.2-0.9c0.2-0.1,0.4-0.2,0.6-0.4c0,0,0.1-0.1,0.1-0.2c-0.1-0.6-0.1-1.1,0-1.7c0-0.1,0-0.2-0.1-0.2
		C4.6,8.8,4.3,8.7,4.1,8.6C3.8,8.4,3.7,8.1,3.9,7.8c0.4-0.7,0.8-1.3,1.2-2c0.2-0.3,0.5-0.4,0.8-0.2C6.1,5.7,6.3,5.9,6.5,6
		c0.1,0,0.2,0,0.2,0c0.4-0.3,0.9-0.6,1.4-0.8c0.1,0,0.1-0.1,0.1-0.2c0-0.2,0-0.5,0-0.7c0-0.4,0.2-0.6,0.6-0.6c0.8,0,1.5,0,2.3,0
		c0.4,0,0.6,0.2,0.6,0.6c0,0.2,0,0.5,0,0.7c0,0.1,0,0.2,0.1,0.2c0.5,0.2,1,0.5,1.4,0.8c0,0,0.2,0,0.2,0c0.2-0.1,0.4-0.2,0.6-0.3
		c0.3-0.2,0.7-0.1,0.9,0.2c0.4,0.6,0.7,1.3,1.1,1.9c0.2,0.4,0.1,0.7-0.2,0.9c-0.2,0.1-0.4,0.2-0.6,0.3c-0.1,0.1-0.1,0.1-0.1,0.2
		c0.1,0.5,0.1,1.1,0,1.6c0,0.1,0,0.2,0.1,0.2c0.2,0.1,0.4,0.2,0.6,0.3c0.3,0.2,0.4,0.5,0.2,0.8c-0.4,0.7-0.7,1.3-1.1,1.9
		c-0.2,0.3-0.5,0.4-0.8,0.2c-0.2-0.1-0.4-0.2-0.6-0.4c-0.1,0-0.2,0-0.2,0c-0.4,0.3-0.9,0.6-1.4,0.8c-0.1,0-0.1,0.1-0.1,0.2
		c0,0.2,0,0.5,0,0.7c0,0.4-0.2,0.6-0.6,0.6C10.7,16.4,10.4,16.4,10,16.4z M11.7,10c0-1-0.8-1.7-1.7-1.7C9,8.3,8.3,9,8.3,10
		c0,1,0.8,1.7,1.7,1.7C11,11.7,11.7,10.9,11.7,10z"/>
	<path class="st0" d="M4,17.8c0,0.1,0,0.1,0,0.2c0.1,0.3-0.1,0.6-0.4,0.7S3,18.7,2.9,18.3c-0.1-0.2-0.1-0.4-0.2-0.6
		c-0.2-0.6-0.4-1.2-0.6-1.7C2,15.7,2,15.5,2.2,15.3c0.2-0.2,0.4-0.2,0.7-0.1c0.8,0.3,1.5,0.5,2.3,0.8c0.3,0.1,0.5,0.3,0.5,0.6
		c0,0.3-0.2,0.5-0.6,0.5c0,0,0,0-0.1,0c0.5,0.3,1,0.5,1.5,0.8c1.2,0.6,2.5,0.8,3.8,0.8c3.2-0.2,5.6-1.6,7.2-4.3
		c0.9-1.4,1.3-3,1.2-4.7c0-1-0.3-2-0.6-2.9c-0.1-0.4,0-0.7,0.3-0.8c0.3-0.1,0.6,0,0.8,0.3c0.3,0.8,0.6,1.6,0.7,2.5
		c0.6,4.3-1.9,8.4-5.7,10.2c-3.3,1.5-6.5,1.1-9.6-0.8C4.3,18.1,4.1,17.9,4,17.8z"/>
</g>
</svg>
