<?xml version="1.0" encoding="UTF-8"?>
<svg  viewBox="0 0 20 20" version="1.1" xmlns="http://www.w3.org/2000/svg" xmlns:xlink="http://www.w3.org/1999/xlink">
    <!-- Generator: Sketch 61.2 (89653) - https://sketch.com -->
    <title>Dark / 20 / freebsd@svg</title>
    <desc>Created with Sketch.</desc>
    <g id="Dark-/-20-/-freebsd" stroke="none" stroke-width="1" fill="none" fill-rule="evenodd">
        <path d="M19.771875,0.5025 C20.834375,1.565 17.8875,6.2196875 17.390625,6.716875 C16.89375,7.2140625 15.640625,6.75625 14.578125,5.69625 C13.515625,4.63625 13.060625,3.38375 13.5575,2.88375 C14.0575,2.3734375 18.7121875,-0.55375 19.771875,0.5025 L19.771875,0.5025 Z M4.90625,1.625 C3.286875,0.711875 0.984375,-0.3084375 0.251875,0.4240625 C-0.49375,1.1696875 0.5625,3.525 1.4946875,5.146875 C2.31875,3.6946875 3.49625,2.49125 4.90625,1.625 Z M18.149375,6.350625 C18.293125,6.8609375 18.2671875,7.279375 18.0315625,7.515 C17.4690625,8.0775 15.9384375,7.475625 14.5646875,6.1675 C14.473125,6.0759375 14.3684375,5.9975 14.2771875,5.8925 C13.7771875,5.3925 13.3875,4.871875 13.1521875,4.375 C12.6678125,3.5115625 12.5503125,2.75 12.9165625,2.38625 C13.1128125,2.19 13.426875,2.1378125 13.8228125,2.203125 C14.07125,2.04625 14.3721875,1.859375 14.699375,1.6796875 C13.3609375,0.9865625 11.85625,0.59375 10.2603125,0.59375 C4.94875,0.59375 0.6446875,4.898125 0.6446875,10.209375 C0.6446875,15.520625 4.9490625,19.825 10.2603125,19.825 C15.5715625,19.825 19.8759375,15.520625 19.8759375,10.209375 C19.8759375,8.495625 19.43125,6.88625 18.633125,5.4865625 C18.4886933,5.78354044 18.3270647,6.0718424 18.1490625,6.35 L18.149375,6.350625 Z" id="Shape" fill="#3F3F3F"></path>
    </g>
</svg>