<?xml version="1.0" encoding="UTF-8"?>
<svg width="20px" height="20px" viewBox="0 0 20 20" version="1.1" xmlns="http://www.w3.org/2000/svg" xmlns:xlink="http://www.w3.org/1999/xlink">
    <!-- Generator: Sketch 61.2 (89653) - https://sketch.com -->
    <title>Dark / 20 / fullscreen@svg</title>
    <desc>Created with Sketch.</desc>
    <g id="Dark-/-20-/-fullscreen" stroke="none" stroke-width="1" fill="none" fill-rule="evenodd">
        <path d="M1,14 L1.11662113,14.0067277 C1.61395981,14.0644928 2,14.4871642 2,15 L2,15 L2,18.0029869 L5,18.0029869 L5.11662113,18.0097146 C5.61395981,18.0674797 6,18.4901511 6,19.0029869 C6,19.5552717 5.55228475,20.0029869 5,20.0029869 L5,20.0029869 L1,20.0029869 L0.883378875,19.9962592 C0.38604019,19.9384941 0,19.5158227 0,19.0029869 L0,19.0029869 L0,15 L0.00672773133,14.8833789 C0.0644928393,14.3860402 0.487164161,14 1,14 L1,14 Z M19,14 C19.5128358,14 19.9355072,14.3860402 19.9932723,14.8833789 L20,15 L20,19.0029869 C20,19.5158227 19.6139598,19.9384941 19.1166211,19.9962592 L19,20.0029869 L15,20.0029869 C14.4477153,20.0029869 14,19.5552717 14,19.0029869 C14,18.4901511 14.3860402,18.0674797 14.8833789,18.0097146 L15,18.0029869 L18,18.0029869 L18,15 C18,14.4871642 18.3860402,14.0644928 18.8833789,14.0067277 L19,14 Z M15,6 C15.5522847,6 16,6.44771525 16,7 L16,7 L16,13 C16,13.5522847 15.5522847,14 15,14 L15,14 L5,14 C4.44771525,14 4,13.5522847 4,13 L4,13 L4,7 C4,6.44771525 4.44771525,6 5,6 L5,6 Z M14,8 L6,8 L6,12 L14,12 L14,8 Z M5,0 C5.55228475,0 6,0.44771525 6,1 C6,1.51283584 5.61395981,1.93550716 5.11662113,1.99327227 L5,2 L2,2 L2,5.00298691 C2,5.51582275 1.61395981,5.93849407 1.11662113,5.99625918 L1,6.00298691 C0.487164161,6.00298691 0.0644928393,5.61694672 0.00672773133,5.11960803 L0,5.00298691 L0,1 C0,0.487164161 0.38604019,0.0644928393 0.883378875,0.00672773133 L1,0 L5,0 Z M19,0 L19.1166211,0.00672773133 C19.6139598,0.0644928393 20,0.487164161 20,1 L20,1 L20,5.00298691 L19.9932723,5.11960803 C19.9355072,5.61694672 19.5128358,6.00298691 19,6.00298691 L19,6.00298691 L18.8833789,5.99625918 C18.3860402,5.93849407 18,5.51582275 18,5.00298691 L18,5.00298691 L18,2 L15,2 L14.8833789,1.99327227 C14.3860402,1.93550716 14,1.51283584 14,1 C14,0.44771525 14.4477153,0 15,0 L15,0 L19,0 Z" id="Path-54" fill="#3F3F3F"></path>
    </g>
</svg>