<?xml version="1.0" encoding="UTF-8"?>
<svg  viewBox="0 0 20 20" version="1.1" xmlns="http://www.w3.org/2000/svg" xmlns:xlink="http://www.w3.org/1999/xlink">
    <!-- Generator: Sketch 61.2 (89653) - https://sketch.com -->
    <title>Dark / 20 / generic-string@svg</title>
    <desc>Created with Sketch.</desc>
    <g id="Dark-/-20-/-generic-string" stroke="none" stroke-width="1" fill="none" fill-rule="evenodd">
        <path d="M4.29289322,5.29289322 C4.68341751,4.90236893 5.31658249,4.90236893 5.70710678,5.29289322 C6.06759074,5.65337718 6.09532028,6.22060824 5.79029539,6.61289944 L5.70710678,6.70710678 L2.415,10 L5.70710678,13.2928932 C6.06759074,13.6533772 6.09532028,14.2206082 5.79029539,14.6128994 L5.70710678,14.7071068 C5.34662282,15.0675907 4.77939176,15.0953203 4.38710056,14.7902954 L4.29289322,14.7071068 L0.292893219,10.7071068 C-0.0675907428,10.3466228 -0.0953202783,9.77939176 0.209704612,9.38710056 L0.292893219,9.29289322 L4.29289322,5.29289322 Z" id="Path-20" fill="#3F3F3F"></path>
        <path d="M11.5000179,3.63088326 C11.7038754,3.11759918 12.2852336,2.86675941 12.7985176,3.07061696 C13.2751386,3.25991326 13.5254682,3.77470752 13.3955781,4.25824773 L13.3587839,4.36911674 L8.92938304,15.5217132 C8.72552549,16.0349973 8.14416734,16.285837 7.63088326,16.0819795 C7.15426233,15.8926832 6.90393267,15.3778889 7.03382279,14.8943487 L7.07061696,14.7834797 L11.5000179,3.63088326 Z" id="Path-21" fill="#3F3F3F"></path>
        <path d="M18.2928932,5.29289322 C18.6834175,4.90236893 19.3165825,4.90236893 19.7071068,5.29289322 C20.0675907,5.65337718 20.0953203,6.22060824 19.7902954,6.61289944 L19.7071068,6.70710678 L16.415,10 L19.7071068,13.2928932 C20.0675907,13.6533772 20.0953203,14.2206082 19.7902954,14.6128994 L19.7071068,14.7071068 C19.3466228,15.0675907 18.7793918,15.0953203 18.3871006,14.7902954 L18.2928932,14.7071068 L14.2928932,10.7071068 C13.9324093,10.3466228 13.9046797,9.77939176 14.2097046,9.38710056 L14.2928932,9.29289322 L18.2928932,5.29289322 Z" id="Path-20-Copy" fill="#3F3F3F" transform="translate(17.000000, 10.000000) scale(-1, 1) translate(-17.000000, -10.000000) "></path>
    </g>
</svg>