<?xml version="1.0" encoding="UTF-8"?>
<svg  viewBox="0 0 20 20" version="1.1" xmlns="http://www.w3.org/2000/svg" xmlns:xlink="http://www.w3.org/1999/xlink">
    <!-- Generator: Sketch 61.2 (89653) - https://sketch.com -->
    <title>Dark / 20 / generic-boolean@svg</title>
    <desc>Created with Sketch.</desc>
    <g id="Dark-/-20-/-generic-boolean" stroke="none" stroke-width="1" fill="none" fill-rule="evenodd">
        <g id="Group-2" transform="translate(9.824397, 10.313708) rotate(45.000000) translate(-9.824397, -10.313708) translate(-0.675603, 2.813708)" fill="#3F3F3F">
            <path d="M7.33333333,0 C3.28324517,0 4.17443857e-14,3.28324517 4.17443857e-14,7.33333333 C4.17443857e-14,11.3834215 3.28324517,14.6666667 7.33333333,14.6666667 C11.3834215,14.6666667 14.6666667,11.3834215 14.6666667,7.33333333 C14.6666667,3.28324517 11.3834215,0 7.33333333,0 Z M12.6666667,7.33333333 C12.6666667,9.41419975 11.4749707,11.2167307 9.73682382,12.0956811 C8.72206198,10.4760103 7.97435145,9.23825452 7.49311887,8.38186847 C6.67366748,6.92359908 7.7119458,6.46100632 8.01703813,4.89572234 C8.17915299,4.06398794 8.73784749,3.28231954 9.69312163,2.55071714 C11.4558493,3.42114621 12.6666667,5.23583899 12.6666667,7.33333333 Z" id="Oval"></path>
            <path d="M13.6666667,2.84217094e-14 C9.6165785,2.84217094e-14 6.33333333,3.28324517 6.33333333,7.33333333 C6.33333333,11.3834215 9.6165785,14.6666667 13.6666667,14.6666667 C17.7167548,14.6666667 21,11.3834215 21,7.33333333 C21,3.28324517 17.7167548,2.84217094e-14 13.6666667,2.84217094e-14 Z M13.6666667,2 C16.6121853,2 19,4.38781467 19,7.33333333 C19,10.278852 16.6121853,12.6666667 13.6666667,12.6666667 C10.721148,12.6666667 8.33333333,10.278852 8.33333333,7.33333333 C8.33333333,4.38781467 10.721148,2 13.6666667,2 Z" id="Oval-Copy"></path>
        </g>
    </g>
</svg>