<?xml version="1.0" encoding="UTF-8"?>
<svg  viewBox="0 0 20 20" version="1.1" xmlns="http://www.w3.org/2000/svg" xmlns:xlink="http://www.w3.org/1999/xlink">
    <!-- Generator: Sketch 61.2 (89653) - https://sketch.com -->
    <title>Dark / 20 / generic-data@svg</title>
    <desc>Created with Sketch.</desc>
    <g id="Dark-/-20-/-generic-data" stroke="none" stroke-width="1" fill="none" fill-rule="evenodd">
        <g id="Group" transform="translate(2.000000, 0.000000)" fill="#3F3F3F">
            <g transform="translate(0.000000, 10.000000)">
                <path d="M4,0.2 C1.790861,0.2 0,1.990861 0,4.2 L0,5.2 C0,7.409139 1.790861,9.2 4,9.2 C6.209139,9.2 8,7.409139 8,5.2 L8,4.2 C8,1.990861 6.209139,0.2 4,0.2 Z M4,2.2 C5.1045695,2.2 6,3.0954305 6,4.2 L6,5.2 C6,6.3045695 5.1045695,7.2 4,7.2 C2.8954305,7.2 2,6.3045695 2,5.2 L2,4.2 C2,3.0954305 2.8954305,2.2 4,2.2 Z" id="Rectangle-Copy"></path>
                <path d="M11,0.2 C11.5128358,0.2 11.9355072,0.58604019 11.9932723,1.08337887 L12,1.2 L12,8.2 C12,8.75228475 11.5522847,9.2 11,9.2 C10.4871642,9.2 10.0644928,8.81395981 10.0067277,8.31662113 L10,8.2 L10,1.2 C10,0.64771525 10.4477153,0.2 11,0.2 Z" id="Path-16-Copy-3"></path>
                <path d="M15,0.2 C15.5128358,0.2 15.9355072,0.58604019 15.9932723,1.08337887 L16,1.2 L16,8.2 C16,8.75228475 15.5522847,9.2 15,9.2 C14.4871642,9.2 14.0644928,8.81395981 14.0067277,8.31662113 L14,8.2 L14,1.2 C14,0.64771525 14.4477153,0.2 15,0.2 Z" id="Path-16-Copy-2"></path>
            </g>
            <g>
                <path d="M8,0.2 C5.790861,0.2 4,1.990861 4,4.2 L4,5.2 C4,7.409139 5.790861,9.2 8,9.2 C10.209139,9.2 12,7.409139 12,5.2 L12,4.2 C12,1.990861 10.209139,0.2 8,0.2 Z M8,2.2 C9.1045695,2.2 10,3.0954305 10,4.2 L10,5.2 C10,6.3045695 9.1045695,7.2 8,7.2 C6.8954305,7.2 6,6.3045695 6,5.2 L6,4.2 C6,3.0954305 6.8954305,2.2 8,2.2 Z" id="Rectangle-Copy"></path>
                <path d="M15,0.2 C15.5128358,0.2 15.9355072,0.58604019 15.9932723,1.08337887 L16,1.2 L16,8.2 C16,8.75228475 15.5522847,9.2 15,9.2 C14.4871642,9.2 14.0644928,8.81395981 14.0067277,8.31662113 L14,8.2 L14,1.2 C14,0.64771525 14.4477153,0.2 15,0.2 Z" id="Path-16-Copy-2"></path>
                <path d="M1,0.2 C1.51283584,0.2 1.93550716,0.58604019 1.99327227,1.08337887 L2,1.2 L2,8.2 C2,8.75228475 1.55228475,9.2 1,9.2 C0.487164161,9.2 0.0644928393,8.81395981 0.00672773133,8.31662113 L0,8.2 L0,1.2 C0,0.64771525 0.44771525,0.2 1,0.2 Z" id="Path-16-Copy-3"></path>
            </g>
        </g>
    </g>
</svg>