<?xml version="1.0" encoding="utf-8"?>
<!-- Generator: Adobe Illustrator 23.1.0, SVG Export Plug-In . SVG Version: 6.00 Build 0)  -->
<svg version="1.1" id="Capa_1" xmlns="http://www.w3.org/2000/svg" xmlns:xlink="http://www.w3.org/1999/xlink" x="0px" y="0px"
	 viewBox="0 0 20 20" style="enable-background:new 0 0 20 20;" xml:space="preserve">
<style type="text/css">
	.st0{fill:#3F3F3F;}
</style>
<g>
	<g>
		<path class="st0" d="M3.6,10.8c0.1-0.2,0.3-0.4,0.4-0.6c0.8-1,1.7-1.8,2.9-2.4c0.8-0.4,1.6-0.6,2.5-0.7c1.7-0.2,3.2,0.3,4.6,1.2
			c0.9,0.6,1.7,1.4,2.3,2.2c0.2,0.2,0.2,0.4,0,0.7c-0.8,1-1.6,1.8-2.7,2.5c-0.9,0.5-1.9,0.9-2.9,1c-1.5,0.1-2.9-0.2-4.2-1
			c-1.1-0.6-1.9-1.5-2.7-2.5c0-0.1-0.1-0.1-0.1-0.2C3.6,10.9,3.6,10.8,3.6,10.8z M9.9,8.2c-1.5,0-2.6,1.3-2.6,2.8
			c0,1.5,1.3,2.6,2.8,2.6c1.4,0,2.6-1.3,2.6-2.8C12.7,9.3,11.4,8.2,9.9,8.2z"/>
		<path class="st0" d="M10,9.4c0.8,0,1.4,0.6,1.4,1.4c0,0.8-0.6,1.5-1.5,1.5c-0.8,0-1.4-0.6-1.4-1.4C8.6,10.1,9.2,9.4,10,9.4z"/>
	</g>
	<path class="st0" d="M2.9,0c3.8,0,7.6,0,11.4,0c0.1,0.1,0.3,0.2,0.4,0.3c1.4,1.3,2.7,2.7,4,4C18.9,4.5,19,4.7,19,4.9c0,5,0,8,0,13
		c0,1.2-0.9,2.1-2.1,2.1c-4.6,0-9.1,0-13.7,0c-0.5,0-0.9-0.1-1.3-0.4C1.3,19.1,1,18.5,1,17.8c0-5,0-7.9,0-12.9C1,4,1,3.1,1,2.2
		c0-0.7,0.3-1.3,0.8-1.8C2.2,0.2,2.5,0.1,2.9,0z M13.5,1.4c-0.1,0-0.2,0-0.2,0c-3.3,0-6.6,0-10,0c-0.6,0-0.8,0.3-0.8,0.8
		c0,5.9,0,9.7,0,15.5c0,0.6,0.2,0.8,0.8,0.8c4.5,0,9,0,13.5,0c0.6,0,0.8-0.3,0.8-0.8c0-4.7,0-7.3,0-12c0-0.1,0-0.2,0-0.2
		c-0.9,0-1.8,0-2.7,0c-0.9,0-1.4-0.6-1.5-1.4c0-0.4,0-0.9,0-1.3C13.5,2.3,13.5,1.9,13.5,1.4z"/>
</g>
</svg>
