<?xml version="1.0" encoding="UTF-8"?>
<svg width="16px" height="16px" viewBox="0 0 16 16" version="1.1" xmlns="http://www.w3.org/2000/svg" xmlns:xlink="http://www.w3.org/1999/xlink">
    <!-- Generator: sketchtool 61.2 (101010) - https://sketch.com -->
    <title>27D252CA-B4D5-442E-ACDD-238B8E51751E@svg</title>
    <desc>Created with sketchtool.</desc>
    <g id="Consola-mobile" stroke="none" stroke-width="1" fill="none" fill-rule="evenodd">
        <g id="1a-Tactical-view---default" transform="translate(-20.000000, -17.000000)" fill="#95A3BF">
            <g id="Elements-/-mobile-/-header">
                <g id="Go-back" transform="translate(10.000000, 8.000000)">
                    <g id="Group-2" transform="translate(10.000000, 7.000000)">
                        <g id="Back" transform="translate(0.000000, 2.000000)">
                            <path d="M6.22681586,7.18499617 C6.84825397,7.80421394 6.88096124,8.78791523 6.32493766,9.44549969 L6.22681586,9.55195908 C5.60537774,10.1711769 4.61814918,10.2037673 3.95820681,9.64973031 L3.85136569,9.55195908 L0.491971839,6.20456803 L0.471159559,6.18346253 C0.448283024,6.15985237 0.426096906,6.13557366 0.40463361,6.11065869 L0.491971839,6.20456803 C0.449187281,6.16193634 0.409193308,6.117577 0.371989918,6.07171537 C0.350999584,6.04570421 0.330242064,6.0184516 0.310321073,5.99056447 C0.271139022,5.93594655 0.236003122,5.87988377 0.204505607,5.82236871 L0.145733976,5.70401417 C0.124045538,5.65571966 0.104586732,5.60621384 0.0874880109,5.55562669 C0.0818617556,5.53867941 0.0764412566,5.52170989 0.0712989205,5.50467482 C0.0612197632,5.4717683 0.0521679177,5.43808328 0.0441615727,5.40399735 C0.0412764855,5.39105693 0.0384611977,5.37839495 0.0357948693,5.3657081 C0.0291097206,5.33463116 0.0233875846,5.30289036 0.0185767243,5.27085268 C0.0153029314,5.24828532 0.0124012695,5.22594088 0.00995178558,5.20355663 C0.00704369824,5.17765032 0.0047944618,5.15126248 0.00316664333,5.12470734 C0.0016973396,5.10038272 0.000722849869,5.07603294 0.000278799038,5.05167534 C9.04155519e-05,5.04133651 0,5.03122206 0,5.02108658 L0.000563610919,4.9775969 C0.0011706852,4.95417944 0.00226817651,4.93077224 0.00385608484,4.90739193 L0,5.02108658 C0,4.9551527 0.00382623005,4.89010929 0.0112695117,4.82616478 C0.0138053602,4.80529002 0.0166252188,4.78456697 0.0198345397,4.76389234 C0.0327849945,4.67929154 0.0523273944,4.59644178 0.0777734739,4.5162055 C0.0820792159,4.50294578 0.0864580021,4.48969214 0.0910073506,4.47648392 C0.122846114,4.3839691 0.162775714,4.29494223 0.20983783,4.21040281 C0.221199302,4.18987953 0.22970104,4.17526039 0.238443166,4.16074485 C0.254731128,4.13399708 0.271515085,4.10783107 0.288995392,4.08217425 C0.298790066,4.06755699 0.308765074,4.05340543 0.31898569,4.03937632 C0.338027371,4.01341654 0.358006427,3.98757415 0.378709998,3.96234508 C0.384045417,3.95574022 0.388924626,3.94988957 0.393850031,3.94406451 L0.424411969,3.90896446 C0.438242587,3.89347594 0.452357566,3.87824509 0.466748745,3.86328007 L0.491971839,3.83760512 L3.85136569,0.49021407 C4.50732814,-0.16340469 5.5708534,-0.16340469 6.22681586,0.49021407 C6.84825397,1.10943184 6.88096124,2.09313313 6.32493766,2.75071759 L6.22681586,2.85717698 L5.734,3.347 L9.65101119,3.34739105 C13.1574609,3.34739105 16,6.17977404 16,9.67369553 C16,13.0991087 13.2678401,15.8886718 9.85649076,15.9967495 L9.65101119,16 L6.69543864,16 C5.76776764,16 5.01574171,15.250661 5.01574171,14.3263045 C5.01574171,13.4439642 5.70095542,12.7210923 6.57008089,12.6571997 L6.69543864,12.6526089 L9.65101119,12.6526089 C11.3021189,12.6526089 12.6406062,11.318904 12.6406062,9.67369553 C12.6406062,8.08155831 11.3870801,6.78115173 9.80978545,6.69891128 L9.65101119,6.6947821 L5.734,6.694 L6.22681586,7.18499617 Z" id="Path-73"></path>
                        </g>
                    </g>
                </g>
            </g>
        </g>
    </g>
</svg>