<?xml version="1.0" encoding="UTF-8"?>
<svg viewBox="0 0 20 20" version="1.1" xmlns="http://www.w3.org/2000/svg" xmlns:xlink="http://www.w3.org/1999/xlink">
    <!-- Generator: Sketch 61.2 (89653) - https://sketch.com -->
    <title>Dark / 20 / go-back@svg</title>
    <desc>Created with Sketch.</desc>
    <g id="Dark-/-20-/-go-back" stroke="none" stroke-width="1" fill="none" fill-rule="evenodd">
        <path d="M10,8.38196601 C10,8.93425076 9.55228475,9.38196601 9,9.38196601 C8.8447549,9.38196601 8.69164184,9.34582092 8.5527864,9.2763932 L1.78885438,5.89442719 C1.29487588,5.64743794 1.09465154,5.0467649 1.34164079,4.5527864 C1.43840449,4.359259 1.59532698,4.20233651 1.78885438,4.10557281 L8.5527864,0.723606798 C9.0467649,0.476617549 9.64743794,0.676841896 9.89442719,1.17082039 C9.96385491,1.30967583 10,1.46278889 10,1.61803399 L10,3.99981493 L11.5,4 C15.6421356,4 19,7.35786438 19,11.5 C19,15.5609173 15.7725256,18.8680175 11.7427311,18.9961464 L11.5,19 L2,19 C1.44771525,19 1,18.5522847 1,18 C1,17.4871642 1.38604019,17.0644928 1.88337887,17.0067277 L2,17 L11.5,17 C14.5375661,17 17,14.5375661 17,11.5 C17,8.53652085 14.65622,6.12046086 11.7212071,6.0043672 L11.5,6 L10,5.99981493 L10,8.38196601 Z" id="Triangle-2" fill="#3F3F3F"></path>
    </g>
</svg>