<?xml version="1.0" encoding="UTF-8"?>
<svg  viewBox="0 0 20 20" version="1.1" xmlns="http://www.w3.org/2000/svg" xmlns:xlink="http://www.w3.org/1999/xlink">
    <!-- Generator: Sketch 61.2 (89653) - https://sketch.com -->
    <title>Dark / 20 / hardware-software-component@svg</title>
    <desc>Created with Sketch.</desc>
    <g id="Dark-/-20-/-hardware-software-component" stroke="none" stroke-width="1" fill="none" fill-rule="evenodd">
        <path d="M18,0 C19.1045695,-2.02906125e-16 20,0.8954305 20,2 L20,18 C20,19.1045695 19.1045695,20 18,20 L10,20 L10,0 L18,0 Z M7.87706508,18 C8.42934983,18 8.87706508,18.4477153 8.87706508,19 C8.87706508,19.5522847 8.42934983,20 7.87706508,20 L7.87706508,20 L5.87706508,20 C5.32478033,20 4.87706508,19.5522847 4.87706508,19 C4.87706508,18.4477153 5.32478033,18 5.87706508,18 L5.87706508,18 Z M0.76294181,17.022896 C1.25422319,16.7705845 1.85702425,16.964308 2.10933566,17.4555894 L2.10933566,17.4555894 L2.16910224,17.5569244 C2.34306199,17.8159624 2.63027682,17.9830191 2.94908257,17.9987488 L2.94908257,17.9987488 L3.06523046,18.0112153 C3.55911828,18.0934187 3.92386052,18.5346003 3.89858836,19.0468131 C3.87137218,19.5984268 3.40213781,20.023535 2.85052407,19.9963188 C1.77203453,19.943107 0.81625856,19.3156114 0.330248399,18.3692898 C0.0779369884,17.8780084 0.271660427,17.2752074 0.76294181,17.022896 Z M1,10.9385325 C1.55228475,10.9385325 2,11.4981766 2,12.1885325 L2,12.1885325 L2,14.6885325 C2,15.3788885 1.55228475,15.9385325 1,15.9385325 C0.44771525,15.9385325 0,15.3788885 0,14.6885325 L0,14.6885325 L0,12.1885325 C0,11.4981766 0.44771525,10.9385325 1,10.9385325 Z M1,4 C1.55228475,4 2,4.55964406 2,5.25 L2,5.25 L2,7.75 C2,8.44035594 1.55228475,9 1,9 C0.44771525,9 0,8.44035594 0,7.75 L0,7.75 L0,5.25 C0,4.55964406 0.44771525,4 1,4 Z M2.85052407,0.00123720924 C3.40213781,-0.025978969 3.87137218,0.399129253 3.89858836,0.950742999 C3.92386052,1.46295576 3.55911828,1.90413733 3.06523046,1.98634073 L2.94908257,1.99880729 C2.63027682,2.01453691 2.34306199,2.18159362 2.16910224,2.44063169 L2.10933566,2.54196669 C1.85702425,3.03324807 1.25422319,3.22697151 0.76294181,2.9746601 C0.271660427,2.72234869 0.0779369884,2.11954763 0.330248399,1.62826624 C0.81625856,0.681944619 1.77203453,0.0544490149 2.85052407,0.00123720924 Z M8.2,0 C8.6418278,0 9,0.44771525 9,1 C9,1.55228475 8.6418278,2 8.2,2 L8.2,2 L5.8,2 C5.3581722,2 5,1.55228475 5,1 C5,0.44771525 5.3581722,0 5.8,0 L5.8,0 Z" id="Rectangle-2" fill="#3F3F3F"></path>
    </g>
</svg>