<?xml version="1.0" encoding="UTF-8"?>
<svg width="20px" height="20px" viewBox="0 0 20 20" version="1.1" xmlns="http://www.w3.org/2000/svg" xmlns:xlink="http://www.w3.org/1999/xlink">
    <title>help_pandora</title>
    <g id="help_pandora" stroke="none" stroke-width="1" fill="none" fill-rule="evenodd">
        <path d="M10,0 C15.4050388,0 20,1.5951272 20,5.39448104 L20,14.605519 C20,18.4048728 15.4050388,20 10,20 C4.59496118,20 0,18.4048728 0,14.605519 L0,5.39448104 C0,1.5951272 4.59496118,0 10,0 Z M9.79831933,13.1716621 C8.99159664,13.1716621 8.35294118,13.8092643 8.35294118,14.5940054 C8.35294118,15.3623978 8.99159664,16 9.79831933,16 C10.605042,16 11.2605042,15.3623978 11.2605042,14.5940054 C11.2605042,13.8092643 10.605042,13.1716621 9.79831933,13.1716621 Z M9.91596639,4 C7.46218487,4 6,5.61852861 6,7.53133515 C6,7.74386921 6.01680672,7.98910082 6.06722689,8.21798365 L8.42016807,8.29972752 C8.40336134,8.23433243 8.3697479,8.07084469 8.3697479,7.69482289 C8.3697479,6.92643052 8.94117647,6.15803815 9.91596639,6.15803815 C10.9243697,6.15803815 11.4117647,6.77929155 11.4117647,7.41689373 C11.4117647,7.84196185 11.2605042,8.23433243 10.8067227,8.5613079 L9.94957983,9.18256131 C8.99159664,9.88555858 8.67226891,10.719346 8.67226891,11.4877384 C8.67226891,11.7493188 8.68907563,11.9782016 8.7394958,12.2070845 L10.7394958,12.2070845 C10.7394958,11.4713896 11.1428571,11.0463215 11.7310924,10.6212534 L12.3697479,10.1634877 C13.3781513,9.42779292 14,8.52861035 14,7.22070845 C14,5.58583106 12.6386555,4 9.91596639,4 Z" id="Mask" fill="#3F3F3F"></path>
        <g id="?" transform="translate(6, 4)"></g>
    </g>
</svg>