<?xml version="1.0" encoding="UTF-8"?>
<svg width="16px" height="16px" viewBox="0 0 16 16" version="1.1" xmlns="http://www.w3.org/2000/svg" xmlns:xlink="http://www.w3.org/1999/xlink">
    <!-- Generator: sketchtool 61.2 (101010) - https://sketch.com -->
    <title>13ED062F-1DD5-4B18-B16F-64D609ACA6F7@svg</title>
    <desc>Created with sketchtool.</desc>
    <g id="Consola-mobile" stroke="none" stroke-width="1" fill="none" fill-rule="evenodd">
        <g id="1a-Tactical-view---default" transform="translate(-292.000000, -17.000000)" fill="#FFFFFF">
            <g id="Elements-/-mobile-/-header">
                <g id="Home" transform="translate(282.000000, 8.000000)">
                    <g id="Group-3" transform="translate(10.000000, 7.000000)">
                        <g id="Home" transform="translate(0.000000, 2.000000)">
                            <path d="M15.7621654,6.04845511 L8.82364649,0.254535942 C8.35663079,-0.0848453139 7.68946552,-0.0848453139 7.1557333,0.254535942 L0.283930943,5.61675978 C-0.249801279,6.02401729 0.0170648321,7.20235138 0.684230109,7.20235138 L1.62318192,7.20235138 L1.62318192,13.3528262 C1.62318192,14.7782275 2.55229288,16 4.02005649,16 L5.35438705,16 C5.75468621,16 6.02155232,15.728495 6.02155232,15.3212375 L6.02155232,11.9953012 C6.02155232,11.2486624 6.62200107,10.4 7.35588288,10.4 L8.69021343,10.4 C9.42409524,10.4 10.024544,11.2486624 10.024544,11.9953012 L10.024544,15.3212375 C10.024544,15.6606187 10.2914101,16 10.6917093,16 L12.0260398,16 C13.4938034,16 14.4,14.7782275 14.4,13.3528262 L14.4,7.20235138 L15.3618662,7.20235138 C15.962315,7.20235138 16.2291811,6.45571262 15.7621654,6.04845511 Z" id="home"></path>
                        </g>
                    </g>
                </g>
            </g>
        </g>
    </g>
</svg>