<?xml version="1.0" encoding="UTF-8"?>
<svg viewBox="0 0 20 20" version="1.1" xmlns="http://www.w3.org/2000/svg" xmlns:xlink="http://www.w3.org/1999/xlink">
    <!-- Generator: Sketch 61.2 (89653) - https://sketch.com -->
    <title>Dark / 20 / house@svg</title>
    <desc>Created with Sketch.</desc>
    <g id="Dark-/-20-/-house" stroke="none" stroke-width="1" fill="none" fill-rule="evenodd">
        <path d="M19.7027067,7.56056889 L11.0295581,0.318169927 C10.4457885,-0.106056642 9.6118319,-0.106056642 8.94466662,0.318169927 L0.354913679,7.02094972 C-0.312251598,7.53002161 0.0213310402,9.00293922 0.855287636,9.00293922 L2.02897739,9.00293922 L2.02897739,16.6910328 C2.02897739,18.4727844 3.19036611,20 5.02507062,20 L6.69298381,20 C7.19335777,20 7.52694041,19.6606187 7.52694041,19.1515469 L7.52694041,14.9941265 C7.52694041,14.060828 8.27750134,13 9.1948536,13 L10.8627668,13 C11.780119,13 12.53068,14.060828 12.53068,14.9941265 L12.53068,19.1515469 C12.53068,19.5757734 12.8642626,20 13.3646366,20 L15.0325498,20 C16.8672543,20 18,18.4727844 18,16.6910328 L18,9.00293922 L19.2023328,9.00293922 C19.9528937,9.00293922 20.2864763,8.06964077 19.7027067,7.56056889 Z" id="home" fill="#3F3F3F"></path>
    </g>
</svg>