<?xml version="1.0" encoding="UTF-8"?>
<svg  viewBox="0 0 20 20" version="1.1" xmlns="http://www.w3.org/2000/svg" xmlns:xlink="http://www.w3.org/1999/xlink">
    <!-- Generator: Sketch 61.2 (89653) - https://sketch.com -->
    <title>Dark / 20 / HP@svg</title>
    <desc>Created with Sketch.</desc>
    <g id="Dark-/-20-/-HP" stroke="none" stroke-width="1" fill="none" fill-rule="evenodd">
        <path d="M10.0278,-5.4e-05 L7.8762,6.0324 L9.33882,6.032858 C10.39242,6.033164 10.84078,6.863878 10.509,7.794178 L8.3696,13.792378 L6.2168,13.792378 L8.5706,7.192378 L7.46216,7.192378 L5.10856,13.792378 L2.93716,13.792378 L7.76676,0.250178 C3.31916,1.264798 -4e-05,5.244378 -4e-05,9.999378 C-4e-05,14.680378 3.21636,18.609578 7.55956,19.698978 L12.43896,5.998778 L15.97276,5.998778 C16.70366,5.998778 17.62292,6.491598 17.22568,7.613258 L15.24162,13.215458 C14.98818,13.931058 14.38576,14.076078 13.90584,14.076078 L11.73344,14.076078 L9.62644,19.991878 C9.750502,19.996424 9.8748,19.999546 9.99988,19.999546 C15.52268,19.999546 19.99988,15.522546 19.99988,9.999546 C19.99988,4.485946 15.53768,0.014946 10.02748,-5.4e-05 L10.0278,-5.4e-05 Z M14.1908,7.1762 L12.1414,12.929 L13.23274,12.929 L15.28254,7.1762 L14.1908,7.1762 Z" id="Shape" fill="#3F3F3F"></path>
    </g>
</svg>