<?xml version="1.0" encoding="UTF-8"?>
<svg  viewBox="0 0 20 20" version="1.1" xmlns="http://www.w3.org/2000/svg" xmlns:xlink="http://www.w3.org/1999/xlink">
    <!-- Generator: Sketch 61.2 (89653) - https://sketch.com -->
    <title>Dark / 20 / http-check-latency@svg</title>
    <desc>Created with Sketch.</desc>
    <g id="Dark-/-20-/-http-check-latency" stroke="none" stroke-width="1" fill="none" fill-rule="evenodd">
        <path d="M10,0 C15.5228475,0 20,4.4771525 20,10 C20,15.5228475 15.5228475,20 10,20 C4.4771525,20 0,15.5228475 0,10 C0,4.4771525 4.4771525,0 10,0 Z M10,2.02201462 C9.44771525,2.02201462 9,2.46972987 9,3.02201462 L9,3.02201462 L9,10 L9.00867243,10.131444 C9.03740171,10.3481451 9.1366129,10.5508265 9.29289322,10.7071068 L9.29289322,10.7071068 L12.2928932,13.7071068 L12.3871006,13.7902954 C12.7793918,14.0953203 13.3466228,14.0675907 13.7071068,13.7071068 L13.7071068,13.7071068 L13.7902954,13.6128994 C14.0953203,13.2206082 14.0675907,12.6533772 13.7071068,12.2928932 L13.7071068,12.2928932 L11,9.586 L11,3.02201462 L10.9932723,2.90539349 C10.9355072,2.40805481 10.5128358,2.02201462 10,2.02201462 Z" id="Oval-2" fill="#3F3F3F"></path>
    </g>
</svg>