<?xml version="1.0" encoding="UTF-8"?>
<svg  viewBox="0 0 20 20" version="1.1" xmlns="http://www.w3.org/2000/svg" xmlns:xlink="http://www.w3.org/1999/xlink">
    <!-- Generator: Sketch 61.2 (89653) - https://sketch.com -->
    <title>Dark / 20 / http-server-response@svg</title>
    <desc>Created with Sketch.</desc>
    <g id="Dark-/-20-/-http-server-response" stroke="none" stroke-width="1" fill="none" fill-rule="evenodd">
        <path d="M10,0 C15.5228475,0 20,4.4771525 20,10 C20,15.5228475 15.5228475,20 10,20 C4.4771525,20 0,15.5228475 0,10 C0,4.4771525 4.4771525,0 10,0 Z M15.7071068,4.29289322 C15.3165825,3.90236893 14.6834175,3.90236893 14.2928932,4.29289322 L14.2928932,4.29289322 L11.2927288,7.29204249 C10.9012675,7.10482952 10.4628759,7 10,7 C8.34314575,7 7,8.34314575 7,10 C7,11.6568542 8.34314575,13 10,13 C11.6568542,13 13,11.6568542 13,10 C13,9.53712413 12.8951705,9.09873251 12.7079575,8.70727122 L12.7079575,8.70727122 L15.7071068,5.70710678 L15.7902954,5.61289944 C16.0953203,5.22060824 16.0675907,4.65337718 15.7071068,4.29289322 Z" id="Oval-2" fill="#3F3F3F"></path>
    </g>
</svg>