<?xml version="1.0" encoding="UTF-8"?>
<svg  viewBox="0 0 20 20" version="1.1" xmlns="http://www.w3.org/2000/svg" xmlns:xlink="http://www.w3.org/1999/xlink">
    <!-- Generator: Sketch 61.2 (89653) - https://sketch.com -->
    <title>Dark / 20 / http-numeric-data@svg</title>
    <desc>Created with Sketch.</desc>
    <g id="Dark-/-20-/-http-numeric-data" stroke="none" stroke-width="1" fill="none" fill-rule="evenodd">
        <path d="M10,0 C15.5228475,0 20,4.4771525 20,10 C20,15.5228475 15.5228475,20 10,20 C4.4771525,20 0,15.5228475 0,10 C0,4.4771525 4.4771525,0 10,0 Z M16.7764877,7.15486726 L12.0217707,7.15486726 L12.0217707,8.51769912 L14.7750363,8.51769912 L13.149492,9.87020649 L13.8403483,10.9439528 C13.9927431,10.8613569 14.2162554,10.7890855 14.4296081,10.7890855 C14.8969521,10.7890855 15.3846154,11.0575221 15.3846154,11.6976401 C15.3846154,12.1932153 15.0188679,12.6165192 14.3991292,12.6165192 C13.7793904,12.6165192 13.3628447,12.1519174 13.3425254,11.5634218 L11.7982583,11.8525074 C11.8998549,12.9985251 12.8751814,14 14.4092888,14 C16.0348331,14 17,12.9262537 17,11.7389381 C17,10.5929204 16.1669086,9.76696165 15.1509434,9.69469027 L16.7764877,8.41445428 L16.7764877,7.15486726 Z M6.16981132,7.15486726 L4.79825835,7.15486726 C4.68650218,7.83628319 3.98548621,8.40412979 3,8.41445428 L3,9.49852507 L4.57474601,9.49852507 L4.57474601,13.8554572 L6.16981132,13.8554572 L6.16981132,7.15486726 Z M9.40058055,7 C7.81567489,7 6.9317852,8.07374631 6.9317852,9.27138643 C6.9317852,9.47787611 6.96226415,9.74631268 6.99274311,9.82890855 L8.49637155,9.83923304 C8.45573295,9.70501475 8.43541364,9.56047198 8.43541364,9.42625369 C8.43541364,8.86873156 8.74020319,8.43510324 9.35994194,8.43510324 C9.94920174,8.43510324 10.2438316,8.80678466 10.2438316,9.2300885 C10.2438316,9.6740413 10.0406386,9.95280236 9.52249637,10.2625369 L8.44557329,10.9026549 C7.23657475,11.6150442 6.89114659,12.6268437 6.89114659,13.8554572 L11.8998549,13.8554572 L11.8998549,12.4926254 L8.85195936,12.4926254 C8.94339623,12.2964602 9.10595065,12.1622419 9.29898403,12.0383481 L10.5486212,11.2846608 C11.3918723,10.7787611 11.8490566,10.0663717 11.8490566,9.19911504 C11.8490566,8.00147493 10.9143687,7 9.40058055,7 Z" id="Oval-2" fill="#3F3F3F"></path>
    </g>
</svg>