<?xml version="1.0" encoding="UTF-8"?>
<svg  viewBox="0 0 20 20" version="1.1" xmlns="http://www.w3.org/2000/svg" xmlns:xlink="http://www.w3.org/1999/xlink">
    <!-- Generator: Sketch 61.2 (89653) - https://sketch.com -->
    <title>Dark / 20 / http-string-data@svg</title>
    <desc>Created with Sketch.</desc>
    <g id="Dark-/-20-/-http-string-data" stroke="none" stroke-width="1" fill="none" fill-rule="evenodd">
        <path d="M10,0 C15.5228475,0 20,4.4771525 20,10 C20,15.5228475 15.5228475,20 10,20 C4.4771525,20 0,15.5228475 0,10 C0,4.4771525 4.4771525,0 10,0 Z M12.362921,5.06761133 C11.8448152,4.87316494 11.2579958,5.1124246 11.0522232,5.60201273 L11.0522232,5.60201273 L8.07154958,12.6938346 L8.03440977,12.7995853 C7.90329947,13.2608027 8.15598071,13.7518313 8.63707899,13.9323887 C9.15518483,14.1268351 9.74200422,13.8875754 9.9477768,13.3979873 L9.9477768,13.3979873 L12.9284504,6.3061654 L12.9655902,6.2004147 C13.0967005,5.7391973 12.8440193,5.2481687 12.362921,5.06761133 Z M6.70710678,7.29289322 C6.31658249,6.90236893 5.68341751,6.90236893 5.29289322,7.29289322 L5.29289322,7.29289322 L3.29289322,9.29289322 L3.20970461,9.38710056 C2.90467972,9.77939176 2.93240926,10.3466228 3.29289322,10.7071068 L3.29289322,10.7071068 L5.29289322,12.7071068 L5.38710056,12.7902954 C5.77939176,13.0953203 6.34662282,13.0675907 6.70710678,12.7071068 L6.70710678,12.7071068 L6.79029539,12.6128994 C7.09532028,12.2206082 7.06759074,11.6533772 6.70710678,11.2928932 L6.70710678,11.2928932 L5.415,10 L6.70710678,8.70710678 L6.79029539,8.61289944 C7.09532028,8.22060824 7.06759074,7.65337718 6.70710678,7.29289322 Z M14.6128994,7.20970461 C14.2206082,6.90467972 13.6533772,6.93240926 13.2928932,7.29289322 C12.9324093,7.65337718 12.9046797,8.22060824 13.2097046,8.61289944 L13.2097046,8.61289944 L13.2928932,8.70710678 L14.585,10 L13.2928932,11.2928932 L13.2097046,11.3871006 C12.9300985,11.7467008 12.9300985,12.2532992 13.2097046,12.6128994 L13.2097046,12.6128994 L13.2928932,12.7071068 L13.3871006,12.7902954 C13.7467008,13.0699015 14.2532992,13.0699015 14.6128994,12.7902954 L14.6128994,12.7902954 L14.7071068,12.7071068 L16.7071068,10.7071068 L16.7902954,10.6128994 C17.0699015,10.2532992 17.0699015,9.74670083 16.7902954,9.38710056 L16.7902954,9.38710056 L16.7071068,9.29289322 L14.7071068,7.29289322 Z" id="Oval-2" fill="#3F3F3F"></path>
    </g>
</svg>