<?xml version="1.0" encoding="UTF-8"?>
<svg  viewBox="0 0 20 20" version="1.1" xmlns="http://www.w3.org/2000/svg" xmlns:xlink="http://www.w3.org/1999/xlink">
    <!-- Generator: Sketch 61.2 (89653) - https://sketch.com -->
    <title>Dark / 20 / ICMP-network-latency@svg</title>
    <desc>Created with Sketch.</desc>
    <g id="Dark-/-20-/-ICMP-network-latency" stroke="none" stroke-width="1" fill="none" fill-rule="evenodd">
        <path d="M19,0 C19.5522847,-1.01453063e-16 20,0.44771525 20,1 L20,6 L18,6 L18,7 L20,7 L20,13 L18,13 L18,14 L20,14 L20,19 C20,19.5522847 19.5522847,20 19,20 L1,20 C0.44771525,20 6.76353751e-17,19.5522847 0,19 L0,14 L2,14 L2,13 L0,13 L0,7 L2,7 L2,6 L0,6 L0,1 C-6.76353751e-17,0.44771525 0.44771525,1.01453063e-16 1,0 L19,0 Z M10,2.02201462 C9.44771525,2.02201462 9,2.46972987 9,3.02201462 L9,3.02201462 L9,10 L9.00867243,10.131444 C9.03740171,10.3481451 9.1366129,10.5508265 9.29289322,10.7071068 L9.29289322,10.7071068 L12.2928932,13.7071068 L12.3871006,13.7902954 C12.7793918,14.0953203 13.3466228,14.0675907 13.7071068,13.7071068 L13.7071068,13.7071068 L13.7902954,13.6128994 C14.0953203,13.2206082 14.0675907,12.6533772 13.7071068,12.2928932 L13.7071068,12.2928932 L11,9.586 L11,3.02201462 L10.9932723,2.90539349 C10.9355072,2.40805481 10.5128358,2.02201462 10,2.02201462 Z" id="Rectangle-2" fill="#3F3F3F"></path>
    </g>
</svg>