<?xml version="1.0" encoding="UTF-8"?>
<svg  viewBox="0 0 20 20" version="1.1" xmlns="http://www.w3.org/2000/svg" xmlns:xlink="http://www.w3.org/1999/xlink">
    <!-- Generator: Sketch 61.2 (89653) - https://sketch.com -->
    <title>Dark / 20 / ICMP-network-boolean-data@svg</title>
    <desc>Created with Sketch.</desc>
    <g id="Dark-/-20-/-ICMP-network-boolean-data" stroke="none" stroke-width="1" fill="none" fill-rule="evenodd">
        <path d="M19,0 C19.5522847,-1.01453063e-16 20,0.44771525 20,1 L20,6 L18,6 L18,7 L20,7 L20,13 L18,13 L18,14 L20,14 L20,19 C20,19.5522847 19.5522847,20 19,20 L1,20 C0.44771525,20 6.76353751e-17,19.5522847 0,19 L0,14 L2,14 L2,13 L0,13 L0,7 L2,7 L2,6 L0,6 L0,1 C-6.76353751e-17,0.44771525 0.44771525,1.01453063e-16 1,0 L19,0 Z M12.5,7 L7.5,7 C5.56700338,7 4,8.56700338 4,10.5 C4,12.4329966 5.56700338,14 7.5,14 L7.5,14 L12.5,14 C14.4329966,14 16,12.4329966 16,10.5 C16,8.56700338 14.4329966,7 12.5,7 L12.5,7 Z M7.5,8 C8.88071187,8 10,9.11928813 10,10.5 C10,11.8807119 8.88071187,13 7.5,13 C6.11928813,13 5,11.8807119 5,10.5 C5,9.11928813 6.11928813,8 7.5,8 Z" id="Rectangle-2" fill="#3F3F3F"></path>
    </g>
</svg>