<?xml version="1.0" encoding="UTF-8"?>
<svg  viewBox="0 0 20 20" version="1.1" xmlns="http://www.w3.org/2000/svg" xmlns:xlink="http://www.w3.org/1999/xlink">
    <!-- Generator: Sketch 61.2 (89653) - https://sketch.com -->
    <title>Dark / 20 / ICMP@svg</title>
    <desc>Created with Sketch.</desc>
    <g id="Dark-/-20-/-ICMP" stroke="none" stroke-width="1" fill="none" fill-rule="evenodd">
        <path d="M10,1.15463195e-14 C10.5914332,1.15463195e-14 11.5797189,0.1995 12.5097189,0.41925 C13.340456,0.619296591 14.1655534,0.836859954 14.9842903,1.07175 C15.4656162,1.21106727 15.8133386,1.57914844 15.8791475,2.019 C16.3900046,5.37675 15.204576,7.86525 13.7662903,9.5115 C13.1563822,10.2157351 12.4291403,10.8358916 11.6088618,11.35125 C11.3252249,11.5295843 11.024705,11.6864037 10.710576,11.82 L11,11.687 L11.0009007,14.1710242 C11.8525891,14.4723604 12.5276396,15.1474109 12.8289758,15.9990993 L19,16 C19.5522847,16 20,16.4477153 20,17 C20,17.5522847 19.5522847,18 19,18 L12.8293257,17.9999111 C12.4175144,19.1651499 11.3062521,20 10,20 C8.69374794,20 7.58248558,19.1651499 7.17067428,17.9999111 L1,18 C0.44771525,18 6.76353751e-17,17.5522847 0,17 C-6.76353751e-17,16.4477153 0.44771525,16 1,16 L7.17102423,15.9990993 C7.47247709,15.147081 8.14793381,14.4718375 9.00008893,14.1706743 L9.001803,11.6902485 C8.81258794,11.5979519 8.60697405,11.4848137 8.39114747,11.35125 C7.57088562,10.8358742 6.84364647,10.2157201 6.2337189,9.5115 C4.79543319,7.86525 3.61000462,5.37675 4.12086176,2.019 C4.18678084,1.57935704 4.53452414,1.21154523 5.0157189,1.0725 C5.5797189,0.91125 6.53886176,0.645 7.49029033,0.42 C8.42029033,0.19875 9.40857604,1.15463195e-14 10,1.15463195e-14 Z M10,16 C9.44771525,16 9,16.4477153 9,17 C9,17.5522847 9.44771525,18 10,18 C10.5522847,18 11,17.5522847 11,17 C11,16.4477153 10.5522847,16 10,16 Z M10.0000046,3.74999873 C9.37307016,3.74918274 8.83686942,4.14413662 8.73088123,4.68480888 C8.62489304,5.22548114 8.98002366,5.75421117 9.57143319,5.93625 L9.57143319,5.93625 L9.24229033,7.42875 C9.21800893,7.53853432 9.25098688,7.65207259 9.33222756,7.73839082 C9.41346825,7.82470904 9.53449478,7.87480054 9.66229033,7.87500001 L9.66229033,7.87500001 L10.3377189,7.87500001 C10.4656645,7.87500001 10.5869311,7.82502797 10.6683659,7.73867977 C10.7498006,7.65233157 10.7828857,7.5386631 10.758576,7.42875 L10.758576,7.42875 L10.428576,5.93625 C11.0199856,5.75421117 11.3751162,5.22548114 11.269128,4.68480888 C11.1631398,4.14413662 10.6269391,3.74918274 10.0000046,3.74999873 Z" id="Rectangle-2" fill="#3F3F3F"></path>
    </g>
</svg>