<?xml version="1.0" encoding="UTF-8"?>
<svg width="14px" height="14px" viewBox="0 0 14 14" version="1.1" xmlns="http://www.w3.org/2000/svg" xmlns:xlink="http://www.w3.org/1999/xlink">
    <title>6AE8E7E7-D5F8-4670-BCBD-08A30E381B8F</title>
    <g id="Import-/-Export" stroke="none" stroke-width="1" fill="none" fill-rule="evenodd">
        <g id="Mockup---Import-&amp;-Export-expandido-1300" transform="translate(-408, -309)" fill="#FFFFFF" fill-rule="nonzero">
            <g id="Left" transform="translate(310, 150)">
                <g id="Group" transform="translate(20, 63)">
                    <g id="Acciones" transform="translate(0, 83)">
                        <g id="Import" transform="translate(78, 12.998)">
                            <path d="M13,7.00200171 C13.5522847,7.00200171 14,7.4497171 14,8.00200171 L14,13.0020017 C14,13.5542892 13.5522847,14.0020017 13,14.0020017 L1,14.0020017 C0.44771525,14.0020017 0,13.5542892 0,13.0020017 L0,8.00201357 C0,7.44972864 0.44771525,7.00200171 1,7.00200171 C1.55228475,7.00200171 2,7.44973137 2,8.00201629 L2,12.0020017 L12,12.0020017 L12,8.00200171 C12,7.4891718 12.3860402,7.06649761 12.8833789,7.00873249 L13,7.00200171 Z" id="Path-2"></path>
                            <path d="M7.42761656,0.09800023 L7.4722276,0.120228483 C7.48541492,0.127297166 7.4984771,0.134682831 7.51140295,0.142385477 C7.6034078,0.196864686 7.68458638,0.263207354 7.75402558,0.341460261 L8.64094412,1.22873487 C8.69800231,1.28579303 8.75962403,1.34741473 8.82669975,1.41449043 L10.1954614,2.78325158 C10.4003199,2.98811 10.6267161,3.21450611 10.8776552,3.46544517 L11.4849524,4.07274209 L11.7071068,4.2948964 C12.0976311,4.68542055 12.0976311,5.3185853 11.7071068,5.70910945 C11.3165825,6.0996336 10.6834175,6.0996336 10.2928932,5.70910945 L10.1805423,5.59675858 L9.46344168,4.87965821 C9.21250254,4.62871916 8.98610634,4.40232305 8.78124784,4.19746462 L8,3.416 L8,10.0020048 C8,10.5542895 7.55228475,11.0020048 7,11.0020048 C6.44771525,11.0020048 6,10.5542895 6,10.0020048 L6,3.41600475 L3.70710678,5.70911154 C3.34662282,6.0695955 2.77939176,6.09732503 2.38710056,5.79230014 L2.29289322,5.70911154 C1.90236893,5.31858724 1.90236893,4.68542227 2.29289322,4.29489797 L6.29289322,0.294897973 C6.54710458,0.0406866095 6.87413362,-0.0382890188 7.1738163,0.0164817914 C7.17680504,0.017663383 7.18016721,0.0182701498 7.18352681,0.0188942109 C7.21466801,0.0243205129 7.24513844,0.0316757544 7.2751983,0.0403969336 C7.28707112,0.0438108284 7.29913038,0.0474948597 7.31113021,0.0514117877 C7.32967787,0.0576595875 7.3480221,0.0642976875 7.3661634,0.0714485049 C7.37897252,0.0762161621 7.39150205,0.0814382908 7.40394259,0.086926426 L7.42761656,0.09800023 Z" id="Path-4-Copy"></path>
                        </g>
                    </g>
                </g>
            </g>
        </g>
    </g>
</svg>