<?xml version="1.0" encoding="UTF-8"?>
<svg width="111px" height="110px" viewBox="0 0 111 110" version="1.1" xmlns="http://www.w3.org/2000/svg" xmlns:xlink="http://www.w3.org/1999/xlink">
    <title>A981FD90-8ED5-4170-8C6A-8F4DFD0DCCD4</title>
    <g id="Import-/-Export" stroke="none" stroke-width="1" fill="none" fill-rule="evenodd">
        <g id="Mockup---Import-&amp;-Export-expandido-1300" transform="translate(-1139, -171)">
            <g id="Left" transform="translate(310, 150)">
                <g id="Import-to-PFMS" transform="translate(830, 21)">
                    <path d="M96.5504693,41.7233507 C94.7351964,43.2461384 92.3436805,44.5540779 89.7685032,45.2305518 C86.8831767,45.9928112 83.6424711,46.2007351 80.5574274,45.8004672 C74.7397823,45.0485944 69.5156105,41.4452213 66,38.0668907 C66.4011967,37.1320987 66.517111,36.7941502 66.9294683,35.8710912 C67.6216255,36.5794943 68.84832,37.5204413 69.3934306,37.8908959 C73.1678902,40.4690753 78.1018846,42.693534 84.636358,42.321733 C87.9453982,42.1436224 91.0169316,41.0180252 93.1946325,39.3002006 C95.3026282,37.6408486 97.0693424,35.2555903 97.0299864,31.9397715 C96.9884765,28.4291082 95.231944,25.5635668 93.3236655,23.6462815 C92.6659693,22.9867338 91.9579522,22.2821776 91.243082,21.7622717 C90.1088057,20.9401933 88.8519578,20.3035345 87.584145,19.7007283 C86.2981227,19.0809959 84.9760731,18.4562624 83.4415791,18.1333168 C85.9705473,16.5516718 92.7691565,14.6132287 93.5721372,15.0671606 C94.0726051,15.3472135 94.6165408,15.7963368 95.0371218,16.1298614 C96.4239817,17.2231448 97.6126908,18.7613201 98.6253745,20.1865894 C100.081156,22.2427471 101.310005,24.6237739 101.759564,27.3025492 C102.847436,33.9180299 100.091926,38.7624067 96.5504693,41.7233507 M56,31.5281854 L56,31.5201057 C59.0321566,26.6023345 62.5388416,22.1502293 66.696232,18.3726794 C69.565042,15.7617578 72.9417009,13.4296839 76.6837353,11.7382701 C77.3108865,11.446219 77.9213775,11.0877567 78.5987009,10.8609342 C79.2668324,10.6345059 79.9679013,10.4072893 80.6867794,10.1647016 C83.4196269,9.23731103 87.1846408,8.76711259 90.2037756,9.11434212 C92.4609456,9.37742465 94.7077748,10.0454769 96.2083418,11.2460003 C96.7148502,11.6472258 97.3236178,12.0860908 97.6522259,12.5667338 C97.840467,12.8445962 98.1053068,13.4866358 97.9563224,13.8693371 C97.7696133,14.3308647 97.0819491,14.3765839 96.5133958,14.3625923 C94.5758336,14.3251498 92.7968305,14.1121219 90.9218877,14.3480094 C88.2589365,14.6840062 86.0580665,15.4490147 84.1574631,16.2711723 C80.1412057,17.9887957 76.6946506,20.8235839 73.9775058,23.6826111 C71.2381475,26.5595713 68.7059884,30.1840012 66.6933596,33.9049932 C64.4484454,38.0467202 62.7561902,42.4156638 61.3555844,47 C58.1482084,42.6941174 56.1629636,37.3644792 56,31.5281854 M79.9999036,0 C63.4305627,0 50,13.4286926 50,29.9998072 C50,46.5684158 63.4305627,60 79.9999036,60 C96.5702085,60 110,46.5684158 110,29.9998072 C110,13.4286926 96.5702085,0 79.9999036,0" id="Fill-694" fill="#82B92E"></path>
                    <g id="Carpeta" transform="translate(0, 39)" fill="#FFFFFF" stroke="#C1CCDC" stroke-linejoin="round">
                        <path d="M39,14 C39,17.6235294 36.09125,20.5882353 32.5,20.5882353 L16.25,20.5882353 L6.5,20.5882353 C2.91005,20.5882353 0,23.5529412 0,27.1764706 L0,53.5294118 L0,63.4117647 C0,67.0352941 2.9101475,70 6.5,70 L71.5,70 C75.09125,70 78,67.0352941 78,63.4117647 L78,53.5294118 L78,20.5882353 C78,16.9647059 75.09125,14 71.5,14 L39,14 Z" id="Path"></path>
                        <path d="M6.5,0 C2.91005,0 0,2.95979444 0,6.61111111 L0,23.1388889 L32.5,23.1388889 L32.5,26.4444444 L78,26.4444444 L78,9.91666667 C78,6.26535 75.09125,3.30555556 71.5,3.30555556 L38.08675,3.30555556 C36.96225,1.33246944 34.905,0 32.5,0 L6.5,0 Z" id="Path"></path>
                        <path d="M38.950064,10.1111111 C38.950064,13.5725845 36.0450384,16.4046992 32.4583867,16.4046992 L16.2291933,16.4046992 L6.49167734,16.4046992 C2.90632394,16.4046992 0,19.2368138 0,22.6982872 L0,47.8726395 L0,59.0699703 C0,62.5314438 3.00629328,65.3333333 6.5915493,65.3333333 L71.5083227,65.3333333 C75.0949744,65.3333333 78,62.5012187 78,59.0397453 L77.900128,47.8726395 L77.900128,16.4046992 C77.900128,12.9432257 74.9951024,10.1111111 71.4084507,10.1111111 L38.950064,10.1111111 Z" id="Path"></path>
                    </g>
                    <g id="Group-2" transform="translate(11, 8.5)" stroke="#C1CCDC" stroke-linecap="round" stroke-linejoin="round" stroke-width="2">
                        <g id="Group-4">
                            <polygon id="Triangle" fill="#C1CCDC" transform="translate(31, 5) rotate(90) translate(-31, -5)" points="31 2.5 36 7.5 26 7.5"></polygon>
                            <path d="M0,39.5 C0,36.5833333 0,33.6666667 0,30.75 C-1.75851975e-15,16.3905965 11.6405965,4.75 26,4.75 L26,4.75 L26,4.75" id="Path-3" stroke-dasharray="2,4"></path>
                        </g>
                    </g>
                </g>
            </g>
        </g>
    </g>
</svg>