<?xml version="1.0" encoding="UTF-8"?>
<svg  viewBox="0 0 20 20" version="1.1" xmlns="http://www.w3.org/2000/svg" xmlns:xlink="http://www.w3.org/1999/xlink">
    <!-- Generator: Sketch 61.2 (89653) - https://sketch.com -->
    <title>Dark / 20 / incremental-absolute-data@svg</title>
    <desc>Created with Sketch.</desc>
    <g id="Dark-/-20-/-incremental-absolute-data" stroke="none" stroke-width="1" fill="none" fill-rule="evenodd">
        <path d="M10,0 C15.5228475,0 20,4.4771525 20,10 C20,15.5228475 15.5228475,20 10,20 C4.4771525,20 0,15.5228475 0,10 C0,4.4771525 4.4771525,0 10,0 Z M17.943217,8.99995461 C17.3909323,8.99995461 16.943217,9.44766986 16.943217,9.99995461 C16.943217,11.7330761 16.307211,13.3645304 15.1749131,14.6292769 C14.8065292,15.0407519 14.8414614,15.6729526 15.2529365,16.0413365 C15.6644115,16.4097205 16.2966121,16.3747882 16.6649961,15.9633132 C18.122566,14.3352465 18.943217,12.2301491 18.943217,9.99995461 C18.943217,9.44766986 18.4955018,8.99995461 17.943217,8.99995461 Z M14.5390071,9 C13.9867223,9 13.5390071,9.44771525 13.5390071,10 C13.5390071,11.9544954 11.9544954,13.5390071 10,13.5390071 C8.04550461,13.5390071 6.46099291,11.9544954 6.46099291,10 C6.46099291,9.44771525 6.01327766,9 5.46099291,9 C4.90870816,9 4.46099291,9.44771525 4.46099291,10 C4.46099291,13.0590649 6.94093511,15.5390071 10,15.5390071 C13.0590649,15.5390071 15.5390071,13.0590649 15.5390071,10 C15.5390071,9.44771525 15.0912918,9 14.5390071,9 Z M10,1.05673759 C5.0607649,1.05673759 1.05673759,5.0607649 1.05673759,10 C1.05673759,10.5522847 1.50445284,11 2.05673759,11 C2.60902234,11 3.05673759,10.5522847 3.05673759,10 C3.05673759,6.1653344 6.1653344,3.05673759 10,3.05673759 C10.5522847,3.05673759 11,2.60902234 11,2.05673759 C11,1.50445284 10.5522847,1.05673759 10,1.05673759 Z" id="Oval-2" fill="#3F3F3F"></path>
    </g>
</svg>