<?xml version="1.0" encoding="UTF-8"?>
<svg  viewBox="0 0 20 20" version="1.1" xmlns="http://www.w3.org/2000/svg" xmlns:xlink="http://www.w3.org/1999/xlink">
    <!-- Generator: Sketch 61.2 (89653) - https://sketch.com -->
    <title>Dark / 20 / incremental-data@svg</title>
    <desc>Created with Sketch.</desc>
    <g id="Dark-/-20-/-incremental-data" stroke="none" stroke-width="1" fill="none" fill-rule="evenodd">
        <path d="M10,0 C15.5228475,0 20,4.4771525 20,10 C20,15.5228475 15.5228475,20 10,20 C4.4771525,20 0,15.5228475 0,10 C0,4.4771525 4.4771525,0 10,0 Z M10,14 C9.44771525,14 9,14.4477153 9,15 L9,15 L9,18 L9.00672773,18.1166211 C9.06449284,18.6139598 9.48716416,19 10,19 C10.5522847,19 11,18.5522847 11,18 L11,18 L11,15 L10.9932723,14.8833789 C10.9355072,14.3860402 10.5128358,14 10,14 Z M5.9407742,12.6294004 L5.85355339,12.7071068 L3.73223305,14.8284271 C3.34170876,15.2189514 3.34170876,15.8521164 3.73223305,16.2426407 C4.09486275,16.6052704 4.66670814,16.6311725 5.0592258,16.3203471 L5.14644661,16.2426407 L7.26776695,14.1213203 C7.65829124,13.7307961 7.65829124,13.0976311 7.26776695,12.7071068 C6.90513725,12.3444771 6.33329186,12.318575 5.9407742,12.6294004 Z M14.0340995,12.6294004 C13.6415819,12.318575 13.0697365,12.3444771 12.7071068,12.7071068 C12.3165825,13.0976311 12.3165825,13.7307961 12.7071068,14.1213203 L12.7071068,14.1213203 L14.8284271,16.2426407 L14.9156479,16.3203471 C15.3081656,16.6311725 15.880011,16.6052704 16.2426407,16.2426407 C16.633165,15.8521164 16.633165,15.2189514 16.2426407,14.8284271 L16.2426407,14.8284271 L14.1213203,12.7071068 Z M18,9 L15,9 L14.8833789,9.00672773 C14.3860402,9.06449284 14,9.48716416 14,10 C14,10.5522847 14.4477153,11 15,11 L15,11 L18,11 L18.1166211,10.9932723 C18.6139598,10.9355072 19,10.5128358 19,10 C19,9.44771525 18.5522847,9 18,9 L18,9 Z M5,9 L2,9 L1.88337887,9.00672773 C1.38604019,9.06449284 1,9.48716416 1,10 C1,10.5522847 1.44771525,11 2,11 L2,11 L5,11 L5.11662113,10.9932723 C5.61395981,10.9355072 6,10.5128358 6,10 C6,9.44771525 5.55228475,9 5,9 L5,9 Z M5.0592258,4.15452668 C4.66670814,3.84370123 4.09486275,3.86960335 3.73223305,4.23223305 C3.34170876,4.62275734 3.34170876,5.25592232 3.73223305,5.64644661 L3.73223305,5.64644661 L5.85355339,7.76776695 L5.9407742,7.84547332 C6.33329186,8.15629877 6.90513725,8.13039665 7.26776695,7.76776695 C7.65829124,7.37724266 7.65829124,6.74407768 7.26776695,6.35355339 L7.26776695,6.35355339 L5.14644661,4.23223305 Z M14.9156479,4.15452668 L14.8284271,4.23223305 L12.7071068,6.35355339 C12.3165825,6.74407768 12.3165825,7.37724266 12.7071068,7.76776695 C13.0697365,8.13039665 13.6415819,8.15629877 14.0340995,7.84547332 L14.1213203,7.76776695 L16.2426407,5.64644661 C16.633165,5.25592232 16.633165,4.62275734 16.2426407,4.23223305 C15.880011,3.86960335 15.3081656,3.84370123 14.9156479,4.15452668 Z M10,1 C9.44771525,1 9,1.44771525 9,2 L9,2 L9,5 L9.00672773,5.11662113 C9.06449284,5.61395981 9.48716416,6 10,6 C10.5522847,6 11,5.55228475 11,5 L11,5 L11,2 L10.9932723,1.88337887 C10.9355072,1.38604019 10.5128358,1 10,1 Z" id="Oval-2" fill="#3F3F3F"></path>
    </g>
</svg>