<?xml version="1.0" encoding="UTF-8"?>
<svg width="40px" height="40px" viewBox="0 0 40 40" version="1.1" xmlns="http://www.w3.org/2000/svg" xmlns:xlink="http://www.w3.org/1999/xlink">
    <!-- Generator: sketchtool 61.2 (101010) - https://sketch.com -->
    <title>08833C7D-0D40-4B38-96C4-14E753034D0F@svg</title>
    <desc>Created with sketchtool.</desc>
    <defs>
        <linearGradient x1="100%" y1="0.453535926%" x2="0%" y2="99.5464641%" id="linearGradient-1">
            <stop stop-color="#C1CCDC" offset="0%"></stop>
            <stop stop-color="#E1E8F7" offset="100%"></stop>
        </linearGradient>
        <path d="M20,0 C30.8100776,0 40,3.19025441 40,10.7889621 L40,29.2110379 C40,35.4316123 33.8412391,38.6977972 25.6766489,39.677922 C26.3582749,39.1051401 26.737614,38.6322026 26.7772826,38.5826822 C27.0352391,38.2577604 27.0418534,37.7864452 26.8037397,37.4472411 C26.5557045,37.1116076 26.1290841,37.0044905 25.7785278,37.2044424 C25.4081287,37.4079648 24.2638599,37.9364091 23.4238476,37.9364091 C23.1758125,37.9364091 23.0369128,37.8899917 22.9707701,37.854286 C22.5871425,37.647193 21.8694942,37.2544304 22.6202138,34.8193019 L22.6202138,34.8193019 L23.9629106,30.4596364 C24.7433945,27.9102498 24.5978806,25.5929501 23.5528259,23.9326353 C22.7028922,22.58296 21.3138955,21.7831524 19.6437923,21.6796058 C15.1593172,21.3903897 12.4011665,24.8038542 12.2920311,24.9431064 C12.0340745,25.2680283 12.0274603,25.7393435 12.2688811,26.0785476 C12.5202234,26.4106105 12.9534581,26.5105865 13.2974001,26.3177757 C13.6644921,26.1106827 14.8087608,25.5822384 15.6388517,25.5822384 C15.8372798,25.5822384 15.9993295,25.6143735 16.1018506,25.6715026 C16.4854783,25.8785957 17.1965123,26.2677878 16.452407,28.7064868 L16.452407,28.7064868 L15.1097101,33.0661522 C14.3259191,35.6083978 14.4681259,37.9221269 15.5098735,39.5824417 C15.5601985,39.6625681 15.6124134,39.7407668 15.6664667,39.8170072 C6.84428916,39.0430897 0,35.7686843 0,29.2110379 L0,10.7889621 C0,3.19025441 9.18992236,0 20,0 L20,0 Z M20.7100207,10.2325581 C18.1460335,10.2325581 16.0588579,12.3204068 16.0588579,14.8852208 C16.0648555,17.4410355 18.1520311,19.5288842 20.7130195,19.5348837 C23.2770067,19.5288842 25.3611835,17.4410355 25.3611835,14.882221 C25.3551858,12.3264063 23.2710091,10.2385577 20.7100207,10.2325581 Z" id="path-2"></path>
    </defs>
    <g id="Mockups" stroke="none" stroke-width="1" fill="none" fill-rule="evenodd">
        <g id="Mensajes-emergentes---Default" transform="translate(-1365.000000, -80.000000)">
            <g id="Group-+-Group-+-Group-+-Group-+-Group-+-Rectangle-Mask" transform="translate(1345.000000, 53.176276)">
                <g id="Group" transform="translate(0.000000, 26.823724)">
                    <g id="Mensaje-emergente-info" transform="translate(20.000000, 0.000000)">
                        <g id="Status-check">
                            <mask id="mask-3" fill="white">
                                <use xlink:href="#path-2"></use>
                            </mask>
                            <use id="Mask" fill="url(#linearGradient-1)" xlink:href="#path-2"></use>
                        </g>
                    </g>
                </g>
            </g>
        </g>
    </g>
</svg>