<?xml version="1.0" encoding="UTF-8"?>
<svg width="748px" height="142px" viewBox="0 0 748 142" version="1.1" xmlns="http://www.w3.org/2000/svg" xmlns:xlink="http://www.w3.org/1999/xlink">
    <!-- Generator: Sketch 61.2 (89653) - https://sketch.com -->
    <title>Integria IMS</title>
    <desc>Created with Sketch.</desc>
    <g id="Page-1" stroke="none" stroke-width="1" fill="none" fill-rule="evenodd">
        <g id="Integria-IMS" fill-rule="nonzero">
            <path d="M71.81,-2.81979301e-15 C43.0949491,-0.325771451 17.0111429,16.6781107 5.72147618,43.0827259 C-5.56819051,69.4873411 0.159601761,100.092722 20.23398,120.627561 C40.3083582,141.1624 70.7759943,147.582689 97.4298109,136.894643 C124.083628,126.206596 141.674581,100.515055 142,71.8 C142.444347,32.5906412 111.019353,0.444829018 71.81,-2.81979301e-15 Z" id="Path" fill="#F65803"></path>
            <circle id="Oval" fill="#FFFFFF" cx="43.51" cy="49.89" r="13.76"></circle>
            <path d="M43.51,71.66 L43.26,71.66 C41.5736669,71.6393594 39.8955597,71.4212055 38.26,71.01 L38,98.36 C37.9839995,99.6878244 38.4968596,100.967474 39.4254669,101.916717 C40.3540742,102.86596 41.6221446,103.406817 42.95,103.42 L43,103.42 C44.3260824,103.42 45.597852,102.893216 46.5355339,101.955534 C47.4732158,101.017852 48,99.7460824 48,98.42 L48.31,71.06 C46.7379912,71.4417108 45.1275989,71.6430099 43.51,71.66 L43.51,71.66 Z" id="Path" fill="#FFFFFF"></path>
            <path d="M94.41,48.12 C88.3631135,41.9016532 80.0832535,38.3557132 71.41,38.27 C68.4333361,38.2395201 65.4662912,38.6129237 62.59,39.38 C64.2200628,42.3331841 65.1313519,45.6288987 65.25,49 C67.208565,48.4885287 69.2257979,48.2363746 71.25,48.25 C77.2810939,48.3159047 83.0384799,50.7772152 87.2533639,55.0915157 C91.468248,59.4058163 93.7946914,65.2190086 93.72,71.25 L93.42,99 C93.4039912,100.326111 93.9154828,101.604257 94.841933,102.553212 C95.7683831,103.502167 97.0338871,104.044182 98.36,104.06 L98.42,104.06 C101.181424,104.06 103.42,101.821424 103.42,99.06 L103.74,71.33 C103.850133,62.6586006 100.491174,54.3026057 94.41,48.12 Z" id="Path" fill="#FFFFFF"></path>
            <path d="M171.72,67.81 L171.84,21.08 C171.8139,20.1443474 172.175822,19.2395415 172.84,18.58 C173.507689,17.9157505 174.418525,17.5543075 175.36,17.58 L182.36,17.58 C183.315282,17.5557708 184.239991,17.9176872 184.925039,18.583915 C185.610086,19.2501428 185.997615,20.1644142 186,21.12 L185.88,67.77 C185.889979,68.7136623 185.501469,69.6177631 184.81,70.26 C184.132306,70.9151221 183.222463,71.2747439 182.28,71.26 L175.28,71.26 C174.343006,71.2771853 173.438469,70.9168123 172.77,70.26 C172.079224,69.6357031 171.69568,68.7407667 171.72,67.81 L171.72,67.81 Z" id="Path" fill="#282828"></path>
            <path d="M196.6,67.79 L196.72,21.15 C196.703942,20.2132116 197.064148,19.3090953 197.72,18.64 C198.367817,17.9706027 199.269041,17.6072059 200.2,17.64 L211.2,17.64 C212.220464,17.6786713 213.201721,18.0431383 214,18.68 C214.954333,19.3581671 215.769164,20.2137401 216.4,21.2 L238.94,56.06 L239,21.18 C238.972558,20.2529263 239.335335,19.3568684 240,18.71 C240.660878,18.0478442 241.564774,17.6862858 242.5,17.71 L249,17.71 C249.930306,17.697074 250.827049,18.0572118 251.49,18.71 C252.168239,19.3808021 252.531442,20.3069699 252.49,21.26 L252.37,67.91 C252.393322,68.8422107 252.031614,69.7428638 251.37,70.4 C250.707806,71.0601595 249.804802,71.4213611 248.87,71.4 L236.43,71.4 C235.352189,71.3759533 234.306677,71.0274494 233.43,70.4 C232.448952,69.7519451 231.61994,68.8990519 231,67.9 L210.36,35.7 L210.28,67.85 C210.302135,68.7819962 209.940608,69.6821976 209.28,70.34 C208.624212,71.0036445 207.722642,71.3657208 206.79,71.34 L200.2,71.34 C199.262799,71.3583203 198.357839,70.9977785 197.69,70.34 C196.973178,69.6889199 196.575278,68.758054 196.6,67.79 Z" id="Path" fill="#282828"></path>
            <path d="M258.64,24.83 L258.64,21.31 C258.611761,20.3566005 258.979489,19.4340518 259.655831,18.7614981 C260.332174,18.0889444 261.256774,17.7264056 262.21,17.76 L309.75,17.88 C310.703399,17.8517613 311.625948,18.2194887 312.298502,18.8958315 C312.971056,19.5721742 313.333594,20.4967742 313.3,21.45 L313.3,25 C313.332066,25.9455402 312.969867,26.8619037 312.3,27.53 C311.623087,28.1989008 310.701164,28.5604392 309.75,28.53 L293.04,28.53 L292.93,68.21 C292.958015,69.1313139 292.594703,70.0214284 291.93,70.66 C291.264603,71.3152777 290.363755,71.675617 289.43,71.6604873 L282.35,71.6604873 C281.420522,71.668505 280.52541,71.3090224 279.86,70.66 C279.197933,70.0155113 278.835379,69.1236302 278.86,68.2 L278.96,28.52 L262.25,28.52 C261.299851,28.544612 260.38013,28.1839373 259.7,27.52 C258.965201,26.8249172 258.576895,25.8394983 258.64,24.83 L258.64,24.83 Z" id="Path" fill="#282828"></path>
            <path d="M319.3,68 L319.42,21.35 C319.400371,20.4122847 319.78681,19.5118088 320.48,18.88 C321.149716,18.2251023 322.053417,17.8650622 322.99,17.8795531 L366.19,17.99 C367.130438,17.9859488 368.031045,18.3693397 368.68,19.05 C369.337779,19.717839 369.69832,20.6227989 369.68,21.56 L369.68,25.09 C369.677352,26.0235632 369.303953,26.9178376 368.641949,27.5760911 C367.979945,28.2343446 367.083563,28.6026559 366.15,28.6 L333.52,28.51 L333.52,39.42 L361.62,39.49 C362.553563,39.4926484 363.447838,39.8660468 364.106091,40.528051 C364.764345,41.1900553 365.132656,42.0864368 365.13,43.02 L365.13,46.54 C365.156933,47.4728584 364.79467,48.3748937 364.13,49.03 C363.469788,49.6931635 362.565439,50.054903 361.63,50.03 L333.47,50 L333.47,61.06 L366.03,61.14 C366.94651,61.1221856 367.829599,61.4841076 368.47,62.14 C369.129526,62.7903112 369.491355,63.6840288 369.47,64.61 L369.47,68.21 C369.482675,69.150132 369.102026,70.0528141 368.42,70.7 C367.748458,71.3583482 366.840234,71.7187547 365.9,71.7 L322.9,71.59 C321.962384,71.6106136 321.056564,71.2497292 320.39,70.59 C319.672391,69.9226941 319.2755,68.9796223 319.3,68 L319.3,68 Z" id="Path" fill="#282828"></path>
            <path d="M380.06,65.38 C375.64,60.9 373.44,54.0566667 373.459865,44.85 C373.48,35.6433333 375.813333,28.83 380.46,24.41 C385.126667,19.99 392.08,17.7933333 401.32,17.82 L409.68,17.82 C414.926078,17.759622 420.087688,19.1434315 424.6,21.82 C429.026667,24.4866667 431.233333,27.7833333 431.22,31.71 C431.335739,32.9177383 430.840442,34.1034513 429.9,34.87 C429.175254,35.4543658 428.280429,35.7877321 427.35,35.82 L422.9,35.82 C420.76,35.82 419.053333,34.59 417.78,32.13 C416.506667,29.67 413.363333,28.44 408.35,28.44 L401.68,28.44 C396.206667,28.44 392.493333,29.6033333 390.54,31.93 C388.54,34.28 387.6,38.59 387.54,44.93 C387.48,51.27 388.38,55.58 390.13,57.99 C391.88,60.4 394.99,61.62 399.48,61.63 L407.17,61.63 C411.17,61.63 414.043333,60.87 415.79,59.35 C417.596876,57.6376908 418.574219,55.2271554 418.47,52.74 L410,52.74 C409.064789,52.7427064 408.167392,52.3710205 407.507977,51.7078475 C406.848561,51.0446746 406.48198,50.1451807 406.49,49.21 L406.49,46.23 C406.472533,45.2988546 406.833351,44.400416 407.49,43.74 C408.146465,43.0773742 409.047574,42.7154829 409.98,42.74 L428.79,42.79 C429.722858,42.763067 430.624894,43.1253302 431.28,43.79 C431.943164,44.4502124 432.304903,45.354561 432.28,46.29 L432.28,50.44 C432.28,57.44 430.17,62.8133333 425.95,66.56 C421.73,70.3066667 415.566667,72.17 407.46,72.1501593 L399.03,72.1501593 C390.803333,72.1233333 384.48,69.8666667 380.06,65.38 Z" id="Path" fill="#282828"></path>
            <path d="M495.8,70.48 C495.8,71.55 495.16,72.09 493.89,72.0801364 L484.89,72.0801364 C483.778533,72.0359158 482.700008,71.6902348 481.77,71.08 C480.713597,70.4696085 479.821334,69.6116631 479.17,68.58 L472.83,58.58 C470.223333,54.48 467.056667,52.4233333 463.33,52.41 L454.18,52.41 L454.18,68.52 C454.203322,69.4522107 453.841614,70.3528638 453.18,71.01 C452.517806,71.6701595 451.614802,72.0313611 450.68,72.01 L443.68,72.01 C442.743006,72.0271853 441.838469,71.6668123 441.17,71.01 C440.503774,70.351816 440.141481,69.446082 440.17,68.51 L440.29,21.86 C440.269803,20.9254087 440.630829,20.0228444 441.29,19.36 C441.927395,18.6758743 442.825092,18.2942622 443.76,18.3095318 L474.67,18.39 C480.39,18.39 485.076667,19.94 488.73,23.04 C492.383333,26.14 494.203333,30.29 494.19,35.49 C494.063333,42.7033333 489.3,47.2066667 479.9,49 C481.484067,49.6135252 482.904514,50.5855906 484.05,51.84 C485.674847,53.654962 487.137133,55.6091383 488.42,57.68 L495.21,68.52 C495.577221,69.1093518 495.780866,69.7858671 495.8,70.48 L495.8,70.48 Z M454.21,41.74 L470.21,41.74 C472.559199,41.8094724 474.88989,41.3048899 477,40.27 C478.881403,39.380915 480.044647,37.4487472 479.95,35.37 C480.055656,33.2834473 478.890265,31.3398116 477,30.45 C474.897868,29.3847581 472.566149,28.8524806 470.21,28.9 L454.21,28.9 L454.21,41.74 Z" id="Shape" fill="#282828"></path>
            <path d="M502,68.66 L502.12,21.93 C502.106969,20.9868821 502.48745,20.0809738 503.17,19.43 C503.826139,18.7489431 504.734359,18.3690106 505.68,18.3797664 L512.68,18.3797664 C513.640691,18.3689866 514.564824,18.7478276 515.241347,19.4300041 C515.91787,20.1121806 516.289008,21.039434 516.27,22 L516.15,68.65 C516.159979,69.5936623 515.771469,70.4977631 515.08,71.14 C514.402306,71.7951221 513.492463,72.1547439 512.55,72.14 L505.55,72.14 C504.613006,72.1571853 503.708469,71.7968123 503.04,71.14 C502.344797,70.5069922 501.964251,69.5995358 502,68.66 Z" id="Path" fill="#282828"></path>
            <path d="M522.48,68.71 L532,33.06 C534.566667,23.3466667 542.87,18.5 556.91,18.5199384 L577.11,18.57 C577.996001,18.5541891 578.841559,18.9402048 579.41,19.62 C580.006346,20.2917863 580.330809,21.1617749 580.320262,22.06 L580.2,68.86 C580.23056,69.7817714 579.866841,70.6728823 579.2,71.31 C578.525984,71.9645342 577.619419,72.3242822 576.68,72.31 L569.68,72.31 C568.735914,72.3337643 567.822711,71.9728143 567.15,71.31 C566.480133,70.6419037 566.117934,69.7255402 566.15,68.78 L566.15,59.33 L539.51,59.27 L536.98,68.7 C536.727496,69.7139708 536.129991,70.6084614 535.29,71.23 C534.499985,71.8626048 533.521963,72.214411 532.51,72.23 L525.13,72.23 C524.459988,72.2878818 523.794912,72.0733836 523.284971,71.6349475 C522.775031,71.1965113 522.463235,70.571116 522.42,69.9 C522.400467,69.5023251 522.420566,69.1036934 522.48,68.71 Z M542.24,48.64 L566.11,48.7 L566.11,29.14 L555.43,29.14 C550.779549,29.0158892 546.663838,32.130706 545.52,36.64 L542.24,48.64 Z" id="Shape" fill="#282828"></path>
            <path d="M590.9,68.88 L591,22.16 C590.986969,21.2168821 591.36745,20.3109738 592.05,19.66 C592.709218,18.9774003 593.621131,18.5974368 594.57,18.6096981 L601.57,18.6096981 C602.520183,18.6019547 603.433929,18.9751711 604.106773,19.6461353 C604.779617,20.3170996 605.155387,21.2297986 605.150057,22.18 L605,68.85 C605.028154,69.7830757 604.665702,70.6855811 604,71.34 C603.323524,71.9970099 602.412865,72.3569544 601.47,72.34 L594.47,72.34 C593.533006,72.3571853 592.628469,71.9968123 591.96,71.34 C591.263951,70.7144482 590.876621,69.8155493 590.9,68.88 Z" id="Path" fill="#F65803"></path>
            <path d="M615.78,68.8 L615.9,22.3 C615.875203,21.340928 616.235317,20.4118317 616.9,19.72 C617.547817,19.0506027 618.449041,18.6872059 619.38,18.72 L634.63,18.72 C635.64758,18.7359883 636.627509,19.1074416 637.4,19.77 C638.233003,20.4058524 638.845164,21.2873645 639.15,22.29 L650.15,54.29 L661.29,22.29 C661.608719,21.2943995 662.226826,20.4213666 663.06,19.79 C663.836411,19.140258 664.817595,18.7860398 665.83,18.79 L681.08,18.79 C682.009485,18.7723021 682.901791,19.1547191 683.53,19.84 C684.192419,20.5373141 684.551934,21.4684571 684.53,22.43 L684.38,69 C684.412024,69.9543928 684.050454,70.8800124 683.38,71.56 C682.723535,72.2226258 681.822426,72.5845171 680.89,72.56 L674.1,72.56 C673.168855,72.5774675 672.270416,72.2166488 671.61,71.56 C670.941001,70.8749956 670.579921,69.9470191 670.61,68.99 L670.7,32.39 L657.36,69.13 C656.988416,70.0838348 656.349536,70.9102123 655.52,71.51 C654.734577,72.1438986 653.759218,72.4960135 652.75,72.51 L647.39,72.51 C646.387527,72.4923334 645.419667,72.140384 644.64,71.51 C643.818452,70.8953887 643.179069,70.0693751 642.79,69.12 L629.7,32.23 L629.6,68.83 C629.634802,69.787823 629.273023,70.7175951 628.6,71.4 C627.944212,72.0636445 627.042642,72.4257208 626.11,72.4 L619.37,72.4 C618.432799,72.4183203 617.527839,72.0577785 616.86,71.4 C616.143427,70.7285743 615.750037,69.7815254 615.78,68.8 L615.78,68.8 Z" id="Path" fill="#F65803"></path>
            <path d="M692.08,58.84 C691.973218,57.6336327 692.466829,56.4519567 693.4,55.68 C694.12014,55.0807712 695.014494,54.7300443 695.95,54.68 L700.41,54.68 C702.663333,54.68 704.373333,55.91 705.54,58.37 C706.7,60.82 709.34,62.05 713.43,62.06 L726.55,62.35 C730.943333,62.35 733.143333,60.92 733.15,58.06 C733.15,55.8933333 730.483333,54.1766667 725.15,52.91 C722.75,52.33 720.15,51.75 717.21,51.18 C714.27,50.61 711.44,49.9 708.58,49.05 C705.87988,48.2547647 703.245348,47.2517704 700.7,46.05 C698.399488,44.9682289 696.403219,43.3327311 694.89,41.29 C693.392835,39.2306421 692.616105,36.7352654 692.68,34.19 C692.68,29.17 694.473333,25.3066667 698.06,22.6 C701.646667,19.8933333 707.796667,18.56 716.51,18.6 L726.02,18.85 C730.924684,18.8052317 735.735418,20.1956173 739.86,22.85 C743.96,25.5166667 746.003333,28.8133333 745.99,32.74 C746.104216,33.9511338 745.614157,35.1407428 744.68,35.92 C743.972856,36.5214361 743.087125,36.8729163 742.16,36.92 L737.7,36.92 C735.46,36.92 733.75,35.68 732.58,33.22 C731.41,30.76 728.78,29.52 724.68,29.51 L713.41,29.25 C709.01,29.25 706.806667,30.68 706.8,33.54 C706.8,35.12 708.19,36.41 710.97,37.41 C714.24125,38.5440576 717.594334,39.426624 721,40.05 C725,40.8233333 729,41.7533333 733,42.84 C736.752403,43.796252 740.228609,45.6182636 743.15,48.16 C745.84998,50.4490644 747.377502,53.8309112 747.31,57.37 C747.31,62.39 745.506667,66.2533333 741.9,68.96 C738.293333,71.6666667 732.153333,73 723.48,72.96 L712.12,72.71 C707.211841,72.7573081 702.397191,71.3667955 698.27,68.71 C694.143333,66.0833333 692.08,62.7933333 692.08,58.84 Z" id="Path" fill="#F65803"></path>
            <path d="M176,111.05 L176,123.81 L171.69,123.81 L171.69,92.61 L183.04,92.61 C188.81,92.61 192.68,96.61 192.68,101.85 C192.68,107.09 188.81,111.05 183.04,111.05 L176,111.05 Z M182.25,107.17 C185.99,107.17 188.25,105.1 188.25,101.89 C188.25,98.68 185.96,96.48 182.25,96.48 L176,96.48 L176,107.17 L182.25,107.17 Z" id="Shape" fill="#888888"></path>
            <path d="M203.53,111.71 L209.25,110.87 C210.53,110.69 210.88,110.03 210.88,109.28 C210.88,107.22 209.51,105.5 206.3,105.5 C205.094424,105.418003 203.906525,105.824303 203.003696,106.627445 C202.100867,107.430587 201.558975,108.563079 201.5,109.77 L197.5,108.84 C197.94,104.84 201.6,101.98 206.17,101.98 C212.51,101.98 214.98,105.59 214.98,109.72 L214.98,120.33 C214.964645,121.495374 215.051646,122.659846 215.24,123.81 L211.19,123.81 C211.04052,122.881154 210.976918,121.940514 211,121 C209.510823,123.298723 206.916404,124.637778 204.18,124.52 C199.87,124.52 197.09,121.52 197.09,118.18 C197.1,114.35 199.88,112.23 203.53,111.71 Z M210.88,114.71 L210.88,113.71 L204.41,114.71 C202.65,114.98 201.33,115.99 201.33,117.88 C201.363095,118.748086 201.746619,119.565693 202.392987,120.146105 C203.039355,120.726517 203.893369,121.020169 204.76,120.96 C208.15,121 210.88,119.36 210.88,114.74 L210.88,114.71 Z" id="Shape" fill="#888888"></path>
            <path d="M227.77,123.81 L223.64,123.81 L223.64,102.64 L227.64,102.64 L227.64,105.64 C228.983384,103.304982 231.507823,101.904226 234.2,102 C239.26,102 241.77,105.66 241.77,110.37 L241.77,123.79 L237.63,123.79 L237.63,111.09 C237.63,108.09 236.4,105.76 232.7,105.76 C229.44,105.76 227.77,108.36 227.77,111.57 L227.77,123.81 Z" id="Path" fill="#888888"></path>
            <path d="M265.39,120.59 C264.123446,123.01383 261.57259,124.489821 258.84,124.38 C252.63,124.38 248.84,119.45 248.84,113.16 C248.84,107.16 252.84,102.07 258.84,102.07 C262.58,102.07 264.6,103.92 265.31,105.63 L265.31,92 L269.4,92 L269.4,119.94 C269.393999,121.249913 269.467467,122.558984 269.62,123.86 L265.62,123.86 C265.474248,122.913625 265.400702,121.957533 265.4,121 L265.39,120.59 Z M259.23,120.73 C263.02,120.73 265.35,117.43 265.35,113.07 C265.35,108.71 263.06,105.72 259.28,105.72 C255.5,105.72 253,108.8 253,113.16 C253,117.52 255.27,120.73 259.23,120.73 L259.23,120.73 Z" id="Shape" fill="#888888"></path>
            <path d="M298.53,113.2 C298.53,119.67 294.04,124.47 287.7,124.47 C281.36,124.47 276.88,119.67 276.88,113.2 C276.88,106.73 281.36,102 287.7,102 C294.04,102 298.53,106.78 298.53,113.2 Z M294.3,113.2 C294.3,108.32 291.22,105.68 287.7,105.68 C284.18,105.68 281.1,108.32 281.1,113.2 C281.1,118.08 284.18,120.77 287.7,120.77 C291.22,120.77 294.3,118.13 294.3,113.2 L294.3,113.2 Z" id="Shape" fill="#888888"></path>
            <path d="M317.75,106.82 C317.153912,106.733389 316.552347,106.689942 315.95,106.69 C312.47,106.69 310.14,108.54 310.14,113.2 L310.14,123.81 L306,123.81 L306,102.64 L310.05,102.64 L310.05,106.34 C311.132122,103.823292 313.652596,102.233087 316.39,102.34 C316.846155,102.34552 317.301059,102.389004 317.75,102.47 L317.75,106.82 Z" id="Path" fill="#888888"></path>
            <path d="M329.46,111.71 L335.18,110.87 C336.45,110.69 336.81,110.03 336.81,109.28 C336.81,107.22 335.44,105.5 332.23,105.5 C331.023761,105.415203 329.834309,105.820526 328.930841,106.624236 C328.027373,107.427945 327.486272,108.562094 327.43,109.77 L323.43,108.84 C323.87,104.84 327.52,101.98 332.1,101.98 C338.44,101.98 340.9,105.59 340.9,109.72 L340.9,120.33 C340.886006,121.495732 340.976367,122.660377 341.17,123.81 L337.17,123.81 C337.007383,122.865645 336.933727,121.908116 336.95,120.95 C335.459417,123.247172 332.865953,124.585734 330.13,124.47 C325.81,124.47 323.04,121.47 323.04,118.13 C323,114.35 325.8,112.23 329.46,111.71 Z M336.81,114.71 L336.81,113.71 L330.34,114.71 C328.58,114.98 327.26,115.99 327.26,117.88 C327.293095,118.748086 327.676619,119.565693 328.322987,120.146105 C328.969355,120.726517 329.823369,121.020169 330.69,120.96 C334.08,121 336.81,119.36 336.81,114.74 L336.81,114.71 Z" id="Shape" fill="#888888"></path>
            <polygon id="Path" fill="#888888" points="363.2 123.81 363.2 92.61 382.2 92.61 382.2 96.61 367.52 96.61 367.52 106.61 380.81 106.61 380.81 110.61 367.52 110.61 367.52 123.73"></polygon>
            <polygon id="Path" fill="#888888" points="419.09 123.81 419.09 99.52 408.44 123.81 404.44 123.81 393.92 99.52 393.92 123.81 389.65 123.81 389.65 92.61 395.5 92.61 406.5 118 417.59 92.61 423.36 92.61 423.36 123.81"></polygon>
            <path d="M449.49,101.06 C448.982092,97.8538566 446.131216,95.5515584 442.89,95.73 C439.37,95.73 436.89,98.02 436.89,100.92 C436.89,103.17 438.25,104.92 440.89,105.46 L445.56,106.46 C450.75,107.6 453.66,110.86 453.66,115.22 C453.66,120.06 449.52,124.46 442.87,124.46 C435.35,124.46 431.78,119.62 431.21,115.17 L435.35,113.85 C435.453196,115.729635 436.299659,117.49107 437.702796,118.746015 C439.105932,120.000959 440.950542,120.64638 442.83,120.54 C447.14,120.54 449.26,118.3 449.26,115.54 C449.26,113.29 447.71,111.36 444.59,110.7 L440.15,109.7 C435.7,108.7 432.53,105.83 432.53,101.16 C432.53,96.28 437.07,91.88 442.83,91.88 C449.83,91.88 452.69,96.23 453.39,99.62 L449.49,101.06 Z" id="Path" fill="#888888"></path>
            <polygon id="Path" fill="#888888" points="475 123.81 475 92.61 479.4 92.61 479.4 123.81"></polygon>
            <polygon id="Path" fill="#888888" points="500.7 96.61 500.7 123.81 496.39 123.81 496.39 96.61 486 96.61 486 92.61 511.17 92.61 511.17 96.61"></polygon>
            <path d="M533.75,101.06 C533.242092,97.8538566 530.391216,95.5515584 527.15,95.73 C523.63,95.73 521.15,98.02 521.15,100.92 C521.15,103.17 522.51,104.92 525.15,105.46 L529.82,106.46 C535.01,107.6 537.91,110.86 537.91,115.22 C537.91,120.06 533.78,124.46 527.13,124.46 C519.61,124.46 516.04,119.62 515.47,115.17 L519.61,113.85 C519.713196,115.729635 520.559659,117.49107 521.962796,118.746015 C523.365932,120.000959 525.210542,120.64638 527.09,120.54 C531.4,120.54 533.51,118.3 533.51,115.54 C533.51,113.29 531.97,111.36 528.85,110.7 L524.4,109.7 C519.96,108.7 516.79,105.83 516.79,101.16 C516.79,96.28 521.32,91.88 527.09,91.88 C534.09,91.88 536.95,96.23 537.65,99.62 L533.75,101.06 Z" id="Path" fill="#888888"></path>
            <polygon id="Path" fill="#888888" points="575.46 123.81 575.46 99.52 564.81 123.81 560.81 123.81 550.29 99.52 550.29 123.81 546 123.81 546 92.61 551.85 92.61 562.85 118 574 92.61 579.77 92.61 579.77 123.81"></polygon>
        </g>
    </g>
</svg>