<?xml version="1.0" encoding="UTF-8"?>
<svg  viewBox="0 0 20 20" version="1.1" xmlns="http://www.w3.org/2000/svg" xmlns:xlink="http://www.w3.org/1999/xlink">
    <!-- Generator: Sketch 61.2 (89653) - https://sketch.com -->
    <title>Dark / 20 / item-icon@svg</title>
    <desc>Created with Sketch.</desc>
    <g id="Dark-/-20-/-item-icon" stroke="none" stroke-width="1" fill="none" fill-rule="evenodd">
        <g id="Group" transform="translate(1.000000, 1.000000)">
            <rect id="Rectangle" stroke="#3F3F3F" stroke-width="2" stroke-linecap="round" stroke-linejoin="round" x="0" y="0" width="18" height="18" rx="2"></rect>
            <path d="M0,11.9867169 L3.81711387,8.5912245 C4.1960853,8.25411258 4.76741726,8.25411258 5.14638868,8.5912245 L10.5762382,13.4213169 C10.9552097,13.7584288 11.5265416,13.7584288 11.905513,13.4213169 L13.9558004,11.5974952 C14.3347718,11.2603833 14.9061038,11.2603833 15.2850752,11.5974952 L18,14.0125414 L18,14.0125414 L18,17 C18,17.5522847 17.5522847,18 17,18 L1,18 C0.44771525,18 6.76353751e-17,17.5522847 0,17 L0,11.9867169 L0,11.9867169 Z" id="Path" fill="#3F3F3F"></path>
            <circle id="Oval" fill="#3F3F3F" cx="11" cy="6" r="2"></circle>
        </g>
    </g>
</svg>