<?xml version="1.0" encoding="UTF-8"?>
<svg  viewBox="0 0 20 20" version="1.1" xmlns="http://www.w3.org/2000/svg" xmlns:xlink="http://www.w3.org/1999/xlink">
    <!-- Generator: Sketch 61.2 (89653) - https://sketch.com -->
    <title>Dark / 20 / item-label@svg</title>
    <desc>Created with Sketch.</desc>
    <g id="Dark-/-20-/-item-label" stroke="none" stroke-width="1" fill="none" fill-rule="evenodd">
        <g id="Group" transform="translate(0.000000, 4.000000)" fill="#3F3F3F" fill-rule="nonzero">
            <path d="M2.86206897,11.7676349 L3.74137931,9.37759336 L8.46551724,9.37759336 L9.34482759,11.7676349 L12.3103448,11.7676349 L7.75862069,0 L4.60344828,0 L0,11.7676349 L2.86206897,11.7676349 Z M7.60344828,6.98755187 L4.63793103,6.98755187 L6.13793103,2.92116183 L7.60344828,6.98755187 Z M15.137931,12 C16.2758621,12 17.1034483,11.5352697 17.5517241,10.8381743 C17.5517241,11.4024896 17.6206897,11.7012448 17.637931,11.7676349 L20,11.7676349 C19.9827586,11.6846473 19.8965517,11.1369295 19.8965517,10.4896266 L19.8965517,6.45643154 C19.8965517,4.76348548 18.8793103,3.26970954 16.1034483,3.26970954 C13.5862069,3.26970954 12.4482759,4.82987552 12.3448276,6.00829876 L14.6206897,6.45643154 C14.6724138,5.84232365 15.1724138,5.24481328 16.0862069,5.24481328 C16.9137931,5.24481328 17.3448276,5.65975104 17.3448276,6.14107884 C17.3448276,6.42323651 17.1896552,6.63900415 16.7241379,6.70539419 L14.7068966,7.00414938 C13.2931034,7.2033195 12.1724138,8.03319502 12.1724138,9.49377593 C12.1724138,10.8049793 13.2586207,12 15.137931,12 Z M15.7758621,10.1742739 C15.0517241,10.1742739 14.7586207,9.7593361 14.7586207,9.32780083 C14.7586207,8.74688797 15.1724138,8.49792531 15.7241379,8.41493776 L17.3448276,8.1659751 L17.3448276,8.53112033 C17.3448276,9.80912863 16.5517241,10.1742739 15.7758621,10.1742739 Z" id="Aa"></path>
        </g>
    </g>
</svg>