<?xml version="1.0" encoding="UTF-8"?>
<svg  viewBox="0 0 20 20" version="1.1" xmlns="http://www.w3.org/2000/svg" xmlns:xlink="http://www.w3.org/1999/xlink">
    <!-- Generator: Sketch 61.2 (89653) - https://sketch.com -->
    <title>Dark / 20 / keepalive@svg</title>
    <desc>Created with Sketch.</desc>
    <g id="Dark-/-20-/-keepalive" stroke="none" stroke-width="1" fill="none" fill-rule="evenodd">
        <path d="M1,0 C1.51283584,0 1.93550716,0.38604019 1.99327227,0.883378875 L2,1 L2,19 C2,19.5522847 1.55228475,20 1,20 C0.487164161,20 0.0644928393,19.6139598 0.00672773133,19.1166211 L0,19 L0,1 C0,0.44771525 0.44771525,0 1,0 Z" id="Path-17" fill="#3F3F3F"></path>
        <path d="M19,0 C19.5128358,0 19.9355072,0.38604019 19.9932723,0.883378875 L20,1 L20,19 C20,19.5522847 19.5522847,20 19,20 C18.4871642,20 18.0644928,19.6139598 18.0067277,19.1166211 L18,19 L18,1 C18,0.44771525 18.4477153,0 19,0 Z" id="Path-17-Copy" fill="#3F3F3F"></path>
        <g id="Group" transform="translate(3.000000, 1.000000)" fill="#3F3F3F">
            <path d="M0.0803159451,0.60734081 C0.28168565,0.135693866 0.802686436,-0.10144798 1.28276289,0.0407109758 L1.39265919,0.0803159451 L13.3485519,5.18488541 C13.8564794,5.40174509 14.0924365,5.98930118 13.8755768,6.49722866 C13.6742071,6.9688756 13.1532063,7.20601745 12.6731298,7.06385849 L12.5632335,7.02425352 L0.60734081,1.91968405 C0.0994133322,1.70282437 -0.136543737,1.11526829 0.0803159451,0.60734081 Z" id="Path-19"></path>
            <path d="M10.7791263,3.55102323 L8.78438337,6.55102323 C8.34245852,7.21565752 8.818961,8.10471277 9.61710654,8.10471277 L13.6171065,8.10471277 C14.4163511,8.10471277 14.8926307,7.21347813 14.4484838,6.54900438 L12.4432267,3.54900438 C12.0466848,2.95575086 11.1742276,2.9568093 10.7791263,3.55102323 Z" id="Path-9" transform="translate(11.617110, 5.604713) rotate(111.000000) translate(-11.617110, -5.604713) "></path>
        </g>
        <g id="Group-Copy" transform="translate(9.000000, 16.000000) scale(-1, 1) translate(-9.000000, -16.000000) translate(1.000000, 11.000000)" fill="#3F3F3F">
            <path d="M0.0803159451,0.60734081 C0.28168565,0.135693866 0.802686436,-0.10144798 1.28276289,0.0407109758 L1.39265919,0.0803159451 L13.3485519,5.18488541 C13.8564794,5.40174509 14.0924365,5.98930118 13.8755768,6.49722866 C13.6742071,6.9688756 13.1532063,7.20601745 12.6731298,7.06385849 L12.5632335,7.02425352 L0.60734081,1.91968405 C0.0994133322,1.70282437 -0.136543737,1.11526829 0.0803159451,0.60734081 Z" id="Path-19"></path>
            <path d="M10.7791263,3.55102323 L8.78438337,6.55102323 C8.34245852,7.21565752 8.818961,8.10471277 9.61710654,8.10471277 L13.6171065,8.10471277 C14.4163511,8.10471277 14.8926307,7.21347813 14.4484838,6.54900438 L12.4432267,3.54900438 C12.0466848,2.95575086 11.1742276,2.9568093 10.7791263,3.55102323 Z" id="Path-9" transform="translate(11.617110, 5.604713) rotate(111.000000) translate(-11.617110, -5.604713) "></path>
        </g>
    </g>
</svg>