<?xml version="1.0" encoding="utf-8"?>
<!-- Generator: Adobe Illustrator 23.1.0, SVG Export Plug-In . SVG Version: 6.00 Build 0)  -->
<svg version="1.1" id="Capa_1" xmlns="http://www.w3.org/2000/svg" xmlns:xlink="http://www.w3.org/1999/xlink" x="0px" y="0px"
	 viewBox="0 0 20 20" style="enable-background:new 0 0 20 20;" xml:space="preserve">
<style type="text/css">
	.st0{fill:#3F3F3F;}
</style>
<title>Dark / 20 / incremental-data@svg</title>
<desc>Created with Sketch.</desc>
<path class="st0" d="M10.5,0.1c0.3,0.1,0.6,0.1,0.8,0.2c0.9,0.4,1.4,1.1,1.6,1.9c0.2,0.6,0.3,1.3,0.3,2c0,0.4,0,0.8,0.1,1.3
	c0,0.6,0.3,1,0.6,1.5c0.7,1.1,1.5,2.2,2.1,3.3c0.2,0.4,0.4,0.8,0.6,1.3c0.2,0.7,0.2,1.5,0,2.2c0,0.1,0,0.2,0.1,0.3
	c0.2,0.3,0.4,0.6,0.3,0.9c0,0.6,0.3,0.9,0.7,1.1c0,0,0.1,0,0.1,0.1c0.6,0.3,0.7,0.9,0.1,1.3c-0.1,0.1-0.3,0.2-0.4,0.3
	c-0.8,0.5-1.5,0.9-2.3,1.4c-0.2,0.1-0.3,0.3-0.5,0.4c-0.5,0.4-1,0.4-1.5,0.3c-0.3-0.1-0.5-0.4-0.7-0.6c0-0.1-0.1-0.1-0.2-0.2
	c-1.4-0.3-2.8-0.2-4.3,0c-0.1,0-0.1,0.1-0.2,0.1c-0.3,0.5-0.7,0.6-1.2,0.6c-0.3,0-0.5-0.1-0.8-0.2c-1.1-0.4-2.3-0.8-3.4-0.9
	c-0.2,0-0.4-0.1-0.6-0.2c-0.3-0.1-0.4-0.4-0.3-0.7c0-0.1,0.1-0.2,0.1-0.3C1.9,17,1.9,16.5,1.8,16c-0.2-0.6,0-0.8,0.6-1
	c0.3-0.1,0.6-0.2,0.8-0.3c0.3-0.1,0.5-0.3,0.6-0.6c0.1-0.2,0.3-0.3,0.4-0.5c0,0,0.1-0.1,0-0.2c-0.1-0.4,0-0.8,0.2-1.3
	c0.3-0.7,0.5-1.3,0.8-2c0.2-0.7,0.6-1.3,1.1-1.9C6.5,8,6.7,7.7,7,7.4C7.3,7,7.4,6.6,7.4,6.1c0-0.7-0.1-1.4-0.1-2.1
	c0-0.6,0-1.1,0-1.7c0.1-1.1,0.7-1.7,1.7-2c0.3-0.1,0.5-0.1,0.8-0.2C10.1,0.1,10.3,0.1,10.5,0.1z M7.4,16.8c0.2,0.3,0.5,0.6,0.7,0.8
	c0.1,0.1,0.2,0.1,0.2,0.1c0.5,0,1,0,1.5,0c1.2,0,2.1-0.6,2.9-1.5c0.1-0.1,0.1-0.2,0.1-0.3c0-0.6,0.1-1.2,0.1-1.7
	c0-0.2,0.1-0.3,0.3-0.4c0.1,0,0.3,0,0.5,0c0.2-1,0.3-2-0.1-2.9c-0.4-1.2-0.9-2.3-1.4-3.4c-0.2-0.4-0.4-0.9-0.6-1.3
	c-0.1-0.1-0.2-0.2-0.3-0.1c-0.3,0.1-0.6,0.3-0.8,0.4c-0.4,0.2-0.8,0.4-1.2,0.6c-0.2,0.1-0.4,0.1-0.5,0C8.8,7,8.6,7,8.5,6.9
	C8.2,6.7,8,6.5,7.8,6.3c0,0.7-0.2,1.4-0.6,1.9C7,8.4,6.9,8.7,6.8,8.9c-0.2,0.6-0.4,1.2-0.7,1.8c-0.3,0.6-0.5,1.1-0.5,1.7
	c-0.1,0.7,0,1.3,0.6,1.8c0.1,0.1,0.2,0.2,0.3,0.2c0.4,0.3,0.8,0.6,1.2,1c0.2,0.1,0.3,0.3,0.4,0.5C8.1,16.3,7.9,16.6,7.4,16.8z
	 M2.2,17.6c0,0.3,0,0.3,0.2,0.4c0.1,0,0.3,0.1,0.4,0.1c0.8,0.1,1.7,0.3,2.4,0.6c0.4,0.2,0.9,0.3,1.3,0.4c0.1,0,0.3,0,0.4,0
	c0.5-0.4,0.8-0.8,0.4-1.5c-0.2-0.4-0.5-0.7-0.8-1c-0.3-0.5-0.6-1.1-1-1.6c-0.2-0.3-0.5-0.6-0.8-0.8c-0.2-0.2-0.4-0.1-0.5,0.1
	c-0.1,0.2-0.2,0.3-0.3,0.5c-0.1,0.2-0.3,0.4-0.5,0.4c-0.3,0.1-0.5,0.1-0.8,0.2c-0.4,0.1-0.4,0.2-0.4,0.6c0,0,0,0,0,0.1
	c0.1,0.4,0.1,0.8-0.1,1.2C2.3,17.4,2.3,17.6,2.2,17.6z M13.9,14.5c-0.2-0.1-0.4,0-0.4,0.2c0,0.4,0.1,0.7,0,1.1
	c-0.1,0.7-0.2,1.3-0.3,2c-0.1,0.4-0.1,0.7,0.1,1.1c0.2,0.3,0.5,0.5,0.9,0.3c0.3-0.1,0.5-0.3,0.7-0.5c0.4-0.4,0.8-0.7,1.3-0.9
	c0.3-0.2,0.6-0.3,0.9-0.5c0.1-0.1,0.3-0.2,0.4-0.3c0.1-0.1,0.2-0.2,0-0.4c-0.1-0.1-0.3-0.2-0.4-0.3c-0.3-0.2-0.6-0.4-0.6-0.8
	c0-0.2,0-0.3-0.1-0.5c0-0.2-0.1-0.3-0.2-0.4c0,0-0.1,0.1-0.1,0.1c-0.2,0.5-0.7,0.8-1.2,0.9c-0.7,0.1-1.1-0.2-1.2-0.9
	C13.9,14.7,13.9,14.6,13.9,14.5z M9.3,6.7c0.1,0,0.2-0.1,0.3-0.1c0.4-0.2,0.9-0.5,1.3-0.7c0.1-0.1,0.2-0.2,0.2-0.3
	c0-0.1-0.2-0.2-0.2-0.3c0,0,0,0-0.1,0c-0.4-0.2-0.9-0.3-1.3-0.5c-0.2-0.1-0.3-0.1-0.5,0c-0.4,0.3-0.7,0.5-1,0.8c0,0-0.1,0.2,0,0.3
	c0.3,0.4,0.6,0.6,1,0.8C9.2,6.7,9.2,6.7,9.3,6.7z M10.3,4.5c0-0.2,0-0.4,0.1-0.6c0.1-0.2,0.3-0.4,0.4-0.4c0.2,0,0.4,0.2,0.4,0.4
	c0.1,0.3,0.1,0.7-0.2,0.9c0.2,0.1,0.2,0.1,0.4,0c0.4-0.4,0.5-1.2,0.1-1.7c-0.4-0.5-1-0.5-1.4,0C9.9,3.4,9.8,3.7,9.9,4
	C9.9,4.4,10,4.4,10.3,4.5z M8.7,4.5C8.8,4.4,8.9,4.4,9,4.3c0,0,0.1-0.1,0.1-0.1c0.1-0.4,0-0.8-0.3-1.1c-0.3-0.3-0.7-0.3-1,0
	c-0.3,0.4-0.4,1.2,0,1.6c0.2,0.3,0.3,0.3,0.5,0C8,4.7,7.8,4.3,7.9,3.9C8,3.7,8,3.6,8.2,3.6c0.1,0,0.3,0.1,0.3,0.2
	C8.7,4,8.7,4.2,8.7,4.5z"/>
</svg>
