<?xml version="1.0" encoding="UTF-8"?>
<svg width="20px" height="20px" viewBox="0 0 20 20" version="1.1" xmlns="http://www.w3.org/2000/svg" xmlns:xlink="http://www.w3.org/1999/xlink">
    <!-- Generator: Sketch 61.2 (89653) - https://sketch.com -->
    <title>linux-grey@svg</title>
    <desc>Created with Sketch.</desc>
    <g id="Mockups" stroke="none" stroke-width="1" fill="none" fill-rule="evenodd">
        <g id="Deploy-agents---1-Default" transform="translate(-874.000000, -276.000000)" fill="#95A3BF">
            <g id="Popup" transform="translate(640.000000, 90.000000)">
                <g id="Content" transform="translate(0.000000, 13.000000)">
                    <g id="OS" transform="translate(20.000000, 133.000000)">
                        <g transform="translate(200.000000, 26.000000)" id="Icons/Dark/20/linux-grey">
                            <g transform="translate(14.000000, 14.000000)">
                                <path d="M6.05225389,3.20954057 C6.42861474,1.34333636 8.08089847,0 9.99996946,0 C11.9190404,0 13.5713642,1.34333636 13.9476317,3.20954057 L14.397366,5.43926559 C14.6324332,6.60521489 15.0956343,7.71417739 15.7607024,8.70352628 L16.5345709,9.85472888 C17.0175053,10.5730638 17.3332393,11.3846923 17.4639063,12.2310009 C18.2329747,12.2955877 18.9071095,12.7847088 19.1973769,13.5044304 L19.8529783,15.1299008 C20.1835124,15.9493693 19.9444452,16.8867047 19.2607103,17.4516393 L16.7485713,19.5277773 C16.017103,20.132312 14.9625673,20.1591121 14.2008323,19.5925775 L13.1892566,18.8401758 C13.1758833,18.8303091 13.1626566,18.8201757 13.1495766,18.8099091 C12.6530021,18.943376 12.1306009,19.0147095 11.5914264,19.0147095 L8.40851254,19.0147095 C7.86936465,19.0147095 7.34699014,18.9435094 6.85044236,18.8099091 C6.83737566,18.8201757 6.8241623,18.8303091 6.81078894,18.8401758 L5.79923999,19.5925775 C5.03749161,20.1591121 3.98300923,20.132312 3.25151425,19.5277773 L0.739281919,17.4516393 C0.0556237114,16.8867047 -0.183466827,15.9493693 0.147041917,15.1299008 L0.802702062,13.5044304 C1.09295605,12.7847488 1.7670309,12.2956277 2.5359793,12.2310142 C2.66667293,11.3846923 2.98240697,10.5730638 3.4653014,9.85472888 L4.23918314,8.70352628 C4.90425131,7.71417739 5.36743902,6.60521489 5.60258621,5.43926559 L6.05225389,3.20954057 Z M14.4593662,12.6344951 C14.1793655,12.8439356 13.9522984,13.1251229 13.8081647,13.4584303 L12.7840157,15.8284357 C12.2670412,16.1305697 11.6694799,16.2983034 11.0462251,16.2983034 L8.95375377,16.2983034 C8.33053903,16.2983034 7.73301768,16.1305697 7.21605652,15.828569 L6.19182754,13.4584303 C6.04776055,13.1250962 5.8207067,12.8438956 5.54062607,12.6344551 C5.57495948,12.2047608 5.69187975,11.7800665 5.89138686,11.3843723 L7.56905731,8.05680482 L7.579124,8.06677818 C8.91622035,9.3927945 11.0840786,9.3927945 12.4211616,8.06677818 L12.4310149,8.05700483 L14.1085654,11.384359 C14.3081658,11.7800799 14.4249661,12.2047875 14.4593662,12.6344951 Z M12.0542674,5.69209283 L12.0542674,4.07456918 L10.684731,4.07456918 L10.684731,5.14285159 C10.9753717,5.20165172 11.2601056,5.29829194 11.5313329,5.43278558 L12.0542674,5.69209283 Z M9.31519458,5.14291826 L9.31519458,4.07456918 L7.94565816,4.07456918 L7.94565816,5.69226616 L8.46895267,5.43278558 C8.74007328,5.29834527 9.02468726,5.20173172 9.31519458,5.14291826 Z M2.71007303,13.5818973 C2.4300724,13.5818973 2.17827183,13.7509643 2.07428493,14.0088316 L1.41863012,15.6343019 C1.3084552,15.9075025 1.38815005,16.2199032 1.61604389,16.4083036 L4.12827622,18.4844417 C4.37210344,18.6859088 4.72359757,18.6948421 4.97751814,18.5060417 L5.98906708,17.75364 C6.24174765,17.5657729 6.33202786,17.2307055 6.20761424,16.9428382 L4.9330247,13.9934982 C4.82513113,13.7437643 4.57755724,13.5818973 4.30362329,13.5818973 L2.71007303,13.5818973 Z M17.925774,14.0088316 C17.8217738,13.7509643 17.5700399,13.5818973 17.2899059,13.5818973 L15.6964356,13.5818973 C15.422435,13.5818973 15.1749678,13.7437643 15.0669675,13.9934982 L13.7924313,16.9428382 C13.6680311,17.2307055 13.7582979,17.5657729 14.0109652,17.75364 L15.0225674,18.5060417 C15.2764347,18.6948421 15.6279021,18.6859088 15.8717694,18.4844417 L18.3840417,16.4083036 C18.6119089,16.2199032 18.6916424,15.9075025 18.5813755,15.6343019 L17.925774,14.0088316 Z M9.08143405,6.64758832 C9.65976869,6.36081434 10.3405169,6.36081434 10.9188515,6.64758832 L11.583213,6.97701572 L11.4527594,7.10638935 C10.6505043,7.90200448 9.34978132,7.90200448 8.54752618,7.10638935 L8.41707256,6.97701572 L9.08143405,6.64758832 Z" id="Shape"></path>
                            </g>
                        </g>
                    </g>
                </g>
            </g>
        </g>
    </g>
</svg>