<?xml version="1.0" encoding="UTF-8"?>
<svg width="20px" height="20px" viewBox="0 0 20 20" version="1.1" xmlns="http://www.w3.org/2000/svg" xmlns:xlink="http://www.w3.org/1999/xlink">
    <!-- Generator: Sketch 61.2 (89653) - https://sketch.com -->
    <title>Dark / 20 / linux@svg</title>
    <desc>Created with Sketch.</desc>
    <g id="Dark-/-20-/-linux" stroke="none" stroke-width="1" fill="none" fill-rule="evenodd">
        <path d="M6.05224,3.20953333 C6.4286,1.34333333 8.08088,0 9.99994667,0 C11.9190133,0 13.5713333,1.34333333 13.9476,3.20953333 L14.3973333,5.43925333 C14.6324,6.6052 15.0956,7.71416 15.7606667,8.70350667 L16.5345333,9.85470667 C17.0174667,10.57304 17.3332,11.3846667 17.4638667,12.2309733 C18.2329333,12.29556 18.9070667,12.78468 19.1973333,13.5044 L19.8529333,15.1298667 C20.1834667,15.9493333 19.9444,16.8866667 19.2606667,17.4516 L16.7485333,19.5277333 C16.0170667,20.1322667 14.9625333,20.1590667 14.2008,19.5925333 L13.1892267,18.8401333 C13.1758533,18.8302667 13.1626267,18.8201333 13.1495467,18.8098667 C12.6529733,18.9433333 12.1305733,19.0146667 11.5914,19.0146667 L8.40849333,19.0146667 C7.86934667,19.0146667 7.34697333,18.9434667 6.85042667,18.8098667 C6.83736,18.8201333 6.82414667,18.8302667 6.81077333,18.8401333 L5.79922667,19.5925333 C5.03748,20.1590667 3.983,20.1322667 3.25150667,19.5277333 L0.73928,17.4516 C0.0556233333,16.8866667 -0.183466667,15.9493333 0.147041333,15.1298667 L0.8027,13.5044 C1.09295333,12.78472 1.76702667,12.2956 2.53597333,12.2309867 C2.66666667,11.3846667 2.9824,10.57304 3.46529333,9.85470667 L4.23917333,8.70350667 C4.90424,7.71416 5.36742667,6.6052 5.60257333,5.43925333 L6.05224,3.20953333 Z M14.4593333,12.6344667 C14.1793333,12.8439067 13.9522667,13.1250933 13.8081333,13.4584 L12.7839867,15.8284 C12.2670133,16.1305333 11.6694533,16.2982667 11.0462,16.2982667 L8.95373333,16.2982667 C8.33052,16.2982667 7.733,16.1305333 7.21604,15.8285333 L6.19181333,13.4584 C6.04774667,13.1250667 5.82069333,12.8438667 5.54061333,12.6344267 C5.57494667,12.2047333 5.69186667,11.78004 5.89137333,11.3843467 L7.56904,8.05678667 L7.57910667,8.06676 C8.9162,9.39277333 11.0840533,9.39277333 12.4211333,8.06676 L12.4309867,8.05698667 L14.1085333,11.3843333 C14.3081333,11.7800533 14.4249333,12.20476 14.4593333,12.6344667 Z M12.05424,5.69208 L12.05424,4.07456 L10.6847067,4.07456 L10.6847067,5.14284 C10.9753467,5.20164 11.26008,5.29828 11.5313067,5.43277333 L12.05424,5.69208 Z M9.31517333,5.14290667 L9.31517333,4.07456 L7.94564,4.07456 L7.94564,5.69225333 L8.46893333,5.43277333 C8.74005333,5.29833333 9.02466667,5.20172 9.31517333,5.14290667 Z M2.71006667,13.5818667 C2.43006667,13.5818667 2.17826667,13.7509333 2.07428,14.0088 L1.41862667,15.6342667 C1.308452,15.9074667 1.38814667,16.2198667 1.61604,16.4082667 L4.12826667,18.4844 C4.37209333,18.6858667 4.72358667,18.6948 4.97750667,18.506 L5.98905333,17.7536 C6.24173333,17.5657333 6.33201333,17.2306667 6.2076,16.9428 L4.93301333,13.9934667 C4.82512,13.7437333 4.57754667,13.5818667 4.30361333,13.5818667 L2.71006667,13.5818667 Z M17.9257333,14.0088 C17.8217333,13.7509333 17.57,13.5818667 17.2898667,13.5818667 L15.6964,13.5818667 C15.4224,13.5818667 15.1749333,13.7437333 15.0669333,13.9934667 L13.7924,16.9428 C13.668,17.2306667 13.7582667,17.5657333 14.0109333,17.7536 L15.0225333,18.506 C15.2764,18.6948 15.6278667,18.6858667 15.8717333,18.4844 L18.384,16.4082667 C18.6118667,16.2198667 18.6916,15.9074667 18.5813333,15.6342667 L17.9257333,14.0088 Z M9.08141333,6.64757333 C9.65974667,6.3608 10.3404933,6.3608 10.9188267,6.64757333 L11.5831867,6.977 L11.4527333,7.10637333 C10.65048,7.90198667 9.34976,7.90198667 8.54750667,7.10637333 L8.41705333,6.977 L9.08141333,6.64757333 Z" id="Shape" fill="#3F3F3F"></path>
    </g>
</svg>