<?xml version="1.0" encoding="utf-8"?>
<!-- Generator: Adobe Illustrator 28.0.0, SVG Export Plug-In . SVG Version: 6.00 Build 0)  -->
<svg version="1.1" id="Capa_1" xmlns="http://www.w3.org/2000/svg" xmlns:xlink="http://www.w3.org/1999/xlink" x="0px" y="0px"
	 viewBox="0 0 20 20" style="enable-background:new 0 0 20 20;" xml:space="preserve">
<style type="text/css">
	.st0{fill:#3F3F3F;}
</style>
<g>
	<path class="st0" d="M4.8,8C4.8,8,4.8,8,4.8,8C4.8,8,4.9,8,4.8,8c0.3,0.1,0.5,0.1,0.7,0.2c0,0,0.1,0,0.1,0c0.3,0,0.5,0.1,0.8,0.1
		c0.1,0,0.1,0,0.2,0c0.2,0,0.4,0,0.7,0.1c0.1,0,0.2,0,0.2,0c0.3,0,0.6,0,0.9,0c0.3,0,0.6,0,0.9,0c0.1,0,0.2,0,0.2,0
		c0.2,0,0.4,0,0.7-0.1c0.1,0,0.1,0,0.2,0c0.3,0,0.5-0.1,0.8-0.1c0,0,0.1,0,0.1,0c0.2,0,0.4-0.1,0.6-0.1c0,0,0.1,0,0.1,0c0,0,0,0,0,0
		c2-0.5,3.3-1.4,3.3-2.4V4.2c0-1.6-3.1-2.8-6.8-2.8S1.6,2.6,1.6,4.2v1.4C1.6,6.6,2.9,7.5,4.8,8z"/>
	<path class="st0" d="M13.8,8.8c0.5,0.1,1,0.2,1.4,0.4l0-1.2C14.8,8.4,14.3,8.6,13.8,8.8z"/>
	<path class="st0" d="M7.6,17.3c-1.1-0.6-1.9-1.4-2.7-2.3c-0.7-0.1-1.3-0.3-1.9-0.5c-0.5-0.2-1-0.5-1.5-0.8v1.8
		c0,0.9,1.1,1.8,2.9,2.3c0,0,0,0,0,0c0,0,0,0,0.1,0c0.2,0.1,0.5,0.1,0.8,0.2c0.1,0,0.1,0,0.2,0C5.6,18,5.9,18,6.2,18.1
		c0,0,0.1,0,0.1,0c0.3,0,0.6,0.1,0.9,0.1c0.1,0,0.1,0,0.2,0c0.3,0,0.6,0,1,0c0.3,0,0.7,0,1,0c0,0,0.1,0,0.1,0
		C8.9,18,8.2,17.7,7.6,17.3z"/>
	<path class="st0" d="M4,13.3c0.1-0.2,0.3-0.4,0.4-0.6c1-1.2,2.1-2.2,3.6-3c-0.4,0-0.8,0-1.2-0.1c-0.2,0-0.3,0-0.5-0.1
		c-0.3,0-0.7-0.1-1-0.2C4.4,9.3,3.7,9.1,3,8.9C2.5,8.7,2,8.4,1.6,8l0,3.2C1.6,12.1,2.5,12.8,4,13.3z"/>
</g>
<g>
	<path class="st0" d="M5.4,13.6c0.1-0.2,0.3-0.4,0.4-0.6c0.8-1.1,1.8-1.9,3.1-2.5c0.8-0.4,1.7-0.6,2.6-0.7c1.8-0.2,3.4,0.3,4.8,1.3
		c0.9,0.6,1.8,1.5,2.4,2.3c0.2,0.2,0.2,0.4,0,0.7c-0.8,1.1-1.7,1.9-2.8,2.6c-0.9,0.5-2,0.9-3.1,1.1c-1.6,0.1-3.1-0.2-4.4-1.1
		C7.3,16,6.5,15,5.6,14c0-0.1-0.1-0.1-0.1-0.2C5.4,13.7,5.4,13.6,5.4,13.6z M12.1,10.8c-1.6,0-2.7,1.4-2.7,2.9s1.4,2.7,2.9,2.7
		c1.5,0,2.7-1.4,2.7-2.9C15,12,13.6,10.8,12.1,10.8z"/>
	<path class="st0" d="M12.2,12.1c0.8,0,1.5,0.6,1.5,1.5c0,0.8-0.6,1.6-1.6,1.6c-0.8,0-1.5-0.6-1.5-1.5
		C10.7,12.8,11.3,12.1,12.2,12.1z"/>
</g>
</svg>
