<?xml version="1.0" encoding="UTF-8"?>
<svg width="16px" height="16px" viewBox="0 0 16 16" version="1.1" xmlns="http://www.w3.org/2000/svg" xmlns:xlink="http://www.w3.org/1999/xlink">
    <title>C79B9248-AD28-44E6-97FA-8E8BEC5C229D</title>
    <g id="Consola-mobile" stroke="none" stroke-width="1" fill="none" fill-rule="evenodd">
        <g id="0a-Menu" transform="translate(-20.000000, -17.000000)" fill="#ED474A">
            <g id="Go-back" transform="translate(20.000000, 15.000000)">
                <g id="Icons-/-Dark-/-20-/-Sign-out" transform="translate(8.000000, 10.000000) scale(-1, 1) translate(-8.000000, -10.000000) translate(0.000000, 2.000000)">
                    <path d="M4,0 C6.209139,-4.05812251e-16 8,1.790861 8,4 L8,12 C8,14.209139 6.209139,16 4,16 C1.790861,16 2.705415e-16,14.209139 0,12 L0,4 C-2.705415e-16,1.790861 1.790861,4.05812251e-16 4,0 Z M4.8,8.8 C4.3581722,8.8 4,8.4418278 4,8 C4,7.5581722 4.3581722,7.2 4.8,7.2 L8,7.2 L13.269,7.2 L10.6343146,4.56568542 C10.3459274,4.27729826 10.3237438,3.82351341 10.5677637,3.50968045 L10.6343146,3.43431458 C10.9227017,3.14592741 11.3764866,3.12374378 11.6903196,3.36776369 L11.7656854,3.43431458 L15.7656854,7.43431458 C16.0540726,7.72270174 16.0762562,8.17648659 15.8322363,8.49031955 L15.7656854,8.56568542 L11.7656854,12.5656854 C11.453266,12.8781049 10.946734,12.8781049 10.6343146,12.5656854 C10.3459274,12.2772983 10.3237438,11.8235134 10.5677637,11.5096804 L10.6343146,11.4343146 L13.269,8.8 L8,8.8 L4.8,8.8 Z" id="Rectangle-2"></path>
                </g>
            </g>
        </g>
    </g>
</svg>