<?xml version="1.0" encoding="UTF-8"?>
<svg  viewBox="0 0 20 20" version="1.1" xmlns="http://www.w3.org/2000/svg" xmlns:xlink="http://www.w3.org/1999/xlink">
    <!-- Generator: Sketch 61.2 (89653) - https://sketch.com -->
    <title>Dark / 20 / logs@svg</title>
    <desc>Created with Sketch.</desc>
    <g id="Dark-/-20-/-logs" stroke="none" stroke-width="1" fill="none" fill-rule="evenodd">
        <path d="M12,0 C12.54,0 13,0.363636364 13,0.909090909 L13,0.909090909 L13,4.07934284 C13,5.35207011 13.69,6 14.95,6 L14.95,6 L18.1,6 C18.64,6 19,6.45454545 19,7 L19,7 L19,16.3636364 C19,18.3636364 17.38,20 15.4,20 L15.4,20 L4.6,20 C2.62,20 1,18.3636364 1,16.3636364 L1,16.3636364 L1,3.63636364 C1,1.63636364 2.62,0 4.6,0 L4.6,0 Z M13.9995461,1 L18,5 L14.9995461,5 C14.4472613,5 13.9995461,4.55228475 13.9995461,4 L13.9995461,4 L13.9995461,1 Z M11.125,15 L5.875,15 C5.35,15 5,14.6 5,14 C5,13.4 5.35,13 5.875,13 L11.125,13 C11.65,13 12,13.4 12,14 C12,14.6 11.65,15 11.125,15 Z M14,11 L6,11 C5.4,11 5,10.6 5,10 C5,9.4 5.4,9 6,9 L14,9 C14.6,9 15,9.4 15,10 C15,10.6 14.6,11 14,11 Z" id="Shape" fill="#3F3F3F"></path>
    </g>
</svg>