<?xml version="1.0" encoding="UTF-8"?>
<svg  viewBox="0 0 20 20" version="1.1" xmlns="http://www.w3.org/2000/svg" xmlns:xlink="http://www.w3.org/1999/xlink">
    <!-- Generator: Sketch 61.2 (89653) - https://sketch.com -->
    <title>Dark / 20 / mail@svg</title>
    <desc>Created with Sketch.</desc>
    <g id="Dark-/-20-/-mail" stroke="none" stroke-width="1" fill="none" fill-rule="evenodd">
        <g id="Group" transform="translate(-0.000351, 2.000000)" fill="#3F3F3F">
            <path d="M20,4.223 L20.0003508,14 C20.0003508,15.1045695 19.1049203,16 18.0003508,16 L2.00035085,16 C0.895781349,16 0.000350849047,15.1045695 0.000350849047,14 L-1.27897692e-13,4.223 L7.69768804,9.64214711 L7.88037989,9.76346059 C9.23821661,10.6126549 10.9819268,10.5722171 12.3030137,9.64214711 L12.3030137,9.64214711 L20,4.223 Z M18.0003508,0 C19.0327038,-1.89640158e-16 19.8823707,0.782171857 19.98906,1.78622402 L11.1516823,8.00677682 L11.010626,8.0975291 C10.3392704,8.49078899 9.49354971,8.46053823 8.84901944,8.00677682 L8.84901944,8.00677682 L0.0117485295,1.78522071 C0.118897086,0.781650844 0.968341799,1.89576987e-16 2.00035085,0 L18.0003508,0 Z" id="Rectangle-2"></path>
        </g>
    </g>
</svg>