<?xml version="1.0" encoding="UTF-8"?>
<svg  viewBox="0 0 20 20" version="1.1" xmlns="http://www.w3.org/2000/svg" xmlns:xlink="http://www.w3.org/1999/xlink">
    <!-- Generator: Sketch 61.2 (89653) - https://sketch.com -->
    <title>Dark / 20 / mainframe@svg</title>
    <desc>Created with Sketch.</desc>
    <g id="Dark-/-20-/-mainframe" stroke="none" stroke-width="1" fill="none" fill-rule="evenodd">
        <path d="M18,0 C19.1045695,-2.02906125e-16 20,0.8954305 20,2 L20,16 C20,17.1045695 19.1045695,18 18,18 L18,20 L16,20 L16,18 L4,18 L4,20 L2,20 L2,18 C0.8954305,18 0,17.1045695 0,16 L0,2 C0,0.8954305 0.8954305,2.02906125e-16 2,0 L18,0 Z M17,10 C16.4477153,10 16,10.4477153 16,11 C16,11.5522847 16.4477153,12 17,12 C17.5522847,12 18,11.5522847 18,11 C18,10.4477153 17.5522847,10 17,10 Z M14,10 C13.4477153,10 13,10.4477153 13,11 C13,11.5522847 13.4477153,12 14,12 C14.5522847,12 15,11.5522847 15,11 C15,10.4477153 14.5522847,10 14,10 Z M17,6 L3,6 C2.44771525,6 2,6.44771525 2,7 C2,7.55228475 2.44771525,8 3,8 L3,8 L17,8 C17.5522847,8 18,7.55228475 18,7 C18,6.44771525 17.5522847,6 17,6 L17,6 Z M7,2 L3,2 C2.44771525,2 2,2.44771525 2,3 C2,3.55228475 2.44771525,4 3,4 L3,4 L7,4 C7.55228475,4 8,3.55228475 8,3 C8,2.44771525 7.55228475,2 7,2 L7,2 Z" id="Rectangle-2" fill="#3F3F3F"></path>
    </g>
</svg>