<?xml version="1.0" encoding="UTF-8"?>
<svg  viewBox="0 0 20 20" version="1.1" xmlns="http://www.w3.org/2000/svg" xmlns:xlink="http://www.w3.org/1999/xlink">
    <!-- Generator: Sketch 61.2 (89653) - https://sketch.com -->
    <title>Dark / 20 / modules@svg</title>
    <desc>Created with Sketch.</desc>
    <g id="Dark-/-20-/-modules" stroke="none" stroke-width="1" fill="none" fill-rule="evenodd">
        <path d="M18.7929688,3.18164062 L10.8789062,0.162109375 C10.59375,0.0540234375 10.296875,0 10,0 C9.703125,0 9.40625,0.0540234375 9.12109375,0.161914062 L1.20664062,3.18164062 C0.480078125,3.45898438 0,4.15625 0,4.93359375 L0,15.0664062 C0,15.8441406 0.480078125,16.5410156 1.20664062,16.8183594 L9.12070313,19.8378906 C9.40625,19.9453125 9.703125,20 10,20 C10.296875,20 10.5949219,19.9459766 10.8777344,19.8380859 L18.7917969,16.8185547 C19.5195312,16.5429688 20,15.84375 20,15.0664062 L20,4.93359375 C20,4.15625 19.5195312,3.45898438 18.7929688,3.18164062 Z M10,2.50273437 L16.4921875,4.9796875 L10,7.4140625 L3.50664062,4.98046875 L10,2.50273437 Z M11.25,17.0273438 L11.25,9.6171875 L17.5,7.2734375 L17.5,14.6367188 L11.25,17.0273438 Z" id="Shape" fill="#3F3F3F"></path>
    </g>
</svg>