<?xml version="1.0" encoding="UTF-8"?>
<svg  viewBox="0 0 20 20" version="1.1" xmlns="http://www.w3.org/2000/svg" xmlns:xlink="http://www.w3.org/1999/xlink">
    <!-- Generator: Sketch 61.2 (89653) - https://sketch.com -->
    <title>Dark / 20 / modules-group@svg</title>
    <desc>Created with Sketch.</desc>
    <g id="Dark-/-20-/-modules-group" stroke="none" stroke-width="1" fill="none" fill-rule="evenodd">
        <path d="M16.1550781,5.22714844 L10.6152344,3.11347656 C10.415625,3.03781641 10.2078125,3 10,3 C9.7921875,3 9.584375,3.03781641 9.38476562,3.11333984 L3.84464844,5.22714844 C3.33605469,5.42128906 3,5.909375 3,6.45351562 L3,13.5464844 C3,14.0908984 3.33605469,14.5787109 3.84464844,14.7728516 L9.38449219,16.8865234 C9.584375,16.9617188 9.7921875,17 10,17 C10.2078125,17 10.4164453,16.9621836 10.6144141,16.8866602 L16.1542578,14.7729883 C16.6636719,14.5800781 17,14.090625 17,13.5464844 L17,6.45351562 C17,5.909375 16.6636719,5.42128906 16.1550781,5.22714844 Z M10,4.75191406 L14.5445312,6.48578125 L10,8.18984375 L5.45464844,6.48632812 L10,4.75191406 Z M3.5,16 C3.77614237,16 4,16.2238576 4,16.5 L4,19.5 C4,19.7761424 3.77614237,20 3.5,20 L0.5,20 C0.223857625,20 3.38176876e-17,19.7761424 0,19.5 L0,16.5 C-3.38176876e-17,16.2238576 0.223857625,16 0.5,16 L3.5,16 Z M19.5,16 C19.7761424,16 20,16.2238576 20,16.5 L20,19.5 C20,19.7761424 19.7761424,20 19.5,20 L16.5,20 C16.2238576,20 16,19.7761424 16,19.5 L16,16.5 C16,16.2238576 16.2238576,16 16.5,16 L19.5,16 Z M15.25,8.09140625 L15.25,13.2457031 L10.875,14.9191406 L10.875,9.73203125 L15.25,8.09140625 Z M3.5,0 C3.77614237,-5.07265313e-17 4,0.223857625 4,0.5 L4,3.5 C4,3.77614237 3.77614237,4 3.5,4 L0.5,4 C0.223857625,4 3.38176876e-17,3.77614237 0,3.5 L0,0.5 C-3.38176876e-17,0.223857625 0.223857625,5.07265313e-17 0.5,0 L3.5,0 Z M19.5,0 C19.7761424,-5.07265313e-17 20,0.223857625 20,0.5 L20,3.5 C20,3.77614237 19.7761424,4 19.5,4 L16.5,4 C16.2238576,4 16,3.77614237 16,3.5 L16,0.5 C16,0.223857625 16.2238576,5.07265313e-17 16.5,0 L19.5,0 Z" id="Shape" fill="#3F3F3F"></path>
    </g>
</svg>