<?xml version="1.0" encoding="UTF-8"?>
<svg width="20px" height="20px" viewBox="0 0 20 20" version="1.1" xmlns="http://www.w3.org/2000/svg" xmlns:xlink="http://www.w3.org/1999/xlink">
    <title>Netflow@svg</title>
    <g id="Netflow" stroke="none" stroke-width="1" fill="none" fill-rule="evenodd">
        <path d="M10,2.27373675e-13 C15.5228475,2.27373675e-13 20,4.4771525 20,10 C20,15.5228475 15.5228475,20 10,20 C4.4771525,20 2.27373675e-13,15.5228475 2.27373675e-13,10 C2.27373675e-13,4.4771525 4.4771525,2.27373675e-13 10,2.27373675e-13 Z M9.99843461,11.9965254 C9.67625255,11.9965254 9.41507239,12.2577056 9.41507239,12.5798876 L9.41552125,15.4995254 L8.25074832,15.5046308 L8.28675386,15.5766508 C8.29955582,15.6022579 8.31555828,15.6342668 8.33476123,15.6726774 L8.44277783,15.8887373 C8.47158226,15.9463533 8.50358718,16.0103711 8.53879259,16.0807906 L8.86284238,16.7289703 L9.11488111,17.2331101 C9.27703936,17.5574667 9.46195666,17.927347 9.66963302,18.3427511 L9.99821684,19 L11.7485213,15.4998295 L10.5825213,15.4995254 L10.5817968,12.5798876 C10.5817968,12.2577056 10.3206167,11.9965254 9.99843461,11.9965254 Z M15.4966959,8.25147875 L11.9965254,10.0017832 C12.5726852,10.2898274 13.0777141,10.5423107 13.5116122,10.7592329 L14.2675551,11.1371576 C14.3699835,11.1883655 14.4660101,11.2363729 14.555635,11.2811798 L14.9157348,11.4612074 C14.9861544,11.4964128 15.0501721,11.5284177 15.1077881,11.5572222 L15.323848,11.6652388 C15.3622586,11.6844417 15.3942675,11.7004442 15.4198746,11.7132461 L15.4918946,11.7492517 L15.497,10.5844787 L18.4166378,10.5849276 C18.7388198,10.5849276 19,10.3237475 19,10.0015654 C19,9.67938334 18.7388198,9.41820318 18.4166378,9.41820318 L15.497,9.41747875 L15.4966959,8.25147875 Z M4.50330409,8.24834796 L4.503,9.41434796 L1.58336222,9.41507239 C1.26118016,9.41507239 1,9.67625255 1,9.99843461 C1,10.3206167 1.26118016,10.5817968 1.58336222,10.5817968 L4.503,10.581348 L4.50811371,11.7461209 L4.69807376,11.6513162 C4.7221881,11.6392813 4.74854163,11.6261289 4.77713435,11.6118589 L4.97556093,11.5128288 C5.20085777,11.4003884 5.5067654,11.247717 5.89328383,11.0548147 L6.23957636,10.8819881 C6.42234187,10.7907741 6.61953623,10.692359 6.83115944,10.5867427 L7.50931565,10.2482907 C7.66963626,10.1682784 7.8363697,10.0850656 8.00951597,9.99865237 L4.50330409,8.24834796 Z M10.0013476,1 L9.75170927,1.50020032 L9.41325727,2.17835653 C9.30764104,2.38997974 9.20922591,2.5871741 9.1180119,2.76993961 L8.94518534,3.11623214 C8.65583179,3.69600978 8.45699793,4.09441314 8.34868376,4.31144221 L8.25387911,4.50140226 L9.41865204,4.50651597 L9.41820318,7.42615375 C9.41820318,7.74833581 9.67938334,8.00951597 10.0015654,8.00951597 C10.3237475,8.00951597 10.5849276,7.74833581 10.5849276,7.42615375 L10.585652,4.50651597 L11.751652,4.50621188 L10.0013476,1 Z" id="Oval-2" fill="#3F3F3F"></path>
    </g>
</svg>