<?xml version="1.0" encoding="UTF-8"?>
<!DOCTYPE svg PUBLIC "-//W3C//DTD SVG 1.1//EN" "http://www.w3.org/Graphics/SVG/1.1/DTD/svg11.dtd">
<svg xmlns="http://www.w3.org/2000/svg" version="1.1" width="512px" height="512px" style="shape-rendering:geometricPrecision; text-rendering:geometricPrecision; image-rendering:optimizeQuality; fill-rule:evenodd; clip-rule:evenodd" xmlns:xlink="http://www.w3.org/1999/xlink">
<g><path style="opacity:0.991" fill="#000000" d="M 233.5,-0.5 C 248.167,-0.5 262.833,-0.5 277.5,-0.5C 366.072,10.0146 433.238,53.3479 479,129.5C 496.968,162.07 507.802,196.737 511.5,233.5C 511.5,248.167 511.5,262.833 511.5,277.5C 500.985,366.072 457.652,433.238 381.5,479C 348.93,496.968 314.263,507.802 277.5,511.5C 262.833,511.5 248.167,511.5 233.5,511.5C 144.928,500.985 77.7616,457.652 32,381.5C 14.0316,348.93 3.19825,314.263 -0.5,277.5C -0.5,262.833 -0.5,248.167 -0.5,233.5C 10.0146,144.928 53.3479,77.7616 129.5,32C 162.07,14.0316 196.737,3.19825 233.5,-0.5 Z M 254.5,39.5 C 256.193,40.4749 257.693,41.8082 259,43.5C 278.833,71.3333 298.667,99.1667 318.5,127C 304.504,127.5 290.504,127.667 276.5,127.5C 276.5,148.833 276.5,170.167 276.5,191.5C 262.5,191.5 248.5,191.5 234.5,191.5C 234.5,170.167 234.5,148.833 234.5,127.5C 220.496,127.667 206.496,127.5 192.5,127C 213.8,98.2136 234.466,69.0469 254.5,39.5 Z M 127.5,192.5 C 156.815,213.475 186.148,234.475 215.5,255.5C 186.245,276.377 157.078,297.377 128,318.5C 127.5,304.504 127.333,290.504 127.5,276.5C 106.167,276.5 84.8333,276.5 63.5,276.5C 63.5,262.5 63.5,248.5 63.5,234.5C 84.8333,234.5 106.167,234.5 127.5,234.5C 127.5,220.5 127.5,206.5 127.5,192.5 Z M 382.5,192.5 C 383.496,206.323 383.829,220.323 383.5,234.5C 404.833,234.5 426.167,234.5 447.5,234.5C 447.5,248.5 447.5,262.5 447.5,276.5C 426.167,276.5 404.833,276.5 383.5,276.5C 383.667,290.504 383.5,304.504 383,318.5C 353.922,297.377 324.755,276.377 295.5,255.5C 324.744,234.723 353.744,213.723 382.5,192.5 Z M 234.5,319.5 C 248.5,319.5 262.5,319.5 276.5,319.5C 276.5,340.833 276.5,362.167 276.5,383.5C 290.504,383.333 304.504,383.5 318.5,384C 297.377,413.078 276.377,442.245 255.5,471.5C 234.623,442.245 213.623,413.078 192.5,384C 206.496,383.5 220.496,383.333 234.5,383.5C 234.5,362.167 234.5,340.833 234.5,319.5 Z"/></g>
</svg>
