<?xml version="1.0" encoding="UTF-8"?>
<svg  viewBox="0 0 20 20" version="1.1" xmlns="http://www.w3.org/2000/svg" xmlns:xlink="http://www.w3.org/1999/xlink">
    <!-- Generator: Sketch 61.2 (89653) - https://sketch.com -->
    <title>Dark / 20 / network-server@svg</title>
    <desc>Created with Sketch.</desc>
    <g id="Dark-/-20-/-network-server" stroke="none" stroke-width="1" fill="none" fill-rule="evenodd">
        <path d="M5,8.75025 C5.33773571,8.99355627 5.70519791,9.19267126 6.09344533,9.34275 C7.14264287,9.76275 8.52482376,9.99975 9.99925004,9.99975 C11.4751762,9.99975 12.8566072,9.76275 13.9065547,9.34275 C14.2171219,9.22287502 14.51441,9.07162834 14.7938438,8.891486 L15,8.751 L15,9.99975 C15,10.9673886 13.2825573,11.7744944 11.0007086,11.9599305 L11.0009007,14.1710242 C11.852919,14.4724771 12.5281625,15.1479338 12.8293257,16.0000889 L19,16 C19.5522847,16 20,16.4477153 20,17 C20,17.5522847 19.5522847,18 19,18 L12.8289758,18.0009007 C12.4168852,19.1656226 11.3058822,20 10,20 C8.69411778,20 7.58311485,19.1656226 7.17102423,18.0009007 L1,18 C0.44771525,18 6.76353751e-17,17.5522847 0,17 C-6.76353751e-17,16.4477153 0.44771525,16 1,16 L7.17067428,16.0000889 C7.47195412,15.1476039 8.1476039,14.4719541 9.00008893,14.1706743 L9.00028426,11.9600111 C6.7993586,11.7813381 5.12328594,11.0243278 5.00650614,10.1026863 L5,9.99975 L5,8.75025 Z M10,16 C9.44771525,16 9,16.4477153 9,17 C9,17.5522847 9.44771525,18 10,18 C10.5522847,18 11,17.5522847 11,17 C11,16.4477153 10.5522847,16 10,16 Z M15,4.7505 L15,6.99975 C15,8.1045 12.7613619,9 10,9 C7.32493063,9 5.14042535,8.15889038 5.00650614,7.10330221 L5,7.0005 L5.00074996,4.7505 C5.33847692,4.99382021 5.70594098,5.1929362 6.09419529,5.343 C7.14339283,5.76225 8.52557372,6 10,6 C11.4751762,6 12.8573571,5.763 13.9065547,5.343 C14.2948021,5.19292126 14.6622643,4.99380627 15,4.7505 Z M10,-2.44249065e-13 C12.7613619,-2.44249065e-13 15,0.8955 15,2.00025 L15,3 C15,4.10475 12.7613619,5.00025 10,5.00025 C7.23863807,5.00025 5,4.10475 5,3 L5,2.00025 C5,0.8955 7.23863807,-2.44249065e-13 10,-2.44249065e-13 Z" id="Rectangle-2" fill="#3F3F3F"></path>
    </g>
</svg>