<?xml version="1.0" encoding="UTF-8"?>
<svg width="20px" height="20px" viewBox="0 0 20 20" version="1.1" xmlns="http://www.w3.org/2000/svg" xmlns:xlink="http://www.w3.org/1999/xlink">
    <!-- Generator: Sketch 61.2 (89653) - https://sketch.com -->
    <title>Dark / 20 / network@svg</title>
    <desc>Created with Sketch.</desc>
    <g id="Dark-/-20-/-network" stroke="none" stroke-width="1" fill="none" fill-rule="evenodd">
        <path d="M10,0 C11.485909,0 12.7195035,1.08028648 12.9582373,2.49831306 C16.4758772,3.72146349 19,7.06596151 19,11 C19,11.2486636 18.9899154,11.4949719 18.9701329,11.7385381 C19.6012613,12.2876327 20,13.0972511 20,14 C20,15.6568542 18.6568542,17 17,17 C16.9055962,17 16.8122109,16.9956395 16.7200345,16.987109 C15.0726581,18.8352881 12.6723456,20 10,20 C7.32765444,20 4.92734191,18.8352881 3.27899729,16.9857992 L3.17627279,16.9949073 L3.17627279,16.9949073 L3,17 C1.34314575,17 0,15.6568542 0,14 C0,13.0972511 0.398738747,12.2876327 1.02970336,11.7376575 C1.01008458,11.4949719 1,11.2486636 1,11 C1,7.06596151 3.52412284,3.72146349 7.04120959,2.49766486 C7.28049649,1.08028648 8.51409103,0 10,0 Z M12.5990769,4.4983946 L12.5329361,4.60826455 C12.0005963,5.44492446 11.0651206,6 10,6 C8.88904089,6 7.91912552,5.39611995 7.40059634,4.49870231 C4.82184799,5.53033375 3,8.05240918 3,11 C4.65685425,11 6,12.3431458 6,14 C6,14.8017991 5.68545291,15.5301318 5.17302456,16.0683323 C6.42769305,17.265193 8.12803484,18 10,18 C11.8719652,18 13.572307,17.265193 14.8283244,16.0682801 C14.3145471,15.5301318 14,14.8017991 14,14 C14,12.3431458 15.3431458,11 17,11 L17,11 L16.995941,10.7593502 C16.8998724,7.91569272 15.10768,5.5021365 12.5990769,4.4983946 Z" id="Oval-2" fill="#3F3F3F"></path>
    </g>
</svg>