<?xml version="1.0" encoding="UTF-8"?>
<svg width="870px" height="579px" viewBox="0 0 870 579" version="1.1" xmlns="http://www.w3.org/2000/svg" xmlns:xlink="http://www.w3.org/1999/xlink">
    <title>No data to show v2</title>
    <defs>
        <linearGradient x1="50%" y1="50%" x2="52.9793104%" y2="53.1020164%" id="linearGradient-1">
            <stop stop-color="#FFFFFF" stop-opacity="0.7" offset="0%"></stop>
            <stop stop-color="#FFFFFF" stop-opacity="0" offset="100%"></stop>
        </linearGradient>
        <path d="M201.317219,38.6827793 C246.227592,83.5931517 246.227592,156.407052 201.317219,201.317425 C156.406847,246.227525 83.5929464,246.227525 38.682574,201.317425 C-6.22752645,156.407052 -6.22752645,83.5931517 38.682574,38.6827793 C83.5929464,-6.2275931 156.406847,-6.2275931 201.317219,38.6827793" id="path-2"></path>
    </defs>
    <g id="No-data-to-show-v2" stroke="none" stroke-width="1" fill="none" fill-rule="evenodd">
        <g id="Group-2">
            <path d="M835.436608,290 C838.198032,290 840.436608,292.238576 840.436608,295 C840.436608,297.761424 838.198032,300 835.436608,300 L825.436608,300 C822.675185,300 820.436608,297.761424 820.436608,295 C820.436608,292.238576 822.675185,290 825.436608,290 L835.436608,290 Z M801.436608,290 C804.198032,290 806.436608,292.238576 806.436608,295 C806.436608,297.761424 804.198032,300 801.436608,300 L791.436608,300 C788.675185,300 786.436608,297.761424 786.436608,295 C786.436608,292.238576 788.675185,290 791.436608,290 L801.436608,290 Z M767.436608,290 C770.198032,290 772.436608,292.238576 772.436608,295 C772.436608,297.761424 770.198032,300 767.436608,300 L757.436608,300 C754.675185,300 752.436608,297.761424 752.436608,295 C752.436608,292.238576 754.675185,290 757.436608,290 L767.436608,290 Z M718.453226,294.554924 C718.665861,291.8017 721.070165,289.742144 723.82339,289.954778 C724.212936,289.984864 724.605295,290 725,290 L733.436608,290 C736.198032,290 738.436608,292.238576 738.436608,295 C738.436608,297.761424 736.198032,300 733.436608,300 L725,300 C724.34827,300 723.699048,299.974954 723.053372,299.925088 C720.300147,299.712454 718.240592,297.308149 718.453226,294.554924 Z M859.14289,280.0142 C860.065684,277.411525 862.92364,276.049713 865.526314,276.972506 C868.128989,277.8953 869.490801,280.753256 868.568008,283.35593 C867.163476,287.317312 864.777177,290.85497 861.651897,293.647364 C859.59269,295.487236 856.431862,295.30943 854.59199,293.250223 C852.752118,291.191017 852.929924,288.030189 854.989131,286.190317 C856.868657,284.510988 858.301849,282.386298 859.14289,280.0142 Z M704.999854,265.654913 C707.761278,265.654913 709.999919,267.893343 710,270.654767 L710.000097,275.054843 C710.005219,276.495884 710.212235,277.90427 710.610357,279.253837 C711.391689,281.902418 709.877985,284.682912 707.229404,285.464244 C704.580822,286.245575 701.800329,284.731871 701.018997,282.08329 C700.353918,279.828789 700.008654,277.47985 700.000129,275.072761 L700,270.655059 C700,267.893635 702.23843,265.654913 704.999854,265.654913 Z M865,242.781696 C867.761424,242.781696 870,245.020272 870,247.781696 L870,257.781696 C870,260.54312 867.761424,262.781696 865,262.781696 C862.238576,262.781696 860,260.54312 860,257.781696 L860,247.781696 C860,245.020272 862.238576,242.781696 865,242.781696 Z M705,231.654913 C707.761424,231.654913 710,233.893489 710,236.654913 L710,246.654913 C710,249.416336 707.761424,251.654913 705,251.654913 C702.238576,251.654913 700,249.416336 700,246.654913 L700,236.654913 C700,233.893489 702.238576,231.654913 705,231.654913 Z M865,208.781696 C867.761424,208.781696 870,211.020272 870,213.781696 L870,223.781696 C870,226.54312 867.761424,228.781696 865,228.781696 C862.238576,228.781696 860,226.54312 860,223.781696 L860,213.781696 C860,211.020272 862.238576,208.781696 865,208.781696 Z M705,197.654913 C707.761424,197.654913 710,199.893489 710,202.654913 L710,212.654913 C710,215.416336 707.761424,217.654913 705,217.654913 C702.238576,217.654913 700,215.416336 700,212.654913 L700,202.654913 C700,199.893489 702.238576,197.654913 705,197.654913 Z M865,174.781696 C867.761424,174.781696 870,177.020272 870,179.781696 L870,189.781696 C870,192.54312 867.761424,194.781696 865,194.781696 C862.238576,194.781696 860,192.54312 860,189.781696 L860,179.781696 C860,177.020272 862.238576,174.781696 865,174.781696 Z M705,163.654913 C707.761424,163.654913 710,165.893489 710,168.654913 L710,178.654913 C710,181.416336 707.761424,183.654913 705,183.654913 C702.238576,183.654913 700,181.416336 700,178.654913 L700,168.654913 C700,165.893489 702.238576,163.654913 705,163.654913 Z M865,140.781696 C867.761424,140.781696 870,143.020272 870,145.781696 L870,155.781696 C870,158.54312 867.761424,160.781696 865,160.781696 C862.238576,160.781696 860,158.54312 860,155.781696 L860,145.781696 C860,143.020272 862.238576,140.781696 865,140.781696 Z M705,129.654913 C707.761424,129.654913 710,131.893489 710,134.654913 L710,144.654913 C710,147.416336 707.761424,149.654913 705,149.654913 C702.238576,149.654913 700,147.416336 700,144.654913 L700,134.654913 C700,131.893489 702.238576,129.654913 705,129.654913 Z M865,106.781696 C867.761424,106.781696 870,109.020272 870,111.781696 L870,121.781696 C870,124.54312 867.761424,126.781696 865,126.781696 C862.238576,126.781696 860,124.54312 860,121.781696 L860,111.781696 C860,109.020272 862.238576,106.781696 865,106.781696 Z M705,95.6549126 C707.761424,95.6549126 710,97.8934888 710,100.654913 L710,110.654913 C710,113.416336 707.761424,115.654913 705,115.654913 C702.238576,115.654913 700,113.416336 700,110.654913 L700,100.654913 C700,97.8934888 702.238576,95.6549126 705,95.6549126 Z M865,72.7816958 C867.761424,72.7816958 870,75.0202721 870,77.7816958 L870,87.7816958 C870,90.5431196 867.761424,92.7816958 865,92.7816958 C862.238576,92.7816958 860,90.5431196 860,87.7816958 L860,77.7816958 C860,75.0202721 862.238576,72.7816958 865,72.7816958 Z M705,61.6549126 C707.761424,61.6549126 710,63.8934888 710,66.6549126 L710,76.6549126 C710,79.4163363 707.761424,81.6549126 705,81.6549126 C702.238576,81.6549126 700,79.4163363 700,76.6549126 L700,66.6549126 C700,63.8934888 702.238576,61.6549126 705,61.6549126 Z M865,38.7816958 C867.761424,38.7816958 870,41.0202721 870,43.7816958 L870,53.7816958 C870,56.5431196 867.761424,58.7816958 865,58.7816958 C862.238576,58.7816958 860,56.5431196 860,53.7816958 L860,43.7816958 C860,41.0202721 862.238576,38.7816958 865,38.7816958 Z M705,27.6549126 C707.761424,27.6549126 710,29.8934888 710,32.6549126 L710,42.6549126 C710,45.4163363 707.761424,47.6549126 705,47.6549126 C702.238576,47.6549126 700,45.4163363 700,42.6549126 L700,32.6549126 C700,29.8934888 702.238576,27.6549126 705,27.6549126 Z M855.956115,7.53747648 C857.946998,5.62388137 861.112203,5.68653554 863.025798,7.67741849 C865.929889,10.6988018 868.040301,14.4058445 869.137848,18.4720764 C869.857452,21.1380906 868.279575,23.8826763 865.613561,24.6022802 C862.947547,25.3218842 860.202961,23.744007 859.483357,21.0779928 C858.82679,18.6455188 857.561503,16.4229812 855.816173,14.6071594 C853.902578,12.6162764 853.965232,9.45107159 855.956115,7.53747648 Z M735,0 C737.761424,0 740,2.23857625 740,5 C740,7.76142375 737.761424,10 735,10 L725,10 C724.345979,10 723.721286,9.87442889 723.148716,9.64608094 L723.089,9.621 C722.630684,9.96051428 722.114822,10.2223232 721.548205,10.3912068 L721.333369,10.4501411 C718.888517,11.0636597 716.645322,12.2891643 714.799708,14.0019696 C712.775619,15.8804069 709.611997,15.7623332 707.73356,13.7382446 C705.855122,11.7141561 705.973196,8.55053378 707.997285,6.67209651 C711.068915,3.82149716 714.811978,1.77658338 718.899404,0.750872129 C719.912845,0.496556213 720.931689,0.571319074 721.843163,0.907633099 L722.027,0.98 L722.079828,0.940896929 C722.846626,0.38828118 723.77632,0.0475890599 724.78311,0.00461951385 L725,0 L735,0 Z M769,0 C771.761424,0 774,2.23857625 774,5 C774,7.76142375 771.761424,10 769,10 L759,10 C756.238576,10 754,7.76142375 754,5 C754,2.23857625 756.238576,0 759,0 L769,0 Z M803,0 C805.761424,0 808,2.23857625 808,5 C808,7.76142375 805.761424,10 803,10 L793,10 C790.238576,10 788,7.76142375 788,5 C788,2.23857625 790.238576,0 793,0 L803,0 Z M837,0 C839.761424,0 842,2.23857625 842,5 C842,7.76142375 839.761424,10 837,10 L827,10 C824.238576,10 822,7.76142375 822,5 C822,2.23857625 824.238576,0 827,0 L837,0 Z" id="Rectangle" fill="#C0CCDC" fill-rule="nonzero"></path>
            <path d="M135.436608,290 C138.198032,290 140.436608,292.238576 140.436608,295 C140.436608,297.761424 138.198032,300 135.436608,300 L125.436608,300 C122.675185,300 120.436608,297.761424 120.436608,295 C120.436608,292.238576 122.675185,290 125.436608,290 L135.436608,290 Z M101.436608,290 C104.198032,290 106.436608,292.238576 106.436608,295 C106.436608,297.761424 104.198032,300 101.436608,300 L91.4366084,300 C88.6751846,300 86.4366084,297.761424 86.4366084,295 C86.4366084,292.238576 88.6751846,290 91.4366084,290 L101.436608,290 Z M67.4366084,290 C70.1980321,290 72.4366084,292.238576 72.4366084,295 C72.4366084,297.761424 70.1980321,300 67.4366084,300 L57.4366084,300 C54.6751846,300 52.4366084,297.761424 52.4366084,295 C52.4366084,292.238576 54.6751846,290 57.4366084,290 L67.4366084,290 Z M18.4532264,294.554924 C18.6658608,291.8017 21.0701649,289.742144 23.8233899,289.954778 C24.2129362,289.984864 24.6052952,290 25,290 L33.4366084,290 C36.1980321,290 38.4366084,292.238576 38.4366084,295 C38.4366084,297.761424 36.1980321,300 33.4366084,300 L25,300 C24.3482697,300 23.6990478,299.974954 23.0533724,299.925088 C20.3001474,299.712454 18.2405919,297.308149 18.4532264,294.554924 Z M159.14289,280.0142 C160.065684,277.411525 162.92364,276.049713 165.526314,276.972506 C168.128989,277.8953 169.490801,280.753256 168.568008,283.35593 C167.163476,287.317312 164.777177,290.85497 161.651897,293.647364 C159.59269,295.487236 156.431862,295.30943 154.59199,293.250223 C152.752118,291.191017 152.929924,288.030189 154.989131,286.190317 C156.868657,284.510988 158.301849,282.386298 159.14289,280.0142 Z M4.99985396,265.654913 C7.76127771,265.654913 9.99991934,267.893343 10,270.654767 L10.0000974,275.054843 C10.0052194,276.495884 10.2122347,277.90427 10.6103572,279.253837 C11.3916891,281.902418 9.87798456,284.682912 7.22940351,285.464244 C4.58082246,286.245575 1.80032863,284.731871 1.01899673,282.08329 C0.353918423,279.828789 0.00865356487,277.47985 0.000129033291,275.072761 L2.13273132e-09,270.655059 C2.13273132e-09,267.893635 2.23843021,265.654913 4.99985396,265.654913 Z M165,242.781696 C167.761424,242.781696 170,245.020272 170,247.781696 L170,257.781696 C170,260.54312 167.761424,262.781696 165,262.781696 C162.238576,262.781696 160,260.54312 160,257.781696 L160,247.781696 C160,245.020272 162.238576,242.781696 165,242.781696 Z M5,231.654913 C7.76142375,231.654913 10,233.893489 10,236.654913 L10,246.654913 C10,249.416336 7.76142375,251.654913 5,251.654913 C2.23857625,251.654913 0,249.416336 0,246.654913 L0,236.654913 C0,233.893489 2.23857625,231.654913 5,231.654913 Z M165,208.781696 C167.761424,208.781696 170,211.020272 170,213.781696 L170,223.781696 C170,226.54312 167.761424,228.781696 165,228.781696 C162.238576,228.781696 160,226.54312 160,223.781696 L160,213.781696 C160,211.020272 162.238576,208.781696 165,208.781696 Z M5,197.654913 C7.76142375,197.654913 10,199.893489 10,202.654913 L10,212.654913 C10,215.416336 7.76142375,217.654913 5,217.654913 C2.23857625,217.654913 0,215.416336 0,212.654913 L0,202.654913 C0,199.893489 2.23857625,197.654913 5,197.654913 Z M165,174.781696 C167.761424,174.781696 170,177.020272 170,179.781696 L170,189.781696 C170,192.54312 167.761424,194.781696 165,194.781696 C162.238576,194.781696 160,192.54312 160,189.781696 L160,179.781696 C160,177.020272 162.238576,174.781696 165,174.781696 Z M5,163.654913 C7.76142375,163.654913 10,165.893489 10,168.654913 L10,178.654913 C10,181.416336 7.76142375,183.654913 5,183.654913 C2.23857625,183.654913 0,181.416336 0,178.654913 L0,168.654913 C0,165.893489 2.23857625,163.654913 5,163.654913 Z M165,140.781696 C167.761424,140.781696 170,143.020272 170,145.781696 L170,155.781696 C170,158.54312 167.761424,160.781696 165,160.781696 C162.238576,160.781696 160,158.54312 160,155.781696 L160,145.781696 C160,143.020272 162.238576,140.781696 165,140.781696 Z M5,129.654913 C7.76142375,129.654913 10,131.893489 10,134.654913 L10,144.654913 C10,147.416336 7.76142375,149.654913 5,149.654913 C2.23857625,149.654913 0,147.416336 0,144.654913 L0,134.654913 C0,131.893489 2.23857625,129.654913 5,129.654913 Z M165,106.781696 C167.761424,106.781696 170,109.020272 170,111.781696 L170,121.781696 C170,124.54312 167.761424,126.781696 165,126.781696 C162.238576,126.781696 160,124.54312 160,121.781696 L160,111.781696 C160,109.020272 162.238576,106.781696 165,106.781696 Z M5,95.6549126 C7.76142375,95.6549126 10,97.8934888 10,100.654913 L10,110.654913 C10,113.416336 7.76142375,115.654913 5,115.654913 C2.23857625,115.654913 0,113.416336 0,110.654913 L0,100.654913 C0,97.8934888 2.23857625,95.6549126 5,95.6549126 Z M165,72.7816958 C167.761424,72.7816958 170,75.0202721 170,77.7816958 L170,87.7816958 C170,90.5431196 167.761424,92.7816958 165,92.7816958 C162.238576,92.7816958 160,90.5431196 160,87.7816958 L160,77.7816958 C160,75.0202721 162.238576,72.7816958 165,72.7816958 Z M5,61.6549126 C7.76142375,61.6549126 10,63.8934888 10,66.6549126 L10,76.6549126 C10,79.4163363 7.76142375,81.6549126 5,81.6549126 C2.23857625,81.6549126 0,79.4163363 0,76.6549126 L0,66.6549126 C0,63.8934888 2.23857625,61.6549126 5,61.6549126 Z M165,38.7816958 C167.761424,38.7816958 170,41.0202721 170,43.7816958 L170,53.7816958 C170,56.5431196 167.761424,58.7816958 165,58.7816958 C162.238576,58.7816958 160,56.5431196 160,53.7816958 L160,43.7816958 C160,41.0202721 162.238576,38.7816958 165,38.7816958 Z M5,27.6549126 C7.76142375,27.6549126 10,29.8934888 10,32.6549126 L10,42.6549126 C10,45.4163363 7.76142375,47.6549126 5,47.6549126 C2.23857625,47.6549126 0,45.4163363 0,42.6549126 L0,32.6549126 C0,29.8934888 2.23857625,27.6549126 5,27.6549126 Z M155.956115,7.53747648 C157.946998,5.62388137 161.112203,5.68653554 163.025798,7.67741849 C165.929889,10.6988018 168.040301,14.4058445 169.137848,18.4720764 C169.857452,21.1380906 168.279575,23.8826763 165.613561,24.6022802 C162.947547,25.3218842 160.202961,23.744007 159.483357,21.0779928 C158.82679,18.6455188 157.561503,16.4229812 155.816173,14.6071594 C153.902578,12.6162764 153.965232,9.45107159 155.956115,7.53747648 Z M35,0 C37.7614237,0 40,2.23857625 40,5 C40,7.76142375 37.7614237,10 35,10 L25,10 C24.3459786,10 23.7212859,9.87442889 23.1487161,9.64608094 L23.089,9.621 C22.6306843,9.96051428 22.1148218,10.2223232 21.5482046,10.3912068 L21.3333686,10.4501411 C18.8885167,11.0636597 16.6453217,12.2891643 14.7997079,14.0019696 C12.7756193,15.8804069 9.61199704,15.7623332 7.73355977,13.7382446 C5.8551225,11.7141561 5.97319621,8.55053378 7.99728478,6.67209651 C11.0689155,3.82149716 14.8119781,1.77658338 18.8994045,0.750872129 C19.9128452,0.496556213 20.9316889,0.571319074 21.8431627,0.907633099 L22.027,0.98 L22.0798277,0.940896929 C22.8466259,0.38828118 23.7763198,0.0475890599 24.7831104,0.00461951385 L25,0 L35,0 Z M69,0 C71.7614237,0 74,2.23857625 74,5 C74,7.76142375 71.7614237,10 69,10 L59,10 C56.2385763,10 54,7.76142375 54,5 C54,2.23857625 56.2385763,0 59,0 L69,0 Z M103,0 C105.761424,0 108,2.23857625 108,5 C108,7.76142375 105.761424,10 103,10 L93,10 C90.2385763,10 88,7.76142375 88,5 C88,2.23857625 90.2385763,0 93,0 L103,0 Z M137,0 C139.761424,0 142,2.23857625 142,5 C142,7.76142375 139.761424,10 137,10 L127,10 C124.238576,10 122,7.76142375 122,5 C122,2.23857625 124.238576,0 127,0 L137,0 Z" id="Rectangle" fill="#C0CCDC" fill-rule="nonzero"></path>
            <path d="M356.436608,380 C359.198032,380 361.436608,382.238576 361.436608,385 C361.436608,387.761424 359.198032,390 356.436608,390 L346.436608,390 C343.675185,390 341.436608,387.761424 341.436608,385 C341.436608,382.238576 343.675185,380 346.436608,380 L356.436608,380 Z M322.436608,380 C325.198032,380 327.436608,382.238576 327.436608,385 C327.436608,387.761424 325.198032,390 322.436608,390 L312.436608,390 C309.675185,390 307.436608,387.761424 307.436608,385 C307.436608,382.238576 309.675185,380 312.436608,380 L322.436608,380 Z M288.436608,380 C291.198032,380 293.436608,382.238576 293.436608,385 C293.436608,387.761424 291.198032,390 288.436608,390 L278.436608,390 C275.675185,390 273.436608,387.761424 273.436608,385 C273.436608,382.238576 275.675185,380 278.436608,380 L288.436608,380 Z M386.830585,377.126934 C389.061118,375.498995 392.189027,375.987493 393.816966,378.218026 C395.444905,380.448558 394.956407,383.576468 392.725875,385.204407 C389.345503,387.671548 385.39371,389.260354 381.195961,389.797082 C378.456837,390.14731 375.952423,388.210726 375.602196,385.471602 C375.251968,382.732477 377.188552,380.228063 379.927676,379.877836 C382.440538,379.556539 384.803108,378.606675 386.830585,377.126934 Z M241.542912,377.412457 C243.279697,375.26559 246.428019,374.933153 248.574887,376.669937 C250.529323,378.251048 252.84534,379.318987 255.332394,379.76437 C258.050576,380.251144 259.859489,382.849273 259.372716,385.567455 C258.885942,388.285637 256.287812,390.094551 253.56963,389.607777 C249.411924,388.863212 245.541436,387.078492 242.285432,384.444432 C240.138565,382.707647 239.806127,379.559325 241.542912,377.412457 Z M398,344.781696 C400.761424,344.781696 403,347.020272 403,349.781696 L403,359.781696 C403,362.54312 400.761424,364.781696 398,364.781696 C395.238576,364.781696 393,362.54312 393,359.781696 L393,349.781696 C393,347.020272 395.238576,344.781696 398,344.781696 Z M238,343.654913 C240.761424,343.654913 243,345.893489 243,348.654913 L243,358.654913 C243,361.416336 240.761424,363.654913 238,363.654913 C235.238576,363.654913 233,361.416336 233,358.654913 L233,348.654913 C233,345.893489 235.238576,343.654913 238,343.654913 Z M398,310.781696 C400.761424,310.781696 403,313.020272 403,315.781696 L403,325.781696 C403,328.54312 400.761424,330.781696 398,330.781696 C395.238576,330.781696 393,328.54312 393,325.781696 L393,315.781696 C393,313.020272 395.238576,310.781696 398,310.781696 Z M238,309.654913 C240.761424,309.654913 243,311.893489 243,314.654913 L243,324.654913 C243,327.416336 240.761424,329.654913 238,329.654913 C235.238576,329.654913 233,327.416336 233,324.654913 L233,314.654913 C233,311.893489 235.238576,309.654913 238,309.654913 Z M398,276.781696 C400.761424,276.781696 403,279.020272 403,281.781696 L403,291.781696 C403,294.54312 400.761424,296.781696 398,296.781696 C395.238576,296.781696 393,294.54312 393,291.781696 L393,281.781696 C393,279.020272 395.238576,276.781696 398,276.781696 Z M238,275.654913 C240.761424,275.654913 243,277.893489 243,280.654913 L243,290.654913 C243,293.416336 240.761424,295.654913 238,295.654913 C235.238576,295.654913 233,293.416336 233,290.654913 L233,280.654913 C233,277.893489 235.238576,275.654913 238,275.654913 Z M398,242.781696 C400.761424,242.781696 403,245.020272 403,247.781696 L403,257.781696 C403,260.54312 400.761424,262.781696 398,262.781696 C395.238576,262.781696 393,260.54312 393,257.781696 L393,247.781696 C393,245.020272 395.238576,242.781696 398,242.781696 Z M238,241.654913 C240.761424,241.654913 243,243.893489 243,246.654913 L243,256.654913 C243,259.416336 240.761424,261.654913 238,261.654913 C235.238576,261.654913 233,259.416336 233,256.654913 L233,246.654913 C233,243.893489 235.238576,241.654913 238,241.654913 Z M398,208.781696 C400.761424,208.781696 403,211.020272 403,213.781696 L403,223.781696 C403,226.54312 400.761424,228.781696 398,228.781696 C395.238576,228.781696 393,226.54312 393,223.781696 L393,213.781696 C393,211.020272 395.238576,208.781696 398,208.781696 Z M238,207.654913 C240.761424,207.654913 243,209.893489 243,212.654913 L243,222.654913 C243,225.416336 240.761424,227.654913 238,227.654913 C235.238576,227.654913 233,225.416336 233,222.654913 L233,212.654913 C233,209.893489 235.238576,207.654913 238,207.654913 Z M398,174.781696 C400.761424,174.781696 403,177.020272 403,179.781696 L403,189.781696 C403,192.54312 400.761424,194.781696 398,194.781696 C395.238576,194.781696 393,192.54312 393,189.781696 L393,179.781696 C393,177.020272 395.238576,174.781696 398,174.781696 Z M238,173.654913 C240.761424,173.654913 243,175.893489 243,178.654913 L243,188.654913 C243,191.416336 240.761424,193.654913 238,193.654913 C235.238576,193.654913 233,191.416336 233,188.654913 L233,178.654913 C233,175.893489 235.238576,173.654913 238,173.654913 Z M398,140.781696 C400.761424,140.781696 403,143.020272 403,145.781696 L403,155.781696 C403,158.54312 400.761424,160.781696 398,160.781696 C395.238576,160.781696 393,158.54312 393,155.781696 L393,145.781696 C393,143.020272 395.238576,140.781696 398,140.781696 Z M238,139.654913 C240.761424,139.654913 243,141.893489 243,144.654913 L243,154.654913 C243,157.416336 240.761424,159.654913 238,159.654913 C235.238576,159.654913 233,157.416336 233,154.654913 L233,144.654913 C233,141.893489 235.238576,139.654913 238,139.654913 Z M398,106.781696 C400.761424,106.781696 403,109.020272 403,111.781696 L403,121.781696 C403,124.54312 400.761424,126.781696 398,126.781696 C395.238576,126.781696 393,124.54312 393,121.781696 L393,111.781696 C393,109.020272 395.238576,106.781696 398,106.781696 Z M238,105.654913 C240.761424,105.654913 243,107.893489 243,110.654913 L243,120.654913 C243,123.416336 240.761424,125.654913 238,125.654913 C235.238576,125.654913 233,123.416336 233,120.654913 L233,110.654913 C233,107.893489 235.238576,105.654913 238,105.654913 Z M398,72.7816958 C400.761424,72.7816958 403,75.0202721 403,77.7816958 L403,87.7816958 C403,90.5431196 400.761424,92.7816958 398,92.7816958 C395.238576,92.7816958 393,90.5431196 393,87.7816958 L393,77.7816958 C393,75.0202721 395.238576,72.7816958 398,72.7816958 Z M238,71.6549126 C240.761424,71.6549126 243,73.8934888 243,76.6549126 L243,86.6549126 C243,89.4163363 240.761424,91.6549126 238,91.6549126 C235.238576,91.6549126 233,89.4163363 233,86.6549126 L233,76.6549126 C233,73.8934888 235.238576,71.6549126 238,71.6549126 Z M398,38.7816958 C400.761424,38.7816958 403,41.0202721 403,43.7816958 L403,53.7816958 C403,56.5431196 400.761424,58.7816958 398,58.7816958 C395.238576,58.7816958 393,56.5431196 393,53.7816958 L393,43.7816958 C393,41.0202721 395.238576,38.7816958 398,38.7816958 Z M238,37.6549126 C240.761424,37.6549126 243,39.8934888 243,42.6549126 L243,52.6549126 C243,55.4163363 240.761424,57.6549126 238,57.6549126 C235.238576,57.6549126 233,55.4163363 233,52.6549126 L233,42.6549126 C233,39.8934888 235.238576,37.6549126 238,37.6549126 Z M388.956115,7.53747648 C390.946998,5.62388137 394.112203,5.68653554 396.025798,7.67741849 C398.929889,10.6988018 401.040301,14.4058445 402.137848,18.4720764 C402.857452,21.1380906 401.279575,23.8826763 398.613561,24.6022802 C395.947547,25.3218842 393.202961,23.744007 392.483357,21.0779928 C391.82679,18.6455188 390.561503,16.4229812 388.816173,14.6071594 C386.902578,12.6162764 386.965232,9.45107159 388.956115,7.53747648 Z M240.940159,6.72527661 C242.958402,4.84056017 246.122376,4.94880489 248.007093,6.96704795 C249.891809,8.98529102 249.783564,12.1492648 247.765321,14.0339813 C245.923479,15.7539676 244.538062,17.9083135 243.749984,20.2989845 C242.885449,22.9215866 240.058567,24.3467822 237.435965,23.482248 C234.813363,22.6177138 233.388167,19.7908313 234.252701,17.1682292 C235.569242,13.1744444 237.877105,9.58567941 240.940159,6.72527661 Z M370,0 C372.761424,0 375,2.23857625 375,5 C375,7.76142375 372.761424,10 370,10 L360,10 C357.238576,10 355,7.76142375 355,5 C355,2.23857625 357.238576,0 360,0 L370,0 Z M336,0 C338.761424,0 341,2.23857625 341,5 C341,7.76142375 338.761424,10 336,10 L326,10 C323.238576,10 321,7.76142375 321,5 C321,2.23857625 323.238576,0 326,0 L336,0 Z M302,0 C304.761424,0 307,2.23857625 307,5 C307,7.76142375 304.761424,10 302,10 L292,10 C289.238576,10 287,7.76142375 287,5 C287,2.23857625 289.238576,0 292,0 L302,0 Z M268,0 C270.761424,0 273,2.23857625 273,5 C273,7.76142375 270.761424,10 268,10 L258,10 C255.238576,10 253,7.76142375 253,5 C253,2.23857625 255.238576,0 258,0 L268,0 Z" id="Rectangle" fill="#C0CCDC" fill-rule="nonzero"></path>
            <path d="M590.436608,380 C593.198032,380 595.436608,382.238576 595.436608,385 C595.436608,387.761424 593.198032,390 590.436608,390 L580.436608,390 C577.675185,390 575.436608,387.761424 575.436608,385 C575.436608,382.238576 577.675185,380 580.436608,380 L590.436608,380 Z M556.436608,380 C559.198032,380 561.436608,382.238576 561.436608,385 C561.436608,387.761424 559.198032,390 556.436608,390 L546.436608,390 C543.675185,390 541.436608,387.761424 541.436608,385 C541.436608,382.238576 543.675185,380 546.436608,380 L556.436608,380 Z M522.436608,380 C525.198032,380 527.436608,382.238576 527.436608,385 C527.436608,387.761424 525.198032,390 522.436608,390 L512.436608,390 C509.675185,390 507.436608,387.761424 507.436608,385 C507.436608,382.238576 509.675185,380 512.436608,380 L522.436608,380 Z M620.830585,377.126934 C623.061118,375.498995 626.189027,375.987493 627.816966,378.218026 C629.444905,380.448558 628.956407,383.576468 626.725875,385.204407 C623.345503,387.671548 619.39371,389.260354 615.195961,389.797082 C612.456837,390.14731 609.952423,388.210726 609.602196,385.471602 C609.251968,382.732477 611.188552,380.228063 613.927676,379.877836 C616.440538,379.556539 618.803108,378.606675 620.830585,377.126934 Z M475.542912,377.412457 C477.279697,375.26559 480.428019,374.933153 482.574887,376.669937 C484.529323,378.251048 486.84534,379.318987 489.332394,379.76437 C492.050576,380.251144 493.859489,382.849273 493.372716,385.567455 C492.885942,388.285637 490.287812,390.094551 487.56963,389.607777 C483.411924,388.863212 479.541436,387.078492 476.285432,384.444432 C474.138565,382.707647 473.806127,379.559325 475.542912,377.412457 Z M632,344.781696 C634.761424,344.781696 637,347.020272 637,349.781696 L637,359.781696 C637,362.54312 634.761424,364.781696 632,364.781696 C629.238576,364.781696 627,362.54312 627,359.781696 L627,349.781696 C627,347.020272 629.238576,344.781696 632,344.781696 Z M472,343.654913 C474.761424,343.654913 477,345.893489 477,348.654913 L477,358.654913 C477,361.416336 474.761424,363.654913 472,363.654913 C469.238576,363.654913 467,361.416336 467,358.654913 L467,348.654913 C467,345.893489 469.238576,343.654913 472,343.654913 Z M632,310.781696 C634.761424,310.781696 637,313.020272 637,315.781696 L637,325.781696 C637,328.54312 634.761424,330.781696 632,330.781696 C629.238576,330.781696 627,328.54312 627,325.781696 L627,315.781696 C627,313.020272 629.238576,310.781696 632,310.781696 Z M472,309.654913 C474.761424,309.654913 477,311.893489 477,314.654913 L477,324.654913 C477,327.416336 474.761424,329.654913 472,329.654913 C469.238576,329.654913 467,327.416336 467,324.654913 L467,314.654913 C467,311.893489 469.238576,309.654913 472,309.654913 Z M632,276.781696 C634.761424,276.781696 637,279.020272 637,281.781696 L637,291.781696 C637,294.54312 634.761424,296.781696 632,296.781696 C629.238576,296.781696 627,294.54312 627,291.781696 L627,281.781696 C627,279.020272 629.238576,276.781696 632,276.781696 Z M472,275.654913 C474.761424,275.654913 477,277.893489 477,280.654913 L477,290.654913 C477,293.416336 474.761424,295.654913 472,295.654913 C469.238576,295.654913 467,293.416336 467,290.654913 L467,280.654913 C467,277.893489 469.238576,275.654913 472,275.654913 Z M632,242.781696 C634.761424,242.781696 637,245.020272 637,247.781696 L637,257.781696 C637,260.54312 634.761424,262.781696 632,262.781696 C629.238576,262.781696 627,260.54312 627,257.781696 L627,247.781696 C627,245.020272 629.238576,242.781696 632,242.781696 Z M472,241.654913 C474.761424,241.654913 477,243.893489 477,246.654913 L477,256.654913 C477,259.416336 474.761424,261.654913 472,261.654913 C469.238576,261.654913 467,259.416336 467,256.654913 L467,246.654913 C467,243.893489 469.238576,241.654913 472,241.654913 Z M632,208.781696 C634.761424,208.781696 637,211.020272 637,213.781696 L637,223.781696 C637,226.54312 634.761424,228.781696 632,228.781696 C629.238576,228.781696 627,226.54312 627,223.781696 L627,213.781696 C627,211.020272 629.238576,208.781696 632,208.781696 Z M472,207.654913 C474.761424,207.654913 477,209.893489 477,212.654913 L477,222.654913 C477,225.416336 474.761424,227.654913 472,227.654913 C469.238576,227.654913 467,225.416336 467,222.654913 L467,212.654913 C467,209.893489 469.238576,207.654913 472,207.654913 Z M632,174.781696 C634.761424,174.781696 637,177.020272 637,179.781696 L637,189.781696 C637,192.54312 634.761424,194.781696 632,194.781696 C629.238576,194.781696 627,192.54312 627,189.781696 L627,179.781696 C627,177.020272 629.238576,174.781696 632,174.781696 Z M472,173.654913 C474.761424,173.654913 477,175.893489 477,178.654913 L477,188.654913 C477,191.416336 474.761424,193.654913 472,193.654913 C469.238576,193.654913 467,191.416336 467,188.654913 L467,178.654913 C467,175.893489 469.238576,173.654913 472,173.654913 Z M632,140.781696 C634.761424,140.781696 637,143.020272 637,145.781696 L637,155.781696 C637,158.54312 634.761424,160.781696 632,160.781696 C629.238576,160.781696 627,158.54312 627,155.781696 L627,145.781696 C627,143.020272 629.238576,140.781696 632,140.781696 Z M472,139.654913 C474.761424,139.654913 477,141.893489 477,144.654913 L477,154.654913 C477,157.416336 474.761424,159.654913 472,159.654913 C469.238576,159.654913 467,157.416336 467,154.654913 L467,144.654913 C467,141.893489 469.238576,139.654913 472,139.654913 Z M632,106.781696 C634.761424,106.781696 637,109.020272 637,111.781696 L637,121.781696 C637,124.54312 634.761424,126.781696 632,126.781696 C629.238576,126.781696 627,124.54312 627,121.781696 L627,111.781696 C627,109.020272 629.238576,106.781696 632,106.781696 Z M472,105.654913 C474.761424,105.654913 477,107.893489 477,110.654913 L477,120.654913 C477,123.416336 474.761424,125.654913 472,125.654913 C469.238576,125.654913 467,123.416336 467,120.654913 L467,110.654913 C467,107.893489 469.238576,105.654913 472,105.654913 Z M632,72.7816958 C634.761424,72.7816958 637,75.0202721 637,77.7816958 L637,87.7816958 C637,90.5431196 634.761424,92.7816958 632,92.7816958 C629.238576,92.7816958 627,90.5431196 627,87.7816958 L627,77.7816958 C627,75.0202721 629.238576,72.7816958 632,72.7816958 Z M472,71.6549126 C474.761424,71.6549126 477,73.8934888 477,76.6549126 L477,86.6549126 C477,89.4163363 474.761424,91.6549126 472,91.6549126 C469.238576,91.6549126 467,89.4163363 467,86.6549126 L467,76.6549126 C467,73.8934888 469.238576,71.6549126 472,71.6549126 Z M632,38.7816958 C634.761424,38.7816958 637,41.0202721 637,43.7816958 L637,53.7816958 C637,56.5431196 634.761424,58.7816958 632,58.7816958 C629.238576,58.7816958 627,56.5431196 627,53.7816958 L627,43.7816958 C627,41.0202721 629.238576,38.7816958 632,38.7816958 Z M472,37.6549126 C474.761424,37.6549126 477,39.8934888 477,42.6549126 L477,52.6549126 C477,55.4163363 474.761424,57.6549126 472,57.6549126 C469.238576,57.6549126 467,55.4163363 467,52.6549126 L467,42.6549126 C467,39.8934888 469.238576,37.6549126 472,37.6549126 Z M622.956115,7.53747648 C624.946998,5.62388137 628.112203,5.68653554 630.025798,7.67741849 C632.929889,10.6988018 635.040301,14.4058445 636.137848,18.4720764 C636.857452,21.1380906 635.279575,23.8826763 632.613561,24.6022802 C629.947547,25.3218842 627.202961,23.744007 626.483357,21.0779928 C625.82679,18.6455188 624.561503,16.4229812 622.816173,14.6071594 C620.902578,12.6162764 620.965232,9.45107159 622.956115,7.53747648 Z M474.940159,6.72527661 C476.958402,4.84056017 480.122376,4.94880489 482.007093,6.96704795 C483.891809,8.98529102 483.783564,12.1492648 481.765321,14.0339813 C479.923479,15.7539676 478.538062,17.9083135 477.749984,20.2989845 C476.885449,22.9215866 474.058567,24.3467822 471.435965,23.482248 C468.813363,22.6177138 467.388167,19.7908313 468.252701,17.1682292 C469.569242,13.1744444 471.877105,9.58567941 474.940159,6.72527661 Z M604,0 C606.761424,0 609,2.23857625 609,5 C609,7.76142375 606.761424,10 604,10 L594,10 C591.238576,10 589,7.76142375 589,5 C589,2.23857625 591.238576,0 594,0 L604,0 Z M570,0 C572.761424,0 575,2.23857625 575,5 C575,7.76142375 572.761424,10 570,10 L560,10 C557.238576,10 555,7.76142375 555,5 C555,2.23857625 557.238576,0 560,0 L570,0 Z M536,0 C538.761424,0 541,2.23857625 541,5 C541,7.76142375 538.761424,10 536,10 L526,10 C523.238576,10 521,7.76142375 521,5 C521,2.23857625 523.238576,0 526,0 L536,0 Z M502,0 C504.761424,0 507,2.23857625 507,5 C507,7.76142375 504.761424,10 502,10 L492,10 C489.238576,10 487,7.76142375 487,5 C487,2.23857625 489.238576,0 492,0 L502,0 Z" id="Rectangle" fill="#C0CCDC" fill-rule="nonzero"></path>
            <g id="Group-46" transform="translate(211.734375, 42.733275)">
                <path d="M439.264583,413.894236 L413.89411,439.264709 C410.958987,442.199832 406.200373,442.199832 403.265251,439.264709 L301.602957,337.602101 C298.667834,334.666978 298.667834,329.908364 301.602957,326.973241 L326.973116,301.602768 C329.908238,298.667645 334.667167,298.667645 337.602289,301.602768 L439.264583,403.265062 C442.199706,406.200185 442.199706,410.959113 439.264583,413.894236" id="Fill-1" fill="#F8F8F8"></path>
                <path d="M323.437582,298.067234 C328.325326,293.17949 336.250079,293.17949 341.137823,298.067234 L442.800117,399.729528 C447.687862,404.617272 447.687862,412.542025 442.800117,417.42977 L417.429644,442.800243 C412.5419,447.687987 404.617461,447.687987 399.729711,442.800238 L298.067423,341.137635 C293.179678,336.24989 293.179678,328.325452 298.067401,323.437729 L323.437582,298.067234 Z M334.066755,305.138302 C333.084254,304.155801 331.491151,304.155801 330.508672,305.13828 L305.138491,330.508775 C304.155989,331.491277 304.155989,333.084066 305.138496,334.066572 L406.800785,435.729175 C407.783286,436.711677 409.376075,436.711677 410.358576,435.729175 L435.72905,410.358702 L435.85163,410.227187 C436.709694,409.238824 436.668833,407.74038 435.72905,406.800596 L334.066755,305.138302 Z" id="Fill-1" fill="#C0CCDC" fill-rule="nonzero"></path>
                <path d="M281.033526,263.737924 L322.93579,305.640188 L305.640597,322.935067 L263.738647,281.032803 C266.791942,278.377709 269.779236,275.594701 272.684816,272.689122 C275.590081,269.783856 278.373089,266.796562 281.033526,263.737924" id="Fill-13" fill="#F8F8F8"></path>
                <path d="M280.911791,258.739375 C281.137579,258.733813 281.363868,258.743455 281.588996,258.768417 L281.605647,258.770924 L281.677647,258.780924 L281.813675,258.79849 L281.830647,258.801924 L281.844929,258.803818 L281.911647,258.816924 L282.037211,258.838802 L282.061647,258.844924 L282.074328,258.846851 L282.143647,258.863924 L282.259234,258.889379 L282.278647,258.895924 L282.301904,258.900643 L282.380647,258.923924 L282.479374,258.950245 L282.509647,258.960924 L282.527252,258.965192 L282.586647,258.985924 L282.697262,259.021428 L282.722647,259.031924 L282.749966,259.0405 L282.856647,259.082924 L282.912528,259.102953 L282.929647,259.111924 L282.969643,259.126566 L283.036647,259.157924 L283.124804,259.194845 L283.162647,259.213924 L283.185875,259.22339 L283.249647,259.256924 L283.333718,259.29713 L283.371647,259.318924 L283.39826,259.330972 L283.443647,259.357924 L283.538902,259.409834 L283.578647,259.434924 L283.60639,259.449313 L283.691647,259.504924 L283.739987,259.532983 L283.755647,259.544924 L283.809862,259.578412 L283.897647,259.640924 L283.936602,259.666603 L283.960647,259.685924 L284.00827,259.718269 L284.081647,259.775924 L284.128379,259.810718 L284.151647,259.830924 L284.201209,259.868885 L284.267647,259.926924 L284.314947,259.965356 L284.354647,260.001924 L284.388274,260.030258 L284.424647,260.065924 L284.493947,260.128694 L284.542647,260.177924 L284.56906,260.20239 L326.471324,302.104654 C328.423958,304.057288 328.423943,307.223138 326.471292,309.175754 L309.176099,326.470633 C307.223467,328.423229 304.057656,328.423209 302.10505,326.470588 L260.2031,284.568323 C258.153624,282.518832 258.27058,279.161704 260.457715,277.259809 C263.442124,274.664617 266.343176,271.959694 269.149282,269.153588 C271.954531,266.348339 274.659592,263.447228 277.260957,260.456503 L277.296647,260.416924 L277.32586,260.383176 L277.360647,260.346924 L277.424295,260.277502 L277.472647,260.228924 L277.497992,260.20239 L277.530647,260.171924 L277.59425,260.108201 L277.660647,260.047924 L277.678777,260.030258 L277.695647,260.015924 L277.770451,259.948623 L277.844647,259.886924 L277.865842,259.868885 L277.884647,259.853924 L277.952529,259.798796 C278.01416,259.750481 278.076709,259.703796 278.140114,259.658744 L278.220647,259.603924 L278.257189,259.578412 L278.285647,259.560924 L278.332838,259.528494 L278.416647,259.477924 L278.460661,259.449313 L278.485647,259.435924 L278.53033,259.408071 L278.633647,259.351924 L278.668792,259.330972 L278.683647,259.323924 L278.732222,259.297501 L278.831647,259.248924 L278.881176,259.22339 L278.903647,259.213924 L278.938143,259.19681 L279.005647,259.167924 L279.097409,259.126566 C279.170083,259.096084 279.243331,259.067395 279.317085,259.0405 L279.347647,259.029924 L279.360595,259.025167 L279.430647,259.002924 L279.5398,258.965192 L279.560647,258.959924 L279.576387,258.954266 L279.633647,258.938924 L279.765147,258.900643 C279.991677,258.841472 280.221548,258.798439 280.452939,258.771544 L280.454647,258.771924 L280.629647,258.755924 L280.684769,258.750027 L280.723647,258.748924 L280.911791,258.739375 Z M281.231647,271.006924 L281.206108,271.036176 C279.579403,272.797844 277.917255,274.52775 276.22035,276.224655 C274.522847,277.922158 272.7926,279.584613 271.03184,281.210389 L271.007647,281.230924 L305.640647,315.863924 L315.864647,305.639924 L281.231647,271.006924 Z" id="Fill-13" fill="#C0CCDC" fill-rule="nonzero"></path>
                <path d="M289.224024,219.425427 L292.127403,224.525042 C297.042532,233.158181 296.36713,243.846127 290.511656,251.87175 C285.199583,259.152828 279.256423,266.11742 272.68469,272.689153 C266.112957,279.260886 259.148365,285.204361 251.867287,290.516119 C243.841664,296.371593 233.153719,297.046995 224.520265,292.131866 L219.420965,289.228487 C234.167922,282.12058 247.990562,272.454381 260.220397,260.22486 C272.449918,247.995339 282.116117,234.172384 289.224024,219.425427" id="Fill-19" fill="#F8F8F8"></path>
                <path d="M289.255135,214.424354 C289.830497,214.427538 290.41254,214.530532 290.976128,214.742124 L291.054965,214.774427 L291.152111,214.811872 C291.217822,214.839279 291.282984,214.868098 291.347547,214.898314 L291.377965,214.914427 L291.394966,214.921317 L291.437965,214.943427 L291.539387,214.993144 L291.588965,215.020427 L291.598905,215.025325 L291.615965,215.035427 L291.72733,215.096278 L291.772965,215.124427 L291.79606,215.137324 L291.839965,215.165427 L291.911075,215.207635 L291.959965,215.241427 L291.986329,215.257018 L292.014965,215.277427 L292.090322,215.327131 L292.141965,215.365427 L292.169609,215.384114 L292.190965,215.401427 L292.264768,215.454684 L292.304965,215.487427 L292.345796,215.518316 L292.377965,215.545427 L292.434115,215.590211 L292.485965,215.635427 L292.514789,215.659331 L292.548965,215.691427 L292.59806,215.73363 L292.638965,215.774427 L292.676483,215.806863 L292.710965,215.842427 L292.756302,215.884859 L292.798965,215.930427 L292.830776,215.960618 L292.869965,216.004427 L292.908541,216.043814 L292.932965,216.072427 L292.977566,216.120301 L293.019965,216.171427 L293.054476,216.210413 L293.083965,216.248427 L293.116748,216.285619 C293.161863,216.341631 293.205692,216.398532 293.24822,216.456275 L293.302965,216.535427 L293.32623,216.566214 L293.345965,216.596427 L293.371879,216.631976 L293.412965,216.698427 L293.451447,216.75525 L293.467965,216.783427 L293.487623,216.812428 L293.509965,216.853427 L293.569156,216.951599 L296.472537,222.051216 C302.350501,232.37552 301.57881,245.186113 294.550914,254.81868 C289.041056,262.370856 282.920586,269.524325 276.220224,276.224687 C269.519042,282.925869 262.365388,289.046578 254.814284,294.555328 C245.181656,301.583268 232.371096,302.354951 222.046322,296.476933 L216.947021,293.573553 C213.444943,291.579581 213.619757,286.474133 217.250022,284.724376 C231.757379,277.731955 245.058483,268.315407 256.684863,256.689326 C268.310689,245.0635 277.727315,231.762209 284.719913,217.254485 L284.727965,217.238427 L284.79174,217.110065 C284.824738,217.046751 284.859121,216.984086 284.894874,216.922121 L284.921965,216.876427 L284.93592,216.853391 L284.962965,216.809427 L285.006231,216.738376 L285.038965,216.689427 L285.055615,216.663122 L285.074965,216.634427 L285.125727,216.55913 L285.162965,216.507427 L285.18271,216.479842 L285.214965,216.437427 L285.25328,216.384683 L285.284965,216.344427 L285.316913,216.303655 L285.342965,216.271427 L285.388807,216.215336 L285.432965,216.163427 L285.457927,216.134662 L285.488965,216.100427 L285.532226,216.051391 L285.571965,216.010427 L285.605459,215.972968 L285.639965,215.938427 L285.683455,215.893149 L285.727965,215.850427 L285.759214,215.818675 L285.801965,215.779427 L285.84241,215.74091 L285.866965,215.719427 L285.918897,215.671886 L285.986965,215.614427 L286.009009,215.594975 L286.029965,215.578427 L286.084215,215.532703 C286.140227,215.487589 286.197129,215.443759 286.254871,215.401231 L286.332965,215.346427 L286.36481,215.323221 L286.393965,215.303427 L286.430573,215.277572 L286.495965,215.236427 L286.553846,215.198004 L286.580965,215.181427 L286.611024,215.161828 L286.722965,215.096427 L286.750196,215.080295 L286.757965,215.076427 L286.795931,215.054104 L286.911965,214.993427 L286.951637,214.971529 L286.970965,214.962427 L286.985,214.954501 L287.066965,214.916427 L287.155801,214.872883 L287.165965,214.868427 L287.177934,214.863123 L287.261965,214.827427 L287.362388,214.784277 C287.70855,214.64492 288.063551,214.547047 288.421122,214.488939 L288.574965,214.467427 L288.611996,214.462418 L288.616965,214.461427 L288.635923,214.458832 C288.707593,214.450377 288.779315,214.4435 288.85104,214.438185 L288.998965,214.430427 L289.039736,214.427822 L289.050965,214.428427 L289.066171,214.426917 L289.119965,214.426427 L289.255135,214.424354 Z M289.244965,230.190427 L289.042661,230.551524 C282.218866,242.6097 273.748518,253.767806 263.755885,263.760439 C253.762841,273.753226 242.604799,282.223539 230.546861,289.04722 L230.184965,289.249427 L230.3094,289.293455 C236.368456,291.405141 243.173945,290.501276 248.584168,286.717042 L248.920471,286.476778 C256.054059,281.272618 262.814021,275.488754 269.149156,269.153619 C275.483489,262.819286 281.267178,256.059439 286.472447,248.924753 C290.457855,243.462278 291.444666,236.499184 289.289013,230.314111 L289.244965,230.190427 Z" id="Fill-19" fill="#C0CCDC" fill-rule="nonzero"></path>
                <path d="M260.225331,48.7883767 C305.707006,94.2700511 315.761349,161.759961 290.37799,216.974463 C283.178312,232.640394 273.123969,247.321037 260.220303,260.224703 C247.316637,273.128369 232.635994,283.182712 216.969749,290.38239 C161.755561,315.755692 94.2706797,305.706377 48.7890052,260.224703 C-9.59633508,201.839362 -9.59633508,107.178746 48.7890052,48.7934053 C107.179374,-9.59696363 201.839991,-9.59696363 260.225331,48.7883767" id="Fill-27" fill="#F8F8F8"></path>
                <path d="M45.2534713,45.2578714 C105.595658,-15.0843154 203.4221,-15.0859225 263.760865,45.2528428 C309.853721,91.3456987 321.703608,160.804595 294.921174,219.062399 C287.341687,235.554764 276.857691,250.658382 263.755837,263.760237 C250.653881,276.862192 235.55022,287.346161 219.057564,294.92563 C160.795729,321.699457 91.3434037,309.850169 45.2534713,263.760237 C-15.0844904,203.422275 -15.0844904,105.595833 45.2534713,45.2578714 Z M254.986345,50.647837 C198.429937,-4.10388618 108.197165,-3.54368675 52.3245392,52.3289392 C-4.10817972,108.761658 -4.10817972,200.25645 52.3245392,256.689169 C95.4324326,299.797062 160.391662,310.879781 214.881847,285.83919 C230.301533,278.752822 244.424013,268.949924 256.684769,256.689169 C268.945439,244.428499 278.748376,230.306038 285.835059,214.885975 C310.883658,160.399652 299.800423,95.434536 256.689797,52.3239106 L254.986345,50.647837 Z" id="Fill-27" fill="#C0CCDC" fill-rule="nonzero"></path>
                <g id="Group" transform="translate(34.265626, 34.266725)">
                    <g id="Fill-36">
                        <use fill="#D0E7FD" xlink:href="#path-2"></use>
                        <use fill="url(#linearGradient-1)" xlink:href="#path-2"></use>
                    </g>
                    <path d="M35.1470401,35.1472454 C82.010034,-11.7157485 157.989759,-11.7157485 204.852753,35.1472454 C251.715747,82.0102393 251.715747,157.989965 204.852743,204.852969 C157.989751,251.715677 82.0100422,251.715677 35.1470294,204.852948 C-11.7156782,157.989956 -11.7156782,82.0102475 35.1470401,35.1472454 Z M196.484999,40.942468 C153.433642,-0.735141963 84.7462814,-0.309860335 42.2181186,42.2183025 C-0.739374653,85.1760559 -0.739374653,154.824148 42.2180972,197.78188 C85.1758506,240.739373 154.823943,240.739373 197.781685,197.781891 C240.739436,154.82414 240.739436,85.1760642 197.781685,42.2183132 L196.484999,40.942468 Z" id="Fill-36" fill="#C0CCDC" fill-rule="nonzero"></path>
                </g>
            </g>
            <g id="No-data-to-show-Copy" transform="translate(143.000000, 518.000000)" fill="#C0CCDC" fill-rule="nonzero">
                <path d="M7.12,1.6 C7.70666667,1.6 8.2,1.62666667 8.6,1.68 C9,1.73333333 9.36,1.83333333 9.68,1.98 C10,2.12666667 10.3066667,2.33333333 10.6,2.6 C10.8933333,2.86666667 11.2266667,3.22666667 11.6,3.68 L39.28,38.68 C39.1733333,37.56 39.0933333,36.4733333 39.04,35.42 C38.9866667,34.3666667 38.96,33.3733333 38.96,32.44 L38.96,1.6 L50.88,1.6 L50.88,59.88 L43.84,59.88 C42.8,59.88 41.92,59.72 41.2,59.4 C40.48,59.08 39.7866667,58.4933333 39.12,57.64 L11.64,22.92 C11.72,23.9333333 11.7866667,24.9266667 11.84,25.9 C11.8933333,26.8733333 11.92,27.7866667 11.92,28.64 L11.92,59.88 L0,59.88 L0,1.6 L7.12,1.6 Z" id="Path"></path>
                <path d="M78.96,17.76 C82.1066667,17.76 84.9733333,18.2533333 87.56,19.24 C90.1466667,20.2266667 92.3666667,21.64 94.22,23.48 C96.0733333,25.32 97.5133333,27.5533333 98.54,30.18 C99.5666667,32.8066667 100.08,35.76 100.08,39.04 C100.08,42.3466667 99.5666667,45.3266667 98.54,47.98 C97.5133333,50.6333333 96.0733333,52.8866667 94.22,54.74 C92.3666667,56.5933333 90.1466667,58.02 87.56,59.02 C84.9733333,60.02 82.1066667,60.52 78.96,60.52 C75.7866667,60.52 72.9,60.02 70.3,59.02 C67.7,58.02 65.46,56.5933333 63.58,54.74 C61.7,52.8866667 60.2466667,50.6333333 59.22,47.98 C58.1933333,45.3266667 57.68,42.3466667 57.68,39.04 C57.68,35.76 58.1933333,32.8066667 59.22,30.18 C60.2466667,27.5533333 61.7,25.32 63.58,23.48 C65.46,21.64 67.7,20.2266667 70.3,19.24 C72.9,18.2533333 75.7866667,17.76 78.96,17.76 Z M78.96,51.32 C81.8133333,51.32 83.9133333,50.3133333 85.26,48.3 C86.6066667,46.2866667 87.28,43.2266667 87.28,39.12 C87.28,35.0133333 86.6066667,31.96 85.26,29.96 C83.9133333,27.96 81.8133333,26.96 78.96,26.96 C76.0266667,26.96 73.88,27.96 72.52,29.96 C71.16,31.96 70.48,35.0133333 70.48,39.12 C70.48,43.2266667 71.16,46.2866667 72.52,48.3 C73.88,50.3133333 76.0266667,51.32 78.96,51.32 Z" id="Shape"></path>
                <path d="M151.44,59.88 C150.666667,59.88 150.02,59.7066667 149.5,59.36 C148.98,59.0133333 148.613333,58.4933333 148.4,57.8 L147.44,54.64 C146.613333,55.52 145.746667,56.32 144.84,57.04 C143.933333,57.76 142.953333,58.38 141.9,58.9 C140.846667,59.42 139.713333,59.82 138.5,60.1 C137.286667,60.38 135.973333,60.52 134.56,60.52 C132.4,60.52 130.4,60.04 128.56,59.08 C126.72,58.12 125.133333,56.7333333 123.8,54.92 C122.466667,53.1066667 121.42,50.8866667 120.66,48.26 C119.9,45.6333333 119.52,42.64 119.52,39.28 C119.52,36.1866667 119.946667,33.3133333 120.8,30.66 C121.653333,28.0066667 122.86,25.7133333 124.42,23.78 C125.98,21.8466667 127.853333,20.3333333 130.04,19.24 C132.226667,18.1466667 134.64,17.6 137.28,17.6 C139.413333,17.6 141.22,17.9133333 142.7,18.54 C144.18,19.1666667 145.52,19.9866667 146.72,21 L146.72,0 L159.12,0 L159.12,59.88 L151.44,59.88 Z M138.88,51 C139.786667,51 140.606667,50.9133333 141.34,50.74 C142.073333,50.5666667 142.746667,50.32 143.36,50 C143.973333,49.68 144.553333,49.28 145.1,48.8 C145.646667,48.32 146.186667,47.76 146.72,47.12 L146.72,29.52 C145.76,28.48 144.74,27.7533333 143.66,27.34 C142.58,26.9266667 141.44,26.72 140.24,26.72 C139.093333,26.72 138.04,26.9466667 137.08,27.4 C136.12,27.8533333 135.286667,28.58 134.58,29.58 C133.873333,30.58 133.32,31.88 132.92,33.48 C132.52,35.08 132.32,37.0133333 132.32,39.28 C132.32,41.4666667 132.48,43.3066667 132.8,44.8 C133.12,46.2933333 133.566667,47.5 134.14,48.42 C134.713333,49.34 135.4,50 136.2,50.4 C137,50.8 137.893333,51 138.88,51 Z" id="Shape"></path>
                <path d="M197.36,59.88 C196.186667,59.88 195.3,59.72 194.7,59.4 C194.1,59.08 193.6,58.4133333 193.2,57.4 L192.32,55.12 C191.28,56 190.28,56.7733333 189.32,57.44 C188.36,58.1066667 187.366667,58.6733333 186.34,59.14 C185.313333,59.6066667 184.22,59.9533333 183.06,60.18 C181.9,60.4066667 180.613333,60.52 179.2,60.52 C177.306667,60.52 175.586667,60.2733333 174.04,59.78 C172.493333,59.2866667 171.18,58.56 170.1,57.6 C169.02,56.64 168.186667,55.4466667 167.6,54.02 C167.013333,52.5933333 166.72,50.9466667 166.72,49.08 C166.72,47.6133333 167.093333,46.1066667 167.84,44.56 C168.586667,43.0133333 169.88,41.6066667 171.72,40.34 C173.56,39.0733333 176.04,38.0133333 179.16,37.16 C182.28,36.3066667 186.213333,35.8266667 190.96,35.72 L190.96,33.96 C190.96,31.5333333 190.46,29.78 189.46,28.7 C188.46,27.62 187.04,27.08 185.2,27.08 C183.733333,27.08 182.533333,27.24 181.6,27.56 C180.666667,27.88 179.833333,28.24 179.1,28.64 C178.366667,29.04 177.653333,29.4 176.96,29.72 C176.266667,30.04 175.44,30.2 174.48,30.2 C173.626667,30.2 172.9,29.9933333 172.3,29.58 C171.7,29.1666667 171.226667,28.6533333 170.88,28.04 L168.64,24.16 C171.146667,21.9466667 173.926667,20.3 176.98,19.22 C180.033333,18.14 183.306667,17.6 186.8,17.6 C189.306667,17.6 191.566667,18.0066667 193.58,18.82 C195.593333,19.6333333 197.3,20.7666667 198.7,22.22 C200.1,23.6733333 201.173333,25.4 201.92,27.4 C202.666667,29.4 203.04,31.5866667 203.04,33.96 L203.04,59.88 L197.36,59.88 Z M183.12,52.32 C184.72,52.32 186.12,52.04 187.32,51.48 C188.52,50.92 189.733333,50.0133333 190.96,48.76 L190.96,43 C188.48,43.1066667 186.44,43.32 184.84,43.64 C183.24,43.96 181.973333,44.36 181.04,44.84 C180.106667,45.32 179.46,45.8666667 179.1,46.48 C178.74,47.0933333 178.56,47.76 178.56,48.48 C178.56,49.8933333 178.946667,50.8866667 179.72,51.46 C180.493333,52.0333333 181.626667,52.32 183.12,52.32 Z" id="Shape"></path>
                <path d="M226.4,60.52 C224.426667,60.52 222.686667,60.2333333 221.18,59.66 C219.673333,59.0866667 218.406667,58.2733333 217.38,57.22 C216.353333,56.1666667 215.573333,54.8933333 215.04,53.4 C214.506667,51.9066667 214.24,50.24 214.24,48.4 L214.24,26.96 L210.72,26.96 C210.08,26.96 209.533333,26.7533333 209.08,26.34 C208.626667,25.9266667 208.4,25.32 208.4,24.52 L208.4,19.68 L215,18.4 L217.44,8.28 C217.76,7 218.666667,6.36 220.16,6.36 L226.64,6.36 L226.64,18.48 L236.72,18.48 L236.72,26.96 L226.64,26.96 L226.64,47.56 C226.64,48.52 226.873333,49.3133333 227.34,49.94 C227.806667,50.5666667 228.48,50.88 229.36,50.88 C229.813333,50.88 230.193333,50.8333333 230.5,50.74 C230.806667,50.6466667 231.073333,50.54 231.3,50.42 C231.526667,50.3 231.74,50.1933333 231.94,50.1 C232.14,50.0066667 232.373333,49.96 232.64,49.96 C233.013333,49.96 233.313333,50.0466667 233.54,50.22 C233.766667,50.3933333 234,50.6666667 234.24,51.04 L238,56.92 C236.4,58.12 234.6,59.02 232.6,59.62 C230.6,60.22 228.533333,60.52 226.4,60.52 Z" id="Path"></path>
                <path d="M272.48,59.88 C271.306667,59.88 270.42,59.72 269.82,59.4 C269.22,59.08 268.72,58.4133333 268.32,57.4 L267.44,55.12 C266.4,56 265.4,56.7733333 264.44,57.44 C263.48,58.1066667 262.486667,58.6733333 261.46,59.14 C260.433333,59.6066667 259.34,59.9533333 258.18,60.18 C257.02,60.4066667 255.733333,60.52 254.32,60.52 C252.426667,60.52 250.706667,60.2733333 249.16,59.78 C247.613333,59.2866667 246.3,58.56 245.22,57.6 C244.14,56.64 243.306667,55.4466667 242.72,54.02 C242.133333,52.5933333 241.84,50.9466667 241.84,49.08 C241.84,47.6133333 242.213333,46.1066667 242.96,44.56 C243.706667,43.0133333 245,41.6066667 246.84,40.34 C248.68,39.0733333 251.16,38.0133333 254.28,37.16 C257.4,36.3066667 261.333333,35.8266667 266.08,35.72 L266.08,33.96 C266.08,31.5333333 265.58,29.78 264.58,28.7 C263.58,27.62 262.16,27.08 260.32,27.08 C258.853333,27.08 257.653333,27.24 256.72,27.56 C255.786667,27.88 254.953333,28.24 254.22,28.64 C253.486667,29.04 252.773333,29.4 252.08,29.72 C251.386667,30.04 250.56,30.2 249.6,30.2 C248.746667,30.2 248.02,29.9933333 247.42,29.58 C246.82,29.1666667 246.346667,28.6533333 246,28.04 L243.76,24.16 C246.266667,21.9466667 249.046667,20.3 252.1,19.22 C255.153333,18.14 258.426667,17.6 261.92,17.6 C264.426667,17.6 266.686667,18.0066667 268.7,18.82 C270.713333,19.6333333 272.42,20.7666667 273.82,22.22 C275.22,23.6733333 276.293333,25.4 277.04,27.4 C277.786667,29.4 278.16,31.5866667 278.16,33.96 L278.16,59.88 L272.48,59.88 Z M258.24,52.32 C259.84,52.32 261.24,52.04 262.44,51.48 C263.64,50.92 264.853333,50.0133333 266.08,48.76 L266.08,43 C263.6,43.1066667 261.56,43.32 259.96,43.64 C258.36,43.96 257.093333,44.36 256.16,44.84 C255.226667,45.32 254.58,45.8666667 254.22,46.48 C253.86,47.0933333 253.68,47.76 253.68,48.48 C253.68,49.8933333 254.066667,50.8866667 254.84,51.46 C255.613333,52.0333333 256.746667,52.32 258.24,52.32 Z" id="Shape"></path>
                <path d="M316.96,60.52 C314.986667,60.52 313.246667,60.2333333 311.74,59.66 C310.233333,59.0866667 308.966667,58.2733333 307.94,57.22 C306.913333,56.1666667 306.133333,54.8933333 305.6,53.4 C305.066667,51.9066667 304.8,50.24 304.8,48.4 L304.8,26.96 L301.28,26.96 C300.64,26.96 300.093333,26.7533333 299.64,26.34 C299.186667,25.9266667 298.96,25.32 298.96,24.52 L298.96,19.68 L305.56,18.4 L308,8.28 C308.32,7 309.226667,6.36 310.72,6.36 L317.2,6.36 L317.2,18.48 L327.28,18.48 L327.28,26.96 L317.2,26.96 L317.2,47.56 C317.2,48.52 317.433333,49.3133333 317.9,49.94 C318.366667,50.5666667 319.04,50.88 319.92,50.88 C320.373333,50.88 320.753333,50.8333333 321.06,50.74 C321.366667,50.6466667 321.633333,50.54 321.86,50.42 C322.086667,50.3 322.3,50.1933333 322.5,50.1 C322.7,50.0066667 322.933333,49.96 323.2,49.96 C323.573333,49.96 323.873333,50.0466667 324.1,50.22 C324.326667,50.3933333 324.56,50.6666667 324.8,51.04 L328.56,56.92 C326.96,58.12 325.16,59.02 323.16,59.62 C321.16,60.22 319.093333,60.52 316.96,60.52 Z" id="Path"></path>
                <path d="M352.88,17.76 C356.026667,17.76 358.893333,18.2533333 361.48,19.24 C364.066667,20.2266667 366.286667,21.64 368.14,23.48 C369.993333,25.32 371.433333,27.5533333 372.46,30.18 C373.486667,32.8066667 374,35.76 374,39.04 C374,42.3466667 373.486667,45.3266667 372.46,47.98 C371.433333,50.6333333 369.993333,52.8866667 368.14,54.74 C366.286667,56.5933333 364.066667,58.02 361.48,59.02 C358.893333,60.02 356.026667,60.52 352.88,60.52 C349.706667,60.52 346.82,60.02 344.22,59.02 C341.62,58.02 339.38,56.5933333 337.5,54.74 C335.62,52.8866667 334.166667,50.6333333 333.14,47.98 C332.113333,45.3266667 331.6,42.3466667 331.6,39.04 C331.6,35.76 332.113333,32.8066667 333.14,30.18 C334.166667,27.5533333 335.62,25.32 337.5,23.48 C339.38,21.64 341.62,20.2266667 344.22,19.24 C346.82,18.2533333 349.706667,17.76 352.88,17.76 Z M352.88,51.32 C355.733333,51.32 357.833333,50.3133333 359.18,48.3 C360.526667,46.2866667 361.2,43.2266667 361.2,39.12 C361.2,35.0133333 360.526667,31.96 359.18,29.96 C357.833333,27.96 355.733333,26.96 352.88,26.96 C349.946667,26.96 347.8,27.96 346.44,29.96 C345.08,31.96 344.4,35.0133333 344.4,39.12 C344.4,43.2266667 345.08,46.2866667 346.44,48.3 C347.8,50.3133333 349.946667,51.32 352.88,51.32 Z" id="Shape"></path>
                <path d="M421.6,27.48 C421.28,27.9866667 420.94,28.3466667 420.58,28.56 C420.22,28.7733333 419.76,28.88 419.2,28.88 C418.613333,28.88 418.026667,28.7533333 417.44,28.5 C416.853333,28.2466667 416.22,27.9733333 415.54,27.68 C414.86,27.3866667 414.093333,27.1133333 413.24,26.86 C412.386667,26.6066667 411.413333,26.48 410.32,26.48 C408.746667,26.48 407.54,26.78 406.7,27.38 C405.86,27.98 405.44,28.8133333 405.44,29.88 C405.44,30.6533333 405.713333,31.2933333 406.26,31.8 C406.806667,32.3066667 407.533333,32.7533333 408.44,33.14 C409.346667,33.5266667 410.373333,33.8933333 411.52,34.24 C412.666667,34.5866667 413.84,34.9733333 415.04,35.4 C416.24,35.8266667 417.413333,36.3266667 418.56,36.9 C419.706667,37.4733333 420.733333,38.18 421.64,39.02 C422.546667,39.86 423.273333,40.88 423.82,42.08 C424.366667,43.28 424.64,44.72 424.64,46.4 C424.64,48.4533333 424.266667,50.3466667 423.52,52.08 C422.773333,53.8133333 421.66,55.3066667 420.18,56.56 C418.7,57.8133333 416.873333,58.7866667 414.7,59.48 C412.526667,60.1733333 410.026667,60.52 407.2,60.52 C405.786667,60.52 404.373333,60.3866667 402.96,60.12 C401.546667,59.8533333 400.18,59.4933333 398.86,59.04 C397.54,58.5866667 396.32,58.0466667 395.2,57.42 C394.08,56.7933333 393.12,56.12 392.32,55.4 L395.2,50.84 C395.546667,50.3066667 395.96,49.8866667 396.44,49.58 C396.92,49.2733333 397.546667,49.12 398.32,49.12 C399.04,49.12 399.686667,49.28 400.26,49.6 C400.833333,49.92 401.453333,50.2666667 402.12,50.64 C402.786667,51.0133333 403.566667,51.36 404.46,51.68 C405.353333,52 406.48,52.16 407.84,52.16 C408.8,52.16 409.613333,52.06 410.28,51.86 C410.946667,51.66 411.48,51.3866667 411.88,51.04 C412.28,50.6933333 412.573333,50.3066667 412.76,49.88 C412.946667,49.4533333 413.04,49.0133333 413.04,48.56 C413.04,47.7333333 412.76,47.0533333 412.2,46.52 C411.64,45.9866667 410.906667,45.5266667 410,45.14 C409.093333,44.7533333 408.06,44.3933333 406.9,44.06 C405.74,43.7266667 404.56,43.3466667 403.36,42.92 C402.16,42.4933333 400.98,41.98 399.82,41.38 C398.66,40.78 397.626667,40.02 396.72,39.1 C395.813333,38.18 395.08,37.0533333 394.52,35.72 C393.96,34.3866667 393.68,32.7733333 393.68,30.88 C393.68,29.12 394.02,27.4466667 394.7,25.86 C395.38,24.2733333 396.4,22.88 397.76,21.68 C399.12,20.48 400.826667,19.5266667 402.88,18.82 C404.933333,18.1133333 407.333333,17.76 410.08,17.76 C411.573333,17.76 413.02,17.8933333 414.42,18.16 C415.82,18.4266667 417.133333,18.8 418.36,19.28 C419.586667,19.76 420.706667,20.3266667 421.72,20.98 C422.733333,21.6333333 423.626667,22.3466667 424.4,23.12 L421.6,27.48 Z" id="Path"></path>
                <path d="M431.44,59.88 L431.44,0 L443.84,0 L443.84,22.04 C445.333333,20.76 446.953333,19.7266667 448.7,18.94 C450.446667,18.1533333 452.533333,17.76 454.96,17.76 C457.226667,17.76 459.233333,18.1533333 460.98,18.94 C462.726667,19.7266667 464.2,20.82 465.4,22.22 C466.6,23.62 467.506667,25.2866667 468.12,27.22 C468.733333,29.1533333 469.04,31.2533333 469.04,33.52 L469.04,59.88 L456.64,59.88 L456.64,33.52 C456.64,31.4933333 456.173333,29.9133333 455.24,28.78 C454.306667,27.6466667 452.933333,27.08 451.12,27.08 C449.76,27.08 448.48,27.3733333 447.28,27.96 C446.08,28.5466667 444.933333,29.3333333 443.84,30.32 L443.84,59.88 L431.44,59.88 Z" id="Path"></path>
                <path d="M496.32,17.76 C499.466667,17.76 502.333333,18.2533333 504.92,19.24 C507.506667,20.2266667 509.726667,21.64 511.58,23.48 C513.433333,25.32 514.873333,27.5533333 515.9,30.18 C516.926667,32.8066667 517.44,35.76 517.44,39.04 C517.44,42.3466667 516.926667,45.3266667 515.9,47.98 C514.873333,50.6333333 513.433333,52.8866667 511.58,54.74 C509.726667,56.5933333 507.506667,58.02 504.92,59.02 C502.333333,60.02 499.466667,60.52 496.32,60.52 C493.146667,60.52 490.26,60.02 487.66,59.02 C485.06,58.02 482.82,56.5933333 480.94,54.74 C479.06,52.8866667 477.606667,50.6333333 476.58,47.98 C475.553333,45.3266667 475.04,42.3466667 475.04,39.04 C475.04,35.76 475.553333,32.8066667 476.58,30.18 C477.606667,27.5533333 479.06,25.32 480.94,23.48 C482.82,21.64 485.06,20.2266667 487.66,19.24 C490.26,18.2533333 493.146667,17.76 496.32,17.76 Z M496.32,51.32 C499.173333,51.32 501.273333,50.3133333 502.62,48.3 C503.966667,46.2866667 504.64,43.2266667 504.64,39.12 C504.64,35.0133333 503.966667,31.96 502.62,29.96 C501.273333,27.96 499.173333,26.96 496.32,26.96 C493.386667,26.96 491.24,27.96 489.88,29.96 C488.52,31.96 487.84,35.0133333 487.84,39.12 C487.84,43.2266667 488.52,46.2866667 489.88,48.3 C491.24,50.3133333 493.386667,51.32 496.32,51.32 Z" id="Shape"></path>
                <path d="M519.44,18.4 L529.36,18.4 C530.24,18.4 531,18.6 531.64,19 C532.28,19.4 532.666667,19.92 532.8,20.56 L536.96,39.16 C537.28,40.5733333 537.573333,41.9466667 537.84,43.28 C538.106667,44.6133333 538.346667,45.9333333 538.56,47.24 C538.933333,45.9333333 539.326667,44.62 539.74,43.3 C540.153333,41.98 540.56,40.6 540.96,39.16 L546.16,20.52 C546.32,19.9066667 546.706667,19.3933333 547.32,18.98 C547.933333,18.5666667 548.64,18.36 549.44,18.36 L554.96,18.36 C555.84,18.36 556.593333,18.5666667 557.22,18.98 C557.846667,19.3933333 558.24,19.9066667 558.4,20.52 L563.36,39.16 C563.733333,40.5733333 564.113333,41.9466667 564.5,43.28 C564.886667,44.6133333 565.253333,45.96 565.6,47.32 C565.813333,45.9866667 566.073333,44.66 566.38,43.34 C566.686667,42.02 567.013333,40.6266667 567.36,39.16 L571.76,20.56 C571.893333,19.92 572.273333,19.4 572.9,19 C573.526667,18.6 574.24,18.4 575.04,18.4 L584.48,18.4 L571.6,59.88 L561.52,59.88 C560.986667,59.88 560.533333,59.72 560.16,59.4 C559.786667,59.08 559.493333,58.5466667 559.28,57.8 L553.36,37.12 C553.093333,36.1866667 552.84,35.2666667 552.6,34.36 C552.36,33.4533333 552.146667,32.5466667 551.96,31.64 C551.773333,32.5733333 551.566667,33.5 551.34,34.42 C551.113333,35.34 550.853333,36.2666667 550.56,37.2 L544.56,57.8 C544.16,59.1866667 543.28,59.88 541.92,59.88 L532.32,59.88 L519.44,18.4 Z" id="Path"></path>
            </g>
        </g>
    </g>
</svg>