<?xml version="1.0" encoding="UTF-8"?>
<svg width="20px" height="20px" viewBox="0 0 20 20" version="1.1" xmlns="http://www.w3.org/2000/svg" xmlns:xlink="http://www.w3.org/1999/xlink">
    <title>normalizar extremos</title>
    <g id="normalizar-extremos" stroke="none" stroke-width="1" fill="none" fill-rule="evenodd">
        <g id="Group" transform="translate(0, -0)" fill="#3F3F3F">
            <path d="M10,1 C10.5522847,1 11,0.55228475 11,0 C11,-0.55228475 10.5522847,-1 10,-1 C9.44771525,-1 9,-0.55228475 9,0 C9,0.55228475 9.44771525,1 10,1 Z M10,-2 C10.5522847,-2 11,-2.44771525 11,-3 C11,-3.55228475 10.5522847,-4 10,-4 C9.44771525,-4 9,-3.55228475 9,-3 C9,-2.44771525 9.44771525,-2 10,-2 Z M10,4 C10.5522847,4 11,3.55228475 11,3 C11,2.44771525 10.5522847,2 10,2 C9.44771525,2 9,2.44771525 9,3 C9,3.55228475 9.44771525,4 10,4 Z M10,5 C10.5522847,5 11,5.44771525 11,6 C11,6.18260372 10.9510565,6.35377607 10.8655723,6.5011143 C10.9512743,6.64698644 11,6.81780297 11,7 C11,7.55228475 10.5522847,8 10,8 C9.44771525,8 9,7.55228475 9,7 C9,6.81780297 9.04872573,6.64698644 9.13385712,6.4998705 C9.0489435,6.35377607 9,6.18260372 9,6 C9,5.44771525 9.44771525,5 10,5 Z M10,11 C10.5522847,11 11,10.5522847 11,10 C11,9.44771525 10.5522847,9 10,9 C9.44771525,9 9,9.44771525 9,10 C9,10.5522847 9.44771525,11 10,11 Z M10,15 C10.5522847,15 11,15.4477153 11,16 L9,16 L9.00672773,15.8833789 C9.06449284,15.3860402 9.48716416,15 10,15 Z" id="Oval-2" transform="translate(10, 6) rotate(90) translate(-10, -6)"></path>
            <path d="M10,9.00004336 C10.5522847,9.00004336 11,8.55232811 11,8.00004336 C11,7.44775861 10.5522847,7.00004336 10,7.00004336 C9.44771525,7.00004336 9,7.44775861 9,8.00004336 C9,8.55232811 9.44771525,9.00004336 10,9.00004336 Z M10,6.00004336 C10.5522847,6.00004336 11,5.55232811 11,5.00004336 C11,4.44775861 10.5522847,4.00004336 10,4.00004336 C9.44771525,4.00004336 9,4.44775861 9,5.00004336 C9,5.55232811 9.44771525,6.00004336 10,6.00004336 Z M10,12.0000434 C10.5522847,12.0000434 11,11.5523281 11,11.0000434 C11,10.4477586 10.5522847,10.0000434 10,10.0000434 C9.44771525,10.0000434 9,10.4477586 9,11.0000434 C9,11.5523281 9.44771525,12.0000434 10,12.0000434 Z M10,13.0000434 C10.5522847,13.0000434 11,13.4477586 11,14.0000434 C11,14.1826471 10.9510565,14.3538194 10.8655723,14.5011577 C10.9512743,14.6470298 11,14.8178463 11,15.0000434 C11,15.5523281 10.5522847,16.0000434 10,16.0000434 C9.44771525,16.0000434 9,15.5523281 9,15.0000434 C9,14.8178463 9.04872573,14.6470298 9.13385712,14.4999139 C9.0489435,14.3538194 9,14.1826471 9,14.0000434 C9,13.4477586 9.44771525,13.0000434 10,13.0000434 Z M10,19.0000434 C10.5522847,19.0000434 11,18.5523281 11,18.0000434 C11,17.4477586 10.5522847,17.0000434 10,17.0000434 C9.44771525,17.0000434 9,17.4477586 9,18.0000434 C9,18.5523281 9.44771525,19.0000434 10,19.0000434 Z M10,23.0000434 C10.5522847,23.0000434 11,23.4477586 11,24.0000434 L9,24.0000434 L9.00672773,23.8834222 C9.06449284,23.3860835 9.48716416,23.0000434 10,23.0000434 Z" id="Oval-2" transform="translate(10, 14) scale(-1, 1) rotate(90) translate(-10, -14)"></path>
            <path d="M11,5.00004336 L11,15.0000434 L9,15.0000434 L9,5.00004336 L11,5.00004336 Z M19,9.00004336 C19.5522847,9.00004336 20,9.44775861 20,10.0000434 C20,10.5523281 19.5522847,11.0000434 19,11.0000434 C18.4477153,11.0000434 18,11.4477586 18,12.0000434 L18,15.0000434 L16,15.0000434 L16,12.0000434 C16,10.3431891 17.3431458,9.00004336 19,9.00004336 Z M4,5.00004336 L4,8.00004336 C4,9.6568976 2.65685425,11.0000434 1,11.0000434 C0.44771525,11.0000434 0,10.5523281 0,10.0000434 C0,9.44775861 0.44771525,9.00004336 1,9.00004336 C1.55228475,9.00004336 2,8.55232811 2,8.00004336 L2,5.00004336 L4,5.00004336 Z" id="Path-95" fill-rule="nonzero"></path>
            <path d="M18,13.0000434 L18,15.5000434 C18,17.9853247 15.9852814,20.0000434 13.5,20.0000434 C11.0147186,20.0000434 9,17.9853247 9,15.5000434 L9,13.0000434 L11,13.0000434 L11,15.5000434 C11,16.8807552 12.1192881,18.0000434 13.5,18.0000434 C14.8807119,18.0000434 16,16.8807552 16,15.5000434 L16,13.0000434 L18,13.0000434 Z M6.5,4.3355222e-05 C8.98528137,4.3355222e-05 11,2.01476198 11,4.50004336 L11,7.00004336 L9,7.00004336 L9,4.50004336 C9,3.11933148 7.88071187,2.00004336 6.5,2.00004336 C5.11928813,2.00004336 4,3.11933148 4,4.50004336 L4,7.00004336 L2,7.00004336 L2,4.50004336 C2,2.01476198 4.01471863,4.3355222e-05 6.5,4.3355222e-05 Z" id="Path-95" fill-rule="nonzero" opacity="0.4"></path>
        </g>
    </g>
</svg>