<?xml version="1.0" encoding="UTF-8"?>
<svg  viewBox="0 0 20 20" version="1.1" xmlns="http://www.w3.org/2000/svg" xmlns:xlink="http://www.w3.org/1999/xlink">
    <!-- Generator: Sketch 61.2 (89653) - https://sketch.com -->
    <title>Dark / 20 / odometro@svg</title>
    <desc>Created with Sketch.</desc>
    <g id="Dark-/-20-/-odometro" stroke="none" stroke-width="1" fill="none" fill-rule="evenodd">
        <g id="Group" transform="translate(0.000000, 1.000000)">
            <path d="M1.79574743,4.28093722 L3.9652182,6.45077613 C3.35185974,7.49142883 3,8.70462379 3,10 C3,11.0600686 3.2356382,12.065101 3.65739293,12.9655754 L0.447126776,12.9657945 C0.156518866,12.0287065 -2.27373675e-13,11.0326317 -2.27373675e-13,10 C-2.27373675e-13,7.87327067 0.663896267,5.90160262 1.79574743,4.28093722 Z M18.2042526,4.28093722 C19.3361037,5.90160262 20,7.87327067 20,10 C20,11.0326317 19.8434811,12.0287065 19.5528732,12.9657945 L16.3426071,12.9655754 C16.7643618,12.065101 17,11.0600686 17,10 C17,8.70462379 16.6481403,7.49142883 16.0347818,6.45077613 Z M10,0 C12.6740071,0 15.10288,1.04954463 16.8971458,2.75916107 L14.775034,4.88146333 C13.5244157,3.71427084 11.8456213,3 10,3 C8.15437873,3 6.47558435,3.71427084 5.22496605,4.88146333 L3.10285425,2.75916107 C4.89712,1.04954463 7.32599286,0 10,0 Z" id="Oval" fill="#3F3F3F" fill-rule="nonzero"></path>
            <g id="Group-2" transform="translate(8.000000, 8.414214)">
                <circle id="Oval" fill="#3F3F3F" cx="2" cy="7" r="2"></circle>
                <line x1="2" y1="7" x2="2" y2="0" id="Path-8" stroke="#3F3F3F" stroke-width="2" stroke-linecap="round" stroke-linejoin="round"></line>
            </g>
        </g>
    </g>
</svg>