<?xml version="1.0" encoding="UTF-8"?>
<svg width="30px" height="29.9745831px" viewBox="0 0 30 29.9745831" version="1.1" xmlns="http://www.w3.org/2000/svg" xmlns:xlink="http://www.w3.org/1999/xlink">
    <title>1823C61D-1174-471F-8BAD-A0B8CB687967</title>
    <g id="Consola-mobile" stroke="none" stroke-width="1" fill="none" fill-rule="evenodd">
        <g id="0a-Menu" transform="translate(-35.000000, -340.000000)" fill="#3F3F3F">
            <g id="Conmutador" transform="translate(20.000000, 122.000000)">
                <g id="Elemento" transform="translate(0.000000, 218.000000)">
                    <g id="Mobile-alerts" transform="translate(15.000000, 0.000000)">
                        <path d="M30,8.06630471 L30,21.8828616 C30,27.5818923 23.1075582,29.9745831 15,29.9745831 C6.89244177,29.9745831 0,27.5818923 0,21.8828616 L0,8.06630471 C0,2.70512527 6.09946568,0.269891039 13.5720913,-5.84185478e-14 L13.5723301,2.21012161 C10.2928858,2.85573699 7.86075776,5.48727545 7.86075776,8.77458315 C7.86075776,12.6347599 6.57700299,14.1031078 5.68751656,14.9986099 L5.45596532,15.2300015 C5.43160371,15.2544373 5.40774422,15.2784989 5.38443355,15.302237 C5.11657804,15.5751216 4.99782876,15.9013139 4.99997078,16.220737 C5.00497158,16.9145831 5.57952165,17.5745831 6.43308788,17.5745831 L23.5669121,17.5745831 C24.4204784,17.5745831 24.9954749,16.9145831 25.0000292,16.220737 C25.0021712,15.9013139 24.883422,15.5746985 24.6155664,15.302237 L24.5440347,15.2300015 L24.3124834,14.9986099 C23.422997,14.1031078 22.1392422,12.6347599 22.1392422,8.77458315 C22.1392422,5.48727545 19.7071142,2.85573699 16.4276699,2.21012161 L16.4279087,-5.84185478e-14 C23.9005343,0.269891039 30,2.70512527 30,8.06630471 Z M17.8557862,18.6745831 L12.1442138,18.6745831 C12.1442138,20.4973175 13.4232239,21.9745831 15,21.9745831 C16.5767761,21.9745831 17.8557862,20.4973175 17.8557862,18.6745831 Z" id="Mask"></path>
                    </g>
                </g>
            </g>
        </g>
    </g>
</svg>