<?xml version="1.0" encoding="UTF-8"?>
<svg width="30px" height="29.853037px" viewBox="0 0 30 29.853037" version="1.1" xmlns="http://www.w3.org/2000/svg" xmlns:xlink="http://www.w3.org/1999/xlink">
    <title>DD299FDE-0DC6-4356-92DC-926BFF90D985</title>
    <g id="Consola-mobile" stroke="none" stroke-width="1" fill="none" fill-rule="evenodd">
        <g id="0a-Menu" transform="translate(-35.000000, -184.146963)" fill="#3F3F3F">
            <g id="Conmutador" transform="translate(20.000000, 122.000000)">
                <g id="Elemento" transform="translate(0.000000, 62.000000)">
                    <g id="Content" transform="translate(15.000000, 0.000000)">
                        <g id="Mobile-events" transform="translate(0.000000, 0.146963)">
                            <path d="M30,7.94475857 L30,21.7613154 C30,27.4603462 23.1075582,29.853037 15,29.853037 C6.89244177,29.853037 0,27.4603462 0,21.7613154 L0,7.94475857 C0,3.76611131 3.70546339,1.364994 8.8784529,0.381256498 L7.01052877,12.078037 C6.91552985,12.753037 7.47552349,13.353037 8.20051525,13.353037 L14.1354478,13.353037 L11.830474,22.4702245 C11.650476,23.1827245 12.2304694,23.853037 12.9954608,23.853037 C13.415456,23.853037 13.8154514,23.646787 14.0354489,23.290537 L22.8353489,9.04053701 C23.3003436,8.29522451 22.7253502,7.35303701 21.8003607,7.35303701 L16.0304263,7.35303701 L18.3597639,-1.98591144e-13 C24.9238182,0.598158755 30,3.05392333 30,7.94475857 Z" id="Mask"></path>
                        </g>
                    </g>
                </g>
            </g>
        </g>
    </g>
</svg>