<?xml version="1.0" encoding="UTF-8"?>
<svg width="30px" height="30px" viewBox="0 0 30 30" version="1.1" xmlns="http://www.w3.org/2000/svg" xmlns:xlink="http://www.w3.org/1999/xlink">
    <title>2CF74761-33EB-44F4-9088-CC2767F8DD95</title>
    <g id="Consola-mobile" stroke="none" stroke-width="1" fill="none" fill-rule="evenodd">
        <g id="0a-Menu" transform="translate(-35.000000, -132.000000)" fill="#3F3F3F">
            <g id="Conmutador" transform="translate(20.000000, 122.000000)">
                <g id="Elemento" transform="translate(0.000000, 10.000000)">
                    <g id="Mobile-tactical-view" transform="translate(15.000000, 0.000000)">
                        <path d="M0,21.9082784 L0,8.09172156 C0,2.39269081 6.89244177,0 15,0 C23.1075582,0 30,2.39269081 30,8.09172156 L30,21.9082784 C30,27.6073092 23.1075582,30 15,30 C6.89244177,30 0,27.6073092 0,21.9082784 Z M13.9998991,5 L14.0002435,11.0765696 C12.2748927,11.5205277 11,13.0866876 11,14.9506147 C11,17.1597537 12.790861,18.9506147 15,18.9506147 C16.8638701,18.9506147 18.4299912,17.6758 18.8740044,15.9505296 L24.9506147,15.9507157 C24.4488436,21.00399 20.1853136,24.9506147 15,24.9506147 C9.4771525,24.9506147 5,20.4734622 5,14.9506147 C5,9.76530116 8.94662476,5.50177118 13.9998991,5 Z M16.0010997,5.00009923 C20.7249658,5.46963832 24.481539,9.22651135 24.9506147,13.9505138 L18.8737865,13.9498534 C18.51187,12.5448616 17.4057531,11.4387448 16.0007613,11.0768283 Z" id="Mask"></path>
                    </g>
                </g>
            </g>
        </g>
    </g>
</svg>