<?xml version="1.0" encoding="UTF-8"?>
<svg width="20px" height="20px" viewBox="0 0 20 20" version="1.1" xmlns="http://www.w3.org/2000/svg" xmlns:xlink="http://www.w3.org/1999/xlink">
    <title>os@svg</title>
    <g id="os" stroke="none" stroke-width="1" fill="none" fill-rule="evenodd">
        <path d="M10,0 C15.5228475,0 20,4.4771525 20,10 C20,15.5228475 15.5228475,20 10,20 C4.4771525,20 0,15.5228475 0,10 C0,4.4771525 4.4771525,0 10,0 Z M6.15259698,6 C4.79331529,6 3.76139537,6.31928651 3.05683722,6.95785953 C2.35227907,7.59643255 2,8.60958751 2,9.99732441 C2,11.3850613 2.35227907,12.3991081 3.05683722,13.0394649 C3.76139537,13.6798216 4.79331529,14 6.15259698,14 C7.51187868,14 8.54208016,13.6807135 9.24320144,13.0421405 C9.94775959,12.4 10.3000387,11.3850613 10.3000387,9.99732441 C10.3000387,8.60958751 9.94861881,7.59643255 9.2457791,6.95785953 C8.54293938,6.31928651 7.51187868,6 6.15259698,6 Z M13.7468746,6.11772575 C12.5474073,6.11772575 11.7019375,6.31125975 11.2104653,6.69832776 C10.718993,7.08539576 10.4732569,7.63745819 10.4732569,8.35451505 C10.4732569,8.74336678 10.5755037,9.08138239 10.7799974,9.36856187 C10.9844911,9.65574136 11.2517077,9.88138239 11.5816471,10.0454849 C11.9115865,10.2095875 12.273317,10.3522854 12.6668385,10.4735786 C13.06036,10.5948718 13.4564592,10.6956522 13.855136,10.7759197 C14.2538128,10.8561873 14.6181209,10.9373467 14.9480603,11.019398 C15.6869872,11.1977703 16.0564506,11.4421405 16.0564506,11.7525084 C16.0564506,12.1627648 15.7540061,12.367893 15.1491172,12.367893 L13.3447609,12.3304348 C12.7811144,12.3304348 12.4185247,12.1556299 12.2569919,11.8060201 C12.095459,11.4564103 11.8600335,11.2816054 11.5507153,11.2816054 L10.9372342,11.2816054 C10.8238175,11.2816054 10.706964,11.3270903 10.5866735,11.4180602 C10.4663831,11.5090301 10.4062379,11.6597547 10.4062379,11.8702341 C10.4062379,12.4338907 10.6897796,12.9039019 11.256863,13.2802676 C11.8239464,13.6566332 12.4597672,13.8448161 13.1643253,13.8448161 L14.7263823,13.8769231 C15.9224127,13.8769231 16.7670232,13.6833891 17.2602139,13.2963211 C17.7534046,12.9092531 18,12.3571906 18,11.6401338 C18,11.1157191 17.8083946,10.6778149 17.4251837,10.3264214 C17.0419728,9.97502787 16.5754178,9.72263099 16.0255188,9.56923077 C15.4756197,9.41583055 14.9282983,9.28472687 14.3835546,9.17591973 C13.8388108,9.0671126 13.3748335,8.94136009 12.9916226,8.79866221 C12.6084117,8.65596433 12.4168063,8.4722408 12.4168063,8.24749164 C12.4168063,7.83723523 12.7192508,7.63210702 13.3241397,7.63210702 L14.8758861,7.66421405 C15.4395326,7.66421405 15.8021223,7.83991081 15.9636551,8.19130435 C16.125188,8.54269788 16.3606135,8.71839465 16.6699317,8.71839465 L17.2834128,8.71839465 C17.3933926,8.71839465 17.5085277,8.67201784 17.6288181,8.57926421 C17.7491086,8.48651059 17.8092538,8.33489409 17.8092538,8.12441472 C17.8092538,7.56075808 17.5265713,7.09074693 16.9612063,6.71438127 C16.3958414,6.33801561 15.7608798,6.14983278 15.0563217,6.14983278 Z M6.15259698,7.44481605 C6.92761095,7.44481605 7.48867981,7.65886288 7.83580358,8.08695652 C8.18292735,8.51505017 8.35648924,9.15273133 8.35648924,10 C8.35648924,10.8472687 8.18292735,11.484058 7.83580358,11.9103679 C7.48867981,12.3366778 6.92761095,12.5498328 6.15259698,12.5498328 C5.37758302,12.5498328 4.81565494,12.3366778 4.46681273,11.9103679 C4.11797053,11.484058 3.94354943,10.8472687 3.94354943,10 C3.94354943,9.15273133 4.11797053,8.51505017 4.46681273,8.08695652 C4.81565494,7.65886288 5.37758302,7.44481605 6.15259698,7.44481605 Z" id="Oval-2" fill="#3F3F3F"></path>
    </g>
</svg>