<?xml version="1.0" encoding="UTF-8"?>
<svg width="20px" height="20px" viewBox="0 0 20 20" version="1.1" xmlns="http://www.w3.org/2000/svg" xmlns:xlink="http://www.w3.org/1999/xlink">
    <title>os version@svg</title>
    <g id="os-version" stroke="none" stroke-width="1" fill="none" fill-rule="evenodd">
        <path d="M10,5 C12.7614237,5 15,7.23857625 15,10 C15,12.7614237 12.7614237,15 10,15 C7.23857625,15 5,12.7614237 5,10 C5,7.23857625 7.23857625,5 10,5 Z M8.00124224,8 C7.34616977,8 6.84886128,8.15964326 6.50931677,8.47892977 C6.16977226,8.79821628 6,9.30479376 6,9.99866221 C6,10.6925307 6.16977226,11.1995541 6.50931677,11.5197324 C6.84886128,11.8399108 7.34616977,12 8.00124224,12 C8.6563147,12 9.15279503,11.8403567 9.49068323,11.5210702 C9.83022774,11.2 10,10.6925307 10,9.99866221 C10,9.30479376 9.83064182,8.79821628 9.49192547,8.47892977 C9.15320911,8.15964326 8.6563147,8 8.00124224,8 Z M11.7596741,8 C11.127857,8 10.6825074,8.09977011 10.4236253,8.29931034 C10.1647432,8.49885057 10.0353021,8.78344828 10.0353021,9.15310345 C10.0353021,9.35356322 10.0891604,9.52781609 10.1968771,9.67586207 C10.3045938,9.82390805 10.4453496,9.94022989 10.6191446,10.0248276 C10.7929396,10.1094253 10.9834804,10.1829885 11.1907671,10.2455172 C11.3980539,10.308046 11.6066983,10.36 11.8167006,10.4013793 C12.0267029,10.4427586 12.2186015,10.4845977 12.3923965,10.5268966 C12.7816248,10.6188506 12.976239,10.7448276 12.976239,10.9048276 C12.976239,11.1163218 12.8169269,11.222069 12.4983028,11.222069 L11.5478615,11.2027586 C11.2509618,11.2027586 11.0599683,11.1126437 10.9748812,10.9324138 C10.8897941,10.7521839 10.7657841,10.662069 10.6028513,10.662069 L10.2797013,10.662069 C10.2199593,10.662069 10.1584069,10.6855172 10.0950441,10.7324138 C10.0316814,10.7793103 10,10.8570115 10,10.9655172 C10,11.256092 10.1493551,11.4983908 10.4480652,11.6924138 C10.7467753,11.8864368 11.0816927,11.9834483 11.4528174,11.9834483 L12.275628,12 C12.9056348,12 13.3505318,11.9002299 13.6103191,11.7006897 C13.8701064,11.5011494 14,11.2165517 14,10.8468966 C14,10.5765517 13.8990722,10.3508046 13.6972166,10.1696552 C13.4953609,9.98850575 13.249604,9.8583908 12.9599457,9.77931034 C12.6702874,9.70022989 12.3819869,9.63264368 12.0950441,9.57655172 C11.8081014,9.52045977 11.5637022,9.45563218 11.3618466,9.38206897 C11.1599909,9.30850575 11.0590631,9.2137931 11.0590631,9.09793103 C11.0590631,8.88643678 11.2183752,8.78068966 11.5369993,8.78068966 L12.3543788,8.79724138 C12.6512786,8.79724138 12.842272,8.88781609 12.9273591,9.06896552 C13.0124463,9.25011494 13.1364562,9.34068966 13.299389,9.34068966 L13.622539,9.34068966 C13.6804707,9.34068966 13.7411179,9.31678161 13.8044807,9.26896552 C13.8678434,9.22114943 13.8995248,9.14298851 13.8995248,9.03448276 C13.8995248,8.74390805 13.7506223,8.5016092 13.4528174,8.30758621 C13.1550124,8.11356322 12.8205476,8.01655172 12.4494229,8.01655172 Z M8.00124224,8.72240803 C8.3747412,8.72240803 8.64513458,8.82943144 8.81242236,9.04347826 C8.97971014,9.25752508 9.06335404,9.57636566 9.06335404,10 C9.06335404,10.4236343 8.97971014,10.742029 8.81242236,10.9551839 C8.64513458,11.1683389 8.3747412,11.2749164 8.00124224,11.2749164 C7.62774327,11.2749164 7.35693582,11.1683389 7.18881988,10.9551839 C7.02070393,10.742029 6.93664596,10.4236343 6.93664596,10 C6.93664596,9.57636566 7.02070393,9.25752508 7.18881988,9.04347826 C7.35693582,8.82943144 7.62774327,8.72240803 8.00124224,8.72240803 Z" id="Oval-2" fill="#3F3F3F"></path>
        <g id="Group" transform="translate(10, 0.9972)" fill="#3F3F3F" fill-rule="nonzero">
            <path d="M0.239098823,-0.999498516 C0.367920916,-1.0006481 0.46086938,-1.00001443 0.545625818,-0.996148978 C5.85594931,-0.753608542 10,3.63723482 10,9.00280962 C10,11.7312591 8.9006895,14.287461 6.98753217,16.1564431 C5.94922318,17.1707773 5.2256829,17.9806061 4.82608058,18.5663616 C4.51483939,19.0225933 3.89267968,19.1401314 3.43644798,18.8288902 C2.98021627,18.517649 2.86267824,17.8954893 3.17391942,17.4392576 C3.66277305,16.7226734 4.46505413,15.8247132 5.5899319,14.7258091 C7.12171888,13.2293915 8,11.1871442 8,9.00280962 C8,4.70099732 4.69132984,1.19528432 0.454374182,1.00176822 C0.441581214,1.00118392 0.425875842,1.0007459 0.407122626,1.00045278 L0.204431552,1.00096401 L0.173047576,1.00133321 C0.143860257,1.00169127 0.124402045,1.00192997 0.10826377,1.00210401 L0,1.00280962 C-0.55228475,1.00280962 -1,0.555094372 -1,0.00280962244 C-1,-0.549475127 -0.55228475,-0.997190378 0,-0.997190378 L0.0986592653,-0.99792167 L0.14911528,-0.998523592 C0.192941176,-0.999044088 0.192941176,-0.999044088 0.239098823,-0.999498516 Z" id="Oval"></path>
            <path d="M4,14.0028096 C4.55228475,14.0028096 5,14.4505249 5,15.0028096 L5,17.0028096 L7,17.0028096 C7.51283584,17.0028096 7.93550716,17.3888498 7.99327227,17.8861885 L8,18.0028096 C8,18.5550944 7.55228475,19.0028096 7,19.0028096 L4,19.0028096 C3.44771525,19.0028096 3,18.5550944 3,18.0028096 L3,15.0028096 C3,14.4505249 3.44771525,14.0028096 4,14.0028096 Z" id="Path-87"></path>
        </g>
        <g id="Group" transform="translate(5.5, 9.9986) scale(-1, -1) translate(-5.5, -9.9986)translate(1, 0.9972)" fill="#3F3F3F" fill-rule="nonzero">
            <path d="M5.93830089,14.3635692 C6.30852501,13.9537491 6.94087583,13.9216502 7.35069596,14.2918743 C7.7605161,14.6620984 7.79261501,15.2944492 7.42239089,15.7042693 C7.28217928,15.8594768 7.13715,16.01028 6.98753217,16.1564431 C5.94922318,17.1707773 5.2256829,17.9806061 4.82608058,18.5663616 C4.51483939,19.0225933 3.89267968,19.1401314 3.43644798,18.8288902 C2.98021627,18.517649 2.86267824,17.8954893 3.17391942,17.4392576 C3.66277305,16.7226734 4.46505413,15.8247132 5.5899319,14.7258091 C5.7097935,14.6087152 5.82597871,14.4879044 5.93830089,14.3635692 Z M8.943119,7.56724451 C9.49480124,7.54145411 9.96293532,7.96777368 9.98872572,8.51945593 C9.99623585,8.68010519 10,8.84125436 10,9.00293537 C10,10.3523848 9.73199051,11.6661445 9.21843823,12.8844407 C9.00391256,13.3933584 8.41744587,13.6320103 7.90852821,13.4174846 C7.39961056,13.2029589 7.1609587,12.6164922 7.37548437,12.1075746 C7.78585079,11.1340654 7.99998666,10.0843244 8,9.00292303 C8,8.87239659 7.99696323,8.74238768 7.99090758,8.61285123 C7.96511718,8.06116899 8.39143675,7.59303491 8.943119,7.56724451 Z M5.35650642,1.65292436 C5.7304364,1.24648271 6.3630526,1.2201268 6.76949425,1.59405678 C7.86955054,2.60611849 8.7319506,3.85799548 9.28762134,5.25683726 C9.4915113,5.77010846 9.24070825,6.35148245 8.72743704,6.55537241 C8.21416584,6.75926237 7.63279185,6.50845932 7.42890189,5.99518811 C6.98434699,4.87606861 6.29458082,3.8747904 5.41537399,3.06591219 C5.00893235,2.6919822 4.98257643,2.05936601 5.35650642,1.65292436 Z M0.239098823,-0.999498516 C0.367920916,-1.0006481 0.46086938,-1.00001443 0.545625818,-0.996148978 C1.70508629,-0.943192496 2.82882174,-0.691139109 3.87925052,-0.254949612 C4.38930817,-0.0431486814 4.63109302,0.542033323 4.41929209,1.05209098 C4.20749116,1.56214863 3.62230915,1.80393348 3.1122515,1.59213255 C2.27594636,1.24485768 1.38082518,1.04408237 0.454374182,1.00176822 C0.441581214,1.00118392 0.425875842,1.0007459 0.407122626,1.00045278 L0.204431552,1.00096401 L0.173047576,1.00133321 C0.143860257,1.00169127 0.124402045,1.00192997 0.10826377,1.00210401 L0,1.00280962 C-0.55228475,1.00280962 -1,0.555094372 -1,0.00280962244 C-1,-0.549475127 -0.55228475,-0.997190378 0,-0.997190378 L0.0986592653,-0.99792167 L0.14911528,-0.998523592 C0.192941176,-0.999044088 0.192941176,-0.999044088 0.239098823,-0.999498516 Z" id="Oval"></path>
            <path d="M4,14.0028096 C4.55228475,14.0028096 5,14.4505249 5,15.0028096 L5,17.0028096 L7,17.0028096 C7.51283584,17.0028096 7.93550716,17.3888498 7.99327227,17.8861885 L8,18.0028096 C8,18.5550944 7.55228475,19.0028096 7,19.0028096 L4,19.0028096 C3.44771525,19.0028096 3,18.5550944 3,18.0028096 L3,15.0028096 C3,14.4505249 3.44771525,14.0028096 4,14.0028096 Z" id="Path-87"></path>
        </g>
    </g>
</svg>