<?xml version="1.0" encoding="UTF-8"?>
<svg width="20px" height="20px" viewBox="0 0 20 20" version="1.1" xmlns="http://www.w3.org/2000/svg" xmlns:xlink="http://www.w3.org/1999/xlink">
    <!-- Generator: Sketch 61.2 (89653) - https://sketch.com -->
    <title>Dark / 20 / application-osx-terminal@svg</title>
    <desc>Created with Sketch.</desc>
    <g id="Dark-/-20-/-application-osx-terminal" stroke="none" stroke-width="1" fill="none" fill-rule="evenodd">
        <path d="M14,18 C14.5522847,18 15,18.4477153 15,19 C15,19.5522847 14.5522847,20 14,20 L14,20 L6,20 C5.44771525,20 5,19.5522847 5,19 C5,18.4477153 5.44771525,18 6,18 L6,18 Z M18,0 C19.1045695,-2.02906125e-16 20,0.8954305 20,2 L20,14 C20,15.1045695 19.1045695,16 18,16 L2,16 C0.8954305,16 1.3527075e-16,15.1045695 0,14 L0,2 C-1.3527075e-16,0.8954305 0.8954305,2.02906125e-16 2,0 L18,0 Z M16,9 L11,9 C10.4477153,9 10,9.44771525 10,10 C10,10.5522847 10.4477153,11 11,11 L11,11 L16,11 C16.5522847,11 17,10.5522847 17,10 C17,9.44771525 16.5522847,9 16,9 L16,9 Z M4.61289944,3.20970461 C4.22060824,2.90467972 3.65337718,2.93240926 3.29289322,3.29289322 L3.29289322,3.29289322 L3.20970461,3.38710056 C2.90467972,3.77939176 2.93240926,4.34662282 3.29289322,4.70710678 L3.29289322,4.70710678 L5.585,7 L3.29289322,9.29289322 L3.20970461,9.38710056 C2.90467972,9.77939176 2.93240926,10.3466228 3.29289322,10.7071068 C3.68341751,11.0976311 4.31658249,11.0976311 4.70710678,10.7071068 L4.70710678,10.7071068 L7.70710678,7.70710678 L7.79029539,7.61289944 C8.09532028,7.22060824 8.06759074,6.65337718 7.70710678,6.29289322 L7.70710678,6.29289322 L4.70710678,3.29289322 Z" id="Rectangle-2" fill="#3F3F3F"></path>
    </g>
</svg>