<?xml version="1.0" encoding="UTF-8"?>
<svg  viewBox="0 0 20 20" version="1.1" xmlns="http://www.w3.org/2000/svg" xmlns:xlink="http://www.w3.org/1999/xlink">
    <!-- Generator: Sketch 61.2 (89653) - https://sketch.com -->
    <title>Dark / 20 / other-OS@svg</title>
    <desc>Created with Sketch.</desc>
    <g id="Dark-/-20-/-other-OS" stroke="none" stroke-width="1" fill="none" fill-rule="evenodd">
        <path d="M17,0 C18.6568542,0 20,1.34314575 20,3 L20,3 L20,17 C20,18.6568542 18.6568542,20 17,20 L17,20 L3,20 C1.34314575,20 0,18.6568542 0,17 L0,17 L0,3 C0,1.34314575 1.34314575,0 3,0 L3,0 Z M17,2 L3,2 C2.44771525,2 2,2.44771525 2,3 L2,3 L2,17 C2,17.5522847 2.44771525,18 3,18 L3,18 L17,18 C17.5522847,18 18,17.5522847 18,17 L18,17 L18,3 C18,2.44771525 17.5522847,2 17,2 L17,2 Z M13,11 C14.1045695,11 15,11.8954305 15,13 C15,14.1045695 14.1045695,15 13,15 C11.8954305,15 11,14.1045695 11,13 C11,11.8954305 11.8954305,11 13,11 Z M7,11 C8.1045695,11 9,11.8954305 9,13 C9,14.1045695 8.1045695,15 7,15 C5.8954305,15 5,14.1045695 5,13 C5,11.8954305 5.8954305,11 7,11 Z M7,5 C8.1045695,5 9,5.8954305 9,7 C9,8.1045695 8.1045695,9 7,9 C5.8954305,9 5,8.1045695 5,7 C5,5.8954305 5.8954305,5 7,5 Z M13,5 C14.1045695,5 15,5.8954305 15,7 C15,8.1045695 14.1045695,9 13,9 C11.8954305,9 11,8.1045695 11,7 C11,5.8954305 11.8954305,5 13,5 Z" id="Oval-Copy-4" fill="#3F3F3F"></path>
    </g>
</svg>