<?xml version="1.0" encoding="UTF-8"?>
<svg  viewBox="0 0 20 20" version="1.1" xmlns="http://www.w3.org/2000/svg" xmlns:xlink="http://www.w3.org/1999/xlink">
    <!-- Generator: Sketch 61.2 (89653) - https://sketch.com -->
    <title>Dark / 20 / password@svg</title>
    <desc>Created with Sketch.</desc>
    <g id="Dark-/-20-/-password" stroke="none" stroke-width="1" fill="none" fill-rule="evenodd">
        <g id="Group" transform="translate(0.000000, 3.000000)" fill="#3F3F3F">
            <path d="M3.24923,0 C1.454,0 0,1.45538 0,3.25 L0,10.75 C0,12.5449 1.45507,14 3.25,14 L16.75,14 C18.5449,14 20,12.5449 20,10.75 L20,3.25 C20,1.45538 18.546,0 16.7508,0 L3.24923,0 Z M4.28021,5.2195 L5.00017,5.9392 L5.71967,5.2197 C6.01256,4.92678 6.48743,4.92678 6.78033,5.2197 C7.07322,5.5126 7.07322,5.9874 6.78033,6.2803 L6.06108,6.9996 L6.7802,7.7184 C7.07317,8.0112 7.07328,8.4861 6.78046,8.779 C6.48763,9.072 6.01276,9.0721 5.71979,8.7793 L5.00042,8.0602 L4.28033,8.7803 C3.98744,9.0732 3.51256,9.0732 3.21967,8.7803 C2.92678,8.4874 2.92678,8.0126 3.21967,7.7197 L3.93951,6.9998 L3.21979,6.2805 C2.92683,5.9876 2.92672,5.5128 3.21954,5.2198 C3.51237,4.92683 3.98724,4.92672 4.28021,5.2195 Z M9.7802,5.2195 L10.5002,5.9392 L11.2197,5.2197 C11.5126,4.92678 11.9874,4.92678 12.2803,5.2197 C12.5732,5.5126 12.5732,5.9874 12.2803,6.2803 L11.5611,6.9996 L12.2802,7.7184 C12.5732,8.0112 12.5733,8.4861 12.2805,8.779 C11.9876,9.072 11.5128,9.0721 11.2198,8.7793 L10.5004,8.0602 L9.7803,8.7803 C9.4874,9.0732 9.0126,9.0732 8.7197,8.7803 C8.4268,8.4874 8.4268,8.0126 8.7197,7.7197 L9.4395,6.9998 L8.7198,6.2805 C8.4268,5.9876 8.4267,5.5128 8.7195,5.2198 C9.0124,4.92683 9.4872,4.92672 9.7802,5.2195 Z M13.75,9.25 C13.75,8.8358 14.0858,8.5 14.5,8.5 L16.25,8.5 C16.6642,8.5 17,8.8358 17,9.25 C17,9.6642 16.6642,10 16.25,10 L14.5,10 C14.0858,10 13.75,9.6642 13.75,9.25 Z" id="Shape"></path>
        </g>
    </g>
</svg>