<?xml version="1.0" encoding="UTF-8"?>
<svg  viewBox="0 0 20 20" version="1.1" xmlns="http://www.w3.org/2000/svg" xmlns:xlink="http://www.w3.org/1999/xlink">
    <!-- Generator: Sketch 61.2 (89653) - https://sketch.com -->
    <title>Dark / 20 / plugins@svg</title>
    <desc>Created with Sketch.</desc>
    <g id="Dark-/-20-/-plugins" stroke="none" stroke-width="1" fill="none" fill-rule="evenodd">
        <path d="M20,14 L20,18 C20,19.1045695 19.1045695,20 18,20 L14,20 L14,18 C14,16.8954305 13.1045695,16 12,16 C10.8954305,16 10,16.8954305 10,18 L10,20 L6,20 C4.8954305,20 4,19.1045695 4,18 L4,14 L2,14 C0.8954305,14 0,13.1045695 0,12 C0,10.8954305 0.8954305,10 2,10 L4,10 L4,6 C4,4.9 4.9,4 6,4 L10,4 L10,2 C10,0.8954305 10.8954305,0 12,0 C13.1045695,0 14,0.8954305 14,2 L14,4 L18,4 C19.1045695,4 20,4.8954305 20,6 L20,10 L18,10 C16.8954305,10 16,10.8954305 16,12 C16,13.1045695 16.8954305,14 18,14 L20,14 Z" id="Path" fill="#3F3F3F"></path>
    </g>
</svg>