<?xml version="1.0" encoding="utf-8"?>
<!-- Generator: Adobe Illustrator 27.2.0, SVG Export Plug-In . SVG Version: 6.00 Build 0)  -->
<svg version="1.1" id="Capa_1" xmlns="http://www.w3.org/2000/svg" xmlns:xlink="http://www.w3.org/1999/xlink" x="0px" y="0px"
	 viewBox="0 0 20 20" style="enable-background:new 0 0 20 20;" xml:space="preserve">
<style type="text/css">
	.st0{fill:#95A3BF;}
	.st1{fill:#FFFFFF;}
</style>
<g>
	<circle class="st0" cx="10" cy="10" r="10"/>
</g>
<path class="st1" d="M15.6,11.4H4.4C3.6,11.4,3,10.8,3,10v0c0-0.8,0.6-1.4,1.4-1.4h11.1c0.8,0,1.4,0.6,1.4,1.4v0
	C17,10.8,16.4,11.4,15.6,11.4z"/>
<path class="st1" d="M8.6,15.6V4.4C8.6,3.6,9.2,3,10,3h0c0.8,0,1.4,0.6,1.4,1.4v11.1c0,0.8-0.6,1.4-1.4,1.4h0
	C9.2,17,8.6,16.4,8.6,15.6z"/>
</svg>
