<?xml version="1.0" encoding="UTF-8"?>
<svg  viewBox="0 0 20 20" version="1.1" xmlns="http://www.w3.org/2000/svg" xmlns:xlink="http://www.w3.org/1999/xlink">
    <!-- Generator: Sketch 61.2 (89653) - https://sketch.com -->
    <title>Dark / 20 / policy@svg</title>
    <desc>Created with Sketch.</desc>
    <g id="Dark-/-20-/-policy" stroke="none" stroke-width="1" fill="none" fill-rule="evenodd">
        <path d="M12,0 C12.54,0 13,0.363636364 13,0.909090909 L13,0.909090909 L13,4.07934284 C13,5.35207011 13.69,6 14.95,6 L14.95,6 L18.1,6 C18.64,6 19,6.45454545 19,7 L19,7 L19,16.3636364 C19,18.3636364 17.38,20 15.4,20 L15.4,20 L4.6,20 C2.62,20 1,18.3636364 1,16.3636364 L1,16.3636364 L1,3.63636364 C1,1.63636364 2.62,0 4.6,0 L4.6,0 Z M10,8 C9.5071467,8 8.68357528,8.165625 7.90857528,8.35 C7.11571813,8.5375 6.31643242,8.759375 5.84643242,8.89375 C5.44543678,9.00962102 5.1556507,9.31613087 5.10071813,9.6825 C4.67500385,12.480625 5.66286099,14.554375 6.86143242,15.92625 C7.36970539,16.5131001 7.97573802,17.0298952 8.65928956,17.459375 C8.93500385,17.63 9.19071813,17.760625 9.40786099,17.85 C9.60786099,17.9325 9.82286099,18 10,18 C10.1771467,18 10.3914324,17.9325 10.5921467,17.85 C10.8539208,17.7386698 11.1043541,17.6079869 11.3407181,17.459375 C12.0242836,17.0299097 12.6303185,16.5131126 13.1385753,15.92625 C14.3371467,14.554375 15.3250038,12.480625 14.8992896,9.6825 C14.8444489,9.31595703 14.5546802,9.00922272 14.1535753,8.893125 C13.4712945,8.6973833 12.7837133,8.51608049 12.0914324,8.349375 C11.3164324,8.16625 10.492861,8 10,8 Z M10.0000038,11.1249989 C10.5224492,11.124319 10.9692832,11.4534472 11.0576067,11.9040074 C11.1459302,12.3545676 10.849988,12.795176 10.3571467,12.946875 L10.6321467,14.190625 C10.6524048,14.2822193 10.6248339,14.376943 10.5569716,14.4488998 C10.4891093,14.5208566 10.3880538,14.5625 10.2814324,14.5625 L9.71857528,14.5625 C9.61207899,14.5623338 9.51122354,14.5205909 9.44352297,14.448659 C9.3758224,14.3767272 9.34834078,14.2821119 9.36857528,14.190625 L9.64286099,12.946875 C9.15001972,12.795176 8.85407753,12.3545676 8.94240103,11.9040074 C9.03072452,11.4534472 9.47755846,11.124319 10.0000038,11.1249989 Z M13.9995461,1 L18,5 L14.9995461,5 C14.4472613,5 13.9995461,4.55228475 13.9995461,4 L13.9995461,4 L13.9995461,1 Z" id="Shape" fill="#3F3F3F"></path>
    </g>
</svg>