<?xml version="1.0" encoding="UTF-8"?>
<svg  viewBox="0 0 20 20" version="1.1" xmlns="http://www.w3.org/2000/svg" xmlns:xlink="http://www.w3.org/1999/xlink">
    <!-- Generator: Sketch 61.2 (89653) - https://sketch.com -->
    <title>Dark / 20 / prediction@svg</title>
    <desc>Created with Sketch.</desc>
    <g id="Dark-/-20-/-prediction" stroke="none" stroke-width="1" fill="none" fill-rule="evenodd">
        <path d="M19,4 C19.5522847,4 20,4.44771525 20,5 L20,20 L15,20 L15,5 C15,4.44771525 15.4477153,4 16,4 L19,4 Z M5,14 C5.55228475,14 6,14.4477153 6,15 L6,20 L1,20 L1,15 C1,14.4477153 1.44771525,14 2,14 L5,14 Z M12,10 C12.5522847,10 13,10.4477153 13,11 L13,20 L8,20 L8,11 C8,10.4477153 8.44771525,10 9,10 L12,10 Z M6,0 C8.55782313,0 10.7891156,1.45 11.877551,3.5 C12.0408163,3.8 12.0408163,4.15 11.877551,4.45 C10.7891156,6.55 8.55782313,8 6,8 C3.44217687,8 1.21088435,6.55 0.12244898,4.5 C-0.0408163265,4.2 -0.0408163265,3.85 0.12244898,3.55 C1.21088435,1.45 3.44217687,0 6,0 Z M6,2 C4.9,2 4,2.9 4,4 C4,5.1 4.9,6 6,6 C7.1,6 8,5.1 8,4 C8,2.9 7.1,2 6,2 Z" id="Rectangle-Copy-3" fill="#3F3F3F"></path>
    </g>
</svg>