<?xml version="1.0" encoding="UTF-8"?>
<svg width="20px" height="20px" viewBox="0 0 20 20" version="1.1" xmlns="http://www.w3.org/2000/svg" xmlns:xlink="http://www.w3.org/1999/xlink">
    <!-- Generator: Sketch 61.2 (89653) - https://sketch.com -->
    <title>Dark / 20 / printer@svg</title>
    <desc>Created with Sketch.</desc>
    <g id="Dark-/-20-/-printer" stroke="none" stroke-width="1" fill="none" fill-rule="evenodd">
        <path d="M14,13 C14.5522847,13 15,13.4477153 15,14 L15,20 L5,20 L5,14 C5,13.4477153 5.44771525,13 6,13 L14,13 Z M15,0 C15.5522847,-1.01453063e-16 16,0.44771525 16,1 L16,3 L17,3 C18.6568542,3 20,4.34314575 20,6 L20,11 C20,12.6568542 18.6568542,14 17,14 L17,13 C17,11.8954305 16.1045695,11 15,11 L15,11 L5,11 C3.8954305,11 3,11.8954305 3,13 L3,13 L3,14 C1.34314575,14 2.02906125e-16,12.6568542 0,11 L0,6 C-2.02906125e-16,4.34314575 1.34314575,3 3,3 L4,3 L4,1 C4,0.44771525 4.44771525,1.01453063e-16 5,0 L15,0 Z M17,5 C16.4477153,5 16,5.44771525 16,6 C16,6.55228475 16.4477153,7 17,7 C17.5522847,7 18,6.55228475 18,6 C18,5.44771525 17.5522847,5 17,5 Z" id="Rectangle-2" fill="#3F3F3F"></path>
    </g>
</svg>