<?xml version="1.0" encoding="UTF-8"?>
<svg  viewBox="0 0 20 20" version="1.1" xmlns="http://www.w3.org/2000/svg" xmlns:xlink="http://www.w3.org/1999/xlink">
    <!-- Generator: Sketch 61.2 (89653) - https://sketch.com -->
    <title>Dark / 20 / quick-shell@svg</title>
    <desc>Created with Sketch.</desc>
    <g id="Dark-/-20-/-quick-shell" stroke="none" stroke-width="1" fill="none" fill-rule="evenodd">
        <path d="M18,0 L2,0 C0.8954305,0 0,0.8954305 0,2 L0,18 C0,19.1045695 0.8954305,20 2,20 L15,20 C17.7614237,20 20,17.7614237 20,15 L20,2 C20,0.8954305 19.1045695,0 18,0 Z M18,2 L18,15 C18,16.6568542 16.6568542,18 15,18 L2,18 L2,2 L18,2 Z M5.61289944,4.20970461 C5.22060824,3.90467972 4.65337718,3.93240926 4.29289322,4.29289322 L4.29289322,4.29289322 L4.20970461,4.38710056 C3.90467972,4.77939176 3.93240926,5.34662282 4.29289322,5.70710678 L4.29289322,5.70710678 L6.585,8 L4.29289322,10.2928932 L4.20970461,10.3871006 C3.90467972,10.7793918 3.93240926,11.3466228 4.29289322,11.7071068 C4.68341751,12.0976311 5.31658249,12.0976311 5.70710678,11.7071068 L5.70710678,11.7071068 L8.70710678,8.70710678 L8.79029539,8.61289944 C9.09532028,8.22060824 9.06759074,7.65337718 8.70710678,7.29289322 L8.70710678,7.29289322 L5.70710678,4.29289322 Z" id="Rectangle" fill="#3F3F3F"></path>
    </g>
</svg>