<?xml version="1.0" encoding="UTF-8"?>
<svg  viewBox="0 0 20 20" version="1.1" xmlns="http://www.w3.org/2000/svg" xmlns:xlink="http://www.w3.org/1999/xlink">
    <!-- Generator: Sketch 61.2 (89653) - https://sketch.com -->
    <title>Dark / 20 / radial-on@svg</title>
    <desc>Created with Sketch.</desc>
    <g id="Dark-/-20-/-radial-on" stroke="none" stroke-width="1" fill="none" fill-rule="evenodd">
        <g id="Group" fill="#1D7873">
            <g id="Rectangle-2">
                <path d="M16,0 C18.209139,-4.05812251e-16 20,1.790861 20,4 L20,16 C20,18.209139 18.209139,20 16,20 L4,20 C1.790861,20 2.705415e-16,18.209139 0,16 L0,4 C-2.705415e-16,1.790861 1.790861,4.05812251e-16 4,0 L16,0 Z M15.7777439,6.37135141 C15.4305323,5.94186038 14.8008905,5.87515972 14.3713994,6.22237132 L14.3713994,6.22237132 L7.77861597,11.5510307 L5.81650513,8.77747883 L5.73770948,8.67956758 C5.40260169,8.31264068 4.83884178,8.24412234 4.42262802,8.53850895 C3.97172977,8.85742777 3.86473931,9.48148781 4.18365814,9.93238606 L4.18365814,9.93238606 L6.76182606,13.5774872 L6.83812914,13.672688 C7.18888164,14.0598005 7.78987666,14.114854 8.20693177,13.7776959 L8.20693177,13.7776959 L15.6287639,7.77769594 L15.7214138,7.69277628 C16.0660673,7.33480068 16.098247,6.76780467 15.7777439,6.37135141 Z"></path>
            </g>
        </g>
    </g>
</svg>