<?xml version="1.0" encoding="UTF-8"?>
<svg  viewBox="0 0 20 20" version="1.1" xmlns="http://www.w3.org/2000/svg" xmlns:xlink="http://www.w3.org/1999/xlink">
    <!-- Generator: Sketch 61.2 (89653) - https://sketch.com -->
    <title>Dark / 20 / remote-execution-boolean-data@svg</title>
    <desc>Created with Sketch.</desc>
    <g id="Dark-/-20-/-remote-execution-boolean-data" stroke="none" stroke-width="1" fill="none" fill-rule="evenodd">
        <path d="M18,0 C19.1045695,-2.02906125e-16 20,0.8954305 20,2 L20,18 C20,19.1045695 19.1045695,20 18,20 L2,20 C0.8954305,20 1.3527075e-16,19.1045695 0,18 L0,10 C-6.76353751e-16,4.4771525 4.4771525,1.01453063e-15 10,0 L18,0 Z M12.5,10 L7.5,10 C5.56700338,10 4,11.5670034 4,13.5 C4,15.4329966 5.56700338,17 7.5,17 L7.5,17 L12.5,17 C14.4329966,17 16,15.4329966 16,13.5 C16,11.5670034 14.4329966,10 12.5,10 L12.5,10 Z M7.5,11 C8.88071187,11 10,12.1192881 10,13.5 C10,14.8807119 8.88071187,16 7.5,16 C6.11928813,16 5,14.8807119 5,13.5 C5,12.1192881 6.11928813,11 7.5,11 Z" id="Rectangle-3" fill="#3F3F3F"></path>
    </g>
</svg>