<?xml version="1.0" encoding="UTF-8"?>
<svg  viewBox="0 0 20 20" version="1.1" xmlns="http://www.w3.org/2000/svg" xmlns:xlink="http://www.w3.org/1999/xlink">
    <!-- Generator: Sketch 61.2 (89653) - https://sketch.com -->
    <title>Dark / 20 / remote-configuration@svg</title>
    <desc>Created with Sketch.</desc>
    <g id="Dark-/-20-/-remote-configuration" stroke="none" stroke-width="1" fill="none" fill-rule="evenodd">
        <path d="M10.5098046,8 C10.9352412,8 11.276216,8.36240562 11.276216,8.78417079 L11.276216,8.78417079 L11.276216,9.26217131 C11.276216,9.64644624 11.6109345,9.97136162 12.0113453,9.97136162 C12.214679,9.97136162 12.4023716,9.88700859 12.543141,9.73079927 L12.543141,9.73079927 L12.8371927,9.43712575 C12.9779622,9.29966155 13.1781676,9.2184327 13.3846295,9.2184327 C13.5910913,9.2184327 13.7944249,9.29966155 13.9320662,9.43712575 L13.9320662,9.43712575 L14.629657,10.1275709 C14.9330933,10.4274928 14.9330933,10.9179901 14.629657,11.217912 L14.629657,11.217912 L14.3230924,11.5178339 C14.1729383,11.6521739 14.0884767,11.8333767 14.0884767,12.0333247 C14.0884767,12.4300963 14.4138105,12.7643843 14.8017085,12.7643843 L14.8017085,12.7643843 L15.2771964,12.7643843 C15.7026329,12.7643843 16.0060693,13.0986722 15.9999078,13.5235616 L15.9999078,13.5235616 L15.9999078,14.4764384 C15.9999078,14.9013278 15.6963765,15.2356157 15.27094,15.2356157 L15.27094,15.2356157 L14.7954521,15.2356157 C14.4075541,15.2356157 14.0822202,15.5667795 14.0822202,15.9666753 C14.0822202,16.1634991 14.1666819,16.3478261 14.316836,16.4821661 L14.316836,16.4821661 L14.6234005,16.782088 C14.9237087,17.0820099 14.9237087,17.5725072 14.6234005,17.8724291 L14.6234005,17.8724291 L13.9258098,18.5659984 C13.7850403,18.7034626 13.5848349,18.7846915 13.378373,18.7846915 C13.1719112,18.7846915 12.9717058,18.7034626 12.8309363,18.5659984 L12.8309363,18.5659984 L12.5368846,18.2723249 C12.3929869,18.1192398 12.2052944,18.0317626 12.0050889,18.0317626 C11.6046781,18.0317626 11.2699596,18.3566779 11.2699596,18.7409529 L11.2699596,18.7409529 L11.2699596,19.2158292 C11.2699596,19.6407186 10.932113,20 10.5066764,20 L10.5066764,20 L9.55570064,20 C9.12713589,20 8.78928923,19.6375944 8.78928923,19.2158292 L8.78928923,19.2158292 L8.78928923,18.7409529 C8.78928923,18.3566779 8.45457078,18.0317626 8.05415992,18.0317626 C7.8539545,18.0317626 7.66626191,18.1161156 7.53487709,18.2629524 L7.53487709,18.2629524 L7.23144074,18.5628743 C7.0906713,18.7003385 6.89046587,18.7815673 6.68400402,18.7815673 C6.47754218,18.7815673 6.27420854,18.7034626 6.13656731,18.5628743 L6.13656731,18.5628743 L5.43897652,17.8693049 C5.13866837,17.5725072 5.13866837,17.0820099 5.43897652,16.782088 L5.43897652,16.782088 L5.73302824,16.4915387 C5.88943873,16.3509503 5.9770286,16.1634991 5.9770286,15.9635512 C5.9770286,15.5667795 5.65169478,15.2324915 5.26379677,15.2324915 L5.26379677,15.2324915 L4.78830887,15.2324915 C4.35974413,15.2324915 4,14.8950794 4,14.4733142 L4,14.4733142 L4,13.5235616 C4,13.0986722 4.35974413,12.7643843 4.78830887,12.7643843 L4.78830887,12.7643843 L5.26379677,12.7643843 C5.65169478,12.7643843 5.9770286,12.4332205 5.9770286,12.0333247 C5.9770286,11.8333767 5.88943873,11.6459255 5.73302824,11.5053372 L5.73302824,11.5053372 L5.43897652,11.2116636 C5.13866837,10.9148659 5.13866837,10.4243687 5.43897652,10.1244468 L5.43897652,10.1244468 L6.14282372,9.43712575 C6.28359317,9.29966155 6.4837986,9.2184327 6.69026044,9.2184327 C6.89672229,9.2184327 7.10005593,9.29653736 7.23769716,9.43712575 L7.23769716,9.43712575 L7.54113351,9.73704764 C7.67564654,9.88388441 7.86021091,9.96823744 8.06041634,9.96823744 C8.4608272,9.96823744 8.79554565,9.64332205 8.79554565,9.25904712 L8.79554565,9.25904712 L8.79554565,8.78417079 C8.79554565,8.35928144 9.13339231,8 9.55882885,8 L9.55882885,8 Z M10.0311885,11.4990888 C8.64539158,11.4990888 7.52862067,12.6206717 7.52862067,13.9984379 L7.52862067,13.9984379 L7.53392692,14.1624848 C7.61839279,15.4641362 8.70082346,16.497787 10.0311885,16.497787 C11.4169855,16.497787 12.5337564,15.3762041 12.5337564,13.9984379 L12.5337564,13.9984379 L12.5284501,13.834391 C12.4439843,12.5327396 11.3615536,11.4990888 10.0311885,11.4990888 Z M10,4.00015044 C12.721574,4.00015044 15.1380774,5.65217267 16,8.102 L14,8.735 C13.4253849,7.10178178 11.8143827,6.00043363 10,6.00043363 C8.18561735,6.00043363 6.57461509,7.10178178 6,8.735 L4,8.102 C4.86192263,5.65217267 7.27842602,4.00015044 10,4.00015044 Z M10,-1.0658141e-14 C14.6533193,-1.0658141e-14 18.6048472,2.864 20,6.837 L18,7.469 C16.8518345,4.20151725 13.6294742,1.99770792 10,1.99770792 C6.37052585,1.99770792 3.1481655,4.20151725 2,7.469 L0.00105374078,6.837 C1.39620653,2.864 5.34668072,-1.0658141e-14 10,-1.0658141e-14 Z" id="Path-2" fill="#3F3F3F"></path>
    </g>
</svg>