<?xml version="1.0" encoding="UTF-8"?>
<svg  viewBox="0 0 20 20" version="1.1" xmlns="http://www.w3.org/2000/svg" xmlns:xlink="http://www.w3.org/1999/xlink">
    <!-- Generator: Sketch 61.2 (89653) - https://sketch.com -->
    <title>Dark / 20 / remote-execution-incremental-data@svg</title>
    <desc>Created with Sketch.</desc>
    <g id="Dark-/-20-/-remote-execution-incremental-data" stroke="none" stroke-width="1" fill="none" fill-rule="evenodd">
        <path d="M18,0 C19.1045695,-2.02906125e-16 20,0.8954305 20,2 L20,18 C20,19.1045695 19.1045695,20 18,20 L2,20 C0.8954305,20 1.3527075e-16,19.1045695 0,18 L0,10 C-6.76353751e-16,4.4771525 4.4771525,1.01453063e-15 10,0 L18,0 Z M16.0232661,9.00025014 L13,9 L12.8833789,9.00672773 C12.3860402,9.06449284 12,9.48716416 12,10 L12,10 L12.0067277,10.1166211 C12.0644928,10.6139598 12.4871642,11 13,11 L13,11 L13.172,11 L11.09,12.684 L8.7005069,10.2985286 L8.60621807,10.2154261 C8.21362621,9.9107618 7.64639927,9.93904011 7.28625958,10.2998928 L7.28625958,10.2998928 L3.2921943,14.3018655 L3.20909889,14.396155 C2.90446209,14.7887477 2.93275256,15.3559511 3.29359283,15.7160784 L3.29359283,15.7160784 L3.38788239,15.7991738 C3.78047505,16.1038106 4.3476784,16.0755201 4.7078057,15.7146798 L4.7078057,15.7146798 L7.995,12.42 L10.3140276,14.7347894 L10.4087166,14.8181662 C10.7706002,15.098506 11.2849174,15.0992416 11.6492871,14.8045706 L11.6492871,14.8045706 L15,12.094 L15,12.9983959 L15.0067277,13.115017 C15.0644928,13.6123557 15.4871642,13.9983959 16,13.9983959 C16.5522847,13.9983959 17,13.5506807 17,12.9983959 L17,12.9983959 L17,10 L16.9989674,9.95312283 C16.9982896,9.93842536 16.997288,9.92373344 16.9959616,9.90905846 L16.9959616,9.90905846 L16.9932723,9.88337887 C16.9919353,9.87186797 16.9904028,9.86041669 16.98872,9.84914783 C16.9855282,9.82809501 16.9816581,9.80710965 16.9771353,9.78639402 C16.9733082,9.76880559 16.9690183,9.75138991 16.96429,9.73419684 C16.9591381,9.71546908 16.9534252,9.6968478 16.9471664,9.67841057 C16.9400876,9.65755506 16.9323394,9.63700871 16.9241646,9.61732138 C16.9177984,9.60196552 16.9110273,9.58672384 16.9035613,9.57099592 C16.8518621,9.46230151 16.7811275,9.36441121 16.6954996,9.28133264 C16.6894776,9.27549016 16.6833959,9.26973662 16.6771894,9.26418404 C16.6559257,9.24460443 16.6338111,9.22593475 16.6113674,9.20836661 C16.5996049,9.1992667 16.5876744,9.19045907 16.5751364,9.18184011 C16.5543035,9.16716839 16.5328851,9.15327224 16.5113146,9.14029033 C16.5001036,9.13362432 16.4887827,9.1271921 16.4772853,9.1210349 L16.4436265,9.10354524 L16.4436265,9.10354524 L16.4092253,9.08733176 C16.3963148,9.08155532 16.3832994,9.07606182 16.3700429,9.07069855 C16.3473738,9.06166391 16.3242963,9.05343471 16.3012681,9.04634641 C16.2866515,9.04174373 16.2719424,9.0374806 16.2567529,9.03326779 C16.2350812,9.02752708 16.2131208,9.02249576 16.1910002,9.01838666 L16.1910002,9.01838666 L16.1459433,9.01057333 C16.0983034,9.00360716 16.049573,9 16,9 L16.0232661,9.00025014 Z" id="Rectangle-2" fill="#3F3F3F"></path>
        <g id="Group" transform="translate(3.000000, 9.000000)"></g>
    </g>
</svg>