<?xml version="1.0" encoding="UTF-8"?>
<svg  viewBox="0 0 20 20" version="1.1" xmlns="http://www.w3.org/2000/svg" xmlns:xlink="http://www.w3.org/1999/xlink">
    <!-- Generator: Sketch 61.2 (89653) - https://sketch.com -->
    <title>Dark / 20 / remote-execution-alphanumeric-data@svg</title>
    <desc>Created with Sketch.</desc>
    <g id="Dark-/-20-/-remote-execution-alphanumeric-data" stroke="none" stroke-width="1" fill="none" fill-rule="evenodd">
        <path d="M18,0 C19.1045695,-2.02906125e-16 20,0.8954305 20,2 L20,18 C20,19.1045695 19.1045695,20 18,20 L2,20 C0.8954305,20 1.3527075e-16,19.1045695 0,18 L0,10 C-6.76353751e-16,4.4771525 4.4771525,1.01453063e-15 10,0 L18,0 Z M9.41176471,10 L7.61764706,10 L5,17 L6.62745098,17 L7.12745098,15.5782793 L9.81372549,15.5782793 L10.3137255,17 L12,17 L9.41176471,10 Z M15,10 L13.7019231,10 C13.5961538,10.7118644 12.9326923,11.3050847 12,11.3158706 L12,12.4483821 L13.4903846,12.4483821 L13.4903846,17 L15,17 L15,10 Z M8.49019608,11.7376587 L9.32352941,14.1565585 L7.6372549,14.1565585 L8.49019608,11.7376587 Z" id="Rectangle-2" fill="#3F3F3F"></path>
    </g>
</svg>