<?xml version="1.0" encoding="UTF-8"?>
<svg width="20px" height="20px" viewBox="0 0 20 20" version="1.1" xmlns="http://www.w3.org/2000/svg" xmlns:xlink="http://www.w3.org/1999/xlink">
    <title>Reportes programados@svg</title>
    <g id="Reportes-programados" stroke="none" stroke-width="1" fill="none" fill-rule="evenodd">
        <path d="M8.00059781,0 C8.54059781,0 9.00059781,0.363636364 9.00059781,0.909090909 L9.00059781,4.07934284 C9.00059781,5.35207011 9.69059781,6 10.9505978,6 L14.1005978,6 C14.6405978,6 15.0005978,6.45454545 15.0005978,7 L15.0005978,16.3636364 C15.0005978,18.3636364 13.3805978,20 11.4005978,20 L5.24310254,20.0009635 C7.48899044,18.7052484 9.00059781,16.2791516 9.00059781,13.5 C9.00059781,9.35786438 5.64273343,6 1.50059781,6 C0.986687841,6 0.484850221,6.05168787 -2.12052598e-14,6.15014855 L0.000597808993,3.63636364 C0.000597808993,1.63636364 1.62059781,0 3.60059781,0 Z M10.0001439,1 L14.0005978,5 L11.0001439,5 C10.4478591,5 10.0001439,4.55228475 10.0001439,4 L10.0001439,1 Z" id="Shape" fill="#3F3F3F" transform="translate(7.500299, 10.000482) scale(-1, 1) translate(-7.500299, -10.000482) "></path>
        <path d="M13.5,7 C17.0898509,7 20,9.91014913 20,13.5 C20,17.0898509 17.0898509,20 13.5,20 C9.91014913,20 7,17.0898509 7,13.5 C7,9.91014913 9.91014913,7 13.5,7 Z M14.0002191,9 C13.4873832,9 13.0647119,9.38604019 13.0069468,9.88337887 L13.0002191,10 L13.0002191,13.382 L11.4068856,14.2067645 C10.9481913,14.4361116 10.742785,14.9704208 10.9135349,15.4410874 L10.959672,15.5484052 C11.1890192,16.0070996 11.7233284,16.2125059 12.193995,16.0417559 L12.3013128,15.9956188 L14.4474327,14.8944272 C14.748574,14.7438565 14.9511225,14.4535358 14.9924154,14.1248553 L15.0002191,14 L15.0002191,10 C15.0002191,9.44771525 14.5525038,9 14.0002191,9 Z" id="Oval-2" fill="#3F3F3F"></path>
    </g>
</svg>