<?xml version="1.0" encoding="UTF-8"?>
<svg  viewBox="0 0 20 20" version="1.1" xmlns="http://www.w3.org/2000/svg" xmlns:xlink="http://www.w3.org/1999/xlink">
    <!-- Generator: Sketch 61.2 (89653) - https://sketch.com -->
    <title>Dark / 20 / responses@svg</title>
    <desc>Created with Sketch.</desc>
    <g id="Dark-/-20-/-responses" stroke="none" stroke-width="1" fill="none" fill-rule="evenodd">
        <rect id="Rectangle" x="0" y="0" width="20" height="20"></rect>
        <path d="M4,5 L4,7 L5,7 C8.01141628,7 10.5046661,9.21853417 10.9344974,12.1103504 C12.6925234,12.5301854 14,14.112404 14,16 C14,18.209139 12.209139,20 10,20 C7.790861,20 6,18.209139 6,16 C6,14.1693638 7.22975869,12.6259531 8.90823181,12.1508122 C8.53390685,10.4124829 7.02816854,9.09477195 5.19964034,9.00489531 L5,9 L3.999,9 L4,11 L8.04090539e-18,8 L4,5 Z M10,14 C8.8954305,14 8,14.8954305 8,16 C8,17.1045695 8.8954305,18 10,18 C11.1045695,18 12,17.1045695 12,16 C12,14.8954305 11.1045695,14 10,14 Z M16,5 L20,8 L16,11 L16,9 L15,9 L14.8003597,9.00489531 C13.6929621,9.05932661 12.7039569,9.56410107 12.0126397,10.3399231 C11.765552,9.68352111 11.426892,9.07098051 11.0135967,8.51742285 C12.0060371,7.63231898 13.2958509,7.07311244 14.7145843,7.00666906 L15,7 L16,7 L16,5 Z M10,0 L13,4 L11,4 L11.0009299,8.50050683 C10.4525852,7.77035157 9.77408723,7.14352983 8.99987874,6.65448428 L9,4 L7,4 L10,0 Z" id="Shape" fill="#3F3F3F"></path>
    </g>
</svg>