<?xml version="1.0" encoding="UTF-8"?>
<svg  viewBox="0 0 20 20" version="1.1" xmlns="http://www.w3.org/2000/svg" xmlns:xlink="http://www.w3.org/1999/xlink">
    <!-- Generator: Sketch 61.2 (89653) - https://sketch.com -->
    <title>Dark / 20 / routers@svg</title>
    <desc>Created with Sketch.</desc>
    <g id="Dark-/-20-/-routers" stroke="none" stroke-width="1" fill="none" fill-rule="evenodd">
        <path d="M10,9 C10.5522847,9 11,9.44771525 11,10 L11,12 L17,12 C17.5522847,12 18,12.4477153 18,13 L18,19 C18,19.5522847 17.5522847,20 17,20 L3,20 C2.44771525,20 2,19.5522847 2,19 L2,13 C2,12.4477153 2.44771525,12 3,12 L9,12 L9,12 L9,10 C9,9.44771525 9.44771525,9 10,9 Z M10,0 C14.6533193,0 18.6048472,2.864 20,6.837 L18,7.469 C16.8518345,4.20151725 13.6294742,1.99770792 10,1.99770792 C6.37052585,1.99770792 3.1481655,4.20151725 2,7.469 L0.00105374078,6.837 C1.39620653,2.864 5.34668072,0 10,0 Z M4,8.102 C4.86192263,5.65217267 7.27842602,4.00015044 10,4.00015044 C12.721574,4.00015044 15.1380774,5.65217267 16,8.102 L14,8.735 C13.4253849,7.10178178 11.8143827,6.00043363 10,6.00043363 C8.18561735,6.00043363 6.57461509,7.10178178 6,8.735 L4,8.102 Z" id="Shape" fill="#3F3F3F"></path>
    </g>
</svg>