<?xml version="1.0" encoding="UTF-8"?>
<svg width="20px" height="20px" viewBox="0 0 20 20" version="1.1" xmlns="http://www.w3.org/2000/svg" xmlns:xlink="http://www.w3.org/1999/xlink">
    <!-- Generator: Sketch 61.2 (89653) - https://sketch.com -->
    <title>Dark / 20 / rrss@svg</title>
    <desc>Created with Sketch.</desc>
    <g id="Dark-/-20-/-rrss" stroke="none" stroke-width="1" fill="none" fill-rule="evenodd">
        <path d="M5.45067424,17.2746629 C5.45067424,18.031701 5.18571091,18.6751833 4.65578424,19.20511 C4.12585758,19.7350367 3.48237521,20 2.72533712,20 C1.96829903,20 1.32481665,19.7350367 0.794889993,19.20511 C0.264963331,18.6751833 0,18.031701 0,17.2746629 C0,16.5176248 0.264963331,15.8741424 0.794889993,15.3442158 C1.32481665,14.8142891 1.96829903,14.5493258 2.72533712,14.5493258 C3.48237521,14.5493258 4.12585758,14.8142891 4.65578424,15.3442158 C5.18571091,15.8741424 5.45067424,16.5176248 5.45067424,17.2746629 Z M12.7182399,19.020582 C12.7371658,19.2855453 12.6567305,19.5126567 12.476934,19.7019163 C12.3066004,19.9006388 12.0842205,20 11.8097942,20 L9.89354152,20 C9.65696712,20 9.45351313,19.9219304 9.28317956,19.7657913 C9.11284599,19.6096522 9.01821623,19.4132955 8.99929028,19.1767211 C8.7911048,17.0096996 7.91814526,15.157322 6.38041164,13.6195884 C4.84267802,12.0818547 2.99030045,11.2088952 0.823278921,11.0007097 C0.586704519,10.9817838 0.390347764,10.887154 0.234208659,10.7168204 C0.0780695529,10.5464869 0,10.3430329 0,10.1064585 L0,8.19020582 C0,7.91577951 0.0993612491,7.69339957 0.298083747,7.523066 C0.458954341,7.36219541 0.662408327,7.28176011 0.908445706,7.28176011 L0.979418027,7.28176011 C2.4934942,7.4047788 3.94132955,7.78566359 5.32292406,8.42441448 C6.70451857,9.06316537 7.92997398,9.92193045 8.99929028,11.0007097 C10.0780696,12.070026 10.9368346,13.2954814 11.5755855,14.6770759 C12.2143364,16.0586705 12.5952212,17.5065058 12.7182399,19.020582 Z M19.9858055,19.0489709 C20.0047315,19.3044713 19.9195647,19.5268512 19.7303052,19.7161107 C19.5599716,19.9053702 19.3423232,20 19.0773598,20 L17.0475515,20 C16.8015141,20 16.5909629,19.917199 16.4158978,19.7515969 C16.2408327,19.5859948 16.1485687,19.3849066 16.1391057,19.1483322 C16.02555,17.1137923 15.5476697,15.1809794 14.7054649,13.3498935 C13.86326,11.5188077 12.7679205,9.92902768 11.4194464,8.58055358 C10.0709723,7.23207949 8.48119233,6.13674 6.65010646,5.29453513 C4.81902058,4.45233026 2.88620771,3.96971848 0.85166785,3.84669979 C0.615093447,3.83723681 0.414005205,3.74497279 0.248403123,3.56990774 C0.0828010409,3.39484268 0,3.18902295 0,2.95244855 L0,0.92264017 C0,0.657676839 0.0946297611,0.440028389 0.283889283,0.269694819 C0.454222853,0.0993612491 0.662408327,0.0141944642 0.908445706,0.0141944642 L0.951029099,0.0141944642 C3.43032884,0.137213154 5.8031701,0.70499172 8.06955287,1.71753016 C10.3359357,2.73006861 12.3491838,4.12112609 14.1092974,5.89070263 C15.8788739,7.65081618 17.2699314,9.66406435 18.2824698,11.9304471 C19.2950083,14.1968299 19.8627868,16.5696712 19.9858055,19.0489709 Z" id="Shape" fill="#3F3F3F"></path>
    </g>
</svg>