<?xml version="1.0" encoding="UTF-8"?>
<svg viewBox="0 0 20 20" version="1.1" xmlns="http://www.w3.org/2000/svg" xmlns:xlink="http://www.w3.org/1999/xlink">
    <!-- Generator: Sketch 61.2 (89653) - https://sketch.com -->
    <title>Dark / 20 / sap@svg</title>
    <desc>Created with Sketch.</desc>
    <g id="Dark-/-20-/-sap" stroke="none" stroke-width="1" fill="none" fill-rule="evenodd">
        <path d="M16.1471472,6.17631855 L13.3952023,6.17631855 L13.4043979,12.0806147 L11.0080861,6.17408313 L8.63199114,6.17408313 L6.58641141,11.106811 C6.36892689,9.85162417 4.94639435,9.41851205 3.82711488,9.0940971 C3.08797384,8.87754104 2.30349799,8.55899406 2.31146221,8.20691582 C2.31758854,7.91798812 2.73111544,7.65001746 3.55296186,7.68997555 C4.10433106,7.71707999 4.59137385,7.75759693 5.56025206,8.18456165 L6.51289551,6.67006636 C5.62947953,6.25986727 4.40789044,6.00083828 3.40623639,6 L3.40011007,6 C2.23212631,6 1.25957231,6.34509256 0.65674198,6.91372686 C0.236476123,7.31051345 0.00980211911,7.81515892 0.000612632444,8.37317499 C-0.0147031787,9.14104087 0.293757257,9.685365 0.941922383,10.1204331 C1.48961579,10.4864827 2.19016099,10.7239958 2.80738818,10.8983584 C3.56858399,11.1135173 4.19040592,11.3007335 4.18274801,11.6991966 C4.17662169,11.8444988 4.11658371,11.9803004 4.00202144,12.0898358 C3.81210538,12.2686692 3.52110497,12.3357317 3.11829914,12.3429969 C2.34117489,12.358087 1.76530039,12.2465945 0.847576987,11.751729 L0,13.2857841 C0.916804453,13.7613692 1.88997109,14 2.99577265,14 L3.24450142,13.9983223 C4.20694699,13.9823955 4.98805336,13.7719863 5.60865003,13.31652 C5.6441821,13.2905327 5.6760396,13.2642677 5.70912175,13.2377216 L5.60497423,13.727278 L7.9268512,13.7205734 L8.34344126,12.747608 C8.78147346,12.8839684 9.27954363,12.9594138 9.80824543,12.9594138 C10.3234693,12.9594138 10.8080616,12.8878804 11.2378232,12.7593439 L11.528211,13.7205734 L15.6941116,13.7242059 L15.7042213,11.506113 L16.5907004,11.506113 C18.7333824,11.506113 20,10.5113523 20,8.84317206 C19.9993034,6.98526078 18.7679962,6.17603968 16.1471546,6.17603968 L16.1471472,6.17631855 Z M9.80823931,11.2233322 C9.48813885,11.2233322 9.18794896,11.1724759 8.92972438,11.0830597 L9.79843719,8.58078938 L9.81528335,8.58078938 L10.6699056,11.0900454 C10.4126,11.1738736 10.1194554,11.2233322 9.80793176,11.2233322 L9.80823931,11.2233322 Z M16.3082695,9.78567936 L15.7036013,9.78567936 L15.7036013,7.76905344 L16.3085759,7.76905344 C17.1141875,7.76905344 17.7574516,8.01383165 17.7574516,8.76437304 C17.7567532,9.54118058 17.1141875,9.78567936 16.3085759,9.78567936" id="Shape" fill="#3F3F3F"></path>
    </g>
</svg>