<?xml version="1.0" encoding="UTF-8"?>
<svg  viewBox="0 0 20 20" version="1.1" xmlns="http://www.w3.org/2000/svg" xmlns:xlink="http://www.w3.org/1999/xlink">
    <!-- Generator: Sketch 61.2 (89653) - https://sketch.com -->
    <title>Dark / 20 / satellite@svg</title>
    <desc>Created with Sketch.</desc>
    <g id="Dark-/-20-/-satellite" stroke="none" stroke-width="1" fill="none" fill-rule="evenodd">
        <path d="M8.99973012,4.07670475 C12.6806558,4.35921582 15.623279,7.31371153 15.8871622,10.9997543 L14.0093091,10.9996646 C13.7549277,8.34703775 11.6473449,6.22787389 8.99992613,5.95553838 Z M9.00024705,0.00313545971 C15.0683108,0.145623569 19.9610136,5.12638246 19.9610136,11.2280702 L19.9577249,10.9991138 L17.4629489,10.9999265 C17.3438002,6.37858166 13.6155749,2.63804566 8.9990807,2.49912614 Z M8.5168202,12.469374 L9.75163189,11.2341761 C9.87006012,11.2623821 9.97987128,11.3021413 10.103939,11.3021413 C10.9047394,11.3021413 11.5471843,10.6585928 11.5471843,9.85799323 C11.5471843,9.06280917 10.9047394,8.41339382 10.103939,8.41339382 C9.30900356,8.41339382 8.66069359,9.06235788 8.66069359,9.85799323 C8.66069359,9.98774091 8.69723264,10.0949238 8.73107379,10.2133891 L7.49269798,11.4494444 L2.22185221,6.17379088 C1.89476472,5.84660107 1.31412802,5.90301311 1.13456827,6.30917976 C-0.749004539,9.82387523 -0.21348336,14.2835851 2.74744798,17.2486017 C5.70792816,20.2100079 10.173462,20.7461479 13.6834491,18.8619859 C14.0951282,18.6363378 14.1517482,18.060935 13.8187957,17.7337452 L8.5168202,12.469374 Z" id="Shape" fill="#3F3F3F"></path>
    </g>
</svg>