<?xml version="1.0" encoding="UTF-8"?>
<svg width="20px" height="20px" viewBox="0 0 20 20" version="1.1" xmlns="http://www.w3.org/2000/svg" xmlns:xlink="http://www.w3.org/1999/xlink">
    <title>B4F9F258-05E7-4180-8981-655BFA2BA77E@svg</title>
    <g id="Consola-mobile" stroke="none" stroke-width="1" fill="none" fill-rule="evenodd">
        <g id="0a-Menu" transform="translate(-30.000000, -76.000000)">
            <g id="Input" transform="translate(20.000000, 65.000000)">
                <g id="Group" transform="translate(10.000000, 11.000000)">
                    <rect id="Rectangle" x="0" y="0" width="20" height="20"></rect>
                    <path d="M10.5857864,10.5857864 C11.3257272,9.84584567 12.5012114,9.80690142 13.2869988,10.4689537 L13.4142136,10.5857864 L19.4142136,16.5857864 C20.1952621,17.366835 20.1952621,18.633165 19.4142136,19.4142136 C18.6742728,20.1541543 17.4987886,20.1930986 16.7130012,19.5310463 L16.5857864,19.4142136 L10.5857864,13.4142136 C9.80473785,12.633165 9.80473785,11.366835 10.5857864,10.5857864 Z" id="Path-9" fill="#95A3BF" fill-rule="nonzero"></path>
                    <path d="M7,0 C3.13400675,0 0,3.13400675 0,7 C0,10.8659932 3.13400675,14 7,14 C10.8659932,14 14,10.8659932 14,7 C14,3.13400675 10.8659932,0 7,0 Z M7,2 C9.76142375,2 12,4.23857625 12,7 C12,9.76142375 9.76142375,12 7,12 C4.23857625,12 2,9.76142375 2,7 C2,4.23857625 4.23857625,2 7,2 Z" id="Oval" fill="#95A3BF" fill-rule="nonzero"></path>
                </g>
            </g>
        </g>
    </g>
</svg>