<?xml version="1.0" encoding="UTF-8"?>
<svg width="20px" height="20px" viewBox="0 0 20 20" version="1.1" xmlns="http://www.w3.org/2000/svg" xmlns:xlink="http://www.w3.org/1999/xlink">
    <title>Security scan@svg</title>
    <g id="Security-scan" stroke="none" stroke-width="1" fill="none" fill-rule="evenodd">
        <path d="M12,3 C13.6568542,3 15,4.34314575 15,6 L15,8 L13,8 L13,6 C13,5.44771525 12.5522847,5 12,5 L8,5 C7.44771525,5 7,5.44771525 7,6 L7,8 L5,8 L5,6 C5,4.34314575 6.34314575,3 8,3 L12,3 Z M4,0 C4.55228475,0 5,0.44771525 5,1 C5,1.51283584 4.61395981,1.93550716 4.11662113,1.99327227 L4,2 L2,2 L2,4.00298691 C2,4.51582275 1.61395981,4.93849407 1.11662113,4.99625918 L1,5.00298691 C0.487164161,5.00298691 0.0644928393,4.61694672 0.00672773133,4.11960803 L0,4.00298691 L0,1 C0,0.487164161 0.38604019,0.0644928393 0.883378875,0.00672773133 L1,0 L4,0 Z M19,0 L19.1166211,0.00672773133 C19.6139598,0.0644928393 20,0.487164161 20,1 L20,4.00298691 L19.9932723,4.11960803 C19.9355072,4.61694672 19.5128358,5.00298691 19,5.00298691 L18.8833789,4.99625918 C18.3860402,4.93849407 18,4.51582275 18,4.00298691 L18,2 L16,2 L15.8833789,1.99327227 C15.3860402,1.93550716 15,1.51283584 15,1 C15,0.44771525 15.4477153,0 16,0 L19,0 Z M1,15 L1.11662113,15.0067277 C1.61395981,15.0644928 2,15.4871642 2,16 L2,18.0029869 L4,18.0029869 L4.11662113,18.0097146 C4.61395981,18.0674797 5,18.4901511 5,19.0029869 C5,19.5552717 4.55228475,20.0029869 4,20.0029869 L1,20.0029869 L0.883378875,19.9962592 C0.38604019,19.9384941 0,19.5158227 0,19.0029869 L0,16 L0.00672773133,15.8833789 C0.0644928393,15.3860402 0.487164161,15 1,15 Z M19,15 C19.5128358,15 19.9355072,15.3860402 19.9932723,15.8833789 L20,16 L20,19.0029869 C20,19.5158227 19.6139598,19.9384941 19.1166211,19.9962592 L19,20.0029869 L16,20.0029869 C15.4477153,20.0029869 15,19.5552717 15,19.0029869 C15,18.4901511 15.3860402,18.0674797 15.8833789,18.0097146 L16,18.0029869 L18,18.0029869 L18,16 C18,15.4871642 18.3860402,15.0644928 18.8833789,15.0067277 L19,15 Z M15,12 L15,14 C15,15.1045695 14.1045695,16 13,16 L7,16 C5.8954305,16 5,15.1045695 5,14 L5,12 L15,12 Z M1,9 L19,9 C19.5522847,9 20,9.44771525 20,10 C20,10.5522847 19.5522847,11 19,11 L1,11 C0.44771525,11 6.76353751e-17,10.5522847 0,10 C-6.76353751e-17,9.44771525 0.44771525,9 1,9 Z" id="Path-54" fill="#3F3F3F"></path>
    </g>
</svg>