<?xml version="1.0" encoding="UTF-8"?>
<svg  viewBox="0 0 20 20" version="1.1" xmlns="http://www.w3.org/2000/svg" xmlns:xlink="http://www.w3.org/1999/xlink">
    <!-- Generator: Sketch 61.2 (89653) - https://sketch.com -->
    <title>Dark / 20 / see-details@svg</title>
    <desc>Created with Sketch.</desc>
    <g id="Dark-/-20-/-see-details" stroke="none" stroke-width="1" fill="none" fill-rule="evenodd">
        <path d="M19.8791477,9.46770833 C17.9961616,5.61005208 14.2683838,3 9.99998101,3 C5.73157823,3 2.00275879,5.611875 0.120814346,9.46807292 C-0.0402714486,9.80265097 -0.0402714486,10.1977136 0.120814346,10.5322917 C2.00380046,14.3899479 5.73157823,17 9.99998101,17 C14.2683838,17 17.9972032,14.388125 19.8791477,10.5319271 C20.0402335,10.197349 20.0402335,9.80228639 19.8791477,9.46770833 Z M9.99998101,15.25 C7.23855726,15.25 4.99998101,12.8994949 4.99998101,10 C4.99998101,7.10050506 7.23855726,4.75 9.99998101,4.75 C12.7614048,4.75 14.999981,7.10050506 14.999981,10 C15.0006262,11.3925941 14.4740492,12.7283458 13.5362274,13.7130587 C12.5984056,14.6977716 11.3262611,15.2506774 9.99998101,15.25 L9.99998101,15.25 Z M9.99998101,6.49999024 C9.70245721,6.50436592 9.40685319,6.55084384 9.12116157,6.63817708 C9.60780249,7.33256972 9.53838439,8.29608239 8.95779336,8.90570297 C8.37720233,9.51532354 7.45957122,9.58821255 6.7982449,9.07723958 C6.42458021,10.5227256 6.9704566,12.0574376 8.15505395,12.8918598 C9.3396513,13.7262821 10.899112,13.6745551 12.0311886,12.7632893 C13.1632653,11.8520234 13.6157987,10.2841944 13.1559881,8.86635461 C12.6961774,7.44851482 11.4264411,6.49647436 9.99998101,6.49999024 L9.99998101,6.49999024 Z" id="Shape" fill="#3F3F3F"></path>
    </g>
</svg>