<?xml version="1.0" encoding="UTF-8"?>
<svg width="20px" height="20px" viewBox="0 0 20 20" version="1.1" xmlns="http://www.w3.org/2000/svg" xmlns:xlink="http://www.w3.org/1999/xlink">
    <!-- Generator: Sketch 61.2 (89653) - https://sketch.com -->
    <title>Dark / 20 / Send feedbacks@svg</title>
    <desc>Created with Sketch.</desc>
    <g id="Dark-/-20-/-Send-feedbacks" stroke="none" stroke-width="1" fill="none" fill-rule="evenodd">
        <path d="M1.50193385,20 C1.3695076,20 1.23840017,19.9736974 1.1162212,19.922619 C0.606672817,19.7095957 0.366291674,19.1238357 0.57931489,18.6142873 L0.57931489,18.6142873 L1.79225699,15.7140617 C0.662531489,14.094342 0,12.1245422 0,10 C0,4.4771525 4.4771525,0 10,0 C15.5228475,0 20,4.4771525 20,10 C20,15.5228475 15.5228475,20 10,20 L10,20 Z M10,11 C10.5522847,11 11,11.4477153 11,12 C11,12.5522847 10.5522847,13 10,13 L6,13 C5.44771525,13 5,12.5522847 5,12 C5,11.4477153 5.44771525,11 6,11 L10,11 Z M14,7 C14.5522847,7 15,7.44771525 15,8 C15,8.55228475 14.5522847,9 14,9 L6,9 C5.44771525,9 5,8.55228475 5,8 C5,7.44771525 5.44771525,7 6,7 L14,7 Z" id="Oval-2" fill="#3F3F3F"></path>
    </g>
</svg>