<?xml version="1.0" encoding="UTF-8"?>
<svg  viewBox="0 0 20 20" version="1.1" xmlns="http://www.w3.org/2000/svg" xmlns:xlink="http://www.w3.org/1999/xlink">
    <!-- Generator: Sketch 61.2 (89653) - https://sketch.com -->
    <title>Dark / 20 / sensor@svg</title>
    <desc>Created with Sketch.</desc>
    <g id="Dark-/-20-/-sensor" stroke="none" stroke-width="1" fill="none" fill-rule="evenodd">
        <path d="M2.92629644,3 L4.56327557,4.61941692 C3.24829933,5.91942327 2.50825444,7.45516387 2.34309594,9.2265498 C2.32017598,9.47913491 2.30880589,9.736922 2.30912048,10.0000445 C2.30921036,12.0988885 3.05891759,13.8914825 4.5580624,15.3780488 L4.56066898,15.380672 L2.92364491,17 L2.92103833,16.9974212 C0.972437696,15.065174 -0.00125591663,12.7326855 1.2157398e-06,10.0000445 C0.000272080363,9.53199949 0.0290343767,9.07578125 0.086379205,8.63156758 C0.361463605,6.47785823 1.30814762,4.60065422 2.92629644,3 Z M17.0737959,3.00262322 C18.285902,4.20259146 19.1210871,5.55719639 19.5790368,7.06657139 C19.85884,7.98616616 19.9991911,8.96307165 20,9.99742124 L20,10.0000889 C19.9996405,11.512265 19.7006924,12.901372 19.1031107,14.1674098 C18.6221961,15.1910887 17.9465518,16.1343814 17.0764025,16.9974212 L15.4393334,15.3780488 C16.0369151,14.7864901 16.5155826,14.1466463 16.8749765,13.4586065 C17.4196176,12.4166984 17.6915561,11.2638592 17.6909269,10.0000445 L17.6909269,9.99742124 C17.6921852,8.98756987 17.5206002,8.04858994 17.1757223,7.18039253 C16.7991609,6.24368013 16.2213533,5.3900216 15.4420299,4.61941692 L17.0737959,3.00262322 Z M5.71399213,5.7576283 L7.3510162,7.37700076 C6.62220657,8.0988313 6.25867811,8.97058562 6.2605207,9.99226372 L6.2605207,10.0000889 C6.25984658,10.1139545 6.26425081,10.2261306 6.27359855,10.3363504 L6.27359855,10.3388847 C6.3459537,11.2142403 6.70512288,11.972218 7.3510162,12.6127731 C7.35258913,12.6144182 7.3542969,12.6161077 7.3562743,12.6179306 L5.71659871,14.2373476 L5.71399213,14.2347243 C4.5348728,13.0658791 3.94475137,11.6543191 3.94358291,10.0000889 L3.94358291,9.99226372 C3.94331326,9.91908028 3.94421208,9.84674162 3.94623443,9.77498095 C3.99625386,8.21331936 4.58552141,6.87423145 5.71399213,5.7576283 Z M14.2887068,5.7576283 C14.2924369,5.76256352 14.2958973,5.76772104 14.2991331,5.77314533 C14.6931766,6.16551702 15.0209769,6.58545478 15.2824441,7.03291413 L15.2851406,7.03291413 C15.7996711,7.91316057 16.0567791,8.89953633 16.0565545,9.99226372 L16.0565545,9.99742124 C16.0563746,11.1318979 15.7800768,12.1528201 15.2275261,13.0603214 L15.2249645,13.0603214 C14.9698788,13.4753239 14.656999,13.8668064 14.2860552,14.2347243 L14.2860552,14.2320567 L14.2834936,14.2347243 L12.6464246,12.6153074 C12.7529799,12.506466 12.8514458,12.3952236 12.9419572,12.2816247 L12.9419572,12.2789571 C13.4735204,11.6266197 13.7402457,10.8660188 13.7422231,9.99742124 L13.7422231,9.99226372 C13.7413693,8.97240854 13.3771217,8.10238821 12.6491211,7.38215828 L14.2887068,5.7576283 Z M10.0026752,8.08833762 C10.535272,8.0878938 10.9894017,8.2732533 11.3651092,8.64450584 L11.3677608,8.64712907 C11.741356,9.01829268 11.9278615,9.46668572 11.9273234,9.99226372 L11.9273234,9.99742124 C11.9266032,10.5219766 11.7391539,10.9694804 11.3651092,11.3400216 C11.363761,11.3412221 11.3629521,11.343045 11.3625027,11.3451791 C10.9866154,11.7129637 10.5334744,11.8965892 10.0026303,11.8962341 C9.47156143,11.8966336 9.0191395,11.7120744 8.64536447,11.3426004 L8.64275789,11.3400216 C8.26925251,10.9702363 8.08184817,10.5234883 8.08049877,10.0000445 L8.08049877,9.99221926 C8.07996064,9.46815295 8.26570216,9.02056021 8.63754472,8.64966336 C8.63911766,8.64815168 8.64087036,8.64646214 8.64280283,8.64450584 C9.01770139,8.2732533 9.47093226,8.0878938 10.0026752,8.08833762 Z" id="Path-2" fill="#3F3F3F"></path>
    </g>
</svg>