<?xml version="1.0" encoding="UTF-8"?>
<svg width="30.0011092px" height="30px" viewBox="0 0 30.0011092 30" version="1.1" xmlns="http://www.w3.org/2000/svg" xmlns:xlink="http://www.w3.org/1999/xlink">
    <title>7A93DEF5-4FEF-40B6-99B7-F2F36D7D47A0</title>
    <g id="Consola-mobile" stroke="none" stroke-width="1" fill="none" fill-rule="evenodd">
        <g id="0a-Menu" transform="translate(-35.000000, -547.898333)" fill="#3F3F3F">
            <g id="Conmutador" transform="translate(20.000000, 122.000000)">
                <g id="Mobile-services" transform="translate(15.000000, 425.898333)">
                    <path d="M15,0 C23.1075582,0 30,2.39269081 30,8.09172156 L30.0011092,21.5357707 C29.4125119,21.1950335 28.7290322,21 28,21 C27.2685186,21 26.5828964,21.1963461 25.9929619,21.5392097 L23.1145512,18.1809622 C23.6708634,17.432156 24,16.504515 24,15.5 C24,14.3906757 23.5985973,13.3751041 22.9331138,12.590607 L24.9263454,9.93387288 C25.1105489,9.977122 25.3026027,10 25.5,10 C26.8807119,10 28,8.88071187 28,7.5 C28,6.11928813 26.8807119,5 25.5,5 C24.1192881,5 23,6.11928813 23,7.5 C23,7.94894056 23.1183351,8.37024248 23.3255151,8.73441568 L21.3340363,11.3894793 C20.7738858,11.1391713 20.1531955,11 19.5,11 C18.300645,11 17.2108778,11.4692008 16.4042415,12.2340592 L13.9415885,10.5920657 C13.9799014,10.400661 14,10.2026776 14,10 C14,8.34314575 12.6568542,7 11,7 C9.34314575,7 8,8.34314575 8,10 C8,11.6568542 9.34314575,13 11,13 C11.7271223,13 12.3938258,12.741316 12.9131003,12.3109582 L15.2935368,13.8979357 C15.1038711,14.3956458 15,14.9356927 15,15.5 C15,16.1810495 15.1512936,16.8267624 15.4221048,17.4053628 L11.695466,20.3038146 C11.340333,20.1100926 10.9330233,20 10.5,20 C9.11928813,20 8,21.1192881 8,22.5 C8,23.8807119 9.11928813,25 10.5,25 C11.8807119,25 13,23.8807119 13,22.5 C13,22.286925 12.9733436,22.0800759 12.9231838,21.8826056 L16.6499007,18.9825485 C17.4259628,19.6184248 18.4184206,20 19.5,20 C20.2570179,20 20.9703763,19.8130715 21.5964354,19.4828542 L24.5657994,22.947893 C24.2065164,23.5478609 24,24.2498132 24,25 C24,26.2589117 24.5815758,27.3819891 25.4907148,28.1152196 C22.7594493,29.4088759 19.0298244,30 15,30 C6.89244177,30 0,27.6073092 0,21.9082784 L0,8.09172156 C0,2.39269081 6.89244177,0 15,0 Z" id="Mask"></path>
                </g>
            </g>
        </g>
    </g>
</svg>