<?xml version="1.0" encoding="UTF-8"?>
<svg width="30px" height="29px" viewBox="0 0 30 29" version="1.1" xmlns="http://www.w3.org/2000/svg" xmlns:xlink="http://www.w3.org/1999/xlink">
    <title>5DF60C72-9560-434D-8EEE-2966DF14C3C5</title>
    <g id="Consola-mobile" stroke="none" stroke-width="1" fill="none" fill-rule="evenodd">
        <g id="0a-Menu" transform="translate(-35.000000, -495.923749)" fill="#3F3F3F">
            <g id="Conmutador" transform="translate(20.000000, 122.000000)">
                <g id="Elemento" transform="translate(0.000000, 373.923749)">
                    <g id="Mobile-server-status" transform="translate(15.000000, 0.000000)">
                        <path d="M8,27 C8.55228475,27 9,27.4477153 9,28 C9,28.5522847 8.55228475,29 8,29 C7.44771525,29 7,28.5522847 7,28 C7,27.4477153 7.44771525,27 8,27 Z M11,27 C11.5522847,27 12,27.4477153 12,28 C12,28.5522847 11.5522847,29 11,29 C10.4477153,29 10,28.5522847 10,28 C10,27.4477153 10.4477153,27 11,27 Z M15,0 C23.1075582,0 30,2.39269081 30,8.09172156 L30,21.9082784 C30,24.9407566 28.0485094,27.0370946 25.0008585,28.3349403 L25,27 C25,26.4477153 24.5522847,26 24,26 L6,26 C5.44771525,26 5,26.4477153 5,27 L5.00014724,28.3353686 C1.95191991,27.0375557 0,24.9410901 0,21.9082784 L0,8.09172156 C0,2.39269081 6.89244177,0 15,0 Z M24,17 L6,17 C5.44771525,17 5,17.4477153 5,18 L5,23 C5,23.5522847 5.44771525,24 6,24 L24,24 C24.5522847,24 25,23.5522847 25,23 L25,18 C25,17.4477153 24.5522847,17 24,17 Z M15,8 C11.6666667,8 8.33333333,8.38888889 5,9.16666667 L5,14 C5,14.5522847 5.44771525,15 6,15 L24,15 C24.5522847,15 25,14.5522847 25,14 L25,9.16666667 C21.6666667,8.38888889 18.3333333,8 15,8 Z M11,10 C11.5522847,10 12,10.4477153 12,11 C12,11.5522847 11.5522847,12 11,12 L8,12 C7.44771525,12 7,11.5522847 7,11 C7,10.4477153 7.44771525,10 8,10 Z" id="Mask"></path>
                    </g>
                </g>
            </g>
        </g>
    </g>
</svg>