<?xml version="1.0" encoding="UTF-8"?>
<svg  viewBox="0 0 20 20" version="1.1" xmlns="http://www.w3.org/2000/svg" xmlns:xlink="http://www.w3.org/1999/xlink">
    <!-- Generator: Sketch 61.2 (89653) - https://sketch.com -->
    <title>Dark / 20 / server-export@svg</title>
    <desc>Created with Sketch.</desc>
    <g id="Dark-/-20-/-server-export" stroke="none" stroke-width="1" fill="none" fill-rule="evenodd">
        <path d="M-1.5391155e-10,14.58375 C0.540377131,14.9892604 1.12831666,15.3211188 1.74951252,15.57125 C3.42822859,16.27125 5.63971801,16.66625 7.99880006,16.66625 C9.03996578,16.66625 10.0517414,16.5894666 11.0016293,16.4436131 L11.0012051,19.75747 C10.0744406,19.9138715 9.06135241,20 8,20 C3.58182091,20 -1.5391155e-10,18.5075 -1.5391155e-10,16.66625 L-1.5391155e-10,16.66625 Z M0.00119993985,7.9175 C0.541563073,8.32303369 1.12950556,8.65489367 1.75071246,8.905 C3.42942853,9.60375 5.64091795,10 8,10 C9.04027243,10 10.0516415,9.9232703 11.0012329,9.77751625 L11.0012051,14.75747 C10.0744406,14.9138715 9.06135241,15 8,15 C3.58182091,15 -1.55003121e-10,13.50625 -1.55003121e-10,11.6675 L-1.55003121e-10,11.6675 L-1.55003121e-10,7.9175 Z M15.6128994,5.20970461 L15.7071068,5.29289322 L19.7071068,9.29289322 C20.0675681,9.65335451 20.0953199,10.2205425 19.7903452,10.6128352 L19.7071697,10.7070439 L15.7078811,14.7070439 C15.3173916,15.0976029 14.6842266,15.0976592 14.2936676,14.7071697 C13.9331515,14.3467178 13.9053715,13.7794892 14.2103615,13.3871708 L14.2935418,13.2929561 L17.585,10 L14.2928932,6.70710678 C13.9324093,6.34662282 13.9046797,5.77939176 14.2097046,5.38710056 L14.2928932,5.29289322 C14.6533772,4.93240926 15.2206082,4.90467972 15.6128994,5.20970461 Z M8,-2.39630538e-12 C9.06135241,-2.39630538e-12 10.0744406,0.086128509 11.0012051,0.242530025 L11.0012051,8.09121997 C10.0744406,8.24762149 9.06135241,8.33375 8,8.33375 C3.58182091,8.33375 -1.53465685e-10,6.84125 -1.53465685e-10,5 L-1.53465685e-10,3.33375 C-1.53465685e-10,1.4925 3.58182091,-2.39630538e-12 8,-2.39630538e-12 Z" id="Path-2" fill="#3F3F3F"></path>
    </g>
</svg>