<?xml version="1.0" encoding="UTF-8"?>
<svg  viewBox="0 0 20 20" version="1.1" xmlns="http://www.w3.org/2000/svg" xmlns:xlink="http://www.w3.org/1999/xlink">
    <!-- Generator: Sketch 61.2 (89653) - https://sketch.com -->
    <title>Dark / 20 / server-events@svg</title>
    <desc>Created with Sketch.</desc>
    <g id="Dark-/-20-/-server-events" stroke="none" stroke-width="1" fill="none" fill-rule="evenodd">
        <path d="M-3.54560825e-12,11.667 C0.439056419,11.9914084 0.916757289,12.256895 1.42147893,12.457 C2.78543573,13.017 4.58227089,13.333 6.49902505,13.333 C7.36872488,13.333 8.21318547,13.2680753 9.00371527,13.1449312 L9.00667031,13.0310925 C8.93369301,14.0632118 9.46282118,15.000659 10.2929963,15.4989946 C9.22572827,15.8142971 7.91570867,16 6.5,16 C2.91022949,16 -3.54560825e-12,14.806 -3.54560825e-12,13.333 L-3.54560825e-12,13.333 Z M0.000974951248,6.334 C0.440019997,6.65842695 0.917723268,6.92391494 1.42245388,7.124 C2.78641068,7.683 4.58324584,8 6.5,8 C7.63597475,8 8.72952982,7.88912084 9.71582011,7.68232753 L9.17040592,11.7652574 C8.35575488,11.9160681 7.45176152,12 6.5,12 C2.91022949,12 -4.43201031e-12,10.805 -4.43201031e-12,9.334 L-4.43201031e-12,9.334 Z M13,4 L12.5315392,4 C11.2123812,4 10.0931485,4.96884131 9.90284173,6.2719541 C8.91384876,6.52269117 7.74798961,6.667 6.5,6.667 C2.91022949,6.667 -3.18323146e-12,5.473 -3.18323146e-12,4 L-3.18323146e-12,2.667 C-3.18323146e-12,1.194 2.91022949,-6.66133815e-14 6.5,-6.66133815e-14 C10.0897705,-6.66133815e-14 13,1.194 13,2.667 L13,4 Z" id="Path-2" fill="#3F3F3F"></path>
        <path d="M19.0940392,10.375 L15.9385705,10.375 L17.1034142,6.82578125 C17.2127892,6.41015625 16.8983361,6 16.4690392,6 L12.5315392,6 C12.2034142,6 11.924508,6.24335937 11.880758,6.56875 L11.005758,13.13125 C10.9538049,13.525 11.2600549,13.875 11.6565392,13.875 L14.9022424,13.875 L13.6416955,19.1933594 C13.543258,19.6089844 13.8604455,20 14.2788049,20 C14.5084924,20 14.7272424,19.8796875 14.8475549,19.671875 L19.6600549,11.359375 C19.9143517,10.9246094 19.5998986,10.375 19.0940392,10.375 Z" id="Path" fill="#3F3F3F"></path>
    </g>
</svg>