<?xml version="1.0" encoding="UTF-8"?>
<svg  viewBox="0 0 20 20" version="1.1" xmlns="http://www.w3.org/2000/svg" xmlns:xlink="http://www.w3.org/1999/xlink">
    <!-- Generator: Sketch 61.2 (89653) - https://sketch.com -->
    <title>Dark / 20 / server-web@svg</title>
    <desc>Created with Sketch.</desc>
    <g id="Dark-/-20-/-server-web" stroke="none" stroke-width="1" fill="none" fill-rule="evenodd">
        <path d="M0,11.667 C0.439056419,11.9914084 0.916757289,12.256895 1.42147893,12.457 C2.78543573,13.017 4.58227089,13.333 6.49902505,13.333 C7.01209403,13.333 7.51637908,13.3104045 8.00598941,13.2665901 C8.00164393,13.3434143 8,13.4215152 8,13.5 C8,14.3472713 8.19158349,15.1497959 8.53379315,15.8666164 C7.8948061,15.9531974 7.21072142,16 6.5,16 C2.91022949,16 0,14.806 0,13.333 L0,13.333 Z M13,6.334 L12.9993879,8.0224767 C10.738969,8.22642728 8.87300306,9.79799568 8.23533975,11.9033323 C7.68428174,11.9664563 7.10168623,12 6.5,12 C2.91022949,12 -8.86402063e-13,10.805 -8.86402063e-13,9.334 L-8.86402063e-13,9.334 L0.000974951252,6.334 C0.440019997,6.65842695 0.917723268,6.92391494 1.42245388,7.124 C2.78641068,7.683 4.58324584,8 6.5,8 C8.41772911,8 10.2145643,7.684 11.5785211,7.124 C12.0832427,6.92389502 12.5609436,6.65840836 13,6.334 L13,6.334 Z M6.5,-1.33226763e-14 C10.0897705,-1.33226763e-14 13,1.194 13,2.667 L13,4 C13,5.473 10.0897705,6.667 6.5,6.667 C2.91022949,6.667 3.62376795e-13,5.473 3.62376795e-13,4 L3.62376795e-13,2.667 C3.62376795e-13,1.194 2.91022949,-1.33226763e-14 6.5,-1.33226763e-14 Z" id="Path-2" fill="#3F3F3F"></path>
        <path d="M13.5,7 C9.91014913,7 7,9.91014913 7,13.5 C7,17.0898509 9.91014913,20 13.5,20 C17.0898509,20 20,17.0898509 20,13.5 C20,9.91014913 17.0898509,7 13.5,7 Z M13.5,9 C15.9852814,9 18,11.0147186 18,13.5 C18,15.9852814 15.9852814,18 13.5,18 C11.0147186,18 9,15.9852814 9,13.5 C9,11.0147186 11.0147186,9 13.5,9 Z" id="Oval" fill="#3F3F3F" fill-rule="nonzero"></path>
    </g>
</svg>