<?xml version="1.0" encoding="UTF-8"?>
<svg width="20px" height="20px" viewBox="0 0 20 20" version="1.1" xmlns="http://www.w3.org/2000/svg" xmlns:xlink="http://www.w3.org/1999/xlink">
    <!-- Generator: Sketch 61.2 (89653) - https://sketch.com -->
    <title>Dark / 20 / servers@svg</title>
    <desc>Created with Sketch.</desc>
    <g id="Dark-/-20-/-servers" stroke="none" stroke-width="1" fill="none" fill-rule="evenodd">
        <path d="M19,14 C19.5522847,14 20,14.4477153 20,15 L20,15 L20,19 C16.6666667,19.6666667 13.3333333,20 10,20 C6.66666667,20 3.33333333,19.6666667 0,19 L0,19 L0,15 C6.76353751e-17,14.4477153 0.44771525,14 1,14 L1,14 Z M3,16 C2.44771525,16 2,16.4477153 2,17 C2,17.5522847 2.44771525,18 3,18 C3.55228475,18 4,17.5522847 4,17 C4,16.4477153 3.55228475,16 3,16 Z M6,16 C5.44771525,16 5,16.4477153 5,17 C5,17.5522847 5.44771525,18 6,18 C6.55228475,18 7,17.5522847 7,17 C7,16.4477153 6.55228475,16 6,16 Z M19,7 C19.5522847,7 20,7.44771525 20,8 L20,12 C20,12.5522847 19.5522847,13 19,13 L1,13 C0.44771525,13 6.76353751e-17,12.5522847 0,12 L0,8 C-6.76353751e-17,7.44771525 0.44771525,7 1,7 L19,7 Z M10,0 C13.3333333,0 16.6666667,0.333333333 20,1 L20,5 C20,5.55228475 19.5522847,6 19,6 L1,6 C0.44771525,6 6.76353751e-17,5.55228475 0,5 L0,1 C3.33333333,0.333333333 6.66666667,0 10,0 Z M6,2 L3,2 C2.44771525,2 2,2.44771525 2,3 C2,3.51283584 2.38604019,3.93550716 2.88337887,3.99327227 L3,4 L6,4 C6.55228475,4 7,3.55228475 7,3 C7,2.44771525 6.55228475,2 6,2 Z" id="Rectangle-Copy-2" fill="#3F3F3F"></path>
    </g>
</svg>