<?xml version="1.0" encoding="UTF-8"?>
<svg width="20px" height="20px" viewBox="0 0 20 20" version="1.1" xmlns="http://www.w3.org/2000/svg" xmlns:xlink="http://www.w3.org/1999/xlink">
    <title>Icons / 20 / setup-password</title>
    <g id="Icons-/-20-/-setup-password" stroke="none" stroke-width="1" fill="none" fill-rule="evenodd">
        <path d="M13.208468,9.26583823 L19.39347,13.7454161 C20.5245355,14.5646067 19.9687223,16.4156239 18.5916747,16.4156239 L15.9658602,16.4155425 L14.7930093,19.1348551 C14.2313611,20.436557 12.4230217,20.2083185 12.1400384,18.8589672 L12.1195829,18.7405724 L11.0151183,10.6773323 C10.8414908,9.40975022 12.2000464,8.53547418 13.208468,9.26583823 Z M17,0 C18.6568542,0 20,1.34314575 20,3 L20,9 C20,9.81609934 19.6741328,10.5560883 19.1454186,11.0969469 L17.4692534,9.88328821 C17.7850281,9.71518084 18,9.3826951 18,9 L18,3 C18,2.44771525 17.5522847,2 17,2 L3,2 C2.44771525,2 2,2.44771525 2,3 L2,9 C2,9.55228475 2.44771525,10 3,10 L9.02768756,10.0002458 C8.98874158,10.3032607 8.98869844,10.6207909 9.03362053,10.9487486 L9.177,12 L3,12 C1.34314575,12 0,10.6568542 0,9 L0,3 C0,1.34314575 1.34314575,0 3,0 L17,0 Z M6.52839506,4 L6.52839506,5.31948052 L7.67407407,4.91428571 L8,5.93246753 L6.8345679,6.32727273 L7.5654321,7.36623377 L6.74567901,8 L5.99506173,6.95064935 L5.26419753,8 L4.44444444,7.35584416 L5.1654321,6.32727273 L4,5.93246753 L4.31604938,4.91428571 L5.47160494,5.31948052 L5.47160494,4 L6.52839506,4 Z M11.5283951,4 L11.5283951,5.31948052 L12.6740741,4.91428571 L13,5.93246753 L11.8345679,6.32727273 L12.5654321,7.36623377 L11.745679,8 L10.9950617,6.95064935 L10.2641975,8 L9.44444444,7.35584416 L10.1654321,6.32727273 L9,5.93246753 L9.31604938,4.91428571 L10.4716049,5.31948052 L10.4716049,4 L11.5283951,4 Z" id="Path-91" fill="#3F3F3F"></path>
    </g>
</svg>