<?xml version="1.0" encoding="UTF-8"?>
<svg width="18px" height="14px" viewBox="0 0 18 14" version="1.1" xmlns="http://www.w3.org/2000/svg" xmlns:xlink="http://www.w3.org/1999/xlink">
    <!-- Generator: sketchtool 61.2 (101010) - https://sketch.com -->
    <title>63FC45CA-827E-45C3-9B26-A774E1B0D2D8@svg</title>
    <desc>Created with sketchtool.</desc>
    <g id="Login---v2" stroke="none" stroke-width="1" fill="none" fill-rule="evenodd">
        <g id="Mockup---login-v4j" transform="translate(-581.000000, -594.000000)" fill="#FFFFFF" fill-rule="nonzero">
            <g id="Login" transform="translate(383.000000, 200.000000)">
                <g id="Center" transform="translate(20.000000, 20.000000)">
                    <g id="Formulario">
                        <g id="Principal-por-defecto" transform="translate(37.000000, 360.000000)">
                            <g id="Group-3" transform="translate(92.000000, 11.000000)">
                                <g id="Icons/Elements/signin-white" transform="translate(49.000000, 3.000000)">
                                    <path d="M14.625,13.7127985 L11.671875,13.7127985 C11.4398437,13.7127985 11.25,13.5199623 11.25,13.2842736 L11.25,11.8558571 C11.25,11.6201683 11.4398437,11.4273321 11.671875,11.4273321 L14.625,11.4273321 C15.2472656,11.4273321 15.75,10.9166732 15.75,10.2845989 L15.75,3.42819963 C15.75,2.79612532 15.2472656,2.28546642 14.625,2.28546642 L11.671875,2.28546642 C11.4398437,2.28546642 11.25,2.09263019 11.25,1.85694147 L11.25,0.428524954 C11.25,0.192836229 11.4398437,0 11.671875,0 L14.625,0 C16.4882813,0 18,1.53554775 18,3.42819963 L18,10.2845989 C18,12.1772508 16.4882813,13.7127985 14.625,13.7127985 Z M12.9726562,6.53500555 L7.06640625,0.535656192 C6.5390625,3.33066907e-16 5.625,0.374959335 5.625,1.14273321 L5.625,4.57093284 L0.84375,4.57093284 C0.376171875,4.57093284 0,4.95303426 0,5.42798275 L0,8.85618238 C0,9.33113087 0.376171875,9.71323229 0.84375,9.71323229 L5.625,9.71323229 L5.625,13.1414319 C5.625,13.9092058 6.5390625,14.2841651 7.06640625,13.7485089 L12.9726562,7.74915958 C13.2996094,7.4134817 13.2996094,6.87068343 12.9726562,6.53500555 Z" id="Shape"></path>
                                </g>
                            </g>
                        </g>
                    </g>
                </g>
            </g>
        </g>
    </g>
</svg>