<?xml version="1.0" encoding="UTF-8"?>
<svg width="20px" height="20px" viewBox="0 0 20 20" version="1.1" xmlns="http://www.w3.org/2000/svg" xmlns:xlink="http://www.w3.org/1999/xlink">
    <!-- Generator: Sketch 61.2 (89653) - https://sketch.com -->
    <title>Dark / 20 / Sign out@svg</title>
    <desc>Created with Sketch.</desc>
    <g id="Dark-/-20-/-Sign-out" stroke="none" stroke-width="1" fill="none" fill-rule="evenodd">
        <path d="M5,0 C7.76142375,-5.07265313e-16 10,2.23857625 10,5 L10,15 C10,17.7614237 7.76142375,20 5,20 C2.23857625,20 3.38176876e-16,17.7614237 0,15 L0,5 C-3.38176876e-16,2.23857625 2.23857625,5.07265313e-16 5,0 Z M6,11 C5.44771525,11 5,10.5522847 5,10 C5,9.44771525 5.44771525,9 6,9 L10,9 L16.586,9 L13.2928932,5.70710678 C12.9324093,5.34662282 12.9046797,4.77939176 13.2097046,4.38710056 L13.2928932,4.29289322 C13.6533772,3.93240926 14.2206082,3.90467972 14.6128994,4.20970461 L14.7071068,4.29289322 L19.7071068,9.29289322 C20.0675907,9.65337718 20.0953203,10.2206082 19.7902954,10.6128994 L19.7071068,10.7071068 L14.7071068,15.7071068 C14.3165825,16.0976311 13.6834175,16.0976311 13.2928932,15.7071068 C12.9324093,15.3466228 12.9046797,14.7793918 13.2097046,14.3871006 L13.2928932,14.2928932 L16.586,11 L10,11 L6,11 Z" id="Rectangle-2" fill="#3F3F3F"></path>
    </g>
</svg>