<?xml version="1.0" encoding="UTF-8"?>
<svg  viewBox="0 0 20 20" version="1.1" xmlns="http://www.w3.org/2000/svg" xmlns:xlink="http://www.w3.org/1999/xlink">
    <!-- Generator: Sketch 61.2 (89653) - https://sketch.com -->
    <title>Dark / 20 / simple-value@svg</title>
    <desc>Created with Sketch.</desc>
    <g id="Dark-/-20-/-simple-value" stroke="none" stroke-width="1" fill="none" fill-rule="evenodd">
        <g id="Group" transform="translate(0.000000, 5.000000)" fill="#3F3F3F" fill-rule="nonzero">
            <path d="M4.52830189,9.79351032 L4.52830189,0.221238938 L2.56894049,0.221238938 C2.40928882,1.19469027 1.40783745,2.00589971 0,2.02064897 L0,3.56932153 L2.24963716,3.56932153 L2.24963716,9.79351032 L4.52830189,9.79351032 Z M12.7140784,9.79351032 L12.7140784,7.84660767 L8.35994194,7.84660767 C8.49056604,7.56637168 8.72278665,7.37463127 8.99854862,7.19764012 L10.7837446,6.12094395 C11.988389,5.39823009 12.6415094,4.38053097 12.6415094,3.14159292 C12.6415094,1.43067847 11.3062409,0 9.1436865,0 C6.87953556,0 5.61683599,1.5339233 5.61683599,3.24483776 C5.61683599,3.53982301 5.66037736,3.92330383 5.70391872,4.04129794 L7.85195936,4.0560472 C7.79390421,3.86430678 7.76487663,3.65781711 7.76487663,3.4660767 C7.76487663,2.66961652 8.20029028,2.05014749 9.08563135,2.05014749 C9.92743106,2.05014749 10.3483309,2.58112094 10.3483309,3.18584071 C10.3483309,3.820059 10.0580552,4.21828909 9.31785196,4.66076696 L7.77939042,5.57522124 C6.05224964,6.59292035 5.55878084,8.03834808 5.55878084,9.79351032 L12.7140784,9.79351032 Z M16.298984,10 C18.6211901,10 20,8.4660767 20,6.7699115 C20,5.13274336 18.8098694,3.95280236 17.3584906,3.84955752 L19.6806967,2.02064897 L19.6806967,0.221238938 L12.8882438,0.221238938 L12.8882438,2.16814159 L16.8214804,2.16814159 L14.4992743,4.10029499 L15.4862119,5.63421829 C15.7039187,5.51622419 16.0232221,5.41297935 16.3280116,5.41297935 C16.9956459,5.41297935 17.6923077,5.79646018 17.6923077,6.71091445 C17.6923077,7.41887906 17.1698113,8.02359882 16.2844702,8.02359882 C15.3991292,8.02359882 14.8040639,7.35988201 14.7750363,6.51917404 L12.5689405,6.93215339 C12.7140784,8.56932153 14.107402,10 16.298984,10 Z" id="123"></path>
        </g>
    </g>
</svg>