<?xml version="1.0" encoding="UTF-8"?>
<svg  viewBox="0 0 20 20" version="1.1" xmlns="http://www.w3.org/2000/svg" xmlns:xlink="http://www.w3.org/1999/xlink">
    <!-- Generator: Sketch 61.2 (89653) - https://sketch.com -->
    <title>Dark / 20 / SNMP-network-incremental-data@svg</title>
    <desc>Created with Sketch.</desc>
    <g id="Dark-/-20-/-SNMP-network-incremental-data" stroke="none" stroke-width="1" fill="none" fill-rule="evenodd">
        <path d="M18,0 C19.1045695,-2.02906125e-16 20,0.8954305 20,2 L20,18 C20,19.1045695 19.1045695,20 18,20 L2,20 C0.8954305,20 1.3527075e-16,19.1045695 0,18 L0,2 C-1.3527075e-16,0.8954305 0.8954305,2.02906125e-16 2,0 L18,0 Z M12.5,9 L7.5,9 C5.56700338,9 4,10.5670034 4,12.5 C4,14.4329966 5.56700338,16 7.5,16 L7.5,16 L12.5,16 C14.4329966,16 16,14.4329966 16,12.5 C16,10.5670034 14.4329966,9 12.5,9 L12.5,9 Z M7.5,10 C8.88071187,10 10,11.1192881 10,12.5 C10,13.8807119 8.88071187,15 7.5,15 C6.11928813,15 5,13.8807119 5,12.5 C5,11.1192881 6.11928813,10 7.5,10 Z M4,2 L2,2 L2,4 L4,4 L4,2 Z M7,2 L5,2 L5,4 L7,4 L7,2 Z M10,2 L8,2 L8,4 L10,4 L10,2 Z" id="Rectangle-2" fill="#3F3F3F"></path>
    </g>
</svg>