<?xml version="1.0" encoding="UTF-8"?>
<svg  viewBox="0 0 20 20" version="1.1" xmlns="http://www.w3.org/2000/svg" xmlns:xlink="http://www.w3.org/1999/xlink">
    <!-- Generator: Sketch 61.2 (89653) - https://sketch.com -->
    <title>Dark / 20 / SNMP-network-alphanumeric-data@svg</title>
    <desc>Created with Sketch.</desc>
    <g id="Dark-/-20-/-SNMP-network-alphanumeric-data" stroke="none" stroke-width="1" fill="none" fill-rule="evenodd">
        <path d="M18,0 C19.1045695,-2.02906125e-16 20,0.8954305 20,2 L20,18 C20,19.1045695 19.1045695,20 18,20 L2,20 C0.8954305,20 1.3527075e-16,19.1045695 0,18 L0,2 C-1.3527075e-16,0.8954305 0.8954305,2.02906125e-16 2,0 L18,0 Z M9.41176471,9 L7.61764706,9 L5,16 L6.62745098,16 L7.12745098,14.5782793 L9.81372549,14.5782793 L10.3137255,16 L12,16 L9.41176471,9 Z M15,9 L13.7019231,9 C13.5961538,9.71186441 12.9326923,10.3050847 12,10.3158706 L12,11.4483821 L13.4903846,11.4483821 L13.4903846,16 L15,16 L15,9 Z M8.49019608,10.7376587 L9.32352941,13.1565585 L7.6372549,13.1565585 L8.49019608,10.7376587 Z M4,2 L2,2 L2,4 L4,4 L4,2 Z M7,2 L5,2 L5,4 L7,4 L7,2 Z M10,2 L8,2 L8,4 L10,4 L10,2 Z" id="Rectangle-2" fill="#3F3F3F"></path>
    </g>
</svg>