<?xml version="1.0" encoding="UTF-8"?>
<svg  viewBox="0 0 20 20" version="1.1" xmlns="http://www.w3.org/2000/svg" xmlns:xlink="http://www.w3.org/1999/xlink">
    <!-- Generator: Sketch 61.2 (89653) - https://sketch.com -->
    <title>Dark / 20 / SNMP-network-numeric-data@svg</title>
    <desc>Created with Sketch.</desc>
    <g id="Dark-/-20-/-SNMP-network-numeric-data" stroke="none" stroke-width="1" fill="none" fill-rule="evenodd">
        <path d="M18,0 C19.1045695,-2.02906125e-16 20,0.8954305 20,2 L20,18 C20,19.1045695 19.1045695,20 18,20 L2,20 C0.8954305,20 1.3527075e-16,19.1045695 0,18 L0,2 C-1.3527075e-16,0.8954305 0.8954305,2.02906125e-16 2,0 L18,0 Z M6,9 L4.70192308,9 C4.59615385,9.71186441 3.93269231,10.3050847 3,10.3158706 L3,11.4483821 L4.49038462,11.4483821 L4.49038462,16 L6,16 L6,9 Z M9.50507099,9 C7.92292089,9 7.04056795,10.0963855 7.04056795,11.3192771 C7.04056795,11.5301205 7.07099391,11.8042169 7.10141988,11.8885542 L8.60243408,11.8990964 C8.56186613,11.7620482 8.54158215,11.6144578 8.54158215,11.4774096 C8.54158215,10.9081325 8.84584178,10.4653614 9.46450304,10.4653614 C10.0527383,10.4653614 10.346856,10.8448795 10.346856,11.2771084 C10.346856,11.7304217 10.1440162,12.0150602 9.62677485,12.3313253 L8.55172414,12.9849398 C7.34482759,13.7123494 7,14.7454819 7,16 L12,16 L12,14.6084337 L8.95740365,14.6084337 C9.04868154,14.4081325 9.21095335,14.2710843 9.40365112,14.1445783 L10.6511156,13.375 C11.4929006,12.8584337 11.9492901,12.1310241 11.9492901,11.2454819 C11.9492901,10.0225904 11.0162272,9 9.50507099,9 Z M16.7851562,9 L12.2148438,9 L12.2148438,10.3936652 L14.8613281,10.3936652 L13.2988281,11.7767722 L13.9628906,12.8748115 C14.109375,12.7903469 14.3242187,12.7164404 14.5292969,12.7164404 C14.9785156,12.7164404 15.4472656,12.9909502 15.4472656,13.6455505 C15.4472656,14.1523379 15.0957031,14.5852187 14.5,14.5852187 C13.9042969,14.5852187 13.5039062,14.1101056 13.484375,13.5082956 L12,13.8039216 C12.0976562,14.9758673 13.0351562,16 14.5097656,16 C16.0722656,16 17,14.9019608 17,13.6877828 C17,12.5158371 16.1992188,11.6711916 15.2226562,11.5972851 L16.7851562,10.2880845 L16.7851562,9 Z M4,2 L2,2 L2,4 L4,4 L4,2 Z M7,2 L5,2 L5,4 L7,4 L7,2 Z M10,2 L8,2 L8,4 L10,4 L10,2 Z" id="Rectangle-2" fill="#3F3F3F"></path>
    </g>
</svg>