<?xml version="1.0" encoding="UTF-8"?>
<svg  viewBox="0 0 20 20" version="1.1" xmlns="http://www.w3.org/2000/svg" xmlns:xlink="http://www.w3.org/1999/xlink">
    <!-- Generator: Sketch 61.2 (89653) - https://sketch.com -->
    <title>Dark / 20 / snmp-trap@svg</title>
    <desc>Created with Sketch.</desc>
    <g id="Dark-/-20-/-snmp-trap" stroke="none" stroke-width="1" fill="none" fill-rule="evenodd">
        <path d="M4,9 C3.44771525,9 3,8.55228475 3,8 L3,1 C3,0.44771525 3.44771525,1.01453063e-16 4,0 L16,0 C16.5522847,-1.01453063e-16 17,0.44771525 17,1 L17,8 C17,8.55228475 16.5522847,9 16,9 L11,9 L11,11 L17,11 C17.5128358,11 17.9355072,11.3860402 17.9932723,11.8833789 L18,12 L18,15 L17.9974084,15.0494844 C19.1398195,15.2801171 20,16.2896056 20,17.5 C20,18.8807119 18.8807119,20 17.5,20 L16.5,20 C15.1192881,20 14,18.8807119 14,17.5 C14,16.2892493 14.860687,15.2795228 16.0036005,15.049281 L16,15 L16,13 L11,13 L11,15 L10.9974084,15.0494844 C12.1398195,15.2801171 13,16.2896056 13,17.5 C13,18.8807119 11.8807119,20 10.5,20 L9.5,20 C8.11928813,20 7,18.8807119 7,17.5 C7,16.2892493 7.86068698,15.2795228 9.00360053,15.049281 L9,15 L9,13 L4,13 L4,15 L3.99740845,15.0494844 C5.13981953,15.2801171 6,16.2896056 6,17.5 C6,18.8807119 4.88071187,20 3.5,20 L2.5,20 C1.11928813,20 1.69088438e-16,18.8807119 0,17.5 C-1.48274197e-16,16.2892493 0.860686977,15.2795228 2.00360053,15.049281 L2,15 L2,12 C2,11.4871642 2.38604019,11.0644928 2.88337887,11.0067277 L3,11 L9,11 L9,9 L4,9 Z M9,5 C8.44771525,5 8,5.44771525 8,6 C8,6.55228475 8.44771525,7 9,7 C9.55228475,7 10,6.55228475 10,6 C10,5.44771525 9.55228475,5 9,5 Z M6,5 C5.44771525,5 5,5.44771525 5,6 C5,6.55228475 5.44771525,7 6,7 C6.55228475,7 7,6.55228475 7,6 C7,5.44771525 6.55228475,5 6,5 Z M14,2 L6,2 C5.44771525,2 5,2.44771525 5,3 C5,3.55228475 5.44771525,4 6,4 L6,4 L14,4 C14.5522847,4 15,3.55228475 15,3 C15,2.44771525 14.5522847,2 14,2 L14,2 Z" id="Rectangle-2" fill="#3F3F3F"></path>
    </g>
</svg>