<?xml version="1.0" encoding="UTF-8"?>
<svg  viewBox="0 0 20 20" version="1.1" xmlns="http://www.w3.org/2000/svg" xmlns:xlink="http://www.w3.org/1999/xlink">
    <!-- Generator: Sketch 61.2 (89653) - https://sketch.com -->
    <title>Dark / 20 / solaris@svg</title>
    <desc>Created with Sketch.</desc>
    <g id="Dark-/-20-/-solaris" stroke="none" stroke-width="1" fill="none" fill-rule="evenodd">
        <path d="M8.42221936,0.511345287 C8.4391345,-0.0790168339 9.24034654,-0.180168643 9.43557073,0.323294981 L9.46473442,0.424807922 L10.764033,7.0330548 L13.8093571,1.43365016 C14.0912271,0.915099768 14.8545226,1.18599885 14.7976438,1.72778191 L14.7803466,1.82049835 L12.9640386,8.63077044 L17.7927373,5.92373289 C18.2863646,5.646909 18.7860691,6.22845307 18.4951435,6.66582335 L18.4391986,6.73721155 L14.0672712,11.5337295 C13.8337588,11.7899201 13.4297832,11.7504699 13.2438658,11.4768116 L13.1988594,11.3964169 L12.3517043,9.52673629 C12.3130269,9.44137494 12.2989643,9.3507313 12.3068001,9.26308051 C12.2606637,9.25663548 12.2146216,9.2431455 12.1699965,9.22255865 L12.1042872,9.18634923 L10.6570643,8.25150939 C10.6251625,8.23090233 10.5961953,8.20738411 10.5703056,8.18151519 L10.5172437,8.20317397 L10.430101,8.2223708 L8.80638582,8.43977544 C8.77669608,8.4437507 8.74733038,8.44518285 8.71848917,8.4442524 L8.67608502,8.52050747 L8.6193779,8.58973865 L7.3486454,9.89416583 C7.32137185,9.92216257 7.29200005,9.94635162 7.26109698,9.96682236 C7.26936712,10.0134589 7.2707384,10.0623151 7.2647635,10.1117667 L7.2502356,10.1861874 L6.68546536,12.2732729 C6.67149968,12.3248825 6.6506186,12.3721978 6.62420325,12.4146989 C10.7610392,11.6009862 15.9702667,11.4681863 19.58162,12.2259262 C20.1882907,12.3532189 20.114279,13.2416128 19.4949063,13.2667878 L18.1294322,13.327077 C9.74590217,13.7290338 6.35838395,14.5249824 6.31588619,16.3768368 C6.35550669,17.4595939 9.25457698,18.4269997 14.2645199,18.942886 C14.9228582,19.0106768 14.8799818,19.9829843 14.2182311,19.9925757 C6.50836385,20.1043226 0.0657801896,18.9599587 0.00103921548,16.1962776 C-0.0586395134,14.5873836 2.45852493,13.3341587 5.87947805,12.569013 L0.714999534,9.13917423 C0.253297444,8.83248503 0.52126413,8.13739092 1.03377149,8.17420901 L1.12665371,8.18853206 L6.32612693,9.4096305 L3.35836318,3.41214228 C3.09873126,2.88749438 3.74950384,2.41778391 4.16308156,2.76976334 L4.22624484,2.83227928 L8.22507914,7.40248707 L8.42221936,0.511345287 Z" id="path3241-2" fill="#3F3F3F"></path>
    </g>
</svg>