<?xml version="1.0" encoding="UTF-8"?>
<svg width="20px" height="20px" viewBox="0 0 20 20" version="1.1" xmlns="http://www.w3.org/2000/svg" xmlns:xlink="http://www.w3.org/1999/xlink">
    <!-- Generator: Sketch 61.2 (89653) - https://sketch.com -->
    <title>Dark / 20 / sound console@svg</title>
    <desc>Created with Sketch.</desc>
    <g id="Dark-/-20-/-sound-console" stroke="none" stroke-width="1" fill="none" fill-rule="evenodd">
        <path d="M14.0786893,0.191950562 C14.6433294,0.499936042 15,1.12950535 15,1.81818182 L15,18.1818182 C15,18.8704947 14.6433294,19.500064 14.0786893,19.8080494 C13.5140493,20.1160349 12.8383627,20.0495695 12.3333333,19.6363636 L5,14 L2,14 C0.8954305,14 1.3527075e-16,13.1045695 0,12 L0,8 C-1.3527075e-16,6.8954305 0.8954305,6 2,6 L5,6 L12.3333333,0.363636364 C12.8383627,-0.0495695183 13.5140493,-0.116034918 14.0786893,0.191950562 Z M17,7 C18.6568542,7 20,8.34314575 20,10 C20,11.6568542 18.6568542,13 17,13 L17,7 Z" id="Path-3" fill="#3F3F3F"></path>
    </g>
</svg>