<?xml version="1.0" encoding="UTF-8"?>
<svg viewBox="0 0 20 20" version="1.1" xmlns="http://www.w3.org/2000/svg" xmlns:xlink="http://www.w3.org/1999/xlink">
    <!-- Generator: Sketch 61.2 (89653) - https://sketch.com -->
    <title>Dark / 20 / star@svg</title>
    <desc>Created with Sketch.</desc>
    <g id="Dark-/-20-/-star" stroke="none" stroke-width="1" fill="none" fill-rule="evenodd">
        <path d="M10,16.5 L5.32783438,18.9563028 C4.83898979,19.2133036 4.23436264,19.0253571 3.97736183,18.5365125 C3.87502276,18.3418521 3.83970808,18.118884 3.87688493,17.9021263 L4.76918916,12.6995935 L4.76918916,12.6995935 L0.989327772,9.01513923 C0.593844194,8.62963801 0.585751887,7.99652475 0.971253099,7.60104117 C1.1247617,7.44355754 1.32590411,7.34107036 1.54354115,7.30944585 L6.76718111,6.55040653 L6.76718111,6.55040653 L9.10326392,1.81698575 C9.34768622,1.32173209 9.94731205,1.11839309 10.4425657,1.36281539 C10.6397783,1.46014562 10.7994058,1.61977315 10.8967361,1.81698575 L13.2328189,6.55040653 L13.2328189,6.55040653 L18.4564589,7.30944585 C19.0030037,7.38886347 19.3816852,7.89630632 19.3022676,8.44285118 C19.270643,8.66048821 19.1681559,8.86163062 19.0106722,9.01513923 L15.2308108,12.6995935 L15.2308108,12.6995935 L16.1231151,17.9021263 C16.2164761,18.4464628 15.8508883,18.9634187 15.3065518,19.0567797 C15.0897942,19.0939566 14.8668261,19.0586419 14.6721656,18.9563028 L10,16.5 L10,16.5 Z" id="Star" fill="#3F3F3F"></path>
    </g>
</svg>