<?xml version="1.0" encoding="UTF-8"?>
<svg width="11px" height="10px" viewBox="0 0 11 10" version="1.1" xmlns="http://www.w3.org/2000/svg" xmlns:xlink="http://www.w3.org/1999/xlink">
    <!-- Generator: sketchtool 61.2 (101010) - https://sketch.com -->
    <title>8FDB48E7-691D-43C7-B7AD-DC381E7FA74C@svg</title>
    <desc>Created with sketchtool.</desc>
    <g id="Consola-mobile" stroke="none" stroke-width="1" fill="none" fill-rule="evenodd">
        <g id="2b-Events---open-groups" transform="translate(-323.000000, -268.000000)" fill="#3F3F3F">
            <g id="List" transform="translate(20.000000, 138.000000)">
                <g id="Conmutador" transform="translate(0.000000, 26.000000)">
                    <g id="Group" transform="translate(10.000000, 48.000000)">
                        <g id="Elements-/-mobile-/-Event-card">
                            <g id="Event">
                                <g id="Secondary" transform="translate(10.000000, 55.000000)">
                                    <g id="Label-star" transform="translate(282.000000, 0.000000)">
                                        <path d="M6.5,9.75 L4.47286801,10.8157264 C3.98402343,11.0727272 3.37939627,10.8847806 3.12239546,10.3959361 C3.02005639,10.2012756 2.98474172,9.9783075 3.02191856,9.76154987 L3.40906632,7.50430523 L3.40906632,7.50430523 L1.7690821,5.9057157 C1.37359852,5.52021449 1.36550621,4.88710123 1.75100742,4.49161765 C1.90451603,4.33413401 2.10565844,4.23164683 2.32329547,4.20002232 L4.58969793,3.87069477 L4.58969793,3.87069477 L5.60326392,1.81698575 C5.84768622,1.32173209 6.44731205,1.11839309 6.94256571,1.36281539 C7.13977832,1.46014562 7.29940584,1.61977315 7.39673608,1.81698575 L8.41030207,3.87069477 L8.41030207,3.87069477 L10.6767045,4.20002232 C11.2232494,4.27943994 11.6019308,4.78688279 11.5225132,5.33342765 C11.4908887,5.55106469 11.3884015,5.7522071 11.2309179,5.9057157 L9.59093368,7.50430523 L9.59093368,7.50430523 L9.97808144,9.76154987 C10.0714424,10.3058863 9.70585462,10.8228422 9.16151817,10.9162033 C8.94476055,10.9533801 8.72179247,10.9180654 8.52713199,10.8157264 L6.5,9.75 L6.5,9.75 Z" id="Star"></path>
                                    </g>
                                </g>
                            </g>
                        </g>
                    </g>
                </g>
            </g>
        </g>
    </g>
</svg>