<?xml version="1.0" encoding="UTF-8"?>
<svg width="20px" height="20px" viewBox="0 0 20 20" version="1.1" xmlns="http://www.w3.org/2000/svg" xmlns:xlink="http://www.w3.org/1999/xlink">
    <!-- Generator: sketchtool 61.2 (101010) - https://sketch.com -->
    <title>EF4DAB07-B64C-4C55-97AB-23DF4EA7EF22@svg</title>
    <desc>Created with sketchtool.</desc>
    <g id="Login---v2" stroke="none" stroke-width="1" fill="none" fill-rule="evenodd">
        <g id="Mockup---login-v4h" transform="translate(-162.000000, -25.000000)" fill="#8190AD">
            <g id="Extra-links" transform="translate(20.000000, 20.000000)">
                <g id="Group" transform="translate(142.000000, 5.000000)">
                    <g id="Support">
                        <path fill="#3F3F3F" d="M15.2701641,-1.77635684e-15 C15.4858494,-1.27409902e-15 15.6979436,0.0348396041 15.8989225,0.101403078 L12.7070316,3.29366835 C12.3167579,3.68432574 12.3167579,4.31737481 12.7070316,4.7080322 L14.6666667,6.66808379 L15.2912682,7.29281808 C15.6515751,7.65347905 16.2187925,7.68127953 16.6111153,7.37629716 L16.7053314,7.29311863 C16.7053816,7.29306854 16.7054316,7.29301844 16.7053314,7.29281808 L19.898705,4.10024399 C19.9485744,4.25090439 19.9806182,4.40780887 19.9935232,4.56778861 L20,4.72867607 L20,9.00123799 L16.0046868,13 L10.9984579,13 L10.497,12.499 L2.98434067,19.9968645 L0,19.9968645 L0,16.9968645 L7.499,9.5 L7,9.00123799 L7,4.00313044 L10.9984579,-1.77635684e-15 L15.2701641,-1.77635684e-15 Z"></path>
                    </g>
                </g>
            </g>
        </g>
    </g>
</svg>