<?xml version="1.0" encoding="UTF-8"?>
<svg width="20px" height="20px" viewBox="0 0 20 20" version="1.1" xmlns="http://www.w3.org/2000/svg" xmlns:xlink="http://www.w3.org/1999/xlink">
    <!-- Generator: Sketch 61.2 (89653) - https://sketch.com -->
    <title>Dark / 20 / Support@svg</title>
    <desc>Created with Sketch.</desc>
    <g id="Dark-/-20-/-Support" stroke="none" stroke-width="1" fill="none" fill-rule="evenodd">
        <path d="M17.7113617,10 C17.7095041,10.3250067 17.6850413,10.6495177 17.6381413,10.9713043 L19.8119845,12.6286957 C20.0075358,12.7859383 20.0572521,13.0580211 19.929405,13.2713043 L17.8729824,16.7286957 C17.7439356,16.9399764 17.4776428,17.0303914 17.2416794,16.9430435 L14.6856612,15.9430435 C14.1534204,16.3421687 13.5709733,16.6734037 12.95248,16.9286957 L12.5703051,19.5713043 C12.5261934,19.8154166 12.3108951,19.9950247 12.0564226,20 L7.94357735,20 C7.69410187,19.9952713 7.48100777,19.8234517 7.42969493,19.5856522 L7.04751998,16.9430435 C6.42732099,16.6907101 5.84445445,16.3589442 5.31433876,15.9565217 L2.7583206,16.9565217 C2.5224649,17.0439471 2.25620414,16.9537263 2.1270176,16.7426087 L0.070594955,13.2856522 C-0.0572521081,13.0723689 -0.00753581939,12.8002861 0.188015527,12.6430435 L2.36185875,10.9856522 C2.31549216,10.6589991 2.29103353,10.3297508 2.28863831,10 C2.29049591,9.67499326 2.31495872,9.35048232 2.36185875,9.02869565 L0.188015527,7.37130435 C-0.00753581939,7.21406171 -0.0572521081,6.9419789 0.070594955,6.72869565 L2.1270176,3.27130435 C2.25606438,3.06002361 2.52235718,2.96960858 2.7583206,3.05695652 L5.31433876,4.05695652 C5.84657962,3.65783129 6.42902665,3.32659634 7.04751998,3.07130435 L7.42969493,0.428695652 C7.47380661,0.184583354 7.68910491,0.00497525014 7.94357735,0 L12.0564226,0 C12.3058981,0.00472869506 12.5189922,0.176548306 12.5703051,0.414347826 L12.95248,3.05695652 C13.5734585,3.30911759 14.1570857,3.64088921 14.6878936,4.04347826 L17.2416794,3.04347826 C17.4775351,2.95605288 17.7437959,3.04627366 17.8729824,3.2573913 L19.929405,6.71478261 C20.0572521,6.92806586 20.0075358,7.20014867 19.8119845,7.3573913 L17.6381413,9.01478261 C17.6844885,9.34129187 17.7089471,9.67039436 17.7113617,10 Z M13.1688428,7.35916578 C13.2782345,7.41943946 13.3961126,7.51591354 13.4871325,7.58786185 C13.7888221,7.82216898 14.0465873,8.15222619 14.267329,8.45821013 C14.5834737,8.89985509 14.8500984,9.41100483 14.947553,9.98604829 C15.1846149,11.4062807 14.5848726,12.4459564 13.8156805,13.0817261 C13.4214788,13.4087967 12.9018451,13.6892594 12.3421105,13.834966 C11.7155099,13.9982299 11.0115984,14.0433899 10.3406069,13.9568709 C9.0771473,13.7955981 8.22862782,13.1841084 7.46437836,12.4584713 C7.55138809,12.2583736 7.57731382,12.1852487 7.666655,11.988409 C7.81689367,12.1397267 7.79634167,12.1796119 7.91496587,12.2589813 C8.73535666,12.812938 9.80735758,13.2898784 11.2272109,13.210147 C11.9462302,13.1720461 12.6132116,12.9298654 13.0863095,12.5613452 C13.5451389,12.2051332 13.9288957,11.6934405 13.9202227,10.9813785 C13.9112699,10.2277765 13.5302177,9.6130936 13.1145667,9.20149498 C12.9721617,9.05986089 12.8181927,8.90836218 12.6626383,8.79677443 C12.4166237,8.62038795 12.1430046,8.48364091 11.86808,8.35440546 C11.588306,8.22082596 11.3008847,8.08715596 10.9673941,8.01728918 C11.5174299,7.67809137 12.9938908,7.2623297 13.1688428,7.35916578 Z M12.5995026,5.02346128 C13.100951,5.07957191 13.6002544,5.21948648 13.9332788,5.4708078 C14.0465873,5.55488325 14.1820912,5.64692278 14.2544594,5.74774092 C14.2965188,5.80611407 14.3555511,5.94059858 14.3221648,6.02032998 C14.2806649,6.11725657 14.1281881,6.12666867 14.0019167,6.12440615 C13.5705051,6.11580855 13.1760237,6.07191556 12.7588806,6.1206956 C12.1678113,6.19101489 11.6782999,6.3519257 11.2561209,6.52369663 C10.364481,6.88398118 9.59845962,7.47775835 8.99452069,8.07705608 C8.38563909,8.67970235 7.82310673,9.43882488 7.37537498,10.2184006 C6.87691087,11.0863054 6.50089454,12.0014517 6.19053186,12.962482 C5.47785409,12.0594628 5.03637063,10.9434043 5,9.72055454 C5.67416221,8.68829995 6.45268015,7.75595847 7.37686711,6.96398408 C8.01381937,6.41645293 8.76454642,5.92847145 9.59575513,5.57388846 C9.73526913,5.51352428 9.87049326,5.43741293 10.0211982,5.3903524 C10.1702245,5.34265836 10.3257789,5.29532633 10.4847838,5.24410276 C11.0925463,5.04970657 11.9288842,4.95178447 12.5995026,5.02346128 Z" id="Shape" fill="#3F3F3F"></path>
    </g>
</svg>