<?xml version="1.0" encoding="UTF-8"?>
<svg width="27px" height="27px" viewBox="0 0 27 27" version="1.1" xmlns="http://www.w3.org/2000/svg" xmlns:xlink="http://www.w3.org/1999/xlink">
    <title>F7C0551D-EEAD-4AA0-87B8-DE2D255390BB</title>
    <g id="Welcome-dashboard---v1" stroke="none" stroke-width="1" fill="none" fill-rule="evenodd">
        <g id="Pandora-FMS---Tactical-view-v6" transform="translate(-1764, -1865)" fill="#95A3BF">
            <g id="Log-storage" transform="translate(1102, 1662)">
                <g id="Card-1/8" transform="translate(594, 203)">
                    <g id="System-event" transform="translate(68, 0)">
                        <path d="M11.7078546,2.70325912 C11.1257057,3.92992514 10.8,5.30192625 10.8,6.75 C10.8,11.9690909 15.0309091,16.2 20.25,16.2 C21.6996594,16.2 23.0730794,15.8735806 24.3007699,15.2902321 L24.3,20.4457055 C24.3,25.0619204 18.7171222,27 12.15,27 C5.58287783,27 0,25.0619204 0,20.4457055 L0,9.25429447 C0,4.79456141 5.2107929,2.83447266 11.4857292,2.70670994 Z M20.25,0 C23.9779221,0 27,3.02207794 27,6.75 C27,10.4779221 23.9779221,13.5 20.25,13.5 C16.5220779,13.5 13.5,10.4779221 13.5,6.75 C13.5,3.02207794 16.5220779,0 20.25,0 Z M21.6,4.05 L20.4317308,4.05 C20.3365385,4.59915254 19.7394231,5.05677966 18.9,5.06510015 L18.9,5.93875193 L20.2413462,5.93875193 L20.2413462,9.45 L21.6,9.45 L21.6,4.05 Z" id="Mask"></path>
                    </g>
                </g>
            </g>
        </g>
    </g>
</svg>