<?xml version="1.0" encoding="UTF-8"?>
<svg width="20px" height="20px" viewBox="0 0 20 20" version="1.1" xmlns="http://www.w3.org/2000/svg" xmlns:xlink="http://www.w3.org/1999/xlink">
    <!-- Generator: Sketch 61.2 (89653) - https://sketch.com -->
    <title>Dark / 20 / Systems ok@svg</title>
    <desc>Created with Sketch.</desc>
    <g id="Dark-/-20-/-Systems-ok" stroke="none" stroke-width="1" fill="none" fill-rule="evenodd">
        <path d="M19,11 C19.5128358,11 19.9355072,11.3860402 19.9932723,11.8833789 L20,12 L20,19 C16.6666667,19.6666667 13.3333333,20 10,20 C6.94444444,20 3.88888889,19.7199074 0.833333333,19.1597222 L0,19 L0,12 C6.28042769e-17,11.4871642 0.38604019,11.0644928 0.883378875,11.0067277 L1,11 L19,11 Z M3,13 C2.44771525,13 2,13.4477153 2,14 C2,14.5522847 2.44771525,15 3,15 C3.55228475,15 4,14.5522847 4,14 C4,13.4477153 3.55228475,13 3,13 Z M6,13 C5.44771525,13 5,13.4477153 5,14 C5,14.5522847 5.44771525,15 6,15 C6.55228475,15 7,14.5522847 7,14 C7,13.4477153 6.55228475,13 6,13 Z M10,0 C13.3333333,0 16.6666667,0.333333333 20,1 L20,8 C20,8.55228475 19.5522847,9 19,9 L1,9 C0.44771525,9 6.76353751e-17,8.55228475 0,8 L0,1 C3.33333333,0.333333333 6.66666667,0 10,0 Z M6,5 L3,5 C2.44771525,5 2,5.44771525 2,6 C2,6.51283584 2.38604019,6.93550716 2.88337887,6.99327227 L3,7 L6,7 C6.55228475,7 7,6.55228475 7,6 C7,5.44771525 6.55228475,5 6,5 Z" id="Rectangle-Copy-2" fill="#82B92E"></path>
    </g>
</svg>