<?xml version="1.0" encoding="UTF-8"?>
<svg width="27px" height="27px" viewBox="0 0 27 27" version="1.1" xmlns="http://www.w3.org/2000/svg" xmlns:xlink="http://www.w3.org/1999/xlink">
    <title>CD5F043F-0CA1-4012-8590-20C64D7E7E0D</title>
    <g id="Welcome-dashboard---v1" stroke="none" stroke-width="1" fill="none" fill-rule="evenodd">
        <g id="Pandora-FMS---Tactical-view-v4" transform="translate(-1378, -1810)" fill="#95A3BF">
            <g id="Log-storage" transform="translate(1102, 1739)">
                <g id="Card-1/8" transform="translate(208, 71)">
                    <g id="Modules" transform="translate(68, 0)">
                        <path d="M25.3705078,4.29521484 L14.6865234,0.218847656 C14.3015625,0.0729316406 13.9007813,0 13.5,0 C13.0992187,0 12.6984375,0.0729316406 12.3134766,0.218583984 L1.62896484,4.29521484 C0.648105469,4.66962891 0,5.6109375 0,6.66035156 L0,20.3396484 C0,21.3895898 0.648105469,22.3303711 1.62896484,22.7047852 L12.3129492,26.7811523 C12.6984375,26.9261719 13.0992188,27 13.5,27 C13.9007813,27 14.3031445,26.9270684 14.6849414,26.781416 L25.3689258,22.7050488 C26.3513672,22.3330078 27,21.3890625 27,20.3396484 L27,6.66035156 C27,5.6109375 26.3513672,4.66962891 25.3705078,4.29521484 Z M13.0008122,3 L22,6.5303428 L13.0008122,10 L4,6.5314563 L13.0008122,3 Z M15,23 L15,13.1237485 L23,10 L23,19.8137765 L15,23 Z"></path>
                    </g>
                </g>
            </g>
        </g>
    </g>
</svg>