<?xml version="1.0" encoding="UTF-8"?>
<svg width="21px" height="27px" viewBox="0 0 21 27" version="1.1" xmlns="http://www.w3.org/2000/svg" xmlns:xlink="http://www.w3.org/1999/xlink">
    <title>7780B3A6-04AD-41C0-83B2-12DA21E87CFC</title>
    <g id="Welcome-dashboard---v1" stroke="none" stroke-width="1" fill="none" fill-rule="evenodd">
        <g id="Pandora-FMS---Tactical-view-v4" transform="translate(-1574, -1810)" fill="#95A3BF">
            <g id="Log-storage" transform="translate(1102, 1739)">
                <g id="Card-1/8" transform="translate(401, 71)">
                    <g id="Policies" transform="translate(71, 0)">
                        <path d="M18,0 C19.6568542,-3.04359188e-16 21,1.34314575 21,3 L21,24 C21,25.6568542 19.6568542,27 18,27 L3,27 C1.34314575,27 2.02906125e-16,25.6568542 0,24 L0,3 C-2.02906125e-16,1.34314575 1.34314575,3.04359188e-16 3,0 L18,0 Z M15.35625,16.605 C14.83125,16.065 14.04375,16.065 13.51875,16.605 L9.1875,21.06 L7.48125,19.305 C7.021875,18.765 6.16875,18.765 5.64375,19.305 C5.11875,19.845 5.11875,20.655 5.64375,21.195 L8.26875,23.895 C8.53125,24.165 8.859375,24.3 9.1875,24.3 C9.515625,24.3 9.84375,24.165 10.10625,23.895 L15.35625,18.495 C15.88125,17.955 15.88125,17.145 15.35625,16.605 Z M16.0625,9.45 L4.9375,9.45 C4.38521525,9.45 3.9375,9.89771525 3.9375,10.45 L3.9375,11.15 C3.9375,11.7022847 4.38521525,12.15 4.9375,12.15 L16.0625,12.15 C16.6147847,12.15 17.0625,11.7022847 17.0625,11.15 L17.0625,10.45 C17.0625,9.89771525 16.6147847,9.45 16.0625,9.45 Z M16.0625,4.05 L4.9375,4.05 C4.38521525,4.05 3.9375,4.49771525 3.9375,5.05 L3.9375,5.75 C3.9375,6.30228475 4.38521525,6.75 4.9375,6.75 L16.0625,6.75 C16.6147847,6.75 17.0625,6.30228475 17.0625,5.75 L17.0625,5.05 C17.0625,4.49771525 16.6147847,4.05 16.0625,4.05 Z" id="Rectangle-2"></path>
                    </g>
                </g>
            </g>
        </g>
    </g>
</svg>