<?xml version="1.0" encoding="UTF-8"?>
<svg width="27px" height="27px" viewBox="0 0 27 27" version="1.1" xmlns="http://www.w3.org/2000/svg" xmlns:xlink="http://www.w3.org/1999/xlink">
    <title>59DFD8E8-D019-4076-8FED-D5B81BE90197</title>
    <g id="Welcome-dashboard---v1" stroke="none" stroke-width="1" fill="none" fill-rule="evenodd">
        <g id="Pandora-FMS---Tactical-view-v4" transform="translate(-1185, -1810)" fill="#95A3BF">
            <g id="Log-storage" transform="translate(1102, 1739)">
                <g id="Card-1/8" transform="translate(15, 71)">
                    <g id="Groups" transform="translate(68, 0)">
                        <rect id="Rectangle" x="0" y="0" width="5.4" height="5.4" rx="0.5"></rect>
                        <rect id="Rectangle-Copy-2" x="0" y="21.6" width="5.4" height="5.4" rx="0.5"></rect>
                        <rect id="Rectangle-Copy" x="21.6" y="0" width="5.4" height="5.4" rx="0.5"></rect>
                        <rect id="Rectangle-Copy-3" x="21.6" y="21.6" width="5.4" height="5.4" rx="0.5"></rect>
                        <path d="M24.3,2.7 L24.3,24.3 L2.7,24.3 L2.7,2.7 L24.3,2.7 Z M19.06875,10.8 L17.55,10.8 L17.55,16.36875 C17.55,17.0211364 17.0211364,17.55 16.36875,17.55 L10.8,17.549 L10.8,19.06875 C10.8,19.7211364 11.3288636,20.25 11.98125,20.25 L19.06875,20.25 C19.7211364,20.25 20.25,19.7211364 20.25,19.06875 L20.25,11.98125 C20.25,11.3288636 19.7211364,10.8 19.06875,10.8 Z M15.01875,6.75 L7.93125,6.75 C7.27886364,6.75 6.75,7.27886364 6.75,7.93125 L6.75,15.01875 C6.75,15.6711364 7.27886364,16.2 7.93125,16.2 L15.01875,16.2 C15.6711364,16.2 16.2,15.6711364 16.2,15.01875 L16.2,7.93125 C16.2,7.27886364 15.6711364,6.75 15.01875,6.75 Z" id="Rectangle-2"></path>
                    </g>
                </g>
            </g>
        </g>
    </g>
</svg>