<?xml version="1.0" encoding="UTF-8"?>
<svg width="27px" height="27px" viewBox="0 0 27 27" version="1.1" xmlns="http://www.w3.org/2000/svg" xmlns:xlink="http://www.w3.org/1999/xlink">
    <title>E1DA8ECF-DB7D-48B5-96B0-3C6199FCC8EB</title>
    <g id="Welcome-dashboard---v1" stroke="none" stroke-width="1" fill="none" fill-rule="evenodd">
        <g id="Pandora-FMS---Tactical-view-v4" transform="translate(-1476, -1942)" fill="#95A3BF">
            <g id="Log-storage" transform="translate(1102, 1739)">
                <g id="Card-1/8" transform="translate(306, 203)">
                    <g id="Not-init-module" transform="translate(68, 0)">
                        <path d="M1.51937106,7.28411239 C4.95205428,0.667087472 13.0993581,-1.91380755 19.7156094,1.51964932 C20.0173327,1.67592653 20.3097722,1.84226119 20.5937016,2.017106 L18.0128066,3.66652692 L18.009712,3.66575327 L12.8138814,6.98548365 L12.710986,2.70797508 C11.8669343,2.76986705 11.0344873,2.93078616 10.2322127,3.18531688 C7.59329397,4.02163208 5.27234521,5.86523905 3.8960226,8.51730983 C2.52047363,11.1693806 2.34872342,14.1285903 3.18503863,16.767509 C3.79544815,18.6923492 4.94122319,20.4477601 6.54499878,21.7908158 L4.20161418,23.2878278 C-0.0495902992,19.2532452 -1.31528102,12.7468521 1.51937106,7.28411239 Z M22.8349645,3.74853378 C27.0567703,7.78621097 28.3062144,14.2693945 25.4800724,19.7158876 C22.0473892,26.3329125 13.9008591,28.9138076 7.28383414,25.4803507 C6.99990474,25.3333573 6.72371184,25.17708 6.45448178,25.0122927 L6.50167441,24.9821203 L6.47769127,24.980573 L14.2312074,20.0261211 L14.2025824,24.2982141 C15.0760328,24.240964 15.9378784,24.077724 16.7672308,23.8146831 C19.4069232,22.9783679 21.7270983,21.134761 23.1034209,18.4826902 C24.4797435,15.8306194 24.6507201,12.8714097 23.8144049,10.232491 C23.2101845,8.32389744 22.0783352,6.58241222 20.4954481,5.24399843 Z M19.2403271,12.073777 C19.4297542,12.073777 19.5833153,12.227338 19.5833153,12.4167651 L19.5833153,14.5824612 C19.5833153,14.7718883 19.4297542,14.9254494 19.2403271,14.9254494 L7.75834273,14.9254494 C7.5689156,14.9254494 7.41535457,14.7718883 7.41535457,14.5824612 L7.41535457,12.4167651 C7.41535457,12.227338 7.5689156,12.073777 7.75834273,12.073777 L19.2403271,12.073777 Z"></path>
                    </g>
                </g>
            </g>
        </g>
    </g>
</svg>