<?xml version="1.0" encoding="UTF-8"?>
<svg width="27px" height="27px" viewBox="0 0 27 27" version="1.1" xmlns="http://www.w3.org/2000/svg" xmlns:xlink="http://www.w3.org/1999/xlink">
    <title>E2220716-B06D-4CCD-8005-3668217A51C4</title>
    <g id="Welcome-dashboard---v1" stroke="none" stroke-width="1" fill="none" fill-rule="evenodd">
        <g id="Pandora-FMS---Tactical-view-v4" transform="translate(-1764, -1810)" fill="#95A3BF">
            <g id="Log-storage" transform="translate(1102, 1739)">
                <g id="Card-1/8" transform="translate(594, 71)">
                    <g id="Plugins" transform="translate(68, 0)">
                        <path d="M27,18.9 L27,24.3 C27,25.7911688 25.7911688,27 24.3,27 L18.9,27 L18.9,24.3 C18.9,22.8088312 17.6911688,21.6 16.2,21.6 C14.7088312,21.6 13.5,22.8088312 13.5,24.3 L13.5,27 L8.1,27 C6.60883118,27 5.4,25.7911688 5.4,24.3 L5.4,18.9 L2.7,18.9 C1.20883118,18.9 0,17.6911688 0,16.2 C0,14.7088312 1.20883118,13.5 2.7,13.5 L5.4,13.5 L5.4,8.1 C5.4,6.615 6.615,5.4 8.1,5.4 L13.5,5.4 L13.5,2.7 C13.5,1.20883118 14.7088312,0 16.2,0 C17.6911688,0 18.9,1.20883118 18.9,2.7 L18.9,5.4 L24.3,5.4 C25.7911688,5.4 27,6.60883118 27,8.1 L27,13.5 L24.3,13.5 C22.8088312,13.5 21.6,14.7088312 21.6,16.2 C21.6,17.6911688 22.8088312,18.9 24.3,18.9 L27,18.9 Z" id="Path"></path>
                    </g>
                </g>
            </g>
        </g>
    </g>
</svg>