<?xml version="1.0" encoding="UTF-8"?>
<svg width="20px" height="20px" viewBox="0 0 20 20" version="1.1" xmlns="http://www.w3.org/2000/svg" xmlns:xlink="http://www.w3.org/1999/xlink">
    <!-- Generator: Sketch 61.2 (89653) - https://sketch.com -->
    <title>Dark / 20 / tag@svg</title>
    <desc>Created with Sketch.</desc>
    <g id="Dark-/-20-/-tag" stroke="none" stroke-width="1" fill="none" fill-rule="evenodd">
        <path d="M0,11.2513983 L0,18.0013983 C1.3527075e-16,19.1059678 0.8954305,20.0013983 2,20.0013983 L8.75,20.0013983 L8.75,20.0013983 L19.3732567,9.40991673 C20.15487,8.63064135 20.1574561,7.36550545 19.3790352,6.58304118 L13.4164206,0.589454657 C12.6373978,-0.193614564 11.3710721,-0.196894913 10.5880029,0.582127793 C10.5849705,0.585144579 10.5819477,0.588171087 10.5789347,0.591207268 L0,11.2513983 L0,11.2513983 Z M3.5,18.0013983 C2.672,18.0013983 2,17.3293983 2,16.5013983 C2,15.6733983 2.672,15.0013983 3.5,15.0013983 C4.328,15.0013983 5,15.6733983 5,16.5013983 C5,17.3293983 4.328,18.0013983 3.5,18.0013983 Z" id="Shape" fill="#3F3F3F" transform="translate(9.980581, 10.000699) scale(1, -1) translate(-9.980581, -10.000699) "></path>
    </g>
</svg>