<?xml version="1.0" encoding="UTF-8"?>
<svg  viewBox="0 0 20 20" version="1.1" xmlns="http://www.w3.org/2000/svg" xmlns:xlink="http://www.w3.org/1999/xlink">
    <!-- Generator: Sketch 61.2 (89653) - https://sketch.com -->
    <title>Dark / 20 / TCP-network-incremental-data@svg</title>
    <desc>Created with Sketch.</desc>
    <g id="Dark-/-20-/-TCP-network-incremental-data" stroke="none" stroke-width="1" fill="none" fill-rule="evenodd">
        <path d="M6,0 L14,0 L14,3 L17,3 L17,7 L19,7 C19.5522847,7 20,7.44771525 20,8 L20,19 C20,19.5522847 19.5522847,20 19,20 L1,20 C0.44771525,20 6.76353751e-17,19.5522847 0,19 L0,8 C-6.76353751e-17,7.44771525 0.44771525,7 1,7 L3,7 L3,3 L6,3 L6,0 Z M16.0232661,10.0002501 L13,10 L12.8833789,10.0067277 C12.3860402,10.0644928 12,10.4871642 12,11 L12,11 L12.0067277,11.1166211 C12.0644928,11.6139598 12.4871642,12 13,12 L13,12 L13.172,12 L11.09,13.684 L8.7005069,11.2985286 L8.60621807,11.2154261 C8.21362621,10.9107618 7.64639927,10.9390401 7.28625958,11.2998928 L7.28625958,11.2998928 L3.2921943,15.3018655 L3.20909889,15.396155 C2.90446209,15.7887477 2.93275256,16.3559511 3.29359283,16.7160784 L3.29359283,16.7160784 L3.38788239,16.7991738 C3.78047505,17.1038106 4.3476784,17.0755201 4.7078057,16.7146798 L4.7078057,16.7146798 L7.995,13.42 L10.3140276,15.7347894 L10.4087166,15.8181662 C10.7706002,16.098506 11.2849174,16.0992416 11.6492871,15.8045706 L11.6492871,15.8045706 L15,13.094 L15,13.9983959 L15.0067277,14.115017 C15.0644928,14.6123557 15.4871642,14.9983959 16,14.9983959 C16.5522847,14.9983959 17,14.5506807 17,13.9983959 L17,13.9983959 L17,11 L16.9989674,10.9531228 C16.9982896,10.9384254 16.997288,10.9237334 16.9959616,10.9090585 L16.9959616,10.9090585 L16.9932723,10.8833789 C16.9919353,10.871868 16.9904028,10.8604167 16.98872,10.8491478 C16.9855282,10.828095 16.9816581,10.8071096 16.9771353,10.786394 C16.9733082,10.7688056 16.9690183,10.7513899 16.96429,10.7341968 C16.9591381,10.7154691 16.9534252,10.6968478 16.9471664,10.6784106 C16.9400876,10.6575551 16.9323394,10.6370087 16.9241646,10.6173214 C16.9177984,10.6019655 16.9110273,10.5867238 16.9035613,10.5709959 C16.8518621,10.4623015 16.7811275,10.3644112 16.6954996,10.2813326 C16.6894776,10.2754902 16.6833959,10.2697366 16.6771894,10.264184 C16.6559257,10.2446044 16.6338111,10.2259348 16.6113674,10.2083666 C16.5996049,10.1992667 16.5876744,10.1904591 16.5751364,10.1818401 C16.5543035,10.1671684 16.5328851,10.1532722 16.5113146,10.1402903 C16.5001036,10.1336243 16.4887827,10.1271921 16.4772853,10.1210349 L16.4436265,10.1035452 L16.4436265,10.1035452 L16.4092253,10.0873318 C16.3963148,10.0815553 16.3832994,10.0760618 16.3700429,10.0706986 C16.3473738,10.0616639 16.3242963,10.0534347 16.3012681,10.0463464 C16.2866515,10.0417437 16.2719424,10.0374806 16.2567529,10.0332678 C16.2350812,10.0275271 16.2131208,10.0224958 16.1910002,10.0183867 L16.1910002,10.0183867 L16.1459433,10.0105733 C16.0983034,10.0036072 16.049573,10 16,10 L16.0232661,10.0002501 Z" id="Rectangle-3" fill="#3F3F3F"></path>
    </g>
</svg>