<?xml version="1.0" encoding="UTF-8"?>
<svg  viewBox="0 0 20 20" version="1.1" xmlns="http://www.w3.org/2000/svg" xmlns:xlink="http://www.w3.org/1999/xlink">
    <!-- Generator: Sketch 61.2 (89653) - https://sketch.com -->
    <title>Dark / 20 / TCP-network-numeric-data@svg</title>
    <desc>Created with Sketch.</desc>
    <g id="Dark-/-20-/-TCP-network-numeric-data" stroke="none" stroke-width="1" fill="none" fill-rule="evenodd">
        <path d="M6,0 L14,0 L14,3 L17,3 L17,7 L19,7 C19.5522847,7 20,7.44771525 20,8 L20,19 C20,19.5522847 19.5522847,20 19,20 L1,20 C0.44771525,20 6.76353751e-17,19.5522847 0,19 L0,8 C-6.76353751e-17,7.44771525 0.44771525,7 1,7 L3,7 L3,3 L6,3 L6,0 Z M16.7764877,10.1548673 L12.0217707,10.1548673 L12.0217707,11.5176991 L14.7750363,11.5176991 L13.149492,12.8702065 L13.8403483,13.9439528 C13.9927431,13.8613569 14.2162554,13.7890855 14.4296081,13.7890855 C14.8969521,13.7890855 15.3846154,14.0575221 15.3846154,14.6976401 C15.3846154,15.1932153 15.0188679,15.6165192 14.3991292,15.6165192 C13.7793904,15.6165192 13.3628447,15.1519174 13.3425254,14.5634218 L11.7982583,14.8525074 C11.8998549,15.9985251 12.8751814,17 14.4092888,17 C16.0348331,17 17,15.9262537 17,14.7389381 C17,13.5929204 16.1669086,12.7669617 15.1509434,12.6946903 L16.7764877,11.4144543 L16.7764877,10.1548673 Z M6.16981132,10.1548673 L4.79825835,10.1548673 C4.68650218,10.8362832 3.98548621,11.4041298 3,11.4144543 L3,12.4985251 L4.57474601,12.4985251 L4.57474601,16.8554572 L6.16981132,16.8554572 L6.16981132,10.1548673 Z M9.40058055,10 C7.81567489,10 6.9317852,11.0737463 6.9317852,12.2713864 C6.9317852,12.4778761 6.96226415,12.7463127 6.99274311,12.8289086 L8.49637155,12.839233 C8.45573295,12.7050147 8.43541364,12.560472 8.43541364,12.4262537 C8.43541364,11.8687316 8.74020319,11.4351032 9.35994194,11.4351032 C9.94920174,11.4351032 10.2438316,11.8067847 10.2438316,12.2300885 C10.2438316,12.6740413 10.0406386,12.9528024 9.52249637,13.2625369 L8.44557329,13.9026549 C7.23657475,14.6150442 6.89114659,15.6268437 6.89114659,16.8554572 L11.8998549,16.8554572 L11.8998549,15.4926254 L8.85195936,15.4926254 C8.94339623,15.2964602 9.10595065,15.1622419 9.29898403,15.0383481 L10.5486212,14.2846608 C11.3918723,13.7787611 11.8490566,13.0663717 11.8490566,12.199115 C11.8490566,11.0014749 10.9143687,10 9.40058055,10 Z" id="Rectangle-3" fill="#3F3F3F"></path>
    </g>
</svg>