<?xml version="1.0" encoding="UTF-8"?>
<svg  viewBox="0 0 20 20" version="1.1" xmlns="http://www.w3.org/2000/svg" xmlns:xlink="http://www.w3.org/1999/xlink">
    <!-- Generator: Sketch 61.2 (89653) - https://sketch.com -->
    <title>Dark / 20 / TCP-network-alphanumeric-data@svg</title>
    <desc>Created with Sketch.</desc>
    <g id="Dark-/-20-/-TCP-network-alphanumeric-data" stroke="none" stroke-width="1" fill="none" fill-rule="evenodd">
        <path d="M6,0 L14,0 L14,3 L17,3 L17,7 L19,7 C19.5522847,7 20,7.44771525 20,8 L20,19 C20,19.5522847 19.5522847,20 19,20 L1,20 C0.44771525,20 6.76353751e-17,19.5522847 0,19 L0,8 C-6.76353751e-17,7.44771525 0.44771525,7 1,7 L3,7 L3,3 L6,3 L6,0 Z M9.41176471,10 L7.61764706,10 L5,17 L6.62745098,17 L7.12745098,15.5782793 L9.81372549,15.5782793 L10.3137255,17 L12,17 L9.41176471,10 Z M15,10 L13.7019231,10 C13.5961538,10.7118644 12.9326923,11.3050847 12,11.3158706 L12,12.4483821 L13.4903846,12.4483821 L13.4903846,17 L15,17 L15,10 Z M8.49019608,11.7376587 L9.32352941,14.1565585 L7.6372549,14.1565585 L8.49019608,11.7376587 Z" id="Rectangle-3" fill="#3F3F3F"></path>
    </g>
</svg>