<?xml version="1.0" encoding="UTF-8"?>
<svg  viewBox="0 0 20 20" version="1.1" xmlns="http://www.w3.org/2000/svg" xmlns:xlink="http://www.w3.org/1999/xlink">
    <!-- Generator: Sketch 61.2 (89653) - https://sketch.com -->
    <title>Dark / 20 / user@svg</title>
    <desc>Created with Sketch.</desc>
    <g id="Dark-/-20-/-user" stroke="none" stroke-width="1" fill="none" fill-rule="evenodd">
        <g id="Group" transform="translate(3.000000, 0.000000)" fill="#3F3F3F">
            <path d="M7,12.9411765 C11.2536667,12.9411765 14,15.2941176 14,17.6470588 C14,18.8235294 11.1043333,20 7,20 C2.625,20 0,18.8235294 0,17.6470588 C0,15.2941176 2.625,12.9411765 7,12.9411765 Z M7,0 C8.61116667,0 10.0695,0.658823529 11.1253333,1.72352941 C12.18,2.78705882 12.8333333,4.25764706 12.8333333,5.88235294 C12.8333333,7.50705882 12.18,8.97764706 11.1253333,10.0411765 C10.0695,11.1058824 8.61116667,11.7647059 7,11.7647059 C5.38883333,11.7647059 3.9305,11.1058824 2.87466667,10.0411765 C1.82,8.97764706 1.16666667,7.50705882 1.16666667,5.88235294 C1.16666667,4.25764706 1.82,2.78705882 2.87466667,1.72352941 C3.9305,0.658823529 5.38883333,0 7,0 Z" id="Path-2"></path>
        </g>
    </g>
</svg>