<?xml version="1.0" encoding="UTF-8"?>
<svg viewBox="0 0 20 20" version="1.1" xmlns="http://www.w3.org/2000/svg" xmlns:xlink="http://www.w3.org/1999/xlink">
    <!-- Generator: Sketch 61.2 (89653) - https://sketch.com -->
    <title>Dark / 20 / ux@svg</title>
    <desc>Created with Sketch.</desc>
    <g id="Dark-/-20-/-ux" stroke="none" stroke-width="1" fill="none" fill-rule="evenodd">
        <path d="M4.45207288,16 C6.9236863,16 8.90414576,14.4441379 8.90414576,11.497931 L8.90414576,4 L6.400845,4 L6.400845,11.2827586 C6.400845,12.7062069 5.64034856,13.417931 4.45207288,13.417931 C3.2637972,13.417931 2.50330077,12.7062069 2.50330077,11.2827586 L2.50330077,4 L0,4 L0,11.497931 C0,14.4441379 1.98045947,16 4.45207288,16 Z M12.5376287,15.7351724 L14.7398997,11.9282759 L16.9580143,15.7351724 L20,15.7351724 L16.3559546,9.89241379 L19.9683126,4 L17.0372326,4 L14.819118,7.80689655 L12.6010034,4 L9.59070504,4 L13.2189068,9.85931034 L9.59070504,15.7351724 L12.5376287,15.7351724 Z" id="UX" fill="#3F3F3F"></path>
    </g>
</svg>