<?xml version="1.0" encoding="UTF-8"?>
<svg width="30px" height="29.3024689px" viewBox="0 0 30 29.3024689" version="1.1" xmlns="http://www.w3.org/2000/svg" xmlns:xlink="http://www.w3.org/1999/xlink">
    <title>51F33933-7E26-4D16-9D45-F3415926FFF6</title>
    <g id="Consola-mobile" stroke="none" stroke-width="1" fill="none" fill-rule="evenodd">
        <g id="0a-Menu" transform="translate(-35.000000, -288.000000)" fill="#3F3F3F">
            <g id="Conmutador" transform="translate(20.000000, 122.000000)">
                <g id="Elemento" transform="translate(0.000000, 166.000000)">
                    <g id="Mobile-visual-consoles" transform="translate(15.000000, 0.000000)">
                        <path d="M15,0 C23.1075582,0 30,2.39269081 30,8.09172156 L30,21.9082784 C30,25.8641319 26.679133,28.2269482 21.9361208,29.3022878 C21.9771584,29.207048 22,29.1054294 22,29 L21.992772,28.8977558 C21.921078,28.3934997 21.3248737,28 20.6,28 L17,28 L17,24 L23,24 C24.1045695,24 25,23.1045695 25,22 L25,10 C25,8.8954305 24.1045695,8 23,8 L7,8 C5.8954305,8 5,8.8954305 5,10 L5,22 C5,23.1045695 5.8954305,24 7,24 L13,24 L13,28 L9.4,28 C8.62680135,28 8,28.4477153 8,29 C8,29.1054294 8.02284162,29.207048 8.0651829,29.3024689 C3.32086702,28.2269482 0,25.8641319 0,21.9082784 L0,8.09172156 C0,2.39269081 6.89244177,0 15,0 Z" id="Mask"></path>
                    </g>
                </g>
            </g>
        </g>
    </g>
</svg>