<?xml version="1.0" encoding="UTF-8"?>
<svg  viewBox="0 0 20 20" version="1.1" xmlns="http://www.w3.org/2000/svg" xmlns:xlink="http://www.w3.org/1999/xlink">
    <!-- Generator: Sketch 61.2 (89653) - https://sketch.com -->
    <title>Dark / 20 / vmware@svg</title>
    <desc>Created with Sketch.</desc>
    <g id="Dark-/-20-/-vmware" stroke="none" stroke-width="1" fill="none" fill-rule="evenodd">
        <path d="M2.09625698,13.3597761 C1.84484181,13.9027419 1.22340601,14.1486859 0.643162519,13.8946954 C0.06220882,13.6403551 -0.151565096,13.0057288 0.110858366,12.4624131 L2.54724182,7.24616259 C2.93040138,6.42856518 3.3341571,6 4.09195367,6 C4.90159574,6 5.25457128,6.46669874 5.63737573,7.24616259 C5.63737573,7.24616259 7.76233107,11.8046967 7.78363744,11.8536756 C7.80529892,11.9019548 7.8734793,12.0492413 8.08973896,12.0478419 C8.27261864,12.0467923 8.42637961,11.9030043 8.42637961,11.7098876 L8.42637961,7.25280973 C8.42637961,6.56570604 8.81309024,6.00209909 9.55739278,6.00209909 C10.3009851,6.00209909 10.7029653,6.56570604 10.7029653,7.25280973 L10.7029653,10.9017361 C10.7029653,11.6052827 11.2146733,12.0618358 11.9121018,12.0618358 C12.6095303,12.0618358 13.0736541,11.5888398 13.0736541,10.9017361 L13.0736541,7.25280973 C13.0736541,6.56570604 13.4617851,6.00209909 14.2046673,6.00209909 C14.9482596,6.00209909 15.3523704,6.56570604 15.3523704,7.25280973 L15.3523704,10.9017361 C15.3523704,11.6052827 15.8619478,12.0618358 16.5597314,12.0618358 C17.2560946,12.0618358 17.7219939,11.5888398 17.7219939,10.9017361 L17.7219939,7.25280973 C17.7219939,6.56570604 18.1097698,6.00209909 18.8533622,6.00209909 C19.5965994,6.00209909 20,6.56570604 20,7.25280973 L20,11.4055189 C20,12.9312109 18.7546427,14 17.2560946,14 C15.7593221,14 14.8218418,12.9798399 14.8218418,12.9798399 C14.3236278,13.6162155 13.6368525,13.9986006 12.47459,13.9986006 C11.2480533,13.9986006 10.1745673,12.9798399 10.1745673,12.9798399 C9.67599824,13.6162155 8.82729448,13.9986006 8.12453937,13.9986006 C7.03755937,13.9986006 6.17429627,13.5277037 5.64767381,12.3413653 L4.09195367,8.7274238 L2.09625698,13.3597761 Z" id="Path" fill="#3F3F3F" transform="translate(10.000000, 10.000000) scale(1, -1) translate(-10.000000, -10.000000) "></path>
    </g>
</svg>