<?xml version="1.0" encoding="UTF-8"?>
<svg  viewBox="0 0 20 20" version="1.1" xmlns="http://www.w3.org/2000/svg" xmlns:xlink="http://www.w3.org/1999/xlink">
    <!-- Generator: Sketch 61.2 (89653) - https://sketch.com -->
    <title>Dark / 20 / web-analisys-data@svg</title>
    <desc>Created with Sketch.</desc>
    <g id="Dark-/-20-/-web-analisys-data" stroke="none" stroke-width="1" fill="none" fill-rule="evenodd">
        <path d="M14,18 C14.5522847,18 15,18.4477153 15,19 C15,19.5522847 14.5522847,20 14,20 L14,20 L6,20 C5.44771525,20 5,19.5522847 5,19 C5,18.4477153 5.44771525,18 6,18 L6,18 Z M18,0 C19.1045695,-2.02906125e-16 20,0.8954305 20,2 L20,14 C20,15.1045695 19.1045695,16 18,16 L2,16 C0.8954305,16 1.3527075e-16,15.1045695 0,14 L0,2 C-1.3527075e-16,0.8954305 0.8954305,2.02906125e-16 2,0 L18,0 Z M16.7775526,4.37077563 C16.430266,3.94185416 15.8006125,3.87534231 15.3711821,4.22221727 L15.3711821,4.22221727 L11.09,7.67966724 L8.7005069,5.29702313 L8.60621807,5.21401904 C8.21362621,4.90971586 7.64639928,4.93796066 7.28625959,5.29838567 L7.28625959,5.29838567 L3.2921943,9.29561525 L3.2090989,9.38979305 C2.9044621,9.78192041 2.93275256,10.3484515 3.29359283,10.708152 L3.29359283,10.708152 L3.38788239,10.7911489 C3.78047505,11.0954247 4.34767841,11.0671677 4.70780571,10.7067551 L4.70780571,10.7067551 L7.995,7.41598013 L10.3140276,9.72802606 L10.4087166,9.81130402 C10.7706002,10.0913116 11.2849174,10.0920464 11.6492871,9.79772461 L11.6492871,9.79772461 L16.6288179,5.77547932 L16.7214531,5.69064416 C17.0660441,5.33303275 17.0981248,4.76670314 16.7775526,4.37077563 Z" id="Rectangle-2" fill="#3F3F3F"></path>
    </g>
</svg>