<?xml version="1.0" encoding="UTF-8"?>
<svg width="20px" height="20px" viewBox="0 0 20 20" version="1.1" xmlns="http://www.w3.org/2000/svg" xmlns:xlink="http://www.w3.org/1999/xlink">
    <!-- Generator: Sketch 61.2 (89653) - https://sketch.com -->
    <title>Dark / 20 / web@svg</title>
    <desc>Created with Sketch.</desc>
    <g id="Dark-/-20-/-web" stroke="none" stroke-width="1" fill="none" fill-rule="evenodd">
        <path d="M10,0 C4.4771525,0 0,4.4771525 0,10 C0,15.5228475 4.4771525,20 10,20 C15.5228475,20 20,15.5228475 20,10 C19.9945565,4.47940886 15.5205911,0.00544352451 10,0 Z M10.0288333,17.4971042 C10.0246667,17.4971042 10.0206042,17.4983125 10.0163333,17.4983125 C9.68185417,17.3901458 9.011375,16.3172917 8.56475,14.3237292 C9.04327083,14.3508125 9.52308333,14.375 10,14.375 C10.4774375,14.375 10.9581042,14.3508958 11.437375,14.3237292 C10.9950208,16.3143958 10.3361458,17.3863125 10.0288333,17.4971042 Z M10,11.875 C9.35577083,11.875 8.75960417,11.8472292 8.19702083,11.8032917 C8.15291667,11.2406875 8.125,10.6442292 8.125,10 C8.125,9.35577083 8.15277083,8.75960417 8.19670833,8.19702083 C8.7593125,8.15291667 9.35577083,8.125 10,8.125 C10.6442292,8.125 11.2403958,8.15277083 11.8029792,8.19670833 C11.8470833,8.7593125 11.875,9.35577083 11.875,10 C11.875,10.6442292 11.8472292,11.2403958 11.8032917,11.8029792 C11.2406875,11.8470833 10.6442292,11.875 10,11.875 Z M2.50289583,10.0288333 C2.50289583,10.0246667 2.5016875,10.0206042 2.5016875,10.0163333 C2.60985417,9.68185417 3.68270833,9.011375 5.67627083,8.56475 C5.64927083,9.04327083 5.625,9.52316667 5.625,10 C5.625,10.4774375 5.64910417,10.9581042 5.67627083,11.437375 C3.68560417,10.9950208 2.6136875,10.3361458 2.50289583,10.0288333 Z M9.97116667,2.50289583 C9.97533333,2.50289583 9.97939583,2.5016875 9.98366667,2.5016875 C10.3181458,2.60985417 10.988625,3.68270833 11.43525,5.67627083 C10.9567292,5.64927083 10.4768333,5.625 10,5.625 C9.5225625,5.625 9.04189583,5.64910417 8.562625,5.67627083 C9.00497917,3.68560417 9.66385417,2.6136875 9.97116667,2.50289583 Z M14.3237292,8.562625 C16.3143958,9.00497917 17.3862292,9.66385417 17.4971042,9.97116667 C17.4971042,9.97533333 17.4983125,9.97939583 17.4983125,9.98366667 C17.3901458,10.3181458 16.3172917,10.988625 14.3237292,11.43525 C14.3508125,10.9567292 14.375,10.4769167 14.375,10 C14.375,9.5225625 14.3508958,9.04189583 14.3237292,8.562625 Z M16.671,6.64397917 C15.8116964,6.34280615 14.9276165,6.11763659 14.0289375,5.9710625 C13.8823634,5.07238349 13.6571938,4.18830364 13.3560208,3.329 C14.7866526,4.05165344 15.9483466,5.21334744 16.671,6.64397917 L16.671,6.64397917 Z M6.64375,3.329 C6.34261768,4.18830554 6.11749674,5.07238609 5.97097917,5.9710625 C5.0723873,6.11755451 4.18838995,6.34264769 3.32916667,6.64375 C4.05172797,5.21324363 5.21327996,4.05163323 6.64375,3.329 L6.64375,3.329 Z M3.32916667,13.35625 C4.1884091,13.6574028 5.07243613,13.8825243 5.9710625,14.0290208 C6.11753664,14.9276164 6.34263021,15.8116153 6.64375,16.6708333 C5.21325958,15.948307 4.05169302,14.7867404 3.32916667,13.35625 Z M13.35625,16.6708333 C13.6573853,15.8115856 13.8825065,14.9275601 14.0290208,14.0289375 C14.9276665,13.8824423 15.8117189,13.6573493 16.671,13.35625 C15.9483668,14.78672 14.7867564,15.948272 13.35625,16.6708333 L13.35625,16.6708333 Z" id="Shape" fill="#3F3F3F"></path>
    </g>
</svg>