<?xml version="1.0" encoding="UTF-8"?>
<svg width="460px" height="414.288672px" viewBox="0 0 460 414.288672" version="1.1" xmlns="http://www.w3.org/2000/svg" xmlns:xlink="http://www.w3.org/1999/xlink">
    <title>9C390E1A-9FE4-4604-9F9A-D60ED1281F4D</title>
    <defs>
        <linearGradient x1="0%" y1="9.5%" x2="100%" y2="90.5%" id="linearGradient-1">
            <stop stop-color="#D0FAD4" offset="0%"></stop>
            <stop stop-color="#C5E9FF" offset="52.0871463%"></stop>
            <stop stop-color="#DFD4FE" offset="100%"></stop>
        </linearGradient>
        <linearGradient x1="50%" y1="49.8604439%" x2="50%" y2="50.731762%" id="linearGradient-2">
            <stop stop-color="#000000" stop-opacity="0.07" offset="0%"></stop>
            <stop stop-color="#000000" stop-opacity="0" offset="100%"></stop>
        </linearGradient>
        <linearGradient x1="50%" y1="0%" x2="50%" y2="75.2845534%" id="linearGradient-3">
            <stop stop-color="#222222" offset="0%"></stop>
            <stop stop-color="#222222" stop-opacity="0" offset="100%"></stop>
        </linearGradient>
        <path d="M152.546053,35.3107345 L152.546053,0 L87.8813872,0 L87.8813872,35.3107345 C87.8813872,43.4322034 81.3232477,50 73.2137203,50 L167.21372,50 C159.174711,50 152.546053,43.4322034 152.546053,35.3107345 Z" id="path-4"></path>
        <path d="M0,39 L36.1774744,0 C46.9053653,10.0936464 52.9966323,24.2151535 53,39 L53,39 L0,39 Z" id="path-5"></path>
        <path d="M0,0 L53,0.378540773 C52.8892672,16.7302141 45.1662555,32.1052881 32.0932377,42 L0,0 Z" id="path-7"></path>
        <path d="M0,53 L5.2208186,0 C16.7028189,1.12919445 27.5059639,5.96173317 36,13.7683596 L0,53 Z" id="path-9"></path>
        <linearGradient x1="50%" y1="50%" x2="52.9793104%" y2="52.3544862%" id="linearGradient-11">
            <stop stop-color="#FFFFFF" stop-opacity="0.7" offset="0%"></stop>
            <stop stop-color="#FFFFFF" stop-opacity="0" offset="100%"></stop>
        </linearGradient>
        <path d="M93.68,170.68 L191.91,170.68 C194.119139,170.68 195.91,168.889139 195.91,166.68 L195.91,4 C195.91,1.790861 194.119139,-4.05812251e-16 191.91,0 L4,0 C1.790861,4.05812251e-16 -2.705415e-16,1.790861 0,4 L0,166.68 C1.5523329e-14,168.889139 1.790861,170.68 4,170.68 L47.56,170.68 L93.68,170.68 L93.68,170.68 Z" id="path-12"></path>
        <linearGradient x1="56.4362504%" y1="50%" x2="0%" y2="50%" id="linearGradient-13">
            <stop stop-color="#5E9FE1" offset="0%"></stop>
            <stop stop-color="#E12D81" offset="100%"></stop>
        </linearGradient>
        <rect id="path-14" x="0" y="0" width="11.59" height="81.23" rx="3"></rect>
    </defs>
    <g id="Mockups" stroke="none" stroke-width="1" fill="none" fill-rule="evenodd">
        <g id="Pantalla-bienvenida---Mensaje-bienvenida" transform="translate(-846.000000, -284.000000)">
            <g id="Welcome-image" transform="translate(846.000000, 284.000000)">
                <rect id="BG" fill="url(#linearGradient-1)" x="0" y="0" width="460" height="414" rx="6"></rect>
                <g id="Welcome" transform="translate(40.000000, 40.000000)">
                    <g id="Mac" transform="translate(15.000000, 84.000000)">
                        <g id="Group" transform="translate(53.786280, 240.000000)" stroke-linejoin="round">
                            <g id="Path">
                                <use fill="#FFFFFF" xlink:href="#path-4"></use>
                                <use stroke="url(#linearGradient-3)" stroke-width="1.4" fill="url(#linearGradient-2)" xlink:href="#path-4"></use>
                            </g>
                        </g>
                        <path d="M335.224274,-0.7 C339.502123,-0.7 343.370554,1.02376203 346.169675,3.81257674 C348.969732,6.60232361 350.7,10.4579204 350.7,14.7213211 L350.7,225.278679 C350.7,229.54208 348.969732,233.397676 346.169675,236.187423 C343.370554,238.976238 339.502123,240.7 335.224274,240.7 L14.7757256,240.7 C10.4978772,240.7 6.62944618,238.976238 3.83032506,236.187423 C1.03026834,233.397676 -0.7,229.54208 -0.7,225.278679 L-0.7,14.7213211 C-0.7,10.4579204 1.03026834,6.60232361 3.83032506,3.81257674 C6.62944618,1.02376203 10.4978772,-0.7 14.7757256,-0.7 L335.224274,-0.7 Z" id="Path" stroke="#222222" stroke-width="1.4" fill="#FFFFFF" stroke-linejoin="round"></path>
                        <path d="M175.018401,214.00002 C179.989839,214.010307 184.010268,218.047143 184.00002,223.017956 C183.989859,227.989276 179.952696,232.010268 174.981258,232.00002 C170.010073,231.989859 165.989771,227.952135 166.00002,222.980815 C166.010307,218.010002 170.047216,213.989772 175.018401,214.00002 Z M178.591434,217.033788 C177.65815,216.932742 176.493946,217.065968 175.64737,217.333297 C175.425926,217.403666 175.209284,217.468777 175.001729,217.534388 C174.791837,217.599123 174.603363,217.703925 174.409048,217.787067 C173.251074,218.27527 172.204732,218.948412 171.316359,219.704194 C170.027804,220.797299 168.941481,222.085234 168.00002,223.509025 C168.047008,225.2034 168.658251,226.748772 169.647481,228.00002 C170.082321,226.67139 170.608413,225.406244 171.304807,224.206834 C171.930328,223.129506 172.715507,222.080726 173.564809,221.24869 C174.407231,220.421161 175.474991,219.60177 176.717207,219.105804 C177.305345,218.869278 177.987071,218.648027 178.810152,218.552365 C179.390761,218.486002 179.939699,218.547857 180.540038,218.561005 C180.715921,218.564511 180.92815,218.551864 180.986172,218.417887 C181.032901,218.307575 180.951125,218.121384 180.892843,218.040497 C180.792375,217.900885 180.604031,217.773168 180.44658,217.65647 C179.983832,217.307879 179.289255,217.112923 178.591434,217.033788 Z M179.436118,219.019535 C179.190484,218.888132 177.11413,219.446686 176.340003,219.904207 C176.808464,219.999729 177.212043,220.181341 177.604874,220.362831 C177.99102,220.538443 178.375069,220.72422 178.72032,220.963635 C178.938559,221.114999 179.15457,221.320369 179.354328,221.512391 C179.937348,222.070578 180.470953,222.903448 180.481308,223.923075 C180.49127,224.886736 179.950456,225.57804 179.304519,226.05883 C178.638529,226.556274 177.700296,226.882026 176.689579,226.931746 C174.693705,227.035717 173.188574,226.387398 172.036952,225.63572 C171.870487,225.527953 171.496399,225.25388 171.285762,225.048632 C171.159669,225.314744 171.122968,225.413572 171.00002,225.684093 C172.07208,226.668205 173.665948,227.718081 175.441355,227.939861 C176.384044,228.05865 177.373658,227.9995 178.254742,227.780292 C179.041977,227.584596 179.773112,227.20643 180.328082,226.764951 C181.411152,225.906731 182.257108,224.501468 181.928111,222.579166 C181.792842,221.800669 181.419672,221.108386 180.976771,220.509787 C180.667303,220.095127 180.306192,219.64777 179.88269,219.329978 C179.755154,219.232375 179.589607,219.101463 179.436118,219.019535 Z" id="Fill-3" fill="#E5E9ED"></path>
                        <path d="M335.153237,0 L14.7757256,0 C6.60645423,0 0,6.61534714 0,14.7956151 L0,205.787089 L350,205.787089 L350,14.8667479 C350,6.6864799 343.322509,0 335.153237,0 Z" id="Path" fill="#57576D" fill-rule="nonzero"></path>
                        <g id="Group" transform="translate(18.000000, 9.000000)">
                            <g id="Ventana-1">
                                <rect id="Rectangle" stroke="#222222" stroke-width="1.4" fill="#FFFFFF" stroke-linejoin="round" x="0" y="0" width="315" height="188" rx="4"></rect>
                                <line x1="0" y1="14.043869" x2="315" y2="14.043869" id="Path-10" stroke="#222222" stroke-linecap="round" stroke-linejoin="round"></line>
                                <g id="Content-2" transform="translate(156.500000, 101.000000) scale(-1, 1) translate(-156.500000, -101.000000) translate(12.000000, 27.000000)">
                                    <line x1="3" y1="1" x2="15" y2="1" id="Path" stroke="#8A96A6" stroke-width="2" stroke-linecap="round" stroke-linejoin="round"></line>
                                    <line x1="3" y1="9" x2="15" y2="9" id="Path" stroke="#8A96A6" stroke-width="2" stroke-linecap="round" stroke-linejoin="round"></line>
                                    <line x1="8" y1="16" x2="15" y2="16" id="Path" stroke="#8A96A6" stroke-width="2" stroke-linecap="round" stroke-linejoin="round"></line>
                                    <line x1="26" y1="1" x2="38" y2="1" id="Path" stroke="#8A96A6" stroke-width="2" stroke-linecap="round" stroke-linejoin="round"></line>
                                    <line x1="26" y1="9" x2="38" y2="9" id="Path" stroke="#8A96A6" stroke-width="2" stroke-linecap="round" stroke-linejoin="round"></line>
                                    <line x1="31" y1="16" x2="38" y2="16" id="Path" stroke="#8A96A6" stroke-width="2" stroke-linecap="round" stroke-linejoin="round"></line>
                                    <line x1="110" y1="1" x2="122" y2="1" id="Path" stroke="#161628" stroke-width="2" stroke-linecap="round" stroke-linejoin="round"></line>
                                    <line x1="110" y1="9" x2="122" y2="9" id="Path" stroke="#161628" stroke-width="2" stroke-linecap="round" stroke-linejoin="round"></line>
                                    <line x1="115" y1="16" x2="122" y2="16" id="Path" stroke="#161628" stroke-width="2" stroke-linecap="round" stroke-linejoin="round"></line>
                                    <path d="M54.0901195,79 L86,121.356546 C67.5338303,135.222978 42.2046264,135.571717 23.3624732,122.218953 C4.52032006,108.86619 -3.5066561,84.8791143 3.51226651,62.9004251 C10.5311891,40.921736 30.9837328,26 54.0901195,26 C55.7943972,26 57.4986749,26 59.2029526,26.2353142 L54.0901195,79 Z" id="Path" fill="#F6F7FB" fill-rule="nonzero"></path>
                                    <path d="M66,83 L119,83.3785408 C118.889267,99.7302141 111.166256,115.105288 98.0932377,125 L66,83 Z" id="Path" fill="#DFF3FA" fill-rule="nonzero"></path>
                                    <path d="M73,75 L109.177474,36 C119.905365,46.0936464 125.996632,60.2151535 126,75 L126,75 L73,75 Z" id="Path" fill="#DFF3FA" fill-rule="nonzero"></path>
                                    <path d="M62,75 L67.2208186,22 C78.7028189,23.1291945 89.5059639,27.9617332 98,35.7683596 L62,75 Z" id="Path" fill="#DFF3FA" fill-rule="nonzero"></path>
                                    <path d="M53.9060052,80 L58.9869452,27.2353142 C57.2689295,27.0724044 55.5509138,27 53.8328982,27 C52.1148825,27 50.5613577,27 48.9530026,27.2353142 L49.154047,27.2353142 L44,80 L76.1671018,122.356555 C68.2383958,128.25732 58.81042,131.860663 48.9347258,132.764683 C50.5430809,132.909491 52.1879896,133 53.8328982,133 C65.4374759,133.003953 76.7282401,129.268068 86,122.356555 L53.9060052,80 Z" id="Path" fill="#E5E9ED" fill-rule="nonzero"></path>
                                    <path d="M101.034941,121.737339 L71.2455709,83 L65,83 L97.2839567,125 C98.934299,123.759314 100.509064,122.423075 102,120.998283 L101.034941,121.737339 Z" id="Path" fill="#FFFFFF" fill-rule="nonzero"></path>
                                    <path d="M113,39.6431574 C111.854545,38.3498365 110.672727,37.0929472 109.363636,36 L73,75 L80.0545455,75 L113,39.6431574 Z" id="Path" fill="#FFFFFF" fill-rule="nonzero"></path>
                                    <path d="M69,100.909528 L53.4447892,80.0000548 L55.9170211,54.1095294 C55.2132471,54.1095294 54.4914276,54 53.769608,54 C42.5971011,53.9767742 32.6880818,61.2503875 29.249773,71.9985873 C25.8114643,82.7467872 29.6306873,94.50996 38.7004275,101.106519 C47.7701676,107.703078 60.0149095,107.623469 69,100.909528 L69,100.909528 Z" id="Path" fill="#E5E9ED" fill-rule="nonzero"></path>
                                    <path d="M72.2923913,23.3822924 C74.5487465,23.6024237 76.7889623,23.9608175 79,24.4553878 C75.2039142,23.218832 71.2815905,22.395455 67.3032609,22 L62,75 L67.7467391,68.8342485 L72.2923913,23.3822924 Z" id="Path" fill="#FFFFFF" fill-rule="nonzero"></path>
                                    <path d="M54.0901195,80 L86,122.356546 C67.5338303,136.222978 42.2046264,136.571717 23.3624732,123.218953 C4.52032006,109.86619 -3.5066561,85.8791143 3.51226651,63.9004251 C10.5311891,41.921736 30.9837328,27 54.0901195,27 C55.7943972,27 57.4986749,27 59.2029526,27.2353142 L54.0901195,80 Z" id="Path" stroke="#8A96A6" stroke-width="2" stroke-linecap="round" stroke-linejoin="round"></path>
                                    <path d="M9.11764706,145.245315 L9.11764706,139.735945 L4.56777996,137 L0,139.735945 L0,145.245315 L4.56777996,148 L9.11764706,145.245315 L9.11764706,145.245315 Z M20.0588235,145.245315 L20.0588235,139.735945 L15.5089564,137 L10.9411765,139.735945 L10.9411765,145.245315 L15.5089564,148 L20.0588235,145.245315 L20.0588235,145.245315 Z M31,145.245315 L31,139.735945 L26.43222,137 L21.8823529,139.735945 L21.8823529,145.245315 L26.43222,148 L31,145.245315 L31,145.245315 Z" id="Path-11" fill="#8A96A6" fill-rule="nonzero"></path>
                                    <g id="Clipped" transform="translate(73.000000, 36.000000)">
                                        <mask id="mask-6" fill="white">
                                            <use xlink:href="#path-5"></use>
                                        </mask>
                                        <g id="Path"></g>
                                        <g id="Group" mask="url(#mask-6)" stroke="#B2DBF7" stroke-linecap="round" stroke-linejoin="round" stroke-width="0.99">
                                            <g transform="translate(-85.975768, -25.556749)" id="Path">
                                                <line x1="104.733788" y1="0" x2="0" y2="77.8542737"></line>
                                                <line x1="109.00273" y1="4.31714152" x2="4.26894198" y2="82.1531994"></line>
                                                <line x1="113.271672" y1="8.61606726" x2="8.53788396" y2="86.4521252"></line>
                                                <line x1="117.540614" y1="12.914993" x2="12.8249147" y2="90.7510509"></line>
                                                <line x1="121.809556" y1="17.2139187" x2="17.0938567" y2="95.0499766"></line>
                                                <line x1="126.096587" y1="21.5128445" x2="21.3627986" y2="99.3489024"></line>
                                                <line x1="130.365529" y1="25.8117702" x2="25.6317406" y2="103.666044"></line>
                                                <line x1="134.634471" y1="30.1106959" x2="29.9006826" y2="107.96497"></line>
                                                <line x1="138.903413" y1="34.4278375" x2="34.1696246" y2="112.263895"></line>
                                                <line x1="143.172355" y1="38.7267632" x2="38.4385666" y2="116.562821"></line>
                                                <line x1="147.441297" y1="43.0256889" x2="42.7255973" y2="120.861747"></line>
                                                <line x1="151.710239" y1="47.3246147" x2="46.9945392" y2="125.160673"></line>
                                                <line x1="155.99727" y1="51.6235404" x2="51.2634812" y2="129.459598"></line>
                                                <line x1="160.266212" y1="55.9224661" x2="55.5324232" y2="133.77674"></line>
                                                <line x1="164.535154" y1="60.2213919" x2="59.8013652" y2="138.075666"></line>
                                                <line x1="168.804096" y1="64.5385334" x2="64.0703072" y2="142.374591"></line>
                                                <line x1="173.073038" y1="68.8374591" x2="68.3392491" y2="146.673517"></line>
                                            </g>
                                        </g>
                                    </g>
                                    <g id="Clipped" transform="translate(66.000000, 83.000000)">
                                        <mask id="mask-8" fill="white">
                                            <use xlink:href="#path-7"></use>
                                        </mask>
                                        <use id="Path" fill="#ED474A" xlink:href="#path-7"></use>
                                        <g id="Group" mask="url(#mask-8)" stroke="#9C1414" stroke-linecap="round" stroke-linejoin="round" stroke-width="0.99">
                                            <g transform="translate(-78.305328, -72.157082)" id="Path">
                                                <line x1="104.805328" y1="0" x2="0" y2="77.0420601"></line>
                                                <line x1="109.077186" y1="4.272103" x2="4.27185792" y2="81.2961373"></line>
                                                <line x1="113.349044" y1="8.52618026" x2="8.54371585" y2="85.5502146"></line>
                                                <line x1="117.620902" y1="12.7802575" x2="12.8336749" y2="89.8042918"></line>
                                                <line x1="121.89276" y1="17.0343348" x2="17.1055328" y2="94.0583691"></line>
                                                <line x1="126.182719" y1="21.288412" x2="21.3773907" y2="98.3124464"></line>
                                                <line x1="130.454577" y1="25.5424893" x2="25.6492486" y2="102.584549"></line>
                                                <line x1="134.726434" y1="29.7965665" x2="29.9211066" y2="106.838627"></line>
                                                <line x1="138.998292" y1="34.0686695" x2="34.1929645" y2="111.092704"></line>
                                                <line x1="143.27015" y1="38.3227468" x2="38.4648224" y2="115.346781"></line>
                                                <line x1="147.542008" y1="42.576824" x2="42.7547814" y2="119.600858"></line>
                                                <line x1="151.813866" y1="46.8309013" x2="47.0266393" y2="123.854936"></line>
                                                <line x1="156.103825" y1="51.0849785" x2="51.2984973" y2="128.109013"></line>
                                                <line x1="160.375683" y1="55.3390558" x2="55.5703552" y2="132.381116"></line>
                                                <line x1="164.647541" y1="59.593133" x2="59.8422131" y2="136.635193"></line>
                                                <line x1="168.919399" y1="63.8652361" x2="64.114071" y2="140.88927"></line>
                                                <line x1="173.191257" y1="68.1193133" x2="68.385929" y2="145.143348"></line>
                                            </g>
                                        </g>
                                    </g>
                                    <g id="Clipped" transform="translate(62.000000, 22.000000)">
                                        <mask id="mask-10" fill="white">
                                            <use xlink:href="#path-9"></use>
                                        </mask>
                                        <use id="Path" fill="#1D7873" xlink:href="#path-9"></use>
                                        <g id="Group" mask="url(#mask-10)" stroke="#2AD0CF" stroke-linecap="round" stroke-linejoin="round" stroke-width="0.99">
                                            <g transform="translate(-75.092471, -11.513040)" id="Path">
                                                <line x1="105.325922" y1="0" x2="0" y2="77.7357584"></line>
                                                <line x1="109.618999" y1="4.31056966" x2="4.29307731" y2="82.02814"></line>
                                                <line x1="113.912077" y1="8.60295127" x2="8.58615462" y2="86.3205216"></line>
                                                <line x1="118.205154" y1="12.8953329" x2="12.8974229" y2="90.6129032"></line>
                                                <line x1="122.498231" y1="17.1877145" x2="17.1905003" y2="94.9052848"></line>
                                                <line x1="126.8095" y1="21.4800961" x2="21.4835776" y2="99.1976664"></line>
                                                <line x1="131.102577" y1="25.7724777" x2="25.7766549" y2="103.508236"></line>
                                                <line x1="135.395654" y1="30.0648593" x2="30.0697322" y2="107.800618"></line>
                                                <line x1="139.688732" y1="34.375429" x2="34.3628095" y2="112.092999"></line>
                                                <line x1="143.981809" y1="38.6678106" x2="38.6558868" y2="116.385381"></line>
                                                <line x1="148.274886" y1="42.9601922" x2="42.9671551" y2="120.677763"></line>
                                                <line x1="152.567964" y1="47.2525738" x2="47.2602324" y2="124.970144"></line>
                                                <line x1="156.879232" y1="51.5449554" x2="51.5533098" y2="129.262526"></line>
                                                <line x1="161.172309" y1="55.837337" x2="55.8463871" y2="133.573095"></line>
                                                <line x1="165.465387" y1="60.1297186" x2="60.1394644" y2="137.865477"></line>
                                                <line x1="169.758464" y1="64.4402883" x2="64.4325417" y2="142.157859"></line>
                                                <line x1="174.051541" y1="68.7326699" x2="68.725619" y2="146.45024"></line>
                                            </g>
                                        </g>
                                    </g>
                                    <path d="M66,83 L119,83.3785408 C118.889267,99.7302141 111.166256,115.105288 98.0932377,125 L66,83 Z" id="Path" stroke="#9C1414" stroke-width="2" stroke-linecap="round" stroke-linejoin="round"></path>
                                    <path d="M73,75 L109.177474,36 C119.905365,46.0936464 125.996632,60.2151535 126,75 L126,75 L73,75 Z" id="Path" stroke="#B2DBF7" stroke-width="2" stroke-linecap="round" stroke-linejoin="round"></path>
                                    <path d="M62,75 L67.2208186,22 C78.7028189,23.1291945 89.5059639,27.9617332 98,35.7683596 L62,75 Z" id="Path" stroke="#14524F" stroke-width="2" stroke-linecap="round" stroke-linejoin="round"></path>
                                </g>
                                <g id="Group-5" transform="translate(23.000000, 91.000000)">
                                    <g id="1">
                                        <line x1="0.118553327" y1="46.1425683" x2="53.158873" y2="46.1425683" id="Path" stroke="#8A96A6" stroke-width="2" stroke-linecap="round" stroke-linejoin="round" stroke-dasharray="1,4"></line>
                                        <line x1="0.118553327" y1="55.2692624" x2="53.158873" y2="55.2692624" id="Path" stroke="#8A96A6" stroke-width="2" stroke-linecap="round" stroke-linejoin="round"></line>
                                        <line x1="0.118553327" y1="64.4672589" x2="53.158873" y2="64.4672589" id="Path" stroke="#8A96A6" stroke-width="2" stroke-linecap="round" stroke-linejoin="round" stroke-dasharray="4,4"></line>
                                        <line x1="0.118553327" y1="73.5939531" x2="53.158873" y2="73.5939531" id="Path" stroke="#8A96A6" stroke-width="2" stroke-linecap="round" stroke-linejoin="round" stroke-dasharray="2,4"></line>
                                        <line x1="0.118553327" y1="82.7206472" x2="26.6031156" y2="82.7206472" id="Path" stroke="#8A96A6" stroke-width="2" stroke-linecap="round" stroke-linejoin="round"></line>
                                        <path d="M50,0 C52.209139,-4.33003142e-15 54,1.790861 54,4 L54,30 C54,32.209139 52.209139,34 50,34 L47,34 L47,29 L39,29 L39,34 L36,34 L36,22 L28,22 L28,34 L25,34 L25,8 L17,8 L17,34 L14,34 L14,17 L6,17 L6,34 L4,34 C1.790861,34 2.705415e-16,32.209139 0,30 L0,4 C-2.705415e-16,1.790861 1.790861,4.05812251e-16 4,0 L50,0 Z" id="Rectangle-3" fill="#C0CCDC" fill-rule="nonzero"></path>
                                    </g>
                                    <g id="3" transform="translate(74.000000, 1.079516)">
                                        <line x1="53.0403197" y1="0.356511491" x2="0" y2="0.356511491" id="Path" stroke="#8A96A6" stroke-width="2" stroke-linecap="round" stroke-linejoin="round"></line>
                                        <line x1="53.0403197" y1="9.55450796" x2="0" y2="9.55450796" id="Path" stroke="#8A96A6" stroke-width="2" stroke-linecap="round" stroke-linejoin="round"></line>
                                        <line x1="53.0403197" y1="18.6812021" x2="0" y2="18.6812021" id="Path" stroke="#8A96A6" stroke-width="2" stroke-linecap="round" stroke-linejoin="round"></line>
                                        <line x1="53.0403197" y1="27.3565115" x2="0" y2="27.3565115" id="Path" stroke="#8A96A6" stroke-width="2" stroke-linecap="round" stroke-linejoin="round"></line>
                                        <line x1="26.4845623" y1="37.3565115" x2="0" y2="37.3565115" id="Path" stroke="#8A96A6" stroke-width="2" stroke-linecap="round" stroke-linejoin="round"></line>
                                        <g id="Group-4" transform="translate(0.000000, 54.688863)" fill-rule="nonzero">
                                            <g id="User">
                                                <path d="M4,0 L19.3519797,0 C21.5611187,-4.05812251e-16 23.3519797,1.790861 23.3519797,4 L23.3519797,27.9505009 L23.3519797,27.9505009 L0,27.9505009 L0,4 C-2.705415e-16,1.790861 1.790861,4.05812251e-16 4,0 Z" id="Rectangle" stroke="#E5E9ED"></path>
                                                <path d="M17.86996,19.6794343 L16.9444243,19.6794343 C15.5917181,19.6794343 14.5237922,18.6098998 14.5237922,17.2551562 L14.5237922,16.8986447 C15.5205231,16.3282263 16.2324737,15.3299941 16.2324737,14.117855 L16.2324737,10.1962286 C16.2324737,8.41367118 14.8085725,6.98762522 13.028696,6.98762522 L10.4656738,6.98762522 C8.68579731,6.98762522 7.26189611,8.41367118 7.26189611,10.1962286 L7.26189611,14.117855 C7.26189611,15.3299941 7.90265165,16.3995286 8.89938249,16.8986447 L8.89938249,17.2551562 C8.89938249,18.6098998 7.83145659,19.6794343 6.47875045,19.6794343 L5.55321467,19.6794343 C3.34616782,19.6794343 1.56629132,21.4619918 1.56629132,23.672363 L1.56629132,26.4531526 L21.7856883,26.4531526 L21.7856883,23.672363 C21.7856883,21.4619918 20.0770069,19.6794343 17.86996,19.6794343 Z" id="Path" fill="#8A96A6"></path>
                                            </g>
                                            <g id="User" transform="translate(29.688340, 0.000000)">
                                                <path d="M4,0 L19.3519797,0 C21.5611187,-4.05812251e-16 23.3519797,1.790861 23.3519797,4 L23.3519797,27.9505009 L23.3519797,27.9505009 L0,27.9505009 L0,4 C-2.705415e-16,1.790861 1.790861,4.05812251e-16 4,0 Z" id="Rectangle" stroke="#E5E9ED"></path>
                                                <path d="M17.86996,19.6794343 L16.9444243,19.6794343 C15.5917181,19.6794343 14.5237922,18.6098998 14.5237922,17.2551562 L14.5237922,16.8986447 C15.5205231,16.3282263 16.2324737,15.3299941 16.2324737,14.117855 L16.2324737,10.1962286 C16.2324737,8.41367118 14.8085725,6.98762522 13.028696,6.98762522 L10.4656738,6.98762522 C8.68579731,6.98762522 7.26189611,8.41367118 7.26189611,10.1962286 L7.26189611,14.117855 C7.26189611,15.3299941 7.90265165,16.3995286 8.89938249,16.8986447 L8.89938249,17.2551562 C8.89938249,18.6098998 7.83145659,19.6794343 6.47875045,19.6794343 L5.55321467,19.6794343 C3.34616782,19.6794343 1.56629132,21.4619918 1.56629132,23.672363 L1.56629132,26.4531526 L21.7856883,26.4531526 L21.7856883,23.672363 C21.7856883,21.4619918 20.0058118,19.6794343 17.86996,19.6794343 Z" id="Path" fill="#8A96A6"></path>
                                            </g>
                                        </g>
                                    </g>
                                </g>
                            </g>
                            <g transform="translate(0.000000, 0.071133)"></g>
                        </g>
                    </g>
                    <g id="statistics" transform="translate(-0.000000, 0.000000)">
                        <g id="Path">
                            <use fill="#D0E7FD" xlink:href="#path-12"></use>
                            <path stroke="#222222" stroke-width="1.4" d="M191.91,-0.7 C193.207869,-0.7 194.382869,-0.173934581 195.233402,0.676598128 C196.083935,1.52713084 196.61,2.70213084 196.61,4 L196.61,166.68 C196.61,167.977869 196.083935,169.152869 195.233402,170.003402 C194.382869,170.853935 193.207869,171.38 191.91,171.38 L4,171.38 C2.70213084,171.38 1.52713084,170.853935 0.676598128,170.003402 C-0.173934581,169.152869 -0.7,167.977869 -0.7,166.68 L-0.7,4 C-0.7,2.70213084 -0.173934581,1.52713084 0.676598128,0.676598128 C1.52713084,-0.173934581 2.70213084,-0.7 4,-0.7 L191.91,-0.7 Z" fill="url(#linearGradient-11)"></path>
                        </g>
                        <path d="M4,0 L191.9,0 C194.109139,-4.05812251e-16 195.9,1.790861 195.9,4 L195.9,26.48 L195.9,26.48 L0,26.48 L0,4 C-2.705415e-16,1.790861 1.790861,4.05812251e-16 4,0 Z" id="Rectangle" fill="#161628" fill-rule="nonzero"></path>
                        <circle id="Oval" stroke="#FFFFFF" fill-rule="nonzero" cx="40.75" cy="13.24" r="4.3"></circle>
                        <circle id="Oval" stroke="#FFFFFF" fill-rule="nonzero" cx="29.74" cy="13.24" r="4.3"></circle>
                        <circle id="Oval" stroke="#FFFFFF" fill-rule="nonzero" cx="18.73" cy="13.24" r="4.3"></circle>
                        <line x1="59.67" y1="13.89" x2="181.48" y2="13.89" id="Path" stroke="#FFFFFF" stroke-linecap="round" stroke-linejoin="round"></line>
                        <rect id="Rectangle" fill="#C0CCDC" fill-rule="nonzero" x="18.87" y="136.87" width="157.34" height="25.58" rx="4"></rect>
                        <polygon id="Path" stroke="#FFFFFF" stroke-width="0.99" stroke-linecap="round" stroke-linejoin="round" points="38.2 151.95 38.2 145.35 32.48 142.05 26.77 145.35 26.77 151.95 32.48 155.26"></polygon>
                        <line x1="54.85" y1="144.48" x2="42.46" y2="144.48" id="Path" stroke="#FFFFFF" stroke-width="0.99" stroke-linecap="round" stroke-linejoin="round"></line>
                        <line x1="54.85" y1="148.65" x2="42.46" y2="148.65" id="Path" stroke="#FFFFFF" stroke-width="0.99" stroke-linecap="round" stroke-linejoin="round"></line>
                        <line x1="49.92" y1="152.82" x2="42.46" y2="152.82" id="Path" stroke="#FFFFFF" stroke-width="0.99" stroke-linecap="round" stroke-linejoin="round"></line>
                        <polygon id="Path" stroke="#FFFFFF" stroke-width="0.99" stroke-linecap="round" stroke-linejoin="round" points="76.3 151.95 76.3 145.35 70.58 142.05 64.87 145.35 64.87 151.95 70.58 155.26"></polygon>
                        <line x1="92.95" y1="144.48" x2="80.55" y2="144.48" id="Path" stroke="#FFFFFF" stroke-width="0.99" stroke-linecap="round" stroke-linejoin="round"></line>
                        <line x1="92.95" y1="148.65" x2="80.55" y2="148.65" id="Path" stroke="#FFFFFF" stroke-width="0.99" stroke-linecap="round" stroke-linejoin="round"></line>
                        <line x1="88.02" y1="152.82" x2="80.55" y2="152.82" id="Path" stroke="#FFFFFF" stroke-width="0.99" stroke-linecap="round" stroke-linejoin="round"></line>
                        <polygon id="Path" stroke="#FFFFFF" stroke-width="0.99" stroke-linecap="round" stroke-linejoin="round" points="114.4 151.95 114.4 145.35 108.68 142.05 102.97 145.35 102.97 151.95 108.68 155.26"></polygon>
                        <line x1="131.04" y1="144.48" x2="118.65" y2="144.48" id="Path" stroke="#FFFFFF" stroke-width="0.99" stroke-linecap="round" stroke-linejoin="round"></line>
                        <line x1="131.04" y1="148.65" x2="118.65" y2="148.65" id="Path" stroke="#FFFFFF" stroke-width="0.99" stroke-linecap="round" stroke-linejoin="round"></line>
                        <line x1="126.12" y1="152.82" x2="118.65" y2="152.82" id="Path" stroke="#FFFFFF" stroke-width="0.99" stroke-linecap="round" stroke-linejoin="round"></line>
                        <polygon id="Path" stroke="#FFFFFF" stroke-width="0.99" stroke-linecap="round" stroke-linejoin="round" points="152.5 151.95 152.5 145.35 146.78 142.05 141.06 145.35 141.06 151.95 146.78 155.26"></polygon>
                        <line x1="169.14" y1="144.48" x2="156.75" y2="144.48" id="Path" stroke="#FFFFFF" stroke-width="0.99" stroke-linecap="round" stroke-linejoin="round"></line>
                        <line x1="169.14" y1="148.65" x2="156.75" y2="148.65" id="Path" stroke="#FFFFFF" stroke-width="0.99" stroke-linecap="round" stroke-linejoin="round"></line>
                        <line x1="164.22" y1="152.82" x2="156.75" y2="152.82" id="Path" stroke="#FFFFFF" stroke-width="0.99" stroke-linecap="round" stroke-linejoin="round"></line>
                        <g id="Group-2" transform="translate(181.750000, 149.380000)">
                            <path d="M2.50310812,-1.58525677 L32.0668922,28.4854583 L18.7987954,29.2918067 L22.8374745,40.3785687 L13.9015261,43.6269384 L9.86308336,32.5310228 L-0.819024498,40.4483498 L2.50310812,-1.58525677 Z" id="Path" stroke="#222222" stroke-width="1.4" fill="#FFFFFF" stroke-linejoin="round"></path>
                            <polygon id="Path" fill-opacity="0.1" fill="#000000" fill-rule="nonzero" points="23.3 28.31 30.49 27.88 3.08 0"></polygon>
                        </g>
                        <circle id="Oval" fill-opacity="0.05" fill="#000000" fill-rule="nonzero" cx="97.96" cy="85.15" r="41.57"></circle>
                        <path d="M116.44,81.5 L122.03,81.5 C123.686854,81.5 125.03,82.8431458 125.03,84.5 L125.03,128.98 C125.03,130.636854 123.686854,131.98 122.03,131.98 L116.44,131.98 C114.783146,131.98 113.44,130.636854 113.44,128.98 L113.44,84.5 C113.44,82.8431458 114.783146,81.5 116.44,81.5 Z M55.62,107.8 L61.21,107.8 C62.8668542,107.8 64.21,109.143146 64.21,110.8 L64.21,128.98 C64.21,130.636854 62.8668542,131.98 61.21,131.98 L55.62,131.98 C53.9631458,131.98 52.62,130.636854 52.62,128.98 L52.62,110.8 C52.62,109.143146 53.9631458,107.8 55.62,107.8 Z M75.89,97.2 L81.48,97.2 C83.1368542,97.2 84.48,98.5431458 84.48,100.2 L84.48,128.98 C84.48,130.636854 83.1368542,131.98 81.48,131.98 L75.89,131.98 C74.2331458,131.98 72.89,130.636854 72.89,128.98 L72.89,100.2 C72.89,98.5431458 74.2331458,97.2 75.89,97.2 Z M96.16,88.34 L101.75,88.34 C103.406854,88.34 104.75,89.6831458 104.75,91.34 L104.75,128.98 C104.75,130.636854 103.406854,131.98 101.75,131.98 L96.16,131.98 C94.5031458,131.98 93.16,130.636854 93.16,128.98 L93.16,91.34 C93.16,89.6831458 94.5031458,88.34 96.16,88.34 Z" id="Rectangle-4" fill="url(#linearGradient-13)" fill-rule="nonzero"></path>
                        <rect id="Rectangle" fill="#91C0DB" fill-rule="nonzero" x="133.71" y="50.75" width="11.59" height="81.23"></rect>
                        <rect id="Rectangle" fill="#7AB2CE" fill-rule="nonzero" x="142.41" y="50.75" width="2.88" height="81.23"></rect>
                        <g id="Clipped" transform="translate(133.710000, 50.750000)">
                            <mask id="mask-15" fill="white">
                                <use xlink:href="#path-14"></use>
                            </mask>
                            <rect stroke="#222222" stroke-width="1.4" x="-0.7" y="-0.7" width="12.99" height="82.63" rx="3"></rect>
                            <g id="Group" mask="url(#mask-15)" stroke="#A5D956" stroke-linecap="round" stroke-linejoin="round" stroke-width="0.99">
                                <g transform="translate(-43.280000, -5.280000)" id="Path">
                                    <line x1="67.3" y1="0" x2="0" y2="25.47"></line>
                                    <line x1="68.93" y1="2.91" x2="1.63" y2="28.39"></line>
                                    <line x1="70.57" y1="5.82" x2="3.27" y2="31.3"></line>
                                    <line x1="72.2" y1="8.74" x2="4.9" y2="34.21"></line>
                                    <line x1="73.83" y1="11.65" x2="6.54" y2="37.12"></line>
                                    <line x1="75.47" y1="14.56" x2="8.17" y2="40.03"></line>
                                    <line x1="77.1" y1="17.47" x2="9.8" y2="42.95"></line>
                                    <line x1="78.74" y1="20.38" x2="11.44" y2="45.86"></line>
                                    <line x1="80.37" y1="23.3" x2="13.07" y2="48.77"></line>
                                    <line x1="82.01" y1="26.21" x2="14.71" y2="51.68"></line>
                                    <line x1="83.64" y1="29.12" x2="16.34" y2="54.6"></line>
                                    <line x1="85.28" y1="32.03" x2="17.98" y2="57.51"></line>
                                    <line x1="86.91" y1="34.95" x2="19.61" y2="60.42"></line>
                                    <line x1="88.54" y1="37.86" x2="21.25" y2="63.33"></line>
                                    <line x1="90.18" y1="40.77" x2="22.88" y2="66.25"></line>
                                    <line x1="91.81" y1="43.68" x2="24.51" y2="69.16"></line>
                                    <line x1="93.45" y1="46.59" x2="26.15" y2="72.07"></line>
                                    <line x1="82.68" y1="50.47" x2="15.38" y2="75.95"></line>
                                    <line x1="84.31" y1="53.39" x2="17.01" y2="78.86"></line>
                                    <line x1="85.95" y1="56.3" x2="18.65" y2="81.77"></line>
                                    <line x1="87.58" y1="59.21" x2="20.28" y2="84.69"></line>
                                    <line x1="89.22" y1="62.12" x2="21.92" y2="87.6"></line>
                                    <line x1="90.85" y1="65.04" x2="23.55" y2="90.51"></line>
                                    <line x1="92.49" y1="67.95" x2="25.19" y2="93.42"></line>
                                    <line x1="94.12" y1="70.86" x2="26.82" y2="96.34"></line>
                                    <line x1="95.75" y1="73.77" x2="28.46" y2="99.25"></line>
                                    <line x1="97.39" y1="76.69" x2="30.09" y2="102.16"></line>
                                    <line x1="99.02" y1="79.6" x2="31.72" y2="105.07"></line>
                                    <line x1="100.66" y1="82.51" x2="33.36" y2="107.98"></line>
                                    <line x1="102.29" y1="85.42" x2="34.99" y2="110.9"></line>
                                    <line x1="103.93" y1="88.33" x2="36.63" y2="113.81"></line>
                                    <line x1="105.56" y1="91.25" x2="38.26" y2="116.72"></line>
                                    <line x1="107.2" y1="94.16" x2="39.9" y2="119.63"></line>
                                    <line x1="108.83" y1="97.07" x2="41.53" y2="122.55"></line>
                                </g>
                            </g>
                        </g>
                        <path d="M118.908504,42.5973796 L125.359095,46.9384196 C105.950359,76.2027853 80.5320959,90.784865 49.89,90.3118276 L49.89,82.5334907 C63.1815485,82.9086095 76.3169975,79.6374119 87.8718471,73.0827196 C99.4129083,66.4662473 109.855027,56.2071021 118.908504,42.5973796 Z" id="Path" stroke="#222222" stroke-width="1.4" fill="#95A3BF" stroke-linejoin="round"></path>
                        <path d="M119.17,43.57 L118.41,44.67 L121.34,46.67 C102.88,74.1 79.1,88.37 50.62,89.13 L50.62,89.64 C80.49,89.88 105.33,75.58 124.46,47.15 L119.17,43.57 Z" id="Path" fill-opacity="0.2" fill="#FFFFFF" fill-rule="nonzero"></path>
                        <path d="M129.354784,34.163995 L128.062473,54.6936046 L110.922346,43.3121976 L129.354784,34.163995 Z" id="Path" stroke="#222222" stroke-width="1.4" fill="#95A3BF" stroke-linejoin="round"></path>
                        <polygon id="Path" fill-opacity="0.2" fill="#FFFFFF" fill-rule="nonzero" points="123.28 50.74 127.41 53.48 128.55 35.37 124.11 37.57"></polygon>
                        <line x1="23.08" y1="43.24" x2="29.81" y2="43.24" id="Path" stroke="#91C0DB" stroke-width="2" stroke-linecap="round" stroke-linejoin="round"></line>
                        <line x1="23.08" y1="47.42" x2="29.81" y2="47.42" id="Path" stroke="#91C0DB" stroke-width="2" stroke-linecap="round" stroke-linejoin="round"></line>
                        <line x1="23.08" y1="51.59" x2="26.78" y2="51.59" id="Path" stroke="#91C0DB" stroke-width="2" stroke-linecap="round" stroke-linejoin="round"></line>
                        <line x1="23.08" y1="60.33" x2="29.81" y2="60.33" id="Path" stroke="#91C0DB" stroke-width="2" stroke-linecap="round" stroke-linejoin="round"></line>
                        <line x1="23.08" y1="64.5" x2="29.81" y2="64.5" id="Path" stroke="#91C0DB" stroke-width="2" stroke-linecap="round" stroke-linejoin="round"></line>
                        <line x1="23.08" y1="68.68" x2="26.78" y2="68.68" id="Path" stroke="#91C0DB" stroke-width="2" stroke-linecap="round" stroke-linejoin="round"></line>
                        <line x1="35.49" y1="43.24" x2="42.22" y2="43.24" id="Path" stroke="#91C0DB" stroke-width="2" stroke-linecap="round" stroke-linejoin="round"></line>
                        <line x1="35.49" y1="47.42" x2="42.22" y2="47.42" id="Path" stroke="#91C0DB" stroke-width="2" stroke-linecap="round" stroke-linejoin="round"></line>
                        <line x1="35.49" y1="51.59" x2="39.19" y2="51.59" id="Path" stroke="#91C0DB" stroke-width="2" stroke-linecap="round" stroke-linejoin="round"></line>
                        <line x1="165.78" y1="43.24" x2="172.51" y2="43.24" id="Path" stroke="#4194D8" stroke-width="2" stroke-linecap="round" stroke-linejoin="round"></line>
                        <line x1="165.78" y1="47.42" x2="172.51" y2="47.42" id="Path" stroke="#4194D8" stroke-width="2" stroke-linecap="round" stroke-linejoin="round"></line>
                        <line x1="165.78" y1="51.59" x2="169.48" y2="51.59" id="Path" stroke="#4194D8" stroke-width="2" stroke-linecap="round" stroke-linejoin="round"></line>
                        <polygon id="Path" fill="#B2DBF7" fill-rule="nonzero" points="27.87 129.58 27.87 126.64 25.32 125.17 22.78 126.64 22.78 129.58 25.32 131.05"></polygon>
                        <polygon id="Path" fill="#B2DBF7" fill-rule="nonzero" points="34.08 129.58 34.08 126.64 31.53 125.17 28.99 126.64 28.99 129.58 31.53 131.05"></polygon>
                    </g>
                </g>
            </g>
        </g>
    </g>
</svg>