<?xml version="1.0" encoding="UTF-8"?>
<svg width="20px" height="20px" viewBox="0 0 20 20" version="1.1" xmlns="http://www.w3.org/2000/svg" xmlns:xlink="http://www.w3.org/1999/xlink">
    <!-- Generator: Sketch 61.2 (89653) - https://sketch.com -->
    <title>Dark / 20 / workstation@svg</title>
    <desc>Created with Sketch.</desc>
    <g id="Dark-/-20-/-workstation" stroke="none" stroke-width="1" fill="none" fill-rule="evenodd">
        <path d="M14,18 C14.5522847,18 15,18.4477153 15,19 C15,19.5522847 14.5522847,20 14,20 L14,20 L6,20 C5.44771525,20 5,19.5522847 5,19 C5,18.4477153 5.44771525,18 6,18 L6,18 Z M17,0 C18.6568542,0 20,1.34314575 20,3 L20,3 L20,13 C20,14.6568542 18.6568542,16 17,16 L17,16 L3,16 C1.34314575,16 0,14.6568542 0,13 L0,13 L0,3 C0,1.34314575 1.34314575,0 3,0 L3,0 Z M17,2 L3,2 C2.44771525,2 2,2.44771525 2,3 L2,3 L2,11 L18,11 L18,3 C18,2.44771525 17.5522847,2 17,2 L17,2 Z M6,4 C7.1045695,4 8,4.8954305 8,6 C8,7.1045695 7.1045695,8 6,8 C4.8954305,8 4,7.1045695 4,6 C4,4.8954305 4.8954305,4 6,4 Z" id="Rectangle" fill="#3F3F3F"></path>
    </g>
</svg>