<?xml version="1.0" encoding="UTF-8"?>
<svg viewBox="0 0 20 20" version="1.1" xmlns="http://www.w3.org/2000/svg" xmlns:xlink="http://www.w3.org/1999/xlink">
    <!-- Generator: Sketch 61.2 (89653) - https://sketch.com -->
    <title>Dark / 20 / wux@svg</title>
    <desc>Created with Sketch.</desc>
    <g id="Dark-/-20-/-wux" stroke="none" stroke-width="1" fill="none" fill-rule="evenodd">
        <path d="M18,0 C19.1045695,-2.02906125e-16 20,0.8954305 20,2 L20,18 C20,19.1045695 19.1045695,20 18,20 L2,20 C0.8954305,20 1.3527075e-16,19.1045695 0,18 L0,2 C-1.3527075e-16,0.8954305 0.8954305,2.02906125e-16 2,0 L18,0 Z M4.75231054,9 L3,9 L3,13.9986207 C3,15.9627586 4.38632163,17 6.11645102,17 C7.84658041,17 9.23290203,15.9627586 9.23290203,13.9986207 L9.23290203,9 L7.4805915,9 L7.4805915,13.8551724 C7.4805915,14.8041379 6.94824399,15.2786207 6.11645102,15.2786207 C5.28465804,15.2786207 4.75231054,14.8041379 4.75231054,13.8551724 L4.75231054,9 Z M11.8207024,9 L9.71349353,9 L12.2532348,12.9062069 L9.71349353,16.8234483 L11.7763401,16.8234483 L13.3179298,14.2855172 L14.87061,16.8234483 L17,16.8234483 L14.4491682,12.9282759 L16.9778189,9 L14.9260628,9 L13.3733826,11.537931 L11.8207024,9 Z M4,2 L2,2 L2,4 L4,4 L4,2 Z M7,2 L5,2 L5,4 L7,4 L7,2 Z M10,2 L8,2 L8,4 L10,4 L10,2 Z" id="Rectangle" fill="#3F3F3F"></path>
    </g>
</svg>