<svg id="Capa_1" data-name="Capa 1" xmlns="http://www.w3.org/2000/svg" viewBox="0 0 25 25"><defs><style>.svg_ico_border{fill:#2c3432;}</style></defs><path class="svg_ico_border" d="M4.77,21.12a1.12,1.12,0,0,1-1-1.65l3.72-6.73L3.79,6A1.11,1.11,0,0,1,5.2,4.46L22,11.73a1.11,1.11,0,0,1,.67,1,1.09,1.09,0,0,1-.67,1L5.21,21h0A1.12,1.12,0,0,1,4.77,21.12ZM5,20.45H5ZM5.09,5.78l3.56,6.43a1.08,1.08,0,0,1,0,1.07L5.1,19.71l16.12-7Z"/><path class="svg_ico_border" d="M21.77,13.37H8.23a.63.63,0,0,1,0-1.25H21.77a.63.63,0,0,1,0,1.25Z"/></svg>