<svg id="Capa_1" data-name="Capa 1" xmlns="http://www.w3.org/2000/svg" viewBox="0 0 25 25"><defs><style>.cls-1{fill:#2c3432;}</style></defs><path class="cls-1" d="M12.5,18.57a36.36,36.36,0,0,1-6.81-.65,1.7,1.7,0,0,1-1.27-1.09,1.65,1.65,0,0,1,.25-1.63,7.77,7.77,0,0,0,1.14-4.69,6.45,6.45,0,0,1,1.8-4.8,7.45,7.45,0,0,1,4.9-1.89,7.5,7.5,0,0,1,4.88,1.89,6.45,6.45,0,0,1,1.8,4.8,7.77,7.77,0,0,0,1.14,4.69,1.65,1.65,0,0,1,.25,1.63,1.7,1.7,0,0,1-1.27,1.09A36.44,36.44,0,0,1,12.5,18.57Zm0-13.5a6.23,6.23,0,0,0-4,1.54,5.23,5.23,0,0,0-1.42,3.9A8.78,8.78,0,0,1,5.65,16a.42.42,0,0,0-.06.43.43.43,0,0,0,.34.29,34.57,34.57,0,0,0,13.14,0,.43.43,0,0,0,.34-.29.42.42,0,0,0-.06-.43,8.78,8.78,0,0,1-1.41-5.46A5.27,5.27,0,0,0,16.52,6.6a6.26,6.26,0,0,0-4-1.53Z"/><path class="cls-1" d="M12.5,21.34a3.41,3.41,0,0,1-3.4-3.4.63.63,0,0,1,.63-.62.62.62,0,0,1,.62.62,2.15,2.15,0,1,0,4.3,0,.62.62,0,0,1,.62-.62.63.63,0,0,1,.63.62A3.41,3.41,0,0,1,12.5,21.34Z"/></svg>