<?xml version="1.0" encoding="UTF-8"?>
<svg width="20px" height="20px" viewBox="0 0 20 20" version="1.1" xmlns="http://www.w3.org/2000/svg" xmlns:xlink="http://www.w3.org/1999/xlink">
    <!-- Generator: Sketch 61.2 (89653) - https://sketch.com -->
    <title>Dark / 20 / change-pause@svg</title>
    <desc>Created with Sketch.</desc>
    <g id="Dark-/-20-/-change-pause" stroke="none" stroke-width="1" fill="none" fill-rule="evenodd">
        <g id="Group" transform="translate(2.000000, 1.000000)" fill="#3F3F3F">
            <path d="M1.74609,0 C0.7796,0 -0.00391,0.7835 -0.00391,1.75 L-0.00391,16.25 C-0.00391,17.2165 0.7796,18 1.74609,18 L5.24609,18 C6.2126,18 6.99609,17.2165 6.99609,16.25 L6.99609,1.75 C6.99609,0.7835 6.2126,0 5.24609,0 L1.74609,0 Z" id="Path"></path>
            <path d="M10.7461,0 C9.7796,0 8.9961,0.7835 8.9961,1.75 L8.9961,16.25 C8.9961,17.2165 9.7796,18 10.7461,18 L14.2461,18 C15.2126,18 15.9961,17.2165 15.9961,16.25 L15.9961,1.75 C15.9961,0.7835 15.2126,0 14.2461,0 L10.7461,0 Z" id="Path"></path>
        </g>
    </g>
</svg>