<svg id="Capa_1" data-name="Capa 1" xmlns="http://www.w3.org/2000/svg" viewBox="0 0 25 25"><defs><style>.cls-1{fill:#2c3432;}</style></defs><path class="cls-1" d="M12.28,9.91a2.61,2.61,0,0,1,2.6,2.6v.05h0a2.6,2.6,0,1,1-2.6-2.65m0-1.25a3.85,3.85,0,0,0,0,7.7h0a3.82,3.82,0,0,0,3.82-3.78v-.06h0a3.86,3.86,0,0,0-3.85-3.85Z"/><path class="cls-1" d="M9.34,4.54a.75.75,0,0,1,.48.18,9.2,9.2,0,0,1,.68.72,2.2,2.2,0,0,0,3,.53,2.25,2.25,0,0,0,.52-.5l.08-.09a7.57,7.57,0,0,1,.54-.57l0,0,0,0a.7.7,0,0,1,.51-.22.63.63,0,0,1,.3.07l0,0h0a.74.74,0,0,1,.46.71v.29l0,.23c0,.22,0,.43,0,.6a2.17,2.17,0,0,0,2,2.31h.22l.54,0,.51,0h.18a.7.7,0,0,1,.66.46l0,0v0a.72.72,0,0,1-.15.81l0,0,0,0c-.14.14-.31.29-.49.45l-.2.17a2.19,2.19,0,0,0-.45,3,2.51,2.51,0,0,0,.45.47l.21.18c.16.15.33.29.5.46A.8.8,0,0,1,20,16a.7.7,0,0,1-.29.19,4.36,4.36,0,0,1-.72.05h-.82A2.17,2.17,0,0,0,16,18.41c0,.25,0,.51,0,.76s0,.26,0,.41a.84.84,0,0,1-.83.88.88.88,0,0,1-.65-.31l-.28-.32L14,19.47a2.18,2.18,0,0,0-1.7-.8,2.15,2.15,0,0,0-1.33.46,1.71,1.71,0,0,0-.36.35l-.2.22c-.15.17-.3.34-.48.52a.84.84,0,0,1-.58.24.79.79,0,0,1-.56-.23.8.8,0,0,1-.19-.3,4.66,4.66,0,0,1-.05-1v-.07a2.26,2.26,0,0,0-1.78-2.63,2,2,0,0,0-.43,0,2.3,2.3,0,0,0-.45.05,3.17,3.17,0,0,1-.44,0,3.91,3.91,0,0,1-.49,0,.68.68,0,0,1-.58-.55v-.06a.77.77,0,0,1,.25-.78l0,0,0,0L5,14.46l.29-.26a2.17,2.17,0,0,0,.34-3,2.31,2.31,0,0,0-.34-.36l-.26-.23c-.16-.14-.31-.28-.48-.45a.8.8,0,0,1-.18-.91.82.82,0,0,1,.76-.5h0l.44,0c.21,0,.42,0,.64,0h.1a2.18,2.18,0,0,0,2.17-2,1.31,1.31,0,0,0,0-.28c0-.15,0-.3,0-.45a5.82,5.82,0,0,1,0-.73A.69.69,0,0,1,9,4.65l0,0,0,0a.66.66,0,0,1,.3-.07m0-1.25a1.94,1.94,0,0,0-.84.19A2,2,0,0,0,7.26,5.29c0,.41,0,.83,0,1.24a.66.66,0,0,1,0,.14.92.92,0,0,1-.92.86H6.32c-.36,0-.72,0-1.08,0H5.15A2.07,2.07,0,0,0,3.7,11c.25.26.53.49.8.73a.85.85,0,0,1,.16.17.93.93,0,0,1-.16,1.31c-.24.22-.49.43-.72.65a2,2,0,0,0-.65,2,2,2,0,0,0,1.63,1.54,5,5,0,0,0,.67,0,4.87,4.87,0,0,0,.66,0l.23,0,.19,0a1,1,0,0,1,.79,1.17.81.81,0,0,0,0,.22,5.7,5.7,0,0,0,.07,1.37,2,2,0,0,0,2,1.48,2.11,2.11,0,0,0,1.47-.61c.26-.26.5-.54.74-.82a.85.85,0,0,1,.17-.16.88.88,0,0,1,.57-.2,1,1,0,0,1,.75.36l.63.71a2.1,2.1,0,0,0,1.57.72h.12a2.07,2.07,0,0,0,2-2.19c0-.37,0-.74,0-1.1h0a.92.92,0,0,1,.92-.92h0l.35,0H19a5.55,5.55,0,0,0,1-.08,2.09,2.09,0,0,0,.9-.52,2.06,2.06,0,0,0,0-2.91c-.25-.25-.53-.48-.8-.72a1,1,0,0,1-.22-.23,1,1,0,0,1,.22-1.32A8.18,8.18,0,0,0,20.9,11a2,2,0,0,0,.42-2.22,1.94,1.94,0,0,0-1.83-1.28h-.18c-.35,0-.71,0-1.07,0h-.12a.92.92,0,0,1-.86-1c0-.28,0-.57,0-.87V5.4a2,2,0,0,0-1.25-1.92,1.94,1.94,0,0,0-.84-.19,2,2,0,0,0-1.42.61c-.26.24-.49.52-.74.78a.88.88,0,0,1-.25.26.94.94,0,0,1-.53.16,1,1,0,0,1-.79-.42,8.44,8.44,0,0,0-.82-.87,2,2,0,0,0-1.33-.52Z"/></svg>