<svg id="Capa_1" data-name="Capa 1" xmlns="http://www.w3.org/2000/svg" viewBox="0 0 25 25"><defs><style>.cls-1{fill:#2c3432;}</style></defs><path class="cls-1" d="M21.51,17.59h-18A.63.63,0,0,1,2.89,17V5.42a.63.63,0,0,1,.63-.63h18a.63.63,0,0,1,.63.63V17A.63.63,0,0,1,21.51,17.59ZM4.14,16.34H20.89V6H4.14Z"/><path class="cls-1" d="M12.51,20.39a.62.62,0,0,1-.62-.62V17a.63.63,0,0,1,1.25,0v2.81A.63.63,0,0,1,12.51,20.39Z"/><path class="cls-1" d="M16.23,20.39H8.8a.63.63,0,1,1,0-1.25h7.43a.63.63,0,0,1,0,1.25Z"/><path class="cls-1" d="M21.51,14.59h-18a.63.63,0,1,1,0-1.25h18a.63.63,0,1,1,0,1.25Z"/></svg>