<svg id="Capa_1" data-name="Capa 1" xmlns="http://www.w3.org/2000/svg" viewBox="0 0 25 25"><defs><style>.cls-1{fill:#2c3432;}</style></defs><path class="cls-1" d="M19.27,19H5.46a1.79,1.79,0,0,1-1.79-1.79v-9A1.79,1.79,0,0,1,5.46,6.42H19.27a1.79,1.79,0,0,1,1.79,1.79v9A1.79,1.79,0,0,1,19.27,19ZM5.46,7.67a.54.54,0,0,0-.54.54v9a.54.54,0,0,0,.54.54H19.27a.54.54,0,0,0,.54-.54v-9a.54.54,0,0,0-.54-.54Z"/><path class="cls-1" d="M12.37,13.09a1.65,1.65,0,0,1-1-.31L4.59,8a.63.63,0,0,1-.15-.87A.62.62,0,0,1,5.31,7l6.8,4.79a.44.44,0,0,0,.51,0L19.42,7a.62.62,0,0,1,.87.16.63.63,0,0,1-.15.87l-6.8,4.78A1.65,1.65,0,0,1,12.37,13.09Z"/></svg>