<svg id="Capa_1" data-name="Capa 1" xmlns="http://www.w3.org/2000/svg" viewBox="0 0 25 25"><defs><style>.cls-1{fill:#2c3432;}</style></defs><path class="cls-1" d="M11,20.21H5.57A.63.63,0,0,1,5,19.58V5.35a.63.63,0,0,1,.62-.63H11A.63.63,0,1,1,11,6H6.2V19H11a.63.63,0,1,1,0,1.25Z"/><path class="cls-1" d="M20,13.09H11.34a.63.63,0,0,1,0-1.25H20a.63.63,0,1,1,0,1.25Z"/><path class="cls-1" d="M18,16.4a.63.63,0,0,1-.45-1.07l2.83-2.83L17.58,9.67a.63.63,0,0,1,.89-.88l3.27,3.27a.63.63,0,0,1,0,.88l-3.27,3.27A.59.59,0,0,1,18,16.4Z"/></svg>