<svg id="Capa_1" data-name="Capa 1" xmlns="http://www.w3.org/2000/svg" viewBox="0 0 25 25"><defs><style>.cls-1{fill:#2c3432;}</style></defs><path class="cls-1" d="M12.5,18.6c-5.92,0-10.6-5.46-10.8-5.7a.61.61,0,0,1,0-.8c.2-.24,4.88-5.7,10.8-5.7s10.6,5.46,10.8,5.7a.61.61,0,0,1,0,.8C23.1,13.14,18.42,18.6,12.5,18.6ZM3,12.5c1.18,1.23,5,4.85,9.48,4.85S20.8,13.73,22,12.5c-1.18-1.23-5-4.85-9.48-4.85S4.2,11.27,3,12.5Z"/><path class="cls-1" d="M12.5,16.71A5.54,5.54,0,0,1,8.58,7.25a.64.64,0,0,1,.89,0,.63.63,0,0,1,0,.88,4.3,4.3,0,0,0,0,6.07,4.29,4.29,0,0,0,6.07,0,4.29,4.29,0,0,0,0-6.07.63.63,0,0,1,0-.88.64.64,0,0,1,.89,0,5.54,5.54,0,0,1-3.92,9.46Z"/></svg>