<svg id="Capa_1" data-name="Capa 1" xmlns="http://www.w3.org/2000/svg" viewBox="0 0 25 25"><defs><style>.cls-1{fill:#2c3432;}</style></defs><path class="cls-1" d="M18.74,21.6H6.26A.63.63,0,0,1,5.63,21V4a.63.63,0,0,1,.63-.63H15a.6.6,0,0,1,.44.19l3.76,3.75a.65.65,0,0,1,.18.44V21A.63.63,0,0,1,18.74,21.6ZM6.88,20.35H18.12V8L14.73,4.65H6.88Z"/><path class="cls-1" d="M18.74,8.41H15a.63.63,0,0,1-.62-.63V4a.62.62,0,0,1,1.06-.44l3.76,3.75a.62.62,0,0,1,.13.68A.63.63,0,0,1,18.74,8.41ZM15.62,7.16h1.62L15.62,5.54Z"/></svg>