<svg id="Capa_1" data-name="Capa 1" xmlns="http://www.w3.org/2000/svg" viewBox="0 0 25 25"><defs><style>.cls-1{fill:#2c3432;}</style></defs><path class="cls-1" d="M12.52,20.33c-2,0-3.92,0-5.88,0a2.06,2.06,0,0,1-2.1-2.1c0-2.1,0-4.19,0-6.29a2,2,0,0,1,.61-1.51c1.65-1.66,3.29-3.34,5-5a3.3,3.3,0,0,1,4.79,0c1.62,1.61,3.22,3.23,4.84,4.84a2.22,2.22,0,0,1,.69,1.7c0,2,0,4.09,0,6.13a2.08,2.08,0,0,1-2.15,2.17C16.38,20.29,14.45,20.33,12.52,20.33Zm6.65-5.22c0-1,0-2,0-3a1.09,1.09,0,0,0-.32-.81C17.23,9.64,15.63,8,14,6.41a2,2,0,0,0-3,0l-4.79,4.8a1.1,1.1,0,0,0-.36.83c0,2,0,4.06,0,6.1,0,.62.27.88.89.89h2c.45,0,.45,0,.45-.45,0-.86,0-1.72,0-2.58a3.24,3.24,0,0,1,4.37-2.69A3,3,0,0,1,15.73,16c.08.89.07,1.78.07,2.67,0,.27.07.38.35.37H18.3c.6,0,.87-.27.87-.88ZM12.5,19.05c.56,0,1.12,0,1.68,0,.23,0,.33-.06.33-.32,0-.78,0-1.55,0-2.33a2.39,2.39,0,0,0-.12-.7,2,2,0,0,0-3.87.66c0,.79,0,1.58,0,2.37,0,.21,0,.32.29.32C11.36,19,11.93,19.05,12.5,19.05Z"/></svg>