<svg id="Capa_1" data-name="Capa 1" xmlns="http://www.w3.org/2000/svg" viewBox="0 0 25 25"><defs><style>.cls-1{fill:#2c3432;}</style></defs><path class="cls-1" d="M12.5,21.57a.65.65,0,0,1-.5-.24c-.62-.8-6.06-7.95-6.06-11.34a6.56,6.56,0,1,1,13.12,0c0,3.39-5.44,10.54-6.06,11.34A.65.65,0,0,1,12.5,21.57Zm0-16.89A5.31,5.31,0,0,0,7.19,10c0,2.28,3.47,7.44,5.31,9.92,1.84-2.48,5.31-7.64,5.31-9.92A5.31,5.31,0,0,0,12.5,4.68Z"/><path class="cls-1" d="M12.5,13.63A3.52,3.52,0,1,1,16,10.11,3.53,3.53,0,0,1,12.5,13.63Zm0-5.79a2.27,2.27,0,1,0,2.27,2.27A2.27,2.27,0,0,0,12.5,7.84Z"/></svg>