<svg id="Capa_1" data-name="Capa 1" xmlns="http://www.w3.org/2000/svg" viewBox="0 0 25 25"><defs><style>.cls-1{fill:#2c3432;}</style></defs><path class="cls-1" d="M4.7,10.05a.63.63,0,0,1-.63-.62V4.48a.63.63,0,0,1,.63-.63h5a.63.63,0,1,1,0,1.25H5.32V9.43A.62.62,0,0,1,4.7,10.05Z"/><path class="cls-1" d="M20.3,10.05a.62.62,0,0,1-.62-.62V5.1H15.35a.63.63,0,1,1,0-1.25h5a.63.63,0,0,1,.63.63V9.43A.63.63,0,0,1,20.3,10.05Z"/><path class="cls-1" d="M20.3,21.19h-5a.63.63,0,1,1,0-1.25h4.33V15.61a.63.63,0,0,1,1.25,0v5A.63.63,0,0,1,20.3,21.19Z"/><path class="cls-1" d="M9.65,21.19H4.7a.63.63,0,0,1-.63-.62v-5a.63.63,0,0,1,1.25,0v4.33H9.65a.63.63,0,1,1,0,1.25Z"/></svg>