<svg id="Capa_1" data-name="Capa 1" xmlns="http://www.w3.org/2000/svg" viewBox="0 0 25 25"><defs><style>.cls-1{fill:#2c3432;}</style></defs><path class="cls-1" d="M20.56,21.19H4.44a.63.63,0,0,1-.63-.63V4.44a.63.63,0,0,1,.63-.63H20.56a.63.63,0,0,1,.63.63V20.56A.63.63,0,0,1,20.56,21.19ZM5.06,19.94H19.94V5.06H5.06Z"/><path class="cls-1" d="M19.71,21a.63.63,0,0,1-.45-.18l-10-10L4.88,15.09A.63.63,0,0,1,4,14.21l4.8-4.8a.66.66,0,0,1,.89,0L20.15,19.88a.64.64,0,0,1,0,.89A.62.62,0,0,1,19.71,21Z"/><path class="cls-1" d="M15.83,12a2.72,2.72,0,1,1,2.72-2.72A2.72,2.72,0,0,1,15.83,12Zm0-4.19A1.47,1.47,0,1,0,17.3,9.28,1.47,1.47,0,0,0,15.83,7.81Z"/></svg>