<svg id="Capa_1" data-name="Capa 1" xmlns="http://www.w3.org/2000/svg" viewBox="0 0 25 25"><defs><style>.cls-1{fill:#2c3432;}</style></defs><path class="cls-1" d="M12.5,21.9a.69.69,0,0,1-.24,0C5.55,19,4.73,10,4.69,9.59A.64.64,0,0,1,5,9l7.18-5.29a.62.62,0,0,1,.74,1L6,9.83c.22,1.63,1.45,8.61,6.76,10.86a.64.64,0,0,1,.34.82A.65.65,0,0,1,12.5,21.9Z"/><path class="cls-1" d="M12.5,21.9a.65.65,0,0,1-.58-.39.64.64,0,0,1,.34-.82C17.57,18.44,18.8,11.46,19,9.83L12.13,4.75a.62.62,0,1,1,.74-1L20.05,9a.64.64,0,0,1,.26.55c0,.39-.86,9.42-7.57,12.26A.69.69,0,0,1,12.5,21.9Z"/><path class="cls-1" d="M12,16.33a.6.6,0,0,1-.44-.19L8.47,13.05a.62.62,0,1,1,.88-.88L12,14.82l4.28-4.29a.63.63,0,0,1,.88.89l-4.72,4.72A.63.63,0,0,1,12,16.33Z"/></svg>