<svg id="Capa_1" data-name="Capa 1" xmlns="http://www.w3.org/2000/svg" viewBox="0 0 25 25"><defs><style>.cls-1{fill:#2c3432;}</style></defs><path class="cls-1" d="M9.66,9.3A2.44,2.44,0,1,1,12.1,6.86,2.44,2.44,0,0,1,9.66,9.3Zm0-3.63a1.19,1.19,0,1,0,1.19,1.19A1.19,1.19,0,0,0,9.66,5.67Z"/><path class="cls-1" d="M20.52,7.48h-9a.63.63,0,1,1,0-1.25h9a.63.63,0,0,1,0,1.25Z"/><path class="cls-1" d="M7.84,7.48H5.27a.63.63,0,1,1,0-1.25H7.84a.63.63,0,1,1,0,1.25Z"/><path class="cls-1" d="M9.66,20.86a2.45,2.45,0,1,1,2.44-2.45A2.45,2.45,0,0,1,9.66,20.86Zm0-3.64a1.2,1.2,0,1,0,1.19,1.19A1.19,1.19,0,0,0,9.66,17.22Z"/><path class="cls-1" d="M20.52,19h-9a.63.63,0,1,1,0-1.25h9a.63.63,0,0,1,0,1.25Z"/><path class="cls-1" d="M7.84,19H5.27a.63.63,0,1,1,0-1.25H7.84a.63.63,0,1,1,0,1.25Z"/><path class="cls-1" d="M16.12,15.25a2.45,2.45,0,1,1,2.45-2.44A2.44,2.44,0,0,1,16.12,15.25Zm0-3.64a1.2,1.2,0,1,0,1.2,1.2A1.2,1.2,0,0,0,16.12,11.61Z"/><path class="cls-1" d="M14.31,13.43h-9a.63.63,0,1,1,0-1.25h9a.63.63,0,0,1,0,1.25Z"/><path class="cls-1" d="M20.52,13.43H17.94a.63.63,0,0,1,0-1.25h2.58a.63.63,0,0,1,0,1.25Z"/></svg>