<svg id="Capa_1" data-name="Capa 1" xmlns="http://www.w3.org/2000/svg" viewBox="0 0 25 25"><defs><style>.cls-1{fill:#2c3432;}</style></defs><path class="cls-1" d="M14.38,15.8a.63.63,0,0,1-.63-.62V5.58L6.48,10.52a.63.63,0,0,1-.35.11H4.2v3.92H6.13a.63.63,0,0,1,0,1.25H3.57A.62.62,0,0,1,3,15.18V10a.62.62,0,0,1,.62-.62H5.94L14,3.89a.62.62,0,0,1,1,.51V15.18A.62.62,0,0,1,14.38,15.8Z"/><path class="cls-1" d="M14.38,21.4a.62.62,0,0,1-.35-.1L5.78,15.7a.63.63,0,0,1,.7-1l7.27,4.94V15.18a.63.63,0,0,1,.63-.63.63.63,0,0,1,.62.63v5.6a.61.61,0,0,1-.33.55A.59.59,0,0,1,14.38,21.4Z"/><path class="cls-1" d="M17,15.5a.63.63,0,0,1-.45-.19.62.62,0,0,1,0-.88,2.6,2.6,0,0,0,0-3.68.63.63,0,1,1,.89-.88,3.85,3.85,0,0,1,0,5.45A.62.62,0,0,1,17,15.5Z"/><path class="cls-1" d="M19.28,18.4a.63.63,0,0,1-.44-1.07,6.72,6.72,0,0,0,0-9.48A.62.62,0,0,1,19.72,7a8,8,0,0,1,0,11.25A.62.62,0,0,1,19.28,18.4Z"/></svg>