<svg id="Capa_1" data-name="Capa 1" xmlns="http://www.w3.org/2000/svg" viewBox="0 0 25 25"><defs><style>.cls-1{fill:#2c3432;}</style></defs><path class="cls-1" d="M7.77,8.48c.43,0,.86,0,1.29,0a.38.38,0,0,0,.46-.34c.27-.89.56-1.78.86-2.67A2.26,2.26,0,0,1,12.45,4a2.21,2.21,0,0,1,2.1,1.39c.32.84.58,1.7.85,2.56.17.54.16.54.71.55,1,0,1.94,0,2.9.06a2,2,0,0,1,1.83,1.58,2,2,0,0,1-.64,2.27c-.76.64-1.57,1.21-2.38,1.78a.46.46,0,0,0-.2.65c.31.92.64,1.85.87,2.8a2.21,2.21,0,0,1-1.81,2.68,2.27,2.27,0,0,1-1.75-.43c-.73-.53-1.46-1.06-2.18-1.61a.37.37,0,0,0-.52,0c-.72.55-1.44,1.09-2.18,1.61a2.26,2.26,0,0,1-3.6-1.44,3.53,3.53,0,0,1,.28-1.67c.22-.69.44-1.39.68-2.07a.36.36,0,0,0-.16-.47c-.78-.55-1.54-1.11-2.29-1.68a2.13,2.13,0,0,1-.9-2.05A2.13,2.13,0,0,1,5.61,8.63,5.89,5.89,0,0,1,7,8.49C7.26,8.47,7.52,8.48,7.77,8.48Zm.37,1.39H6.45a.89.89,0,0,0-1,.64c-.13.41,0,.71.44,1l2.34,1.71c.86.64.87.69.53,1.7s-.64,2-.93,2.95a.77.77,0,0,0,.47,1,.87.87,0,0,0,1-.15c.86-.63,1.73-1.26,2.58-1.9.53-.39.7-.39,1.24,0,.88.64,1.75,1.29,2.64,1.93a.8.8,0,0,0,1.06,0,.83.83,0,0,0,.31-1.05c-.36-1.11-.71-2.22-1.07-3.33a.68.68,0,0,1,.27-.84l.66-.49c.72-.52,1.45-1,2.16-1.58a.82.82,0,0,0,.31-1.18.88.88,0,0,0-.88-.46H15.3c-.62,0-.77-.13-1-.7-.32-1-.64-2.06-1-3.08a1.16,1.16,0,0,0-.43-.58c-.57-.35-1.13,0-1.36.7-.32,1-.66,2.07-1,3.11-.15.44-.3.54-.75.54Z"/></svg>