<svg id="Capa_1" data-name="Capa 1" xmlns="http://www.w3.org/2000/svg" viewBox="0 0 25 25"><defs><style>.cls-1{fill:#2c3432;}</style></defs><path class="cls-1" d="M17,21.06H8a1.58,1.58,0,0,1-1.58-1.58V7.05A.63.63,0,0,1,7,6.42H17.94a.63.63,0,0,1,.63.63V19.48A1.58,1.58,0,0,1,17,21.06ZM7.63,7.67V19.48a.33.33,0,0,0,.33.33h9a.33.33,0,0,0,.33-.33V7.67Z"/><path class="cls-1" d="M20.09,7.67H4.85a.63.63,0,0,1,0-1.25H20.09a.63.63,0,1,1,0,1.25Z"/><path class="cls-1" d="M15.05,7.67H9.9a.63.63,0,0,1-.63-.62V4.93a1.27,1.27,0,0,1,1.26-1.26h3.89a1.26,1.26,0,0,1,1.25,1.26V7.05A.62.62,0,0,1,15.05,7.67ZM10.53,6.42h3.89V4.93H10.53Z"/><path class="cls-1" d="M10.75,17.76a.63.63,0,0,1-.63-.62v-6.8a.63.63,0,0,1,1.25,0v6.8A.62.62,0,0,1,10.75,17.76Z"/><path class="cls-1" d="M14.2,17.76a.63.63,0,0,1-.63-.62v-6.8a.63.63,0,0,1,1.25,0v6.8A.62.62,0,0,1,14.2,17.76Z"/></svg>