<?xml version="1.0" encoding="UTF-8"?>
<svg width="20px" height="20px" viewBox="0 0 20 20" version="1.1" xmlns="http://www.w3.org/2000/svg" xmlns:xlink="http://www.w3.org/1999/xlink">
    <!-- Generator: Sketch 61.2 (89653) - https://sketch.com -->
    <title>Dark / 20 / Menu About@svg</title>
    <desc>Created with Sketch.</desc>
    <g id="Dark-/-20-/-Menu-About" stroke="none" stroke-width="1" fill="none" fill-rule="evenodd">
        <path d="M10,0 C4.4771525,0 0,4.4771525 0,10 C0,15.5228475 4.4771525,20 10,20 C15.5228475,20 20,15.5228475 20,10 C20,7.3478351 18.9464316,4.80429597 17.0710678,2.92893219 C15.195704,1.0535684 12.6521649,0 10,0 Z M9.5,3 C10.3284271,3 11,3.67157288 11,4.5 C11,5.32842712 10.3284271,6 9.5,6 C8.67157288,6 8,5.32842712 8,4.5 C8,3.67157288 8.67157288,3 9.5,3 Z M12,16 L11,16 C9.8954305,16 9,15.1045695 9,14 L9,10 C8.44771525,10 8,9.55228475 8,9 C8,8.44771525 8.44771525,8 9,8 L10,8 C10.5522847,8 11,8.44771525 11,9 L11,14 L12,14 C12.5522847,14 13,14.4477153 13,15 C13,15.5522847 12.5522847,16 12,16 Z" id="Shape" fill="#a6adb2"></path>
    </g>
</svg>