<?xml version="1.0" encoding="UTF-8"?>
<svg width="20px" height="20px" viewBox="0 0 20 20" version="1.1" xmlns="http://www.w3.org/2000/svg" xmlns:xlink="http://www.w3.org/1999/xlink">
    <!-- Generator: Sketch 61.2 (89653) - https://sketch.com -->
    <title>Dark / 20 / Menu Admin tools@svg</title>
    <desc>Created with Sketch.</desc>
    <g id="Dark-/-20-/-Menu-Admin-tools" stroke="none" stroke-width="1" fill="none" fill-rule="evenodd">
        <path d="M3,0 C3.51283584,0 3.93550716,0.38604019 3.99327227,0.883378875 L4,1 L4,4 L5,4 C5.51283584,4 5.93550716,4.38604019 5.99327227,4.88337887 L6,5 L6,9 C6,9.55228475 5.55228475,10 5,10 L5,10 L4,10 L4,19 C4,19.5522847 3.55228475,20 3,20 C2.48716416,20 2.06449284,19.6139598 2.00672773,19.1166211 L2,19 L2,10 L1,10 C0.487164161,10 0.0644928393,9.61395981 0.00672773133,9.11662113 L0,9 L0,5 C0,4.44771525 0.44771525,4 1,4 L1,4 L2,4 L2,1 C2,0.44771525 2.44771525,0 3,0 Z M17,0 C17.5128358,0 17.9355072,0.38604019 17.9932723,0.883378875 L18,1 L18,4 L19,4 C19.5128358,4 19.9355072,4.38604019 19.9932723,4.88337887 L20,5 L20,9 C20,9.51283584 19.6139598,9.93550716 19.1166211,9.99327227 L19,10 L18,10 L18,19 C18,19.5522847 17.5522847,20 17,20 C16.4871642,20 16.0644928,19.6139598 16.0067277,19.1166211 L16,19 L16,10 L15,10 C14.4871642,10 14.0644928,9.61395981 14.0067277,9.11662113 L14,9 L14,5 C14,4.48716416 14.3860402,4.06449284 14.8833789,4.00672773 L15,4 L16,4 L16,1 C16,0.44771525 16.4477153,0 17,0 Z M10,0 C10.5522847,0 11,0.44771525 11,1 L11,1 L11,10 L12,10 L12.1166211,10.0067277 C12.6139598,10.0644928 13,10.4871642 13,11 L13,11 L13,15 L12.9932723,15.1166211 C12.9355072,15.6139598 12.5128358,16 12,16 L12,16 L11,16 L11,19 L10.9932723,19.1166211 C10.9355072,19.6139598 10.5128358,20 10,20 C9.44771525,20 9,19.5522847 9,19 L9,19 L9,16 L8,16 L7.88337887,15.9932723 C7.38604019,15.9355072 7,15.5128358 7,15 L7,15 L7,11 L7.00672773,10.8833789 C7.06449284,10.3860402 7.48716416,10 8,10 L8,10 L9,10 L9,1 L9.00672773,0.883378875 C9.06449284,0.38604019 9.48716416,0 10,0 Z M11,12 L9,12 L9,14 L11,14 L11,12 Z M4,6 L2,6 L2,8 L4,8 L4,6 Z M18,6 L16,6 L16,8 L18,8 L18,6 Z" id="Rectangle" fill="#a6adb2"></path>
    </g>
</svg>