<?xml version="1.0" encoding="UTF-8"?>
<svg width="20px" height="20px" viewBox="0 0 20 20" version="1.1" xmlns="http://www.w3.org/2000/svg" xmlns:xlink="http://www.w3.org/1999/xlink">
    <!-- Generator: Sketch 61.2 (89653) - https://sketch.com -->
    <title>Dark / 20 / Menu Discovery@svg</title>
    <desc>Created with Sketch.</desc>
    <g id="Dark-/-20-/-Menu-Discovery" stroke="none" stroke-width="1" fill="none" fill-rule="evenodd">
        <path d="M9.30770357,0.225018592 C9.69842914,-0.0942631758 10.2658079,-0.0724337438 10.6308466,0.275925429 L10.6308466,0.275925429 L10.9170648,0.555063766 C14.9723549,4.59706985 17,10.402328 17,17.9708382 C17,16.8975966 15.7280579,14.3449391 13.8078957,12.9702184 C10.3899384,10.5021197 3,19.9957218 3,19.9957218 C3,10.2514836 5.10256786,3.66124918 9.30770357,0.225018592 Z M9.5,3.81979499 C8.67157288,3.81979499 8,4.5113021 8,5.36431935 C8,6.2173366 8.67157288,6.90884371 9.5,6.90884371 C10.3284271,6.90884371 11,6.2173366 11,5.36431935 C11,4.5113021 10.3284271,3.81979499 9.5,3.81979499 Z" id="Path-66" fill="#a6adb2"></path>
    </g>
</svg>