<?xml version="1.0" encoding="UTF-8"?>
<svg width="18px" height="12px" viewBox="0 0 18 12" version="1.1" xmlns="http://www.w3.org/2000/svg" xmlns:xlink="http://www.w3.org/1999/xlink">
    <!-- Generator: Sketch 61.2 (89653) - https://sketch.com -->
    <title>Menu Display@svg</title>
    <desc>Created with Sketch.</desc>
    <g id="Symbols" stroke="none" stroke-width="1" fill="none" fill-rule="evenodd">
        <g id="Icons/Elements/Menu-Switch-Display" transform="translate(-18.000000, -10.000000)" fill="#FFFFFF">
            <g id="Swtich">
                <g id="Menu-Display" transform="translate(18.000000, 7.000000)">
                    <path d="M6.7476933,9.00004127 C6.7476933,10.241506 7.75640635,11.2500568 8.9981629,11.2500568 C10.2398782,11.2500568 11.2486325,10.241506 11.2486325,9.00004127 L11.2486325,8.98134377 C11.0084057,9.22507172 10.6787183,9.37506449 10.3108852,9.37506449 C9.58681966,9.37506449 8.9981629,8.78632014 8.9981629,8.06256578 C8.9981629,7.54142962 9.30543355,7.08753018 9.74456266,6.87748251 C9.51209712,6.79505665 9.26080644,6.75006707 8.9981629,6.75006707 C7.75640635,6.75006707 6.7476933,7.75870039 6.7476933,9.00004127 Z M17.4974599,7.72118156 C16.1019236,5.94760159 12.7039469,3 9.00179582,3 C5.29613567,3 1.89440223,5.94764286 0.498824576,7.72118156 C0.183833968,8.12625286 0.0113115893,8.56500444 0,9.00004127 C0.0113528725,9.43511939 0.183833968,9.87387096 0.498824576,10.2788597 C1.89444351,12.0528112 5.29242018,15 8.9981629,15 C12.7039056,15 16.1019236,12.0528112 17.4974599,10.2788597 C17.8160835,9.87382969 17.9886471,9.43511939 18,9.00004127 C17.9886471,8.56500444 17.8160835,8.12625286 17.4974599,7.72118156 Z M8.9981629,12.7499845 C6.92793563,12.7499845 5.24738024,11.0699746 5.24738024,9.00004127 C5.24738024,6.93006666 6.92793563,5.25001548 8.9981629,5.25001548 C11.0683489,5.25001548 12.7489043,6.93006666 12.7489043,9.00004127 C12.7489043,11.0699333 11.0683076,12.7499845 8.9981629,12.7499845 Z" id="Shape"></path>
                </g>
            </g>
        </g>
    </g>
</svg>