<?xml version="1.0" encoding="UTF-8"?>
<svg width="20px" height="20px" viewBox="0 0 20 20" version="1.1" xmlns="http://www.w3.org/2000/svg" xmlns:xlink="http://www.w3.org/1999/xlink">
    <!-- Generator: Sketch 61.2 (89653) - https://sketch.com -->
    <title>Dark / 20 / Menu Events v2@svg</title>
    <desc>Created with Sketch.</desc>
    <g id="Dark-/-20-/-Menu-Events-v2" stroke="none" stroke-width="1" fill="none" fill-rule="evenodd">
        <path d="M9.75036333,0 C10.4372305,0 10.9403498,0.5859375 10.7653518,1.1796875 L10.7653518,1.1796875 L8.90162298,6.25 L13.9503156,6.25 C14.7596814,6.25 15.2628007,7.03515625 14.8559303,7.65625 L14.8559303,7.65625 L7.15601782,19.53125 C6.96352,19.828125 6.61352398,20 6.24602816,20 C5.57666077,20 5.06916653,19.4414062 5.22666474,18.8476562 L5.22666474,18.8476562 L7.24351682,11.25 L2.05045084,11.25 C1.41608305,11.25 0.926088618,10.75 1.00921267,10.1875 L1.00921267,10.1875 L2.40919676,0.8125 C2.47919597,0.34765625 2.9254409,0 3.45043493,0 L3.45043493,0 Z M15,12 C15.5522847,12 16,12.4477153 16,13 L16,14.999 L18,15 C18.5522847,15 19,15.4477153 19,16 C19,16.3695202 18.7995749,16.6922286 18.5015036,16.8653463 C18.3540776,16.9509702 18.1827646,17 18,17 L16,17 L16,19 C16,19.5522847 15.5522847,20 15,20 C14.4477153,20 14,19.5522847 14,19 L14,17 L12,17 C11.4477153,17 11,16.5522847 11,16 C11,15.4477153 11.4477153,15 12,15 L14,15 L14,13 C14,12.4477153 14.4477153,12 15,12 Z" id="Path-2" fill="#a6adb2"></path>
    </g>
</svg>