<?xml version="1.0" encoding="UTF-8"?>
<svg width="20px" height="20px" viewBox="0 0 20 20" version="1.1" xmlns="http://www.w3.org/2000/svg" xmlns:xlink="http://www.w3.org/1999/xlink">
    <!-- Generator: Sketch 61.2 (89653) - https://sketch.com -->
    <title>Dark / 20 / Menu Library@svg</title>
    <desc>Created with Sketch.</desc>
    <g id="Dark-/-20-/-Menu-Library" stroke="none" stroke-width="1" fill="none" fill-rule="evenodd">
        <path d="M9.00044474,15.1079223 L9.00094657,17 C9.00094657,18.6568542 7.65780082,20 6.00094657,20 L4.00094657,20 C2.34409232,20 1.00094657,18.6568542 1.00094657,17 L1.0000471,15.1114527 C3.62979046,16.2909414 6.32013619,16.2887293 9.00044474,15.1079223 Z M18.9994982,15.1079223 L19,17 C19,18.6568542 17.6568542,20 16,20 L14,20 C12.3431458,20 11,18.6568542 11,17 L10.9991005,15.1114527 C13.6288439,16.2909414 16.3191896,16.2887293 18.9994982,15.1079223 Z M3.00094657,0 L3.00094657,4 C3.00094657,5.1045695 3.89637707,6 5.00094657,6 C6.10551607,6 7.00094657,5.1045695 7.00094657,4 L7.00094657,4 L7.00094657,0 L8.00094657,0 C8.55323132,-1.01453063e-16 9.00094657,0.44771525 9.00094657,1 L9,12.892 L8.5617377,13.1068159 L8.27168419,13.2431285 C5.95429283,14.2881965 3.70858965,14.2429228 1.44877225,13.11108 L1.44877225,13.11108 L1,12.886 L1.00094657,1 C1.00094657,0.44771525 1.44866182,1.01453063e-16 2.00094657,0 L3.00094657,0 Z M13,0 L13,4 C13,5.1045695 13.8954305,6 15,6 C16.0543618,6 16.9181651,5.18412221 16.9945143,4.14926234 L17,4 L17,0 L18,0 C18.5522847,-1.01453063e-16 19,0.44771525 19,1 L18.9990534,12.892 L18.5607911,13.1068159 L18.2707376,13.2431285 C16.0499042,14.244652 13.8949095,14.2448026 11.7302356,13.2469008 L11.4478257,13.11108 L10.9990534,12.886 L11,1 C11,0.44771525 11.4477153,1.01453063e-16 12,0 L13,0 Z" id="Rectangle-2" fill="#a6adb2"></path>
    </g>
</svg>