<?xml version="1.0" encoding="UTF-8"?>
<svg width="20px" height="20px" viewBox="0 0 20 20" version="1.1" xmlns="http://www.w3.org/2000/svg" xmlns:xlink="http://www.w3.org/1999/xlink">
    <!-- Generator: Sketch 61.2 (89653) - https://sketch.com -->
    <title>Dark / 20 / Menu Links@svg</title>
    <desc>Created with Sketch.</desc>
    <g id="Dark-/-20-/-Menu-Links" stroke="none" stroke-width="1" fill="none" fill-rule="evenodd">
        <path d="M18.998,0 L19.081,0.003 L19.148057,0.0110310502 L19.148057,0.0110310502 C19.1653293,0.013682347 19.1830389,0.0168137373 19.2006699,0.0204236777 L19.2620313,0.0349310675 L19.2620313,0.0349310675 L19.3124248,0.0501234227 L19.3124248,0.0501234227 C19.3360729,0.0578720915 19.3587925,0.0663124627 19.3811059,0.0755362601 L19.4135802,0.0896125647 L19.4135802,0.0896125647 C19.4406149,0.101969921 19.4667668,0.115329926 19.4922234,0.129773362 C19.5012123,0.134777557 19.5101822,0.140048606 19.5190858,0.145471257 C19.5437781,0.160614988 19.567842,0.176750587 19.5911377,0.193870406 C19.5997291,0.200098765 19.6082351,0.206566436 19.6166593,0.213188372 L19.7067956,0.293204403 C19.743354,0.32976282 19.7764937,0.368445367 19.8062146,0.408854771 C19.8232494,0.432158019 19.839385,0.456221907 19.8544751,0.480992683 C19.8599514,0.489817777 19.8652224,0.498787704 19.8703419,0.507820268 C19.8846701,0.533233212 19.8980301,0.559385084 19.910244,0.586169576 C19.9153553,0.597344249 19.9201166,0.608339641 19.9246713,0.619400081 C19.9336875,0.641207513 19.9421279,0.66392706 19.9497506,0.687018497 C19.9554235,0.70444632 19.9605101,0.72143573 19.9651362,0.738523779 C19.9705353,0.75808974 19.9753898,0.778462675 19.9796114,0.799066303 C19.9831863,0.816961131 19.9863177,0.834670654 19.9889705,0.852437844 C19.9905725,0.862679687 19.9920055,0.873472118 19.9932651,0.884317419 L19.9960294,0.911717558 C19.998103,0.934997444 19.9993644,0.958336055 19.9998137,0.981687387 L20,1.00106245 L20,6.99893755 C20,7.55180908 19.5518091,8 18.9989376,8 C18.4855569,8 18.0624365,7.61354966 18.00461,7.11568258 L17.9978751,6.99893755 L17.998,3.418 L13.9327909,7.48395841 C13.9766326,7.64858572 14,7.82156399 14,8 L14,18 C14,19.1045695 13.1045695,20 12,20 L2,20 C0.8954305,20 1.3527075e-16,19.1045695 0,18 L0,8 C-1.3527075e-16,6.8954305 0.8954305,6 2,6 L12,6 C12.2071533,6 12.4069507,6.03149411 12.5948653,6.0899554 L6.27230256,12.4129044 L6.19496219,12.5004888 C5.91138082,12.8652016 5.93716095,13.3925558 6.27230256,13.7276974 C6.63537264,14.0907675 7.22402555,14.0907675 7.58709563,13.7276974 L7.58709563,13.7276974 L13.906,7.408 L13.882176,7.32940838 C13.6666944,6.71274121 13.1577095,6.23382609 12.5226464,6.06008827 L16.583,2.003 L13.0010624,2.0021249 C12.4876817,2.0021249 12.0645614,1.61567456 12.0067349,1.11780748 L12,1.00106245 C12,0.487681747 12.3864503,0.0645613596 12.8843174,0.00673487919 L13.0010624,0 L18.998,0 Z" id="Rectangle-2" fill="#a6adb2"></path>
    </g>
</svg>