<?xml version="1.0" encoding="UTF-8"?>
<svg width="16px" height="16px" viewBox="0 0 16 16" version="1.1" xmlns="http://www.w3.org/2000/svg" xmlns:xlink="http://www.w3.org/1999/xlink">
    <!-- Generator: Sketch 61.2 (89653) - https://sketch.com -->
    <title>Menu Management@svg</title>
    <desc>Created with Sketch.</desc>
    <g id="Symbols" stroke="none" stroke-width="1" fill="none" fill-rule="evenodd">
        <g id="Icons/Elements/Menu-Switch-Management" transform="translate(-45.000000, -8.000000)" fill="#FFFFFF">
            <g id="Swtich">
                <g id="Menu-Management" transform="translate(44.000000, 7.000000)">
                    <path d="M16.0362619,7.35251237 L15.402278,7.35251237 C14.8850806,7.35251237 14.4513022,6.90679511 14.4513022,6.37776621 C14.4513022,6.11116897 14.5639178,5.86956522 14.7641232,5.6904452 L15.1728759,5.29054934 C15.5774577,4.89065348 15.5774577,4.23665712 15.1728759,3.83676126 L14.2427549,2.91616766 C14.0592333,2.73288206 13.7881217,2.62457693 13.5128393,2.62457693 C13.2375568,2.62457693 12.9706162,2.73288206 12.7829236,2.91616766 L12.3908547,3.30773236 C12.2031621,3.51601146 11.9529053,3.62848217 11.6817938,3.62848217 C11.1479126,3.62848217 10.7016214,3.19526165 10.7016214,2.68289508 L10.7016214,2.04556105 C10.7016214,1.4832075 10.2469882,1 9.67973951,1 L8.41177179,1 C7.84452308,1 7.39406087,1.47904192 7.39406087,2.04556105 L7.39406087,2.6787295 C7.39406087,3.19109607 6.9477696,3.62431658 6.41388846,3.62431658 C6.14694789,3.62431658 5.90086205,3.51184587 5.72151135,3.31606353 L5.31692955,2.91616766 C5.13340791,2.72871648 4.86229639,2.62457693 4.58701392,2.62457693 C4.31173146,2.62457693 4.04479089,2.73288206 3.8570983,2.91616766 L2.91863535,3.83259568 C2.5182245,4.23249154 2.5182245,4.88648789 2.91863535,5.28221817 L3.31070432,5.67378287 C3.51925164,5.86123405 3.63603814,6.11116897 3.63603814,6.37776621 C3.63603814,6.91096069 3.20225971,7.35251237 2.68506236,7.35251237 L2.0510785,7.35251237 C1.47965884,7.35251237 1,7.79822963 1,8.36474876 L1,8.99791721 L1,9.63108565 C1,10.1934392 1.47965884,10.6433221 2.0510785,10.6433221 L2.68506236,10.6433221 C3.20225971,10.6433221 3.63603814,11.0890393 3.63603814,11.6180682 C3.63603814,11.8846655 3.51925164,12.1346004 3.31070432,12.3220515 L2.91863535,12.7094507 C2.5182245,13.1093465 2.5182245,13.7633429 2.91863535,14.1590732 L3.84875641,15.0838323 C4.03227805,15.2712835 4.30338957,15.3754231 4.57867203,15.3754231 C4.8539545,15.3754231 5.12089507,15.2671179 5.30858766,15.0838323 L5.71316946,14.6839365 C5.88834921,14.4881541 6.13860599,14.3756834 6.40554656,14.3756834 C6.93942771,14.3756834 7.38571897,14.8089039 7.38571897,15.3212705 L7.38571897,15.9544389 C7.38571897,16.5167925 7.83618119,17 8.40760085,17 L9.67556856,17 C10.2428173,17 10.6932795,16.5209581 10.6932795,15.9544389 L10.6932795,15.3212705 C10.6932795,14.8089039 11.1395708,14.3756834 11.6734519,14.3756834 C11.9403925,14.3756834 12.1906493,14.4923197 12.3825128,14.6964332 L12.7745818,15.0879979 C12.9622743,15.2712835 13.2292149,15.3795886 13.5044974,15.3795886 C13.7797798,15.3795886 14.0467204,15.2712835 14.234413,15.0879979 L15.1645341,14.1632387 C15.5649449,13.7633429 15.5649449,13.1093465 15.1645341,12.7094507 L14.7557813,12.3095548 C14.5555759,12.1304348 14.4429603,11.8846655 14.4429603,11.6222338 C14.4429603,11.0890393 14.8767388,10.6474876 15.3939361,10.6474876 L16.02792,10.6474876 C16.5951687,10.6474876 16.9998771,10.2017704 16.9998771,9.63525124 L16.9998771,8.99791721 L16.9998771,8.36474876 C17.0080924,7.79822963 16.6035106,7.35251237 16.0362619,7.35251237 Z M12.3783418,8.99791721 L12.3783418,8.99791721 C12.3783418,10.8349388 10.889314,12.3303827 9.0415847,12.3303827 C7.19385544,12.3303827 5.70482757,10.8349388 5.70482757,8.99791721 L5.70482757,8.99791721 L5.70482757,8.99791721 C5.70482757,7.1608956 7.19385544,5.66545171 9.0415847,5.66545171 C10.889314,5.66545171 12.3783418,7.1608956 12.3783418,8.99791721 L12.3783418,8.99791721 Z" id="Path-2"></path>
                </g>
            </g>
        </g>
    </g>
</svg>