<?xml version="1.0" encoding="UTF-8"?>
<svg width="20px" height="20px" viewBox="0 0 20 20" version="1.1" xmlns="http://www.w3.org/2000/svg" xmlns:xlink="http://www.w3.org/1999/xlink">
    <!-- Generator: Sketch 61.2 (89653) - https://sketch.com -->
    <title>Dark / 20 / Menu Monitoring@svg</title>
    <desc>Created with Sketch.</desc>
    <g id="Dark-/-20-/-Menu-Monitoring" stroke="none" stroke-width="1" fill="none" fill-rule="evenodd">
        <path d="M10,0 C15.4050388,0 20,1.5951272 20,5.39448104 L20,14.605519 C20,18.4048728 15.4050388,20 10,20 L10,20 C4.59496118,20 0,18.4048728 0,14.605519 L0,10.4455091 L6.01607895,10.4455091 L6.14020616,10.4386302 C6.42646408,10.4067558 6.6857792,10.2657073 6.84806946,10.0488934 L6.84806946,10.0488934 L7.817,8.75378407 L10.0781946,13.4596783 L10.1340963,13.5594392 C10.5221134,14.1593176 11.5332638,14.151769 11.8933778,13.5049881 L11.8933778,13.5049881 L13.621,10.4009666 L15.0031471,10.4009666 L15.1197683,10.3949732 C15.6171069,10.3435131 16.0031471,9.96697615 16.0031471,9.5101161 C16.0031471,9.01811298 15.5554319,8.61926565 15.0031471,8.61926565 L15.0031471,8.61926565 L13.0013847,8.61926565 L12.876158,8.62625888 C12.5465255,8.66326206 12.2555929,8.8447496 12.1055312,9.11426718 L12.1055312,9.11426718 L11.064,10.9835828 L8.92926694,6.54039711 L8.87104157,6.43726089 C8.50754221,5.88285535 7.59412968,5.84069622 7.17794678,6.39670147 L7.17794678,6.39670147 L5.481,8.66380817 L0,8.66380817 L0,5.39448104 C0,1.5951272 4.59496118,0 10,0 L10,0 Z" id="Mask" fill="#a6adb2"></path>
    </g>
</svg>