<?xml version="1.0" encoding="UTF-8"?>
<svg width="20px" height="20px" viewBox="0 0 20 20" version="1.1" xmlns="http://www.w3.org/2000/svg" xmlns:xlink="http://www.w3.org/1999/xlink">
    <!-- Generator: Sketch 61.2 (89653) - https://sketch.com -->
    <title>Dark / 20 / Menu Topology@svg</title>
    <desc>Created with Sketch.</desc>
    <g id="Dark-/-20-/-Menu-Topology" stroke="none" stroke-width="1" fill="none" fill-rule="evenodd">
        <path d="M17,0 C18.6568542,0 20,1.34314575 20,3 C20,4.30588222 19.1656226,5.41688515 18.0009007,5.82897577 L18,7.2654092 C18,8.69864228 16.988277,9.92249803 15.5997469,10.2049122 L15.4242641,10.2352577 L11,10.866 L11.0007613,12.1262135 C12.6636419,12.5545605 13.9078601,14.0253795 13.9951047,15.8003597 L14,16 C14,18.209139 12.209139,20 10,20 C7.790861,20 6,18.209139 6,16 C6,14.1360729 7.27489272,12.5699129 9.00024347,12.1259548 L9,10.867 L4.57573593,10.2352577 C3.15690756,10.0325679 2.08843143,8.8579339 2.00522346,7.44341987 L2,7.2654092 L2.00008893,5.82932572 C0.834850101,5.41751442 0,4.30625206 0,3 C0,1.34314575 1.34314575,0 3,0 C4.65685425,0 6,1.34314575 6,3 C6,4.30588222 5.16562257,5.41688515 4.00090072,5.82897577 L4,7.2654092 C4,7.72477878 4.31179826,8.11962131 4.7472488,8.23300267 L4.85857864,8.25535869 L9.999,8.99 L15.1414214,8.25535869 C15.596174,8.19039402 15.9429533,7.82589032 15.9936131,7.37878174 L16,7.2654092 L16.0000889,5.82932572 C14.8348501,5.41751442 14,4.30625206 14,3 C14,1.34314575 15.3431458,0 17,0 Z" id="Oval-2" fill="#a6adb2"></path>
    </g>
</svg>