<?xml version="1.0" encoding="UTF-8"?>
<svg width="20px" height="20px" viewBox="0 0 20 20" version="1.1" xmlns="http://www.w3.org/2000/svg" xmlns:xlink="http://www.w3.org/1999/xlink">
    <!-- Generator: Sketch 61.2 (89653) - https://sketch.com -->
    <title>Dark / 20 / Menu Resources@svg</title>
    <desc>Created with Sketch.</desc>
    <g id="Dark-/-20-/-Menu-Resources" stroke="none" stroke-width="1" fill="none" fill-rule="evenodd">
        <path d="M15,0 C15.2210137,0 15.434484,0.0731644725 15.6080295,0.206080627 L15.7071068,0.292893219 L19.7071068,4.29289322 C19.8633871,4.44917353 19.9625983,4.65185492 19.9913276,4.86855602 L20,5 L20,15 C20,15.2210137 19.9268355,15.434484 19.7939194,15.6080295 L19.7071068,15.7071068 L15.7071068,19.7071068 C15.5508265,19.8633871 15.3481451,19.9625983 15.131444,19.9913276 L15,20 L6.9967103,20 C6.77638725,20 6.56353576,19.9272908 6.39025802,19.7951247 L6.29129705,19.7087963 L2.29458675,15.7311618 C1.90312938,15.3415729 1.90161476,14.7084097 2.29120374,14.3169523 C2.65082434,13.9556071 3.21798744,13.9265207 3.61100719,14.2306063 L3.70541325,14.3135693 L7.409,17.999 L14.585,17.999 L17.999,14.585 L17.999,5.414 L14.584,1.999 L7.411,1.999 L3.70739761,5.70681583 C3.34706198,6.06744806 2.77984238,6.09541094 2.38742572,5.79054746 L2.29318417,5.70739761 C1.93255194,5.34706198 1.90458906,4.77984238 2.20945254,4.38742572 L2.29260239,4.29318417 L6.28931269,0.293184169 C6.44561267,0.13675554 6.64838391,0.0374411753 6.86519692,0.00868162677 L6.9967103,0 L15,0 Z M9,7 C9.55228475,7 10,7.44771525 10,8 L10,12 C10,12.5522847 9.55228475,13 9,13 L1,13 C0.44771525,13 6.76353751e-17,12.5522847 0,12 L0,8 C-6.76353751e-17,7.44771525 0.44771525,7 1,7 L9,7 Z" id="Rectangle-2" fill="#a6adb2"></path>
    </g>
</svg>