<?xml version="1.0" encoding="UTF-8"?>
<svg width="16px" height="16px" viewBox="0 0 16 16" version="1.1" xmlns="http://www.w3.org/2000/svg" xmlns:xlink="http://www.w3.org/1999/xlink">
    <title>Hardening@svg</title>
    <g id="Hardening" stroke="none" stroke-width="1" fill="none" fill-rule="evenodd">
        <path d="M11.0387503,1.15463195e-14 C11.6463177,1.01024435e-14 12.2209436,0.276179438 12.6004879,0.750609905 L15.5617376,4.45217202 C15.8454385,4.80679812 16,5.24741913 16,5.70156212 L16,6.23960136 C16,6.72942968 15.8202429,7.20222678 15.4948186,7.56832903 L8.74740932,15.1591645 C8.72137833,15.1884494 8.6936487,15.216179 8.66436384,15.24221 C8.25158107,15.609128 7.6195087,15.5719473 7.25259068,15.1591645 L0.505181363,7.56832903 C0.179757138,7.20222678 -8.28191751e-16,6.72942968 0,6.23960136 L0,5.70156212 C8.32561944e-16,5.24741913 0.154561504,4.80679812 0.438262381,4.45217202 L3.39951208,0.750609905 C3.77905645,0.276179438 4.35368225,1.0991794e-14 4.96124969,1.15463195e-14 Z M8.00018082,3 C7.09496946,3 6.30261511,3.60799488 6.06832917,4.48236191 C5.83404323,5.35672894 6.21624479,6.27944513 7.00018082,6.73205081 L7.00018082,9.00205081 C7.00018082,9.55433556 7.44789607,10.0020508 8.00018082,10.0020508 C8.55246557,10.0020508 9.00018082,9.55433556 9.00018082,9.00205081 L9.00018082,6.73205081 C9.78411685,6.27944513 10.1663184,5.35672894 9.93203247,4.48236191 C9.69774653,3.60799488 8.90539218,3 8.00018082,3 Z" id="Path-32" fill="#A7ADAF"></path>
    </g>
</svg>