<?xml version="1.0" encoding="UTF-8"?>
<svg width="20px" height="20px" viewBox="0 0 20 20" version="1.1" xmlns="http://www.w3.org/2000/svg" xmlns:xlink="http://www.w3.org/1999/xlink">
    <!-- Generator: Sketch 61.2 (89653) - https://sketch.com -->
    <title>Dark / 20 / Menu Settings@svg</title>
    <desc>Created with Sketch.</desc>
    <g id="Dark-/-20-/-Menu-Settings" stroke="none" stroke-width="1" fill="none" fill-rule="evenodd">
        <path d="M10.0008176,6.52173913 C8.0282065,6.52173913 6.42908921,8.07900957 6.42908921,10 C6.42908921,11.9209904 8.0282065,13.4782609 10.0008176,13.4782609 C11.9734288,13.4782609 13.5725461,11.9209904 13.5725461,10 C13.566662,8.08138806 11.9709864,6.52746922 10.0008176,6.52173913 Z M17.7121793,10 C17.7103217,10.3250067 17.6858589,10.6495177 17.6389589,10.9713043 L19.8128021,12.6286957 C20.0083535,12.7859383 20.0580698,13.0580211 19.9302227,13.2713043 L17.8738,16.7286957 C17.7447533,16.9399764 17.4784605,17.0303914 17.242497,16.9430435 L14.6864789,15.9430435 C14.154238,16.3421687 13.571791,16.6734037 12.9532977,16.9286957 L12.5711227,19.5713043 C12.527011,19.8154166 12.3117127,19.9950247 12.0572403,20 L7.944395,20 C7.69491952,19.9952713 7.48182541,19.8234517 7.43051257,19.5856522 L7.04833763,16.9430435 C6.42813863,16.6907101 5.84527209,16.3589442 5.3151564,15.9565217 L2.75913824,16.9565217 C2.52328254,17.0439471 2.25702178,16.9537263 2.12783524,16.7426087 L0.0714125971,13.2856522 C-0.056434466,13.0723689 -0.0067181773,12.8002861 0.188833169,12.6430435 L2.36267639,10.9856522 C2.3163098,10.6589991 2.29185117,10.3297508 2.28945595,10 C2.29131355,9.67499326 2.31577636,9.35048232 2.36267639,9.02869565 L0.188833169,7.37130435 C-0.0067181773,7.21406171 -0.056434466,6.9419789 0.0714125971,6.72869565 L2.12783524,3.27130435 C2.25688202,3.06002361 2.52317482,2.96960858 2.75913824,3.05695652 L5.3151564,4.05695652 C5.84739726,3.65783129 6.4298443,3.32659634 7.04833763,3.07130435 L7.43051257,0.428695652 C7.47462425,0.184583354 7.68992256,0.00497525014 7.944395,0 L12.0572403,0 C12.3067158,0.00472869506 12.5198099,0.176548306 12.5711227,0.414347826 L12.9532977,3.05695652 C13.5742761,3.30911759 14.1579033,3.64088921 14.6887112,4.04347826 L17.242497,3.04347826 C17.4783527,2.95605288 17.7446135,3.04627366 17.8738,3.2573913 L19.9302227,6.71478261 C20.0580698,6.92806586 20.0083535,7.20014867 19.8128021,7.3573913 L17.6389589,9.01478261 C17.6853061,9.34129187 17.7097647,9.67039436 17.7121793,10 Z" id="Shape" fill="#a6adb2"></path>
    </g>
</svg>