<?xml version="1.0" encoding="UTF-8"?>
<svg width="20px" height="20px" viewBox="0 0 20 20" version="1.1" xmlns="http://www.w3.org/2000/svg" xmlns:xlink="http://www.w3.org/1999/xlink">
    <!-- Generator: Sketch 61.2 (89653) - https://sketch.com -->
    <title>Dark / 20 / Menu Tools@svg</title>
    <desc>Created with Sketch.</desc>
    <g id="Dark-/-20-/-Menu-Tools" stroke="none" stroke-width="1" fill="none" fill-rule="evenodd">
        <path d="M14.6828167,10.4413077 L19.0439132,14.7926527 C19.6873537,15.3633209 19.9733273,16.1479897 19.9733273,16.9326584 C19.9733273,17.7173272 19.6158603,18.501996 19.0439132,19.0726642 C18.4719662,19.7146659 17.6855389,20 16.8991117,20 C16.1126844,20 15.3262572,19.6433324 14.7543101,19.0726642 L14.7543101,19.0726642 L10.3932136,14.7213192 L14.6828167,10.4413077 Z M12.2520416,1.31061654 C13.5389226,0.0266131014 15.469244,-0.330054522 17.1135918,0.3119472 C17.328072,0.383280725 17.4710588,0.597281299 17.5425522,0.811281872 C17.5425522,1.02528245 17.4710588,1.31061654 17.328072,1.45328359 L17.328072,1.45328359 L15.7552175,3.02262114 L15.9696977,3.94995696 L16.8991117,4.16395753 L18.5434596,2.59461999 C18.6864463,2.38061941 18.9724199,2.30928589 19.1869,2.38061941 C19.4013802,2.45195294 19.6158603,2.59461999 19.6873537,2.80862056 C20.3307942,4.52062515 19.9733273,6.37529679 18.6864463,7.65930024 C17.4710588,8.80063663 15.8267109,9.22863778 14.2538564,8.80063663 L14.2538564,8.80063663 L12.6095086,10.4413077 L12.6095086,10.4413077 L10.3932136,12.652647 L10.3932136,12.652647 L8.96334591,13.9366504 C9.39230622,15.5059879 8.96334591,17.2179925 7.81945175,18.3593289 C6.96153112,19.2866648 5.74614357,19.7146659 4.60224941,19.7146659 C4.03030232,19.7146659 3.52984862,19.6433324 2.95790154,19.4293318 C2.74342139,19.3579983 2.60043462,19.1439977 2.52894123,18.9299971 C2.52894123,18.7159966 2.60043462,18.4306625 2.74342139,18.2879954 L2.74342139,18.2879954 L4.31627586,16.7186579 L4.10179571,15.791322 L3.1723817,15.5773215 L1.45654045,17.003992 C1.31355368,17.2179925 1.02758014,17.2893261 0.813099981,17.2179925 C0.598619825,17.146659 0.384139669,17.003992 0.312646284,16.7899914 C-0.330794185,15.0779868 0.0266727422,13.2233152 1.31355368,11.9393117 C2.52894123,10.7979753 4.17328909,10.3699742 5.74614357,10.7979753 L5.74614357,10.7979753 L6.6040642,9.94197303 L4.74523618,8.08730139 L2.09998092,6.51796384 C2.02848753,6.51796384 1.95699415,6.37529679 1.88550076,6.30396327 L1.88550076,6.30396327 L0.241152898,3.52195581 C0.0981661276,3.23662171 0.0981661276,2.87995409 0.384139669,2.66595351 L0.384139669,2.66595351 L2.52894123,0.454614249 C2.81491477,0.240613675 3.1723817,0.169280151 3.45835524,0.383280725 L3.45835524,0.383280725 L6.24659727,2.02395179 C6.31809065,2.02395179 6.38958404,2.16661884 6.46107742,2.23795237 L6.46107742,2.23795237 L8.10542529,5.01995983 L9.96425331,6.87463147 L11.1081475,5.73329507 C10.6791872,4.16395753 11.1081475,2.45195294 12.2520416,1.31061654 Z" id="Path-2" fill="#a6adb2"></path>
    </g>
</svg>