<?xml version="1.0" encoding="UTF-8"?>
<svg width="20px" height="20px" viewBox="0 0 20 20" version="1.1" xmlns="http://www.w3.org/2000/svg" xmlns:xlink="http://www.w3.org/1999/xlink">
    <!-- Generator: Sketch 61.2 (89653) - https://sketch.com -->
    <title>Dark / 20 / Menu Users@svg</title>
    <desc>Created with Sketch.</desc>
    <g id="Dark-/-20-/-Menu-Users" stroke="none" stroke-width="1" fill="none" fill-rule="evenodd">
        <path d="M10,12.9411765 C14.2536667,12.9411765 17,15.2941176 17,17.6470588 C17,18.8235294 14.1043333,20 10,20 C5.625,20 3,18.8235294 3,17.6470588 C3,15.2941176 5.625,12.9411765 10,12.9411765 Z M10,0 C11.6111667,0 13.0695,0.658823529 14.1253333,1.72352941 C15.18,2.78705882 15.8333333,4.25764706 15.8333333,5.88235294 C15.8333333,7.50705882 15.18,8.97764706 14.1253333,10.0411765 C13.0695,11.1058824 11.6111667,11.7647059 10,11.7647059 C8.38883333,11.7647059 6.9305,11.1058824 5.87466667,10.0411765 C4.82,8.97764706 4.16666667,7.50705882 4.16666667,5.88235294 C4.16666667,4.25764706 4.82,2.78705882 5.87466667,1.72352941 C6.9305,0.658823529 8.38883333,0 10,0 Z" id="Path-2" fill="#a6adb2"></path>
    </g>
</svg>