<?xml version="1.0" encoding="UTF-8"?>
<svg width="20px" height="20px" viewBox="0 0 20 20" version="1.1" xmlns="http://www.w3.org/2000/svg" xmlns:xlink="http://www.w3.org/1999/xlink">
    <!-- Generator: Sketch 61.2 (89653) - https://sketch.com -->
    <title>Dark / 20 / Menu Warp Update@svg</title>
    <desc>Created with Sketch.</desc>
    <g id="Dark-/-20-/-Menu-Warp-Update" stroke="none" stroke-width="1" fill="none" fill-rule="evenodd">
        <path d="M10,0 C15.4050388,0 20,1.5951272 20,5.39448104 L20,14.605519 C20,18.1679516 15.9602388,19.79249 11.0007789,19.9812441 L11,12.459 L14.2928932,15.7516014 L14.3871006,15.83479 C14.7793918,16.1398149 15.3466228,16.1120854 15.7071068,15.7516014 C16.0976311,15.3610771 16.0976311,14.7279121 15.7071068,14.3373878 L15.7071068,14.3373878 L10.7071068,9.33738785 L10.6128994,9.25419924 C10.2206082,8.94917435 9.65337718,8.97690389 9.29289322,9.33738785 L9.29289322,9.33738785 L4.29289322,14.3373878 L4.20970461,14.4315952 C3.90467972,14.8238864 3.93240926,15.3911174 4.29289322,15.7516014 L4.29289322,15.7516014 L4.38710056,15.83479 C4.77939176,16.1398149 5.34662282,16.1120854 5.70710678,15.7516014 L5.70710678,15.7516014 L9,12.459 L9.00022065,19.9812821 C4.04030399,19.7927082 0,18.168191 0,14.605519 L0,5.39448104 C0,1.5951272 4.59496118,0 10,0 L10,0 Z M10.6128994,3.20970461 C10.2206082,2.90467972 9.65337718,2.93240926 9.29289322,3.29289322 L9.29289322,3.29289322 L4.29289322,8.29289322 L4.20970461,8.38710056 C3.90467972,8.77939176 3.93240926,9.34662282 4.29289322,9.70710678 L4.29289322,9.70710678 L4.38710056,9.79029539 C4.77939176,10.0953203 5.34662282,10.0675907 5.70710678,9.70710678 L5.70710678,9.70710678 L10,5.415 L14.2928932,9.70710678 L14.3871006,9.79029539 C14.7793918,10.0953203 15.3466228,10.0675907 15.7071068,9.70710678 C16.0976311,9.31658249 16.0976311,8.68341751 15.7071068,8.29289322 L15.7071068,8.29289322 L10.7071068,3.29289322 Z" id="Mask" fill="#a6adb2"></path>
    </g>
</svg>