<?xml version="1.0" encoding="UTF-8"?>
<svg width="20px" height="20px" viewBox="0 0 20 20" version="1.1" xmlns="http://www.w3.org/2000/svg" xmlns:xlink="http://www.w3.org/1999/xlink">
    <!-- Generator: Sketch 61.2 (89653) - https://sketch.com -->
    <title>Dark / 20 / Menu Workspace@svg</title>
    <desc>Created with Sketch.</desc>
    <g id="Dark-/-20-/-Menu-Workspace" stroke="none" stroke-width="1" fill="none" fill-rule="evenodd">
        <path d="M5,9 L1,9 C0.44771525,9 0,8.55228475 0,8 L0,8 L0,1 C0,0.44771525 0.44771525,0 1,0 L1,0 L11,0 C11.5522847,0 12,0.44771525 12,1 L12,1 L12,8 C12,8.55228475 11.5522847,9 11,9 L11,9 L7,9 L7,10 L19,10 C19.5128358,10 19.9355072,10.3860402 19.9932723,10.8833789 L20,11 L20,19 C20,19.5522847 19.5522847,20 19,20 C18.4871642,20 18.0644928,19.6139598 18.0067277,19.1166211 L18,19 L18,16 L18,16 L12,16 C11.4477153,16 11,15.5522847 11,15 L11,12 L2,12 L2,19 C2,19.5128358 1.61395981,19.9355072 1.11662113,19.9932723 L1,20 C0.487164161,20 0.0644928393,19.6139598 0.00672773133,19.1166211 L0,19 L0,11 C0,10.4871642 0.38604019,10.0644928 0.883378875,10.0067277 L1,10 L5,10 L5,9 Z M14,12 C13.4477153,12 13,12.4477153 13,13 C13,13.5522847 13.4477153,14 14,14 C14.5522847,14 15,13.5522847 15,13 C15,12.4477153 14.5522847,12 14,12 Z M10,2 L2,2 L2,7 L10,7 L10,2 Z" id="Rectangle-2" fill="#a6adb2"></path>
    </g>
</svg>