<?xml version="1.0" encoding="UTF-8"?>
<svg width="20px" height="20px" viewBox="0 0 20 20" version="1.1" xmlns="http://www.w3.org/2000/svg" xmlns:xlink="http://www.w3.org/1999/xlink">
    <!-- Generator: Sketch 61.2 (89653) - https://sketch.com -->
    <title>Dark / 20 / dotted corner@svg</title>
    <desc>Created with Sketch.</desc>
    <g id="Dark-/-20-/-dotted-corner" stroke="none" stroke-width="1" fill="none" fill-rule="evenodd">
        <path d="M9,1 L9,3 C9,3.55228475 9.44771525,4 10,4 C10.5522847,4 11,3.55228475 11,3 L11,1 C11,0.44771525 10.5522847,-8.8817842e-16 10,-8.8817842e-16 C9.44771525,-8.8817842e-16 9,0.44771525 9,1 Z M9,6 L9,8 C9,8.55228475 9.44771525,9 10,9 C10.5522847,9 11,8.55228475 11,8 L11,6 C11,5.44771525 10.5522847,5 10,5 C9.44771525,5 9,5.44771525 9,6 Z M11.9475734,11.0046923 L12.1206389,11.0088292 L14.0125056,11 C14.5647843,10.997423 15.0104053,10.5476233 15.0078502,9.9953446 C15.0052507,9.44306587 14.555451,8.99744483 14.0031722,9.00002215 L12.0524764,9.00744533 C11.5009519,8.97847716 11.0303696,9.40209278 11.0014014,9.9536173 C10.9724333,10.5051418 11.3960489,10.9757241 11.9475734,11.0046923 Z M17.0046669,11.0093338 L19.0046451,10.9999893 C19.5569239,10.997412 20.0025449,10.5476123 19.9999787,9.99533358 C19.9973902,9.44305484 19.5475905,8.9974338 18.9953118,9 L16.9953336,9.00934444 C16.4430548,9.01192177 15.9974338,9.46172148 16,10.0140002 C16.0025884,10.5662789 16.4523882,11.0119 17.0046669,11.0093338 Z" id="Path-53" fill="#C1CCDC" fill-rule="nonzero"></path>
    </g>

    <circle fill="#111" class="st0" cx="10" cy="10" r="5"/>
    <rect x="7" y="9" width="6px" height="2px" fill="#FFF" ></rect>
    <rect x="9" y="7" width="2px" height="6px" fill="#FFF" ></rect>
</svg>