<?xml version="1.0" encoding="UTF-8"?>
<svg width="20px" height="20px" viewBox="0 0 20 20" version="1.1" xmlns="http://www.w3.org/2000/svg" xmlns:xlink="http://www.w3.org/1999/xlink">
    <!-- Generator: Sketch 61.2 (89653) - https://sketch.com -->
    <title>Dark / 20 / dotted straight@svg</title>
    <desc>Created with Sketch.</desc>
    <g id="Dark-/-20-/-dotted-straight" stroke="none" stroke-width="1" fill="none" fill-rule="evenodd">
        <path d="M9,1 L9,3 C9,3.55228475 9.44771525,4 10,4 C10.5522847,4 11,3.55228475 11,3 L11,1 C11,0.44771525 10.5522847,0 10,0 C9.44771525,0 9,0.44771525 9,1 Z M9,6 L9,8 C9,8.55228475 9.44771525,9 10,9 C10.5522847,9 11,8.55228475 11,8 L11,6 C11,5.44771525 10.5522847,5 10,5 C9.44771525,5 9,5.44771525 9,6 Z M9,11 L9,13 C9,13.5522847 9.44771525,14 10,14 C10.5522847,14 11,13.5522847 11,13 L11,11 C11,10.4477153 10.5522847,10 10,10 C9.44771525,10 9,10.4477153 9,11 Z M9,16 L9,18 C9,18.5522847 9.44771525,19 10,19 C10.5522847,19 11,18.5522847 11,18 L11,16 C11,15.4477153 10.5522847,15 10,15 C9.44771525,15 9,15.4477153 9,16 Z" id="Path-53" fill="#C1CCDC" fill-rule="nonzero"></path>
    </g>
</svg>